<svg width="209" height="33" viewBox="0 0 209 33" fill="none" xmlns="http://www.w3.org/2000/svg">
<g clip-path="url(#clip0)">
<path d="M125.812 2.44735C126.24 2.41557 126.586 2.36613 126.927 2.36613C130.991 2.36613 135.058 2.39793 139.125 2.33789C140.132 2.33789 140.687 2.69104 141.216 3.51392C145.459 10.1888 149.727 16.8448 154.021 23.482C154.369 24.0224 154.533 24.8453 155.432 24.8947C156.06 24.3862 155.823 23.6869 155.823 23.0794C155.823 16.9025 155.823 10.7186 155.823 4.54519V2.66278C157.217 2.30961 162.068 2.26017 163.95 2.57802V32.3889C163.372 32.4242 162.863 32.4772 162.354 32.4808C158.58 32.4808 154.805 32.4384 151.031 32.509C149.915 32.5302 149.26 32.2053 148.643 31.2305C144.461 24.651 140.234 18.1139 136.009 11.5697C135.709 11.0711 135.369 10.5986 134.992 10.157C134.922 10.0807 134.832 10.0262 134.733 10.0001C134.633 9.97392 134.529 9.9772 134.431 10.0095C134.333 10.0419 134.247 10.1019 134.182 10.1825C134.117 10.2631 134.076 10.3609 134.065 10.4643C134.012 10.9332 133.995 11.4054 134.012 11.877V32.4031H125.906C125.617 31.0963 125.519 5.30095 125.812 2.44735Z" fill="black"/>
<path d="M168.276 2.36609C168.408 2.26367 168.453 2.19658 168.499 2.19658C174.974 2.0871 181.369 2.58858 187.51 4.87711C196.669 8.28518 201.932 15.0024 203.654 24.6545C204.034 26.7735 204.128 28.9737 204.351 31.1351C204.358 31.5658 204.336 31.9965 204.285 32.4242H194.676C194.676 31.1069 194.746 29.8778 194.676 28.6594C194.589 26.726 194.384 24.7999 194.062 22.8922C193.069 17.8737 190.03 14.6811 185.203 13.2331C182.6 12.4299 179.873 12.1187 177.159 12.3148C177.079 16.906 176.999 21.3877 176.915 26.0495H191.121C191.267 28.2251 191.194 30.2487 191.177 32.2476C189.866 32.6008 170.645 32.7138 168.269 32.3854L168.276 2.36609Z" fill="black"/>
<path d="M13.139 26.0778H27.0414C27.4143 24.7569 27.4317 14.2149 27.0414 12.2266C22.6535 12.163 18.3946 12.6892 14.7038 15.4051C11.6368 17.6724 10.3438 20.978 9.91167 24.6545C9.67468 26.6923 9.66074 28.7583 9.54573 30.8103C9.51436 31.3223 9.48648 31.838 9.45511 32.4242H0.0450911C0.0241799 32.0075 -0.0211182 31.619 -0.0106627 31.2376C0.0311492 28.0031 0.466592 24.7861 1.28582 21.6597C3.72545 13.0035 9.28086 7.40583 17.6174 4.5487C21.3615 3.28086 25.2619 2.54862 29.2057 2.37317C31.3979 2.26369 33.5901 2.16127 35.5941 2.06592C35.7091 2.15158 35.8186 2.2448 35.9217 2.34493C35.9597 2.38814 35.9829 2.44263 35.9879 2.50031C36.0134 12.2054 36.0332 21.9093 36.0471 31.6119C36.0377 31.8324 36.0133 32.0518 35.974 32.2688C34.5799 32.5796 15.0314 32.622 13.125 32.3324L13.139 26.0778Z" fill="black"/>
<path d="M67.1735 20.911H75.4125C75.4892 23.3266 75.6844 25.6611 75.064 27.9743C74.5482 29.8567 73.4434 31.2764 71.5579 31.8027C69.9469 32.2732 68.2958 32.5889 66.6264 32.7456C60.949 33.2048 55.2612 32.9611 49.5768 32.7456C48.2489 32.6469 46.9315 32.4354 45.6385 32.1134C42.7458 31.4919 41.1322 29.5989 40.6617 26.6923C40.4587 25.5351 40.3422 24.3639 40.3132 23.1889C40.2713 19.4241 40.2435 15.6558 40.3306 11.8875C40.3881 10.3043 40.5947 8.73031 40.9475 7.18689C41.3901 5.13498 42.7632 3.83887 44.6766 3.09368C46.59 2.3485 48.5278 2.22132 50.4864 2.1295C55.878 1.87169 61.2905 1.59978 66.6682 2.07302C67.9351 2.19183 69.1918 2.40307 70.4287 2.70517C72.8265 3.28789 74.2276 4.94778 74.6493 7.33872C74.9664 9.10456 75.0152 10.941 75.1755 12.6928C73.8233 13.1413 69.5609 13.2402 66.9156 12.947C66.8494 12.8552 66.7414 12.7705 66.7274 12.6751C66.3057 9.84978 66.1628 9.81443 63.5908 9.63431C59.8246 9.41357 56.0496 9.39237 52.2813 9.57077C50.0194 9.652 49.2422 10.5914 48.9286 12.8587C48.5017 15.9485 48.4911 19.0827 48.8972 22.1753C49.1168 23.8493 49.9427 24.877 51.6052 25.1455C52.2295 25.2685 52.8621 25.3429 53.4976 25.368C56.6343 25.3927 59.771 25.368 62.9077 25.368H63.2562C66.6298 25.1666 66.8424 24.2661 67.0899 21.748C67.0864 21.5114 67.1247 21.2818 67.1735 20.911Z" fill="black"/>
<path d="M108.776 9.96285H97.8362C97.5364 11.9406 97.7177 13.8089 97.6863 15.663C97.6549 17.5171 97.6863 19.3112 97.6863 21.1336V32.1983C96.3236 32.5514 90.7612 32.6115 88.7956 32.283V10.0088H77.9078C77.5105 8.62788 77.4548 4.55941 77.7719 2.47925H108.79L108.776 9.96285Z" fill="black"/>
<path d="M121.375 32.4173H112.976C112.662 31.0859 112.547 16.274 112.829 12.3574C114.224 12.3574 115.656 12.3186 117.081 12.3115C118.507 12.3044 119.852 12.3115 121.211 12.3115C121.574 13.6606 121.685 29.094 121.375 32.4173Z" fill="black"/>
<path d="M121.382 9.81451C121.14 9.87505 120.893 9.91641 120.644 9.93815C118.099 9.93815 115.555 9.93815 112.795 9.93815C112.774 8.65968 112.746 7.46595 112.736 6.25106C112.725 5.03616 112.736 3.80714 112.736 2.36621C115.663 2.36621 118.465 2.36621 121.386 2.36621L121.382 9.81451Z" fill="black"/>
<path d="M208.993 5.37165C208.988 6.05481 208.851 6.73031 208.588 7.3596C208.326 7.98889 207.944 8.55964 207.464 9.03926C206.983 9.51888 206.415 9.898 205.79 10.1549C205.165 10.4119 204.497 10.5416 203.823 10.5367C203.149 10.5319 202.482 10.3925 201.861 10.1266C201.24 9.86064 200.677 9.47335 200.203 8.98684C199.73 8.50033 199.356 7.92412 199.102 7.2911C198.849 6.65808 198.721 5.98066 198.726 5.2975C198.726 2.35208 201.068 -0.0847985 203.898 0.0211518C207.198 0.127102 209.157 2.80412 208.993 5.37165ZM199.419 5.33281C199.419 5.93242 199.536 6.52611 199.764 7.07925C199.993 7.63239 200.328 8.13386 200.75 8.55439C201.171 8.97491 201.672 9.30607 202.221 9.52849C202.771 9.75091 203.358 9.86016 203.95 9.84984C205.112 9.80829 206.213 9.31586 207.027 8.47446C207.84 7.63306 208.303 6.50704 208.32 5.32927C208.32 4.13316 207.852 2.98602 207.017 2.14024C206.182 1.29446 205.05 0.819314 203.87 0.819314C202.689 0.819314 201.557 1.29446 200.723 2.14024C199.888 2.98602 199.419 4.13316 199.419 5.32927V5.33281Z" fill="black"/>
<path d="M201.692 2.39795C202.64 2.39795 203.493 2.39795 204.347 2.39795C205.1 2.39795 205.762 2.57456 206.034 3.35153C206.192 3.70486 206.208 4.10687 206.078 4.47178C205.948 4.83668 205.682 5.13556 205.337 5.30456C205.225 5.40057 205.124 5.5096 205.037 5.62944L206.574 8.18284C206.034 8.02038 205.71 8.02041 205.571 7.85795C205.249 7.44384 204.957 7.00715 204.696 6.55121C204.166 5.72479 203.469 5.35044 202.396 5.75658C202.329 6.48764 202.26 7.26107 202.176 8.22875C201.5 7.20457 201.448 6.43113 201.692 2.39795ZM202.417 3.0372V4.90194C203.145 4.90194 203.769 4.92666 204.386 4.90194C205.003 4.87722 205.396 4.577 205.393 3.94836C205.389 3.31972 204.901 3.07606 204.347 3.04781C203.73 3.01249 203.128 3.0372 202.43 3.0372H202.417Z" fill="black"/>
</g>
<defs>
<clipPath id="clip0">
<rect width="209" height="33" fill="white"/>
</clipPath>
</defs>
</svg>
