<svg width="275" height="105" viewBox="0 0 275 105" fill="none" xmlns="http://www.w3.org/2000/svg">
<g clip-path="url(#clip0)">
<path d="M5.53003 10.6899L5.11002 8.80005H2.77002L2.36002 10.6899H0.0100098L2.54001 0.310059H5.48001L7.99002 10.6899H5.53003ZM3.98001 2.56982H3.92001L3.04001 6.97998H4.81003L3.98001 2.56982Z" fill="black"/>
<path d="M13.4901 10.66L11.2801 5.84003H11.2401V10.66H8.87012V0.280029H11.2401V4.61003H11.2801L13.4201 0.280029H16.0501L13.3801 5.03003L16.2101 10.66H13.4901Z" fill="black"/>
<path d="M22.2299 10.6899L21.8 8.80005H19.4699L19.0399 10.6899H16.6899L19.2199 0.310059H22.17L24.68 10.6899H22.2299ZM20.67 2.56982H20.61L19.7299 6.97998H21.5099L20.67 2.56982Z" fill="black"/>
<path d="M32.8001 5.49998C32.8061 6.21825 32.7186 6.93413 32.5401 7.62987C32.3912 8.2197 32.126 8.77399 31.7601 9.25999C31.3968 9.69252 30.9381 10.0348 30.4201 10.26C29.8086 10.5122 29.1514 10.6347 28.4901 10.6199H25.5701V0.239973H28.4901C29.1514 0.225139 29.8086 0.347588 30.4201 0.599836C30.9449 0.836659 31.4046 1.19695 31.7601 1.64988C32.1279 2.14213 32.3931 2.70336 32.5401 3.30003C32.7199 4.00574 32.8073 4.73172 32.8001 5.45994V5.49998ZM30.4401 5.45994C30.4952 4.63417 30.3075 3.81019 29.9001 3.08983C29.7594 2.84809 29.5581 2.64734 29.3161 2.50706C29.0741 2.36678 28.7998 2.29201 28.5201 2.29002H27.9401V8.56981H28.5201C28.7998 8.56782 29.0741 8.49305 29.3161 8.35277C29.5581 8.21249 29.7594 8.01173 29.9001 7.77C30.3032 7.06982 30.491 6.26628 30.4401 5.45994Z" fill="black"/>
<path d="M34.1301 10.66V0.280029H39.1501V2.35003H36.3701V4.39003H38.9301V6.32003H36.3701V8.55003H39.3201V10.66H34.1301Z" fill="black"/>
<path d="M47.8802 10.66L47.9702 3.54003H47.9102L46.1602 10.66H44.5102L42.8202 3.54003H42.7802L42.8502 10.66H40.7202V0.280029H43.6902L45.3602 6.97003H45.4202L47.0502 0.280029H50.1902V10.66H47.8802Z" fill="black"/>
<path d="M54.2902 0.280029H51.9302V10.67H54.2902V0.280029Z" fill="black"/>
<path d="M61.4301 10.5401C60.8894 10.8273 60.2819 10.9652 59.6701 10.94C59.095 10.9501 58.5268 10.8125 58.0201 10.5401C57.5169 10.2642 57.0827 9.87774 56.7501 9.41C56.3733 8.88696 56.0923 8.30123 55.9201 7.68002C55.7221 6.96024 55.6245 6.21657 55.6301 5.47006C55.6244 4.71697 55.722 3.96667 55.9201 3.24008C56.0903 2.6181 56.3715 2.03203 56.7501 1.5101C57.0831 1.04529 57.5173 0.662183 58.0201 0.38998C58.5293 0.125152 59.0963 -0.00876468 59.6701 8.76652e-05C60.2717 -0.0211397 60.8692 0.105799 61.4101 0.369961C61.8437 0.599262 62.2251 0.916095 62.5301 1.30014L61.2601 3.0101C61.1022 2.78642 60.9017 2.59606 60.6701 2.45004C60.4191 2.30248 60.1312 2.22967 59.8401 2.24008C59.5507 2.23704 59.2675 2.32444 59.0301 2.49008C58.7883 2.67322 58.5873 2.90476 58.4401 3.17001C58.2722 3.48411 58.151 3.82097 58.0801 4.17001C57.9982 4.58833 57.958 5.01377 57.9601 5.44003C57.9575 5.863 57.9977 6.28516 58.0801 6.70004C58.151 7.04907 58.2722 7.38594 58.4401 7.70004C58.5842 7.97329 58.7895 8.2094 59.0401 8.38998C59.2784 8.56153 59.5667 8.64944 59.8601 8.63998C60.1514 8.64478 60.4374 8.5611 60.6801 8.39999C60.9013 8.25545 61.0916 8.06846 61.2401 7.84994L62.5401 9.47006C62.2466 9.87961 61.868 10.2208 61.4301 10.4701" fill="black"/>
<path d="M68.11 10.66L65.9 5.84003H65.85V10.66H63.49V0.280029H65.85V4.61003H65.9L68.04 0.280029H70.67L67.99 5.03003L70.83 10.66H68.11Z" fill="black"/>
<path d="M74.12 0.280029H71.76V10.67H74.12V0.280029Z" fill="black"/>
<path d="M75.8601 10.66V0.280029H80.8801V2.35003H78.1101V4.39003H80.6601V6.32003H78.1101V8.55003H81.0601V10.66H75.8601Z" fill="black"/>
<path d="M4.68011 24.5101L3.2901 20.38H2.6001V24.5101H0.360107V14.13H3.68011C4.53203 14.0745 5.37184 14.3545 6.02011 14.91C6.31556 15.2199 6.54293 15.5883 6.68759 15.9913C6.83225 16.3943 6.89101 16.823 6.86011 17.2501C6.86351 17.5878 6.81975 17.9244 6.7301 18.2501C6.64978 18.5249 6.532 18.7874 6.3801 19.0301C6.25005 19.2287 6.09171 19.4073 5.9101 19.5601C5.75348 19.6786 5.58204 19.7759 5.40012 19.8499L7.1701 24.48L4.68011 24.5101ZM4.5401 17.38C4.54566 17.1615 4.50831 16.9441 4.43011 16.7401C4.36443 16.5868 4.26534 16.45 4.14011 16.3399C4.02558 16.2488 3.89246 16.184 3.75012 16.15C3.61362 16.1104 3.47223 16.0902 3.33011 16.0899H2.6001V18.69H3.2901C3.60925 18.692 3.91832 18.5783 4.1601 18.3699C4.29349 18.2418 4.39678 18.0856 4.46249 17.9127C4.52821 17.7397 4.5547 17.5544 4.5401 17.3699" fill="black"/>
<path d="M13.2302 24.51L12.8002 22.6199H10.4702L10.0402 24.51H7.69019L10.2202 14.1299H13.1702L15.6802 24.51H13.2302ZM11.6702 16.3899H11.6102L10.7302 20.8H12.5102L11.6702 16.3899Z" fill="black"/>
<path d="M23.8001 19.3498C23.8061 20.0681 23.7186 20.7842 23.5401 21.48C23.3912 22.0698 23.126 22.6238 22.7601 23.1098C22.3997 23.5454 21.9402 23.8883 21.4201 24.1098C20.8093 24.3655 20.1521 24.4916 19.4901 24.48H16.5701V14.0898H19.4901C20.1514 14.075 20.8086 14.1977 21.4201 14.4499C21.9396 14.6725 22.3989 15.0152 22.7601 15.4499C23.1261 15.9433 23.3911 16.5039 23.5401 17.0998C23.7199 17.8055 23.8073 18.5318 23.8001 19.26V19.3498ZM21.4401 19.26C21.4941 18.4343 21.3064 17.6107 20.9001 16.8899C20.7594 16.6481 20.5581 16.4474 20.3161 16.3071C20.0741 16.1668 19.7998 16.0918 19.5201 16.0898H18.9401V22.3699H19.5201C19.8002 22.3699 20.0753 22.296 20.3177 22.1555C20.56 22.015 20.7609 21.8129 20.9001 21.5698C21.3032 20.8696 21.491 20.0663 21.4401 19.26Z" fill="black"/>
<path d="M27.4801 14.1299H25.1201V24.5199H27.4801V14.1299Z" fill="black"/>
<path d="M36.83 19.2899C36.8394 20.0492 36.7452 20.8061 36.55 21.5399C36.393 22.1626 36.1254 22.7519 35.76 23.2799C35.4344 23.7438 35.0068 24.1268 34.51 24.3998C33.9936 24.6643 33.4202 24.7984 32.84 24.7899C32.263 24.7984 31.6929 24.6643 31.18 24.3998C30.6784 24.1299 30.2469 23.7465 29.92 23.2799C29.5586 22.7497 29.2913 22.161 29.13 21.5399C28.9348 20.8061 28.8406 20.0492 28.85 19.2899C28.8418 18.538 28.9326 17.7882 29.12 17.0599C29.2751 16.4428 29.5429 15.8595 29.91 15.3397C30.2336 14.8792 30.662 14.5023 31.16 14.2399C31.68 13.9753 32.2567 13.8413 32.84 13.8497C33.4202 13.8413 33.9936 13.9754 34.51 14.2399C35.008 14.5023 35.4364 14.8792 35.76 15.3397C36.1271 15.8595 36.395 16.4428 36.55 17.0599C36.7459 17.7868 36.8401 18.5372 36.83 19.2899ZM34.43 19.2899C34.4313 18.8708 34.3945 18.4524 34.32 18.0399C34.2655 17.6946 34.1646 17.3582 34.02 17.0399C33.9104 16.7847 33.7426 16.5585 33.53 16.3798C33.34 16.212 33.0934 16.1226 32.84 16.1298C32.5867 16.1226 32.34 16.212 32.15 16.3798C31.9315 16.5552 31.7597 16.7821 31.65 17.0399C31.5054 17.3582 31.4045 17.6946 31.35 18.0399C31.2876 18.4536 31.2576 18.8716 31.26 19.2899C31.258 19.7116 31.288 20.1328 31.35 20.5499C31.4059 20.8949 31.5068 21.2311 31.65 21.5499C31.7624 21.809 31.9336 22.0383 32.15 22.2199C32.34 22.3876 32.5867 22.477 32.84 22.4699C33.0934 22.477 33.34 22.3876 33.53 22.2199C33.7405 22.0351 33.9078 21.8065 34.02 21.5499C34.1633 21.2311 34.2641 20.8949 34.32 20.5499C34.394 20.134 34.4308 19.7124 34.43 19.2899Z" fill="black"/>
<path d="M232.05 100.56C231.635 100.568 231.224 100.479 230.85 100.3C230.517 100.125 230.224 99.8835 229.99 99.5898C229.751 99.2706 229.577 98.907 229.48 98.5199C229.366 98.0893 229.309 97.6454 229.31 97.1999C229.302 96.6652 229.39 96.1333 229.57 95.6298C229.731 95.1997 229.979 94.8081 230.3 94.4799C230.608 94.17 230.98 93.9311 231.39 93.7799C231.82 93.6252 232.273 93.5474 232.73 93.55C233.188 93.5457 233.642 93.6271 234.07 93.79C234.477 93.9453 234.846 94.1876 235.15 94.4999C235.467 94.8239 235.709 95.2128 235.86 95.6398C236.039 96.1401 236.128 96.6685 236.12 97.1999C236.125 97.7826 236.041 98.3626 235.87 98.9198C235.703 99.424 235.493 99.9126 235.24 100.38L233.24 104.16H230.55L232.55 100.47C232.471 100.507 232.387 100.531 232.3 100.54H232L232.05 100.56ZM231.52 97.2099C231.5 97.6402 231.604 98.0672 231.82 98.4399C231.91 98.5793 232.032 98.6943 232.177 98.7746C232.322 98.8549 232.484 98.8979 232.65 98.8998C232.817 98.8968 232.98 98.8523 233.125 98.7702C233.27 98.6881 233.392 98.5711 233.48 98.4298C233.713 98.067 233.829 97.6409 233.81 97.2099C233.828 96.7835 233.717 96.3616 233.49 95.9999C233.401 95.8605 233.278 95.7455 233.133 95.6652C232.988 95.5849 232.826 95.5419 232.66 95.54C232.495 95.5379 232.332 95.5793 232.188 95.6601C232.045 95.7408 231.924 95.858 231.84 95.9999C231.607 96.3586 231.495 96.7827 231.52 97.2099Z" fill="black"/>
<path d="M239.65 104.16V96.4999L238.1 97.6699L237.06 95.8499L239.9 93.7699H241.96V104.16H239.65Z" fill="black"/>
<path d="M246.64 102.97C246.646 103.316 246.521 103.652 246.29 103.91C246.175 104.033 246.035 104.13 245.88 104.196C245.725 104.261 245.558 104.293 245.39 104.29C245.221 104.295 245.054 104.264 244.898 104.199C244.743 104.133 244.604 104.034 244.49 103.91C244.261 103.651 244.14 103.315 244.15 102.97C244.142 102.625 244.263 102.29 244.49 102.03C244.601 101.901 244.739 101.798 244.895 101.729C245.051 101.66 245.22 101.626 245.39 101.63C245.56 101.628 245.728 101.663 245.884 101.732C246.039 101.801 246.178 101.903 246.29 102.03C246.52 102.289 246.644 102.624 246.64 102.97Z" fill="black"/>
<path d="M251.77 97.23C252.183 97.2186 252.592 97.3115 252.96 97.5C253.294 97.6681 253.585 97.911 253.81 98.21C254.04 98.5372 254.209 98.9031 254.31 99.29C254.429 99.7266 254.486 100.177 254.48 100.63C254.491 101.174 254.406 101.715 254.23 102.23C254.082 102.665 253.843 103.064 253.53 103.4C253.231 103.718 252.866 103.967 252.46 104.13C252.03 104.297 251.572 104.382 251.11 104.38C250.639 104.382 250.171 104.297 249.73 104.13C249.32 103.974 248.949 103.732 248.64 103.42C248.327 103.082 248.086 102.684 247.93 102.25C247.754 101.746 247.67 101.214 247.68 100.68C247.672 100.098 247.753 99.5177 247.92 98.96C248.086 98.4538 248.3 97.965 248.56 97.5L250.56 93.77H253.25L251.25 97.3198C251.325 97.2821 251.406 97.2585 251.49 97.25H251.79L251.77 97.23ZM252.24 100.63C252.26 100.196 252.156 99.7663 251.94 99.3899C251.859 99.2413 251.739 99.1179 251.593 99.0332C251.446 98.9485 251.279 98.9059 251.11 98.9099C250.943 98.914 250.779 98.9601 250.634 99.0439C250.489 99.1278 250.367 99.2468 250.28 99.3899C250.048 99.7608 249.933 100.193 249.95 100.63C249.933 101.064 250.048 101.493 250.28 101.86C250.366 102.002 250.486 102.12 250.629 102.204C250.773 102.287 250.934 102.334 251.1 102.34C251.268 102.336 251.431 102.29 251.576 102.206C251.721 102.122 251.843 102.003 251.93 101.86C252.151 101.489 252.259 101.061 252.24 100.63Z" fill="black"/>
<path d="M258 95.8799V98.0099H260.48V100.02H258.01V104.16H255.64V93.7699H260.7V95.8799H258Z" fill="black"/>
<path d="M269.03 104.16L269.12 97.0299H269.06L267.32 104.16H265.66L263.97 97.0299H263.93L264 104.16H261.87V93.7699H264.84L266.51 100.46H266.57L268.2 93.7699H271.34V104.16H269.03Z" fill="black"/>
<path d="M208.42 41.88H191.07V14.12H177.21V55.73H222.28V14.12H208.42V41.88Z" fill="#FC5000"/>
<path d="M252.55 73.0699L274.48 41.8799H229.41V55.7299H247.59L225.76 86.9299H274.49V73.0699H252.55Z" fill="#FC5000"/>
<path d="M14.2001 38.3899H0.350098V83.4599H180.68V69.5999H14.2001V38.3899Z" fill="#FC5000"/>
</g>
<defs>
<clipPath id="clip0">
<rect width="274.49" height="104.38" fill="white"/>
</clipPath>
</defs>
</svg>
