<svg width="206" height="203" viewBox="0 0 206 203" fill="none" xmlns="http://www.w3.org/2000/svg">
<path fill-rule="evenodd" clip-rule="evenodd" d="M108.528 185.212C108.528 180.263 109.448 171.106 120.752 171.106H152.371C168.342 171.106 178.211 165.337 178.211 153.655V27.5728L28.8696 27.5525V153.943C28.8696 164.311 40.601 171.702 53.1462 171.107H87.6773C100.329 171.702 100.629 180.12 100.48 185.212H108.528V185.212Z" fill="#249821"/>
<path fill-rule="evenodd" clip-rule="evenodd" d="M105.9 183.16C105.9 178.274 107.442 169.403 120.179 169.403H155.181C164.087 169.403 176.118 162.895 176.118 155.935V31.7627H31.4436V156.674C34.4191 163.326 42.319 169.403 53.5365 169.403H88.5381C100.676 169.403 103.438 177.678 103.588 183.16H105.9Z" fill="#249821"/>
<path fill-rule="evenodd" clip-rule="evenodd" d="M116.672 162.557C124.101 157.506 126.07 152.887 124.679 146.911C122.773 141.02 117.122 137.652 111.192 133.033C108.644 131.35 105.197 129.419 102.757 128.167C99.8244 126.915 98.8395 123.363 100.295 120.715C102.907 117.614 109.222 118.99 113.29 120.365C113.247 120.263 118.706 123.445 118.728 123.302L125.3 111.27C123.223 110.162 119.456 116.055 117.464 116.567C113.332 117.45 110.293 116.28 106.332 115.5C99.9955 114.288 95.093 114.596 89.6339 117.162C86.4227 119.072 86.6371 119.298 84.6459 121.802C83.7252 123.958 83.4258 126.976 84.0252 129.707C85.2667 133.033 86.4874 134.286 89.3559 136.585L105.497 148.308C108.11 150.464 109.608 152.579 109.651 155.618C109.222 158.329 107.188 160.135 104.213 161.161C102.351 161.716 96.8483 161.448 92.3533 158.657C84.0252 153.42 84.0252 149.355 83.876 145.003L68.1202 144.962C69.3189 149.274 69.2975 151.101 66.429 155.536C66.622 155.207 64.5453 157.63 65.2516 158.574C66.7075 159.026 67.3069 157.979 67.9491 157.507C70.1541 154.88 71.31 152.538 73.6861 151.204C74.9063 150.464 77.2824 151.779 79.1238 153.709C83.7049 158.513 93.5312 163.994 97.2997 164.857C103.827 166.765 113.589 164.63 116.672 162.557Z" fill="white"/>
<path fill-rule="evenodd" clip-rule="evenodd" d="M47.7075 134.325C47.5578 132.415 49.2276 130.711 50.2338 129.007H58.7545C60.1243 130.794 61.6658 132.19 61.6658 134.325H76.8865L58.1973 104.103L40.1931 134.325H47.7075ZM158.219 134.407C159.846 131.903 161.473 129.377 163.099 126.852C159.888 129.172 155.221 129.768 150.854 129.377L162.221 108.95H135.804C134.476 111.967 133.128 114.985 131.779 117.982C135.354 114.41 138.116 113.589 142.248 113.691L131.179 134.408H158.219V134.407Z" fill="white"/>
<path fill-rule="evenodd" clip-rule="evenodd" d="M57.0774 125.325L54.7654 119.762L51.5547 125.325H57.0774Z" fill="#249821"/>
<path fill-rule="evenodd" clip-rule="evenodd" d="M114.769 44.4778C115.412 45.2994 122.112 43.6772 122.455 45.1555C123.183 48.0912 120.357 51.6228 117.788 51.9512C117.831 51.9924 115.005 52.5674 113.378 51.8282C113.913 53.8815 114.491 55.7085 115.133 57.8233C115.647 59.6915 117.424 62.8331 116.953 70.9836C116.653 78.3746 115.84 81.0231 113.57 86.1972C115.711 84.575 117.252 83.9798 119.393 84.267C116.567 87.4493 115.647 90.4674 115.561 93.7315C115.497 96.9754 116.032 99.2549 117.509 101.451C119.394 104.203 122.69 105.168 124.403 105.024C126.222 105.229 129.605 104.142 131.403 100.938C132.431 98.6596 132.516 97.0369 132.281 94.3065C132.132 92.3971 130.054 87.5311 128.663 85.6223L124.917 79.401C123.461 77.4097 122.305 71.8046 122.241 70.6959C122.155 68.9303 123.397 62.709 125.838 61.2516C128.599 59.6909 132.046 58.8084 135.3 58.7464C139.346 58.5207 145.019 59.7733 147.245 61.2516C149.3 62.1961 154.524 67.7392 157.564 72.2768L170.858 93.5058C174.004 98.0023 165.613 97.1604 160.561 95.8463C162.188 100.117 167.433 106.727 171.821 108.555V33.083H35.3887L35.4314 108.864C39.456 107.098 47.3986 98.6601 47.5697 95.8474C44.9578 98.6607 34.0616 98.0649 36.0522 94.2049L48.6615 72.77C52.0867 68.3351 54.7841 65.0709 59.1941 62.0116C62.962 59.6091 69.7481 58.1105 73.816 58.8502C76.9631 59.5273 81.6517 63.5108 82.7435 67.3708C83.6423 69.9578 82.658 75.7063 77.9908 82.379C75.3789 85.4586 73.238 88.6409 72.104 94.6157C71.8468 101.247 76.9203 104.902 79.7894 104.943C85.6334 105.025 88.9517 101.248 89.4227 94.8414C87.1963 96.0116 82.8932 95.5602 81.0523 94.5333C80.8171 94.0814 92.8479 73.5915 90.7931 77.3279C92.4843 72.5443 93.9402 68.8485 95.3314 64.2906C95.9308 58.9523 94.6251 54.1484 93.1264 52.1154C90.3434 48.1121 83.8995 49.1385 81.9731 49.9594C80.9026 46.8386 81.9944 42.5273 85.1843 41.9732C87.5818 41.234 90.6862 41.5421 92.634 42.5685C91.7988 40.351 92.1202 38.3186 94.5396 37.2302C97.2365 36.6552 100.619 38.5855 106.25 38.7288H124.617C125.795 38.8727 125.324 39.5295 124.939 40.3098C123.718 42.8557 120.978 43.7793 118.901 44.0468C117.788 44.1906 116.868 43.7799 115.904 42.8562C115.262 42.2395 113.506 43.2664 114.769 44.4778Z" fill="white"/>
<path fill-rule="evenodd" clip-rule="evenodd" d="M102.932 44.5443C101.455 44.1544 100.641 43.2917 99.7421 43.1687C99.2924 43.4147 98.9075 43.8052 98.9075 44.5234L102.932 44.5443Z" fill="white"/>
</svg>
