<svg width="258" height="41" viewBox="0 0 258 41" fill="none" xmlns="http://www.w3.org/2000/svg">
<g clip-path="url(#clip0)">
<path d="M-0.0049471 20.9067C-0.315876 10.6897 8.73403 1.5268 19.4187 1.56973C29.8536 1.60789 38.6633 10.4941 38.7716 20.8113C38.7642 26.0196 36.7229 31.0137 33.093 34.7041C29.4631 38.3945 24.5391 40.4819 19.3951 40.5108C8.37599 40.5442 -0.400674 31.2048 -0.0049471 20.9067ZM7.24063 22.4569H25.967L17.4494 31.0427C18.1938 31.7534 18.6413 32.4116 18.9287 32.5356L30.6639 21.0546L19.0324 9.36843L17.5437 11.0474C20.2101 13.8616 23.098 16.4374 26.0235 19.7906H7.25947L7.24063 22.4569Z" fill="#EB0333"/>
<path d="M70.1897 19.0512C71.7679 19.8478 73.0164 20.3868 73.9586 21.5268C77.0914 25.2998 75.9937 31.8344 72.9316 35.1924C70.6137 37.7347 67.6882 39.0083 64.3622 39.6236C60.8619 40.2485 57.3427 39.967 53.8283 39.9909C49.301 40.0243 44.769 39.9909 40.0061 39.9909L48.1091 1.02117C49.4894 0.472638 50.9922 0.792238 52.4338 0.773158C57.2014 0.70638 61.9737 0.773158 66.7412 0.773158C69.0144 0.716051 71.2704 1.18593 73.3367 2.14688C74.2279 2.54984 75.0154 3.15533 75.6379 3.91639C76.2605 4.67744 76.7014 5.57358 76.9265 6.53515C77.6096 9.34459 77.6096 12.1302 76.1492 14.7441C74.9008 17.0002 72.9787 18.3262 70.1897 19.0512ZM49.838 33.2797C53.7294 33.2797 57.4746 33.3513 61.2105 33.2416C62.551 33.1894 63.8449 32.7289 64.9228 31.9203C66.8873 30.4893 67.4903 28.4001 67.17 26.1011C66.9108 24.1931 65.3703 22.7622 63.208 22.6811C59.4862 22.5189 55.7504 22.6334 52.0051 22.6334C51.3738 26.2299 50.2809 29.5831 49.838 33.2797ZM55.1945 7.45573C54.5302 10.5466 53.7388 13.418 53.3572 16.5805C55.4819 16.5805 57.3474 16.5805 59.2177 16.5805C60.9357 16.6149 62.6543 16.5608 64.3669 16.4183C65.617 16.2903 66.7711 15.6818 67.5914 14.7181C68.4117 13.7544 68.8359 12.509 68.7764 11.2382C68.6257 8.55756 67.2406 7.47004 63.9193 7.45573C61.1163 7.44619 58.3038 7.45573 55.1945 7.45573Z" fill="#262122"/>
<path d="M172.443 16.7427C172.691 14.9116 173.148 13.1157 173.804 11.3909H178.426C179.453 8.56719 179.575 5.71481 180.395 2.91968H187.966C187.923 5.7482 186.769 8.37639 186.637 11.2383C188.347 11.8155 190.17 11.2097 191.97 11.6628C191.579 13.3943 191.221 15.0017 190.839 16.6473C189.054 17.0241 187.25 16.6187 185.304 16.881C184.866 18.9321 184.423 20.9783 183.99 23.0294C183.41 25.7863 182.807 28.5433 182.265 31.3098C181.855 33.399 182.553 34.2147 184.706 34.2815C185.624 34.3101 186.543 34.2815 187.575 34.2815L186.251 40.0387C183.691 40.5983 181.045 40.6275 178.473 40.1245C175.119 39.3757 173.866 37.6776 174.007 34.2862C174.078 32.5548 174.549 30.8853 174.897 29.2016C175.726 25.1567 176.56 21.0928 177.404 17.0003C175.599 16.447 173.913 17.0432 172.221 16.7284C171.863 18.312 172.824 19.5903 172.655 21.2216H165.075C164.604 20.7923 164.783 20.1961 164.67 19.6762C164.551 19.1355 164.308 18.6312 163.959 18.2048C163.61 17.7785 163.166 17.4424 162.663 17.2245C160.406 16.1179 157.132 16.4947 155.436 18.3072C151.959 22.0277 150.961 26.5448 152.138 31.3957C152.949 34.7823 157.514 35.9318 160.467 33.7806C161.852 32.7694 162.691 31.3957 163.393 29.7072C165.796 29.3733 168.269 29.6738 170.813 29.5927C170.949 30.2182 170.841 30.8727 170.511 31.4196C167.934 37.401 163.143 40.778 156.849 40.611C154.885 40.5586 152.925 40.5681 151.055 39.929C147.06 38.5552 144.648 35.722 144.13 31.5436C143.512 26.5209 144.186 21.6795 147.116 17.3676C148.317 15.5142 149.92 13.9627 151.803 12.8312C153.685 11.6996 155.798 11.0178 157.98 10.8376C160.865 10.4938 163.789 10.8772 166.493 11.9538C168.575 12.8076 170.323 14.0764 171.369 16.1512C171.505 16.4184 171.736 16.6282 172.443 16.7427Z" fill="#262122"/>
<path d="M127.306 0.816162H136.257C138.415 13.7997 140.558 26.7403 142.735 39.8288C139.908 40.1293 137.176 39.9051 134.255 39.9958C133.812 37.0909 133.379 34.2719 132.922 31.2908H118.318L113.371 39.8765H104.392C111.934 26.788 119.656 13.9905 127.306 0.816162ZM130.312 9.69288L129.968 9.55931C127.259 14.5581 124.555 19.576 121.794 24.6654H132.206C131.565 19.576 130.962 14.6345 130.312 9.69288Z" fill="#262122"/>
<path d="M107.445 27.7085H86.7396C86.3062 31.2573 87.2342 33.3179 89.6133 34.31C92.8828 35.6742 95.4597 34.7488 98.5643 31.0283H106.196C104.816 34.8442 102.771 37.7824 99.106 39.3136C95.3089 40.9019 91.3564 40.9973 87.3897 40.1101C82.7493 39.0703 80.0075 35.946 79.3103 31.4051C78.2833 24.756 80.0075 18.8032 85.1378 14.1812C89.5426 10.2079 97.6786 9.57829 102.715 12.7502C104.368 13.7913 105.702 15.2777 106.568 17.0431C108.297 20.4583 107.92 23.9737 107.445 27.7085ZM100.1 22.6191C100.354 19.1991 98.8988 16.9906 96.1428 16.6615C92.8733 16.2704 88.657 17.9446 87.63 22.6191H100.1Z" fill="#262122"/>
<path d="M248.738 30.9663C251.299 30.8525 253.864 30.8764 256.422 31.0379C254.575 36.2847 251.141 39.4567 245.86 40.3582C242.926 40.9189 239.907 40.8163 237.017 40.0577C233.022 38.9368 230.563 36.2418 229.63 32.3257C228.966 29.6902 228.899 26.9367 229.434 24.2713C229.97 21.6058 231.093 19.0974 232.721 16.9334C236.428 11.8058 241.672 10.0696 247.796 10.9902C249.03 11.1771 250.238 11.5167 251.39 12.0014C255.051 13.5373 257.02 16.3944 257.746 20.1101C258.217 22.5666 258.038 25.0708 257.59 27.6847H236.862C236.39 30.9091 237.333 33.1653 239.486 34.2003C242.727 35.7696 245.577 34.8013 248.738 30.9663ZM237.512 22.6477C242.048 22.5952 246.222 22.8433 250.453 22.5523C250.417 21.7722 250.335 20.9949 250.208 20.2246C249.779 18.3882 248.7 17.1195 246.774 16.8142C243.005 16.2227 240.319 17.6107 238.689 20.258C238.261 20.9115 237.978 21.6365 237.488 22.6477H237.512Z" fill="#262122"/>
<path d="M212.882 31.7866C216.401 24.7225 219.69 18.121 222.936 11.5959H231.199L215.803 39.9002H206.81C205.585 30.5226 204.351 21.1117 203.107 11.5815H211.116C211.695 18.2069 212.265 24.7129 212.882 31.7866Z" fill="#262122"/>
<path d="M195.786 39.9242H187.966C189.968 30.3845 191.942 21.0308 193.916 11.6389H201.778L195.786 39.9242Z" fill="#262122"/>
<path d="M196.238 0.854248H204.03C203.702 2.93563 203.244 4.99393 202.659 7.01689H194.834C195.315 4.91339 195.772 2.91005 196.238 0.854248Z" fill="#262122"/>
</g>
<defs>
<clipPath id="clip0">
<rect width="258" height="40" fill="white" transform="translate(0 0.706299)"/>
</clipPath>
</defs>
</svg>
