<svg width="150" height="53" viewBox="0 0 150 53" fill="none" xmlns="http://www.w3.org/2000/svg">
<g clip-path="url(#clip0)">
<path d="M37.3693 15.717L19.686 8.80344C15.8856 10.8825 12.7797 13.2889 10.2585 15.717C12.7797 18.1403 15.8856 20.5455 19.686 22.6306L37.3693 15.717Z" fill="#B07E25"/>
<path d="M0.5 1.30005C0.5 1.30005 2.37245 7.38613 8.51652 13.9421C11.2406 11.8486 14.5241 9.94113 18.4248 8.30545L0.5 1.30005Z" fill="#A7A5A6"/>
<path d="M0.5 30.1311C0.5 30.1311 2.37245 24.0486 8.51652 17.4902C11.2406 19.5838 14.5241 21.4864 18.4248 23.1245L0.5 30.1311Z" fill="#A49668"/>
<path d="M90.4694 50.5537H85.4669V45.0753H89.2432V46.7218H90.5093V42.2086H89.2432V43.8334H85.4669V38.6135H90.2737V40.4425H91.5192V36.7471H90.2532V37.3523H81.4454V38.4202H83.0509V50.7156H81.4454V51.7956H91.7354V48.6595H90.4694V50.5537ZM144.906 37.3523V38.4202H146.536V47.5783L139.066 37.3523H135.32V38.4202H136.871L137.385 39.1438V50.7156H135.757V51.7956H140.368V50.7156H138.736V40.9861L146.764 52.036H147.891V38.4202H149.5V37.3523H144.906ZM126.302 37.0914C122.337 37.0914 119.107 40.457 119.107 44.5957C119.107 48.7187 122.337 52.0734 126.302 52.0734C130.239 52.0734 133.438 48.7078 133.438 44.5715C133.438 40.4461 130.239 37.0914 126.302 37.0914ZM126.302 50.6757C123.623 50.6757 121.758 48.1642 121.758 44.5715C121.758 40.9873 123.64 38.4891 126.326 38.4891C128.954 38.4891 130.79 40.9873 130.79 44.5715C130.79 48.1642 128.947 50.6757 126.302 50.6757ZM69.7564 47.7354L64.8929 37.3523H60.8605V38.4202H62.4889V50.7156H60.8605V51.7956H65.474V50.7156H63.8455V40.6961L69.2321 52.2063L74.347 40.9498V50.7156H72.7403V51.7956H78.3734V50.7156H76.7582V38.4202H78.3734V37.3523H74.5415L69.7564 47.7354ZM104.016 50.5537H99.2663V38.4202H100.88V37.3523H95.2363V38.4202H96.849V50.7156H95.2363V51.7956H105.285V48.6595H104.016V50.5537ZM116.395 50.5537H111.633V38.4202H113.242V37.3523H107.605V38.4202H109.222V50.7156H107.605V51.7956H117.654V48.6595H116.395V50.5537ZM47.9949 38.4202H49.8432L46.7397 43.5399L43.4044 38.4202H45.0787V37.3523H39.2463V38.4202H40.5486L44.941 45.1731V50.7156H43.3319V51.7956H48.965V50.7156H47.3341V45.0463L51.3955 38.4202H52.5661V37.3523H47.9949V38.4202ZM18.4403 44.1705C19.8114 43.7803 21.0908 42.7124 21.0908 41.0042C21.0908 38.785 19.4442 37.3523 16.8892 37.3523H10.2583V38.4202H11.8674V50.7156H10.2583V51.7956H17.2685C19.9733 51.7956 21.7793 50.2577 21.7793 47.9637C21.7793 45.695 20.1509 44.5425 18.4403 44.1705ZM14.2847 38.6135H16.0557C16.9955 38.6135 18.5708 38.9372 18.5708 41.0888C18.5708 42.8766 17.248 43.68 15.9385 43.68H14.2847V38.6135ZM16.1354 50.5537H14.2847V44.9279H16.1354C18.061 44.9279 19.3041 46.0767 19.3041 47.8537C19.3041 49.8434 17.6019 50.5537 16.1354 50.5537ZM33.548 38.4202H35.1849V47.5783L27.7072 37.3523H23.9731V38.4202H25.517L26.0268 39.1438V50.7204H24.3947V51.7956H29.0082V50.7204H27.3834V40.9861L35.412 52.036H36.5343V38.4202H38.1446V37.3523H33.548V38.4202Z" fill="#4F4C4D"/>
</g>
<defs>
<clipPath id="clip0">
<rect width="150" height="51.9062" fill="white" transform="translate(0 0.800049)"/>
</clipPath>
</defs>
</svg>
