<svg width="148" height="37" viewBox="0 0 148 37" fill="none" xmlns="http://www.w3.org/2000/svg">
<g clip-path="url(#clip0)">
<path d="M0 0.0480957V36.8999L148 36.9999V0.0480957H0Z" fill="#1482C2"/>
<path d="M59.1752 8.88758L50.8868 21.2106C50.0248 22.5147 48.5126 23.303 46.9297 23.303C44.3523 23.303 42.2188 21.1767 42.2188 18.611C42.2188 16.0075 44.3523 13.8851 46.9478 13.8851C47.2051 13.8521 47.5502 13.8158 47.7909 13.8158C49.5801 13.8158 51.403 14.5695 52.6414 15.8374L55.1169 12.0707C53.1913 10.0862 50.3362 8.81592 47.4803 8.81592C42.1491 8.81592 37.2656 13.2331 37.2656 18.5748C37.2656 23.885 41.6337 28.232 46.9666 28.232C49.5456 28.232 52.1246 27.1366 53.9137 25.3206H59.6231L59.657 28.232H64.6118V8.88758H59.1754H59.1752ZM56.9076 21.0743L59.6231 17.2769L59.657 21.0743H56.9078H56.9076Z" fill="white"/>
<path d="M74.1048 28.2317H69.1515V13.4044H65.2996V8.91953L77.9552 8.88721V13.4044H74.1048V28.2316V28.2317Z" fill="white"/>
<path d="M94.4671 8.88752L89.5138 8.88878L89.4793 16.1111H83.6311L83.5941 8.88721H78.6448V28.2316H83.6309V20.5951H89.5136V28.2316H94.4669V8.88721L94.4671 8.88752Z" fill="white"/>
<path d="M134.159 8.8877V17.8897L127.349 8.8877L122.842 8.9192L122.808 15.9745C121.673 11.8653 117.786 8.8877 113.452 8.8877C108.121 8.8877 103.753 13.2332 103.753 18.5749C103.753 20.2901 104.268 22.0321 105.092 23.5409H100.185V8.8877H95.1379V28.2321H106.677V25.5255C108.499 27.2044 110.976 28.2321 113.452 28.2321C117.786 28.2321 121.605 25.3207 122.808 21.2107L122.842 28.2321H127.831V18.8182L134.604 28.2321H139.109L139.115 8.8877H134.16H134.159ZM113.452 23.5071C110.735 23.5071 108.5 21.3162 108.5 18.5749C108.5 15.8713 110.735 13.6466 113.452 13.6466C116.205 13.6466 118.441 15.8713 118.441 18.5749C118.441 21.3162 116.205 23.5071 113.452 23.5071Z" fill="white"/>
<path d="M31.2755 23.5412V20.8337H36.5912L36.5818 16.111H31.2755V13.6469H37.1347L37.1247 8.88794L25.8432 8.91944V15.5629C24.6737 11.934 21.3017 9.26201 17.4497 8.91944L8.88525 8.88794V28.2316H17.485C21.3017 27.8906 24.6737 25.2201 25.8432 21.6244V28.2316H37.1348L37.1248 23.5412H31.2758H31.2755ZM20.3737 21.5204C20.0654 22.823 18.8261 23.7451 17.4849 23.7798H14.3208V13.4043H17.4849C18.8261 13.4043 20.0654 14.3674 20.3737 15.7007C20.6843 16.5914 20.8561 17.6183 20.8561 18.5751C20.8561 19.5705 20.6843 20.5959 20.3737 21.5204Z" fill="white"/>
</g>
<defs>
<clipPath id="clip0">
<rect width="148" height="37" fill="white"/>
</clipPath>
</defs>
</svg>
