<svg width="257" height="27" viewBox="0 0 257 27" fill="none" xmlns="http://www.w3.org/2000/svg">
<g clip-path="url(#clip0)">
<path d="M238.439 27.0001C234.929 25.5129 233.975 22.624 233.975 19.2153C233.975 15.3657 233.975 11.5226 233.975 7.67957C233.978 6.93176 234.044 6.18554 234.172 5.44876C234.831 1.82287 236.602 0.184372 240.335 0.0790831C243.847 -0.0305928 247.339 -0.0305928 250.811 0.0790831C254.61 0.204114 256.658 1.77021 256.849 5.43558C257.132 10.9369 256.914 16.458 256.849 21.9725C256.849 24.6047 254.761 25.7432 252.898 26.9935L238.439 27.0001ZM240.414 13.2402C240.414 15.2736 240.348 17.307 240.414 19.3338C240.493 21.0316 241.119 21.6896 242.791 21.7949C244.648 21.9068 246.511 21.9068 248.368 21.7949C250.06 21.6896 250.765 21.0447 250.804 19.3601C250.896 15.4117 250.896 11.4634 250.804 7.51506C250.752 5.88966 249.988 5.29741 248.263 5.21186C246.508 5.11573 244.75 5.11573 242.995 5.21186C241.112 5.31715 240.493 5.94235 240.408 7.80464C240.322 9.66694 240.394 11.3976 240.394 13.2402H240.414Z" fill="black"/>
<path d="M118.235 27.0001L115.048 25.9801V21.3738H129.534C129.652 19.6233 129.751 18.2217 129.869 16.5107H122.943C116.648 16.5107 114.383 14.9248 114.456 7.65333C114.506 6.58218 114.678 5.52021 114.969 4.48804C115.516 2.25723 117.07 0.809533 119.315 0.723986C124.088 0.53973 128.875 0.664703 133.833 0.664703V5.58044L126.755 5.63964C125.662 5.63964 124.563 5.60015 123.463 5.63964C121.369 5.75809 120.895 6.23848 120.829 8.12052C120.763 10.0026 121.442 10.7988 123.535 10.8909C125.392 10.9765 127.256 10.8909 129.112 10.8909C134.156 10.9765 135.927 12.7137 136.059 17.7281C136.059 18.8007 136.059 19.8734 136 20.9394C135.756 24.2823 134.538 25.6379 131.173 26.4539C130.78 26.5835 130.401 26.751 130.041 26.9541L118.235 27.0001Z" fill="black"/>
<path d="M0 0.64502H19.4962V5.62646H6.63043V11.6543H16.7637V17.0043H6.44607V26.3552H0V0.64502Z" fill="black"/>
<path d="M66.7718 26.342C66.0607 26.4012 65.5274 26.4803 65.0006 26.4868C63.473 26.4868 61.9521 26.4868 60.2072 26.4868L52.3587 12.2531L51.7002 12.4176V26.2368H45.4978V0.704212H52.0821L60.2862 15.6486C60.7471 10.1999 60.2336 5.4817 60.6352 0.631836H66.7455L66.7718 26.342Z" fill="black"/>
<path d="M216.164 19.2943V26.3091H209.961V0.776571C210.613 0.638988 211.273 0.54661 211.937 0.500159C216.427 0.500159 220.911 0.421238 225.395 0.546268C229.879 0.671299 231.677 2.52041 231.854 6.93596C231.933 8.85748 231.933 10.7922 231.854 12.7137C231.657 16.8463 229.82 18.7349 225.593 19.0639C223.617 19.2153 221.642 19.11 219.667 19.1495C218.587 19.1627 217.527 19.2284 216.164 19.2943ZM216.361 13.5099C216.776 13.7205 216.961 13.8851 217.152 13.8916C218.133 13.9509 219.127 13.9837 220.088 13.9903C225.573 13.9903 225.843 13.7271 225.474 8.38373C225.474 7.96257 225.54 7.42954 225.316 7.13999C224.901 6.59381 224.322 5.82384 223.762 5.78436C221.302 5.50475 218.817 5.52469 216.361 5.84364V13.5099Z" fill="black"/>
<path d="M169.56 15.7867V21.2683H182.367V26.2695H163.509C162.851 24.2164 162.614 5.98173 163.279 0.493553C169.586 0.447489 175.953 0.45407 182.492 0.493553V5.5342H169.606V10.7394H179.674V15.767L169.56 15.7867Z" fill="black"/>
<path d="M43.3119 26.3287H36.5564C35.977 24.8415 35.437 23.4662 34.8642 21.9856H26.0741L24.2568 26.3551H17.5737C20.6881 17.6753 23.6906 9.24563 26.7918 0.690918H34.1136C37.0941 9.03506 40.1602 17.581 43.3119 26.3287ZM27.6083 16.8594H33.2642C32.3753 14.1284 31.5655 11.6344 30.749 9.14032L30.242 9.08112C29.3795 11.5554 28.5564 14.0297 27.6083 16.8594Z" fill="black"/>
<path d="M96.7767 0.631836H104.019L113.238 26.296H106.554L104.75 21.9857H96.059C95.4993 23.3544 94.9396 24.7232 94.2878 26.3026H87.552C90.6664 17.636 93.715 9.14707 96.7767 0.631836ZM103.282 16.8858L100.648 9.20631C99.2458 11.7859 98.0145 14.1878 97.8631 17.1556C99.1799 17.1556 100.22 17.1556 101.28 17.1556C101.833 17.1293 102.354 17.0108 103.282 16.8858Z" fill="black"/>
<path d="M183.94 26.533L192.006 13.5561C189.504 9.39723 186.988 5.21196 184.164 0.526611C186.468 0.526611 188.193 0.526611 189.919 0.526611C191.11 0.526611 191.598 1.33604 192.098 2.19151C193.29 4.21174 194.508 6.21879 195.923 8.58779L200.671 0.691125H207.604L199.881 13.5034C202.455 17.6755 204.977 21.7686 207.703 26.1776C205.346 26.7896 203.232 26.3487 200.947 26.5198L195.983 18.452C194.666 20.5446 193.349 22.3346 192.374 24.2693C192.047 25.0685 191.453 25.7302 190.694 26.1426C189.934 26.5551 189.056 26.6929 188.207 26.533C186.949 26.4014 185.658 26.533 183.94 26.533Z" fill="black"/>
<path d="M151.73 26.3751H145.988C145.817 25.5524 145.729 24.7146 145.725 23.8744C146.034 20.9921 145.158 18.4389 143.842 15.9054C141.715 11.8123 139.74 7.6468 137.725 3.50105C137.31 2.66532 136.981 1.78349 136.507 0.664795H142.946C144.796 4.56048 146.706 8.56151 148.819 13.0626L154.62 0.677969H161C160.625 1.66505 160.395 2.44817 160.039 3.17861C157.972 7.42307 155.937 11.6807 153.771 15.8725C152.454 18.406 151.545 20.9593 151.842 23.8416C151.865 24.6877 151.828 25.5343 151.73 26.3751Z" fill="black"/>
<path d="M69.1882 5.81718V0.677734H90.2581V5.50792H83.0153C82.5281 9.1338 82.8639 12.5227 82.7915 15.8854C82.7191 19.248 82.7915 22.6831 82.7915 26.2893H76.7207C76.5561 19.5639 76.7207 12.8715 76.6022 5.81718H69.1882Z" fill="black"/>
</g>
<defs>
<clipPath id="clip0">
<rect width="257" height="27" fill="white"/>
</clipPath>
</defs>
</svg>
