<svg width="221" height="54" viewBox="0 0 221 54" fill="none" xmlns="http://www.w3.org/2000/svg">
<g clip-path="url(#clip0)">
<path d="M221 28.7921C220.637 29.9148 220.211 31.0653 219.094 31.5814C218.117 32.0847 217.033 32.3473 215.934 32.3473C214.835 32.3473 213.752 32.0847 212.775 31.5814C212.173 31.266 211.672 30.787 211.331 30.1997C210.99 29.6123 210.822 28.9406 210.848 28.2621C210.813 27.1674 210.848 26.0725 210.848 24.9777C210.808 24.5319 210.926 24.0863 211.181 23.7183C211.436 23.3502 211.812 23.0829 212.244 22.9626C212.865 22.7464 213.459 22.4535 214.199 22.1327C214.199 24.0155 214.199 25.7657 214.199 27.516C214.179 27.7475 214.206 27.9807 214.279 28.2014C214.353 28.422 214.47 28.6254 214.625 28.7991C214.779 28.9728 214.968 29.1131 215.179 29.2116C215.39 29.31 215.618 29.3645 215.851 29.3716C216.084 29.3787 216.315 29.3384 216.532 29.253C216.748 29.1677 216.945 29.0391 217.11 28.8752C217.275 28.7113 217.405 28.5155 217.491 28.2998C217.578 28.084 217.619 27.8529 217.613 27.6206C217.816 24.5803 217.523 21.6725 215.847 18.9739C214.527 16.8819 213.452 14.5808 212.265 12.3773C211.285 10.6524 210.802 8.69031 210.868 6.70814C210.91 5.82952 210.868 4.9439 210.868 4.06529C210.869 3.51904 210.979 2.97842 211.19 2.47471C211.402 1.97101 211.712 1.51423 212.101 1.1309C212.491 0.747574 212.953 0.445351 213.461 0.241639C213.968 0.0379267 214.511 -0.0631577 215.058 -0.0557753H216.336C218.835 -0.0557753 220.092 0.878632 220.832 3.26345C220.879 3.35948 220.935 3.45052 221 3.53532V5.86441C220.42 7.41245 218.905 7.5589 217.6 8.22832C217.6 6.83369 217.641 5.66917 217.6 4.47677C217.605 4.25424 217.567 4.03276 217.486 3.82508C217.406 3.61739 217.286 3.42757 217.132 3.26634C216.979 3.10511 216.795 2.97565 216.591 2.88542C216.387 2.79519 216.168 2.74595 215.945 2.74046C215.722 2.73497 215.5 2.77334 215.292 2.85342C215.084 2.9335 214.894 3.05363 214.733 3.2071C214.571 3.36056 214.442 3.54431 214.351 3.74779C214.261 3.95127 214.212 4.17057 214.206 4.39309C213.939 6.99196 214.424 9.61282 215.603 11.945C217.565 15.6198 219.987 19.0994 221 23.2344V28.7921Z" fill="black"/>
<path d="M79.9696 53.9999C77.1766 53.5327 76.0385 51.6151 75.6475 49.1187C75.2602 47.0992 75.3778 45.0155 75.9896 43.0521C77.1207 39.7817 80.2908 38.7148 83.3281 40.5976L82.979 41.2949C82.3893 41.0497 81.7854 40.8402 81.1705 40.6673C80.4119 40.436 79.5942 40.4959 78.8774 40.8351C78.1606 41.1743 77.5964 41.7684 77.2953 42.5012C76.6824 43.856 76.3706 45.3274 76.3814 46.8141C76.3923 48.3007 76.7255 49.7674 77.3581 51.1131C78.21 52.954 79.9416 53.4142 82.4902 52.6681V47.6823H80.6189C80.3466 47.0756 80.3955 46.734 81.0798 46.734H83.4887V53.3863L80.3955 54.0069L79.9696 53.9999Z" fill="black"/>
<path d="M107.829 53.9998C105.35 53.6233 104.24 51.9079 103.828 49.6905C103.34 47.0616 103.256 44.4188 104.478 41.9363C104.687 41.4457 104.996 41.0038 105.386 40.6387C105.775 40.2737 106.236 39.9935 106.739 39.8158C107.243 39.6381 107.778 39.5669 108.311 39.6066C108.843 39.6464 109.362 39.7962 109.833 40.0466C109.937 40.1124 110.033 40.1896 110.119 40.2767L109.756 40.974C107.131 40.1094 105.665 40.8415 104.925 43.4704C104.31 45.6193 104.31 47.8972 104.925 50.0461C105.623 52.5634 106.866 53.2328 109.763 52.7656C110.098 53.3374 109.763 53.5954 109.268 53.7418C108.772 53.8883 108.451 53.9231 108.039 54.0068L107.829 53.9998Z" fill="black"/>
<path d="M39.1644 9.54626L54.6654 20.1873C52.047 21.031 49.652 21.9794 47.1663 22.5303C46.0002 22.7883 44.6596 22.2862 43.4028 22.1049L33.404 20.6266C31.4419 16.6589 29.438 12.6144 27.3502 8.40964L21.2336 20.6685L18.8596 17.4329L27.3502 0.355713L35.771 17.391L46.0002 18.8973L46.1189 18.695C45.281 18.1093 44.485 17.4608 43.6052 16.9517C42.5683 16.3443 41.7572 15.4169 41.2941 14.309C40.5958 12.74 39.7789 11.2199 39.0108 9.68578L39.1644 9.54626Z" fill="black"/>
<path d="M192.267 0.257856V1.60371C192.267 10.1481 192.267 18.6879 192.267 27.223C192.267 28.8966 193.391 29.7682 194.886 29.315C195.232 29.2273 195.541 29.0309 195.767 28.7548C195.993 28.4786 196.125 28.1372 196.142 27.7808C196.142 27.4322 196.142 27.0835 196.142 26.7209V0.327571H199.438V27.8575C199.438 30.2772 198.265 31.7694 195.877 32.0414C194.544 32.2089 193.192 32.1737 191.869 31.9369C191.038 31.7875 190.288 31.3419 189.761 30.6828C189.233 30.0237 188.962 29.1958 188.999 28.3527C188.999 19.427 188.999 10.4944 188.999 1.56881C188.999 0.669275 189.397 0.257843 190.256 0.243896L192.267 0.257856Z" fill="black"/>
<path d="M74.1462 11.7985C74.1462 9.56017 74.1462 7.55191 74.1462 5.52272C74.1615 5.05573 74.1288 4.58841 74.0485 4.12809C73.9694 3.74326 73.7562 3.39887 73.4468 3.15626C73.1374 2.91366 72.7518 2.78856 72.3587 2.80318C71.9698 2.81596 71.5971 2.96128 71.3023 3.215C71.0076 3.46872 70.8088 3.81556 70.7388 4.19781C70.6967 4.51206 70.6827 4.82942 70.6969 5.14615C70.6969 12.4122 70.6969 19.6805 70.6969 26.9512C70.6849 27.2681 70.7013 27.5855 70.7458 27.8995C70.8039 28.2888 70.9971 28.6453 71.2915 28.907C71.5859 29.1687 71.963 29.3188 72.3569 29.3312C72.7508 29.3437 73.1366 29.2176 73.447 28.9751C73.7575 28.7326 73.9728 28.389 74.0554 28.0041C74.1076 27.8345 74.1359 27.6585 74.1392 27.4811C74.1392 24.4548 74.1392 21.4214 74.1392 18.3532C72.5961 17.7675 72.5612 16.2195 71.6535 14.9573C73.4061 14.9573 74.9143 14.8527 76.3946 14.9573C77.3023 15.041 77.4 15.9196 77.4 16.6936V25.2706C77.4 26.2608 77.4 27.244 77.4 28.2342C77.3857 29.2344 76.9923 30.192 76.2991 30.914C75.6059 31.636 74.6645 32.0688 73.6644 32.1252C73.029 32.167 72.3867 32.1252 71.7513 32.1252C69.0142 32.1252 67.4152 30.5214 67.4082 27.767C67.4082 21.6306 67.4082 15.492 67.4082 9.35097C67.4082 7.62163 67.4082 5.86436 67.4082 4.16291C67.4082 1.49917 69.07 -0.125595 71.7163 -0.132568C72.2819 -0.132568 72.8475 -0.132568 73.4131 -0.132568C74.4681 -0.128905 75.4791 0.290889 76.2258 1.0353C76.9725 1.7797 77.3945 2.78851 77.4 3.84217C77.4 5.43205 77.4 7.02189 77.4 8.6048C77.4582 9.08018 77.3512 9.56112 77.0971 9.96725C76.8429 10.3734 76.4569 10.6801 76.0035 10.8363C75.4589 11.1919 74.9283 11.4499 74.1462 11.7985Z" fill="black"/>
<path d="M159.841 31.909H156.448C155.051 27.4322 153.671 22.9693 152.307 18.5205H152.112V31.8462H148.9V2.23821C148.9 0.418222 149.116 0.20901 150.994 0.215984H152.056V11.0662L152.349 11.1429L156.119 0.439172H159.541C158.361 3.71655 157.209 6.92422 156.05 10.1388C155.519 11.6311 154.604 13.1163 154.569 14.6225C154.534 16.1287 155.393 17.6419 155.868 19.1551C157.092 23.0461 158.321 26.9417 159.555 30.842C159.639 31.1768 159.736 31.5115 159.841 31.909Z" fill="black"/>
<path d="M130.766 0.250977H131.807C133.741 0.250977 134.09 0.522919 134.383 2.41961C135.884 12.182 137.372 22.0072 138.88 31.8811H135.284C134.369 24.9429 133.448 17.9698 132.491 11.0036H132.309C131.378 17.9767 130.459 24.9499 129.551 31.923H125.948C127.554 21.3657 129.153 10.8641 130.766 0.250977Z" fill="black"/>
<path d="M91.5182 0.258057C92.0279 0.258057 92.4818 0.258057 92.9147 0.258057C94.4229 0.313842 94.8139 0.683432 95.0443 2.18963C96.5153 11.7661 97.9862 21.3448 99.4572 30.9259C99.5061 31.2327 99.4991 31.5396 99.527 31.9092H95.9939C95.0862 25.0243 94.1808 18.1511 93.2778 11.2895H93.0194C92.1117 18.1511 91.211 25.0127 90.2963 31.9231H86.6934C88.3133 21.3588 89.9123 10.8642 91.5182 0.258057Z" fill="black"/>
<path d="M44.1916 52.1242C39.1085 49.4605 34.1719 46.9432 29.3191 44.2725C28.7403 43.8777 28.0573 43.6631 27.3564 43.6556C26.6556 43.6482 25.9682 43.8483 25.3811 44.2307C20.8774 46.734 16.3039 49.1118 11.7305 51.4827C11.3844 51.6827 11.0065 51.8219 10.6133 51.8942C12.0936 49.858 13.5389 47.7939 15.089 45.8135C15.5876 45.3647 16.1685 45.0166 16.7997 44.7885C19.9837 43.108 23.1816 41.4553 26.3516 39.7469C26.6526 39.5504 27.0044 39.4458 27.3641 39.4458C27.7237 39.4458 28.0755 39.5504 28.3765 39.7469C31.7211 41.5739 35.1075 43.3242 38.48 45.0954C38.7244 45.2278 38.9828 45.3324 39.4506 45.5485L37.1813 32.0974L40.9937 33.3595L44.1916 52.1242Z" fill="black"/>
<path d="M171.844 3.5353H167.242C167.242 2.71247 167.194 1.97339 167.242 1.25515C167.319 0.369564 168.004 0.250977 168.723 0.250977H181.249C180.896 1.15892 180.459 2.03201 179.943 2.85892C179.505 3.24593 178.949 3.4744 178.365 3.50746C177.624 3.57035 176.879 3.57035 176.138 3.50746C175.377 3.50746 175.035 3.87004 175.056 4.60919C175.056 4.89509 175.056 5.17399 175.056 5.45291V31.9508C174.228 32.0003 173.398 32.0003 172.57 31.9508C172.305 31.9508 171.997 31.5394 171.872 31.2535C171.812 30.9426 171.812 30.6231 171.872 30.3122V3.5353H171.844Z" fill="black"/>
<path d="M113.136 28.7852H120.502C120.197 29.6074 119.823 30.4027 119.385 31.163C119.231 31.3712 119.035 31.5455 118.811 31.675C118.586 31.8046 118.337 31.8867 118.08 31.9161C115.398 31.9858 112.71 31.9161 109.959 31.9161V0.39048C110.05 0.327722 110.106 0.258032 110.168 0.258032C112.961 0.0209448 113.136 0.181296 113.136 2.92871V28.7293V28.7852Z" fill="black"/>
<path d="M17.5119 32.1671L13.6925 33.3804L0 20.1314L15.473 9.51831L15.6476 9.64378C14.6281 11.673 13.6296 13.7092 12.5823 15.7244C12.3718 16.018 12.0941 16.2571 11.7723 16.4217L5.85125 20.3615L17.5119 32.1671Z" fill="black"/>
<path d="M93.6619 39.8862H94.8559L99.8622 51.6221L100.051 51.5662V39.9421H100.91V53.6721H99.7366L94.6813 41.7481L94.5347 41.79V53.6024L93.6619 53.721V39.8862Z" fill="black"/>
<path d="M74.4114 53.6791H73.4479L72.219 48.7979H68.8604C68.5253 50.1925 68.1622 51.5872 67.841 53.0306C67.7083 53.6164 67.4779 53.9301 66.7029 53.6024C67.7921 49.0698 68.8884 44.5373 69.9916 39.9629L70.9831 39.8723C72.1142 44.4258 73.2524 48.9862 74.4114 53.6791ZM70.4943 41.4413C69.9846 43.6797 69.5377 45.6252 69.0978 47.7171H71.9955C71.4788 45.6252 71.018 43.6657 70.4943 41.4413Z" fill="black"/>
<path d="M90.9737 46.8595H87.1613V52.7728H91.0854L91.1553 53.6722H86.2676V39.8655C87.7409 39.8655 89.2211 39.8655 90.6944 39.8655C90.8969 39.8655 91.0924 40.2002 91.2879 40.3815L91.1413 40.6743H87.1823V45.9321C88.4391 46.0297 89.682 46.1134 90.9248 46.232C90.9615 46.4391 90.9779 46.6492 90.9737 46.8595Z" fill="black"/>
<path d="M114.351 53.7072L113.255 53.6514C114.232 48.7702 111.998 44.4748 110.664 40.0189C111.404 39.6494 111.67 39.9631 111.858 40.5837C112.479 42.592 113.143 44.5933 113.953 46.6364C114.651 44.426 115.349 42.2155 116.103 39.9422H117.144C116.487 41.9366 115.915 43.8891 115.203 45.7927C114.55 47.4287 114.264 49.1876 114.365 50.9458C114.428 51.8174 114.351 52.6961 114.351 53.7072Z" fill="black"/>
</g>
<defs>
<clipPath id="clip0">
<rect width="221" height="54" fill="white"/>
</clipPath>
</defs>
</svg>
