<svg width="275" height="41" viewBox="0 0 275 41" fill="none" xmlns="http://www.w3.org/2000/svg">
<g clip-path="url(#clip0)">
<path d="M275 8.15917C274.903 8.51407 274.789 8.86897 274.703 9.25117C274.379 10.617 273.583 11.8212 272.458 12.6469C271.334 13.4727 269.954 13.8659 268.568 13.7557C267.169 13.6937 265.835 13.138 264.799 12.1853C263.763 11.2326 263.091 9.94322 262.899 8.54141C262.607 6.23183 263.12 4.17341 264.915 2.60639C265.69 1.93132 266.622 1.46651 267.624 1.25571C268.625 1.04492 269.664 1.09507 270.641 1.40141C271.618 1.70776 272.503 2.26024 273.21 3.00689C273.918 3.75354 274.426 4.66978 274.687 5.66944C274.795 6.0844 274.897 6.49391 275 6.90887V8.15917ZM268.86 12.5272C269.509 12.5277 270.151 12.3958 270.749 12.1395C271.346 11.8833 271.886 11.5078 272.336 11.0357C272.786 10.5636 273.137 10.0046 273.368 9.39207C273.6 8.77958 273.706 8.12623 273.681 7.4712C273.645 6.5167 273.332 5.59398 272.781 4.81785C272.23 4.04172 271.465 3.44645 270.581 3.10613C269.698 2.76581 268.735 2.69548 267.812 2.90385C266.889 3.11221 266.048 3.5901 265.392 4.27805C264.736 4.96599 264.294 5.83357 264.123 6.77291C263.951 7.71225 264.057 8.68186 264.426 9.56103C264.796 10.4402 265.413 11.1902 266.202 11.7176C266.99 12.245 267.915 12.5265 268.86 12.5272Z" fill="black"/>
<path d="M100.707 40.0074C101.853 33.4554 102.997 26.9253 104.139 20.4169L104.047 20.3787C103.928 20.5425 103.804 20.7063 103.69 20.881C101.28 24.643 98.8585 28.3994 96.4642 32.1777C96.3492 32.4121 96.1671 32.6062 95.9416 32.7347C95.7161 32.8632 95.4575 32.9203 95.1995 32.8985C93.2376 32.8548 91.2757 32.8985 89.3137 32.8985C88.5733 32.8985 88.5679 32.8985 88.3517 32.1505C87.2707 28.4231 86.1898 24.6903 85.1088 20.952C85.0635 20.756 84.9598 20.5787 84.8115 20.4442C84.5954 21.6782 84.3738 22.9176 84.1576 24.1516C83.2604 29.2476 82.3596 34.3436 81.4552 39.4396C81.3903 39.8382 81.3525 40.1549 80.8174 40.1494C78.6177 40.1494 76.4179 40.1494 74.2182 40.1494C74.0747 40.1344 73.9333 40.1033 73.7966 40.0566L74.6452 35.1426C75.845 28.3139 77.0413 21.4853 78.234 14.6566C78.8393 11.2168 79.45 7.77699 80.0337 4.33719C80.1202 3.82941 80.304 3.62744 80.8499 3.63836C82.8857 3.67112 84.9269 3.67112 86.9735 3.63836C87.5518 3.63836 87.7409 3.86766 87.8869 4.37545C89.3281 9.36589 90.7694 14.3545 92.2107 19.3413C92.7025 21.0284 93.1943 22.7156 93.7132 24.5065C93.8862 24.2717 94.0105 24.1188 94.1186 23.9605C98.3127 17.4085 102.501 10.8655 106.685 4.33172C106.796 4.10979 106.97 3.92635 107.184 3.80478C107.399 3.68321 107.645 3.62903 107.89 3.64922C109.852 3.68198 111.814 3.64922 113.776 3.64922C114.035 3.64922 114.316 3.64926 114.619 3.69294C114.332 5.33095 114.078 6.90343 113.792 8.47591C112.268 17.1682 110.745 25.8606 109.225 34.5529C108.933 36.2346 108.614 37.9108 108.339 39.5925C108.274 39.9747 108.139 40.1385 107.733 40.1385C105.506 40.1385 103.28 40.1385 101.053 40.1385C100.933 40.1088 100.817 40.0648 100.707 40.0074Z" fill="black"/>
<path d="M16.3007 25.6428C16.3808 25.4302 16.4728 25.2223 16.5763 25.0203C17.787 22.8909 19.0193 20.778 20.2192 18.6431C20.3131 18.4594 20.46 18.3088 20.6405 18.2113C20.8209 18.1138 21.0265 18.074 21.2298 18.0971C26.6346 18.0971 32.0394 18.0971 37.4441 18.0971C38.2008 18.0971 38.2008 18.0971 38.2981 18.8123C38.9463 23.2815 38.0299 27.8391 35.7072 31.6987C33.3845 35.5582 29.8011 38.4777 25.5753 39.9534C24.2387 40.4754 22.8138 40.7277 21.3812 40.6961C20.1373 40.6224 18.8903 40.6224 17.6465 40.6961C15.251 40.8003 12.8736 40.2334 10.777 39.0581C4.53992 35.7821 0.875487 30.6551 0.113415 23.5953C-1.04861 12.8609 6.77208 4.06484 16.0034 2.56334C20.0302 1.87538 24.1692 2.49078 27.8291 4.32151L28.1858 4.47434L30.3477 0.734253C32.9095 5.48992 35.3687 10.0545 37.9144 14.7392H22.3757L24.3808 11.1574C21.6784 9.48116 16.2737 9.04439 12.085 12.3477C10.1239 13.8757 8.69578 15.9951 8.00771 18.3985C7.31964 20.8019 7.40746 23.3642 8.2584 25.7138C9.12705 28.0756 10.7145 30.0985 12.7927 31.4916C14.8709 32.8847 17.3328 33.5763 19.8246 33.467C24.4943 33.2377 29.1208 29.8088 30.2018 25.6701L16.3007 25.6428Z" fill="black"/>
<path d="M141.6 15.6776C141.092 18.5932 140.605 21.3724 140.119 24.1461C139.222 29.2676 138.321 34.3909 137.416 39.516C137.357 39.8654 137.287 40.1221 136.876 40.1221C134.595 40.1221 132.314 40.1221 130.039 40.1221C129.955 40.1029 129.873 40.0735 129.796 40.0347C129.915 39.3303 130.028 38.6042 130.158 37.8835L133.595 18.2656C134.413 13.6137 135.224 8.96365 136.027 4.31537C136.119 3.76937 136.341 3.62741 136.86 3.63833C138.874 3.66381 140.89 3.66381 142.908 3.63833C143.141 3.6096 143.377 3.66429 143.574 3.79296C143.772 3.92163 143.918 4.11611 143.989 4.34263C147.567 11.9866 151.157 19.6198 154.76 27.2419C154.874 27.4767 154.993 27.706 155.198 28.11C155.436 26.7996 155.647 25.6639 155.841 24.5282C157.019 17.8052 158.196 11.0821 159.371 4.35902C159.435 3.97136 159.473 3.63827 160.008 3.64373C162.235 3.64373 164.462 3.64373 166.689 3.64373C166.807 3.66069 166.923 3.69187 167.035 3.73657C166.797 5.11796 166.564 6.46659 166.326 7.84251C164.802 16.5785 163.276 25.2982 161.749 34.0014C161.43 35.8141 161.095 37.6214 160.803 39.4614C160.716 40.0074 160.511 40.1712 159.981 40.1657C157.965 40.1657 155.949 40.133 153.933 40.1657C153.702 40.194 153.467 40.1404 153.27 40.014C153.073 39.8876 152.926 39.6963 152.852 39.4724C149.631 32.5745 146.388 25.6858 143.124 18.8062C142.72 17.9362 142.311 17.0699 141.897 16.2072C141.832 16.0434 141.746 15.9178 141.6 15.6776Z" fill="black"/>
<path d="M62.4898 32.8821H61.6467C56.9283 32.8821 52.21 32.8821 47.4916 32.8821C47.2376 32.8474 46.9799 32.9083 46.7675 33.0534C46.5552 33.1984 46.4032 33.4173 46.3404 33.6683C45.5675 35.5957 44.719 37.4903 43.9299 39.4122C43.8629 39.652 43.712 39.859 43.5051 39.9946C43.2983 40.1302 43.0497 40.1852 42.8057 40.1494C40.8437 40.1166 38.8818 40.1494 36.9199 40.1494C36.6875 40.1494 36.4551 40.1493 36.1416 40.1111C36.1919 39.8951 36.2532 39.6819 36.3254 39.4723C41.2869 27.7552 46.2449 16.0397 51.1993 4.32621C51.2583 4.11089 51.3914 3.9239 51.5747 3.79881C51.758 3.67372 51.9794 3.61872 52.1992 3.64371C57.204 3.64371 62.2142 3.64371 67.2244 3.64371C67.9541 3.64371 67.9595 3.64373 68.0189 4.40813C68.354 9.01273 68.6855 13.6155 69.0134 18.2165C69.4674 24.4045 69.9232 30.5762 70.3808 36.7314C70.4457 37.6651 70.4997 38.5987 70.5916 39.5269C70.6348 39.9856 70.4673 40.1494 70.0187 40.1439C67.9 40.1439 65.7814 40.1439 63.6573 40.1439C63.1168 40.1439 63.0141 39.8763 62.9817 39.4067C62.8628 37.4357 62.706 35.4701 62.5601 33.4991C62.5385 33.3243 62.5385 33.1714 62.4898 32.8821ZM60.9333 11.2168C59.4362 11.2168 58.0363 11.2496 56.6365 11.2168C56.3985 11.1863 56.1576 11.2442 55.9587 11.3798C55.7599 11.5154 55.6165 11.7195 55.5555 11.9539C53.7828 16.2018 51.983 20.4332 50.1886 24.6702C50.1129 24.8558 50.0589 25.0524 49.9886 25.2545H61.9818C61.6197 20.5589 61.2792 15.9397 60.9171 11.2168H60.9333Z" fill="black"/>
<path d="M163.856 40.0183C164.056 39.5269 164.219 39.112 164.397 38.7025C169.24 27.2583 174.08 15.8141 178.92 4.36995C178.985 4.13109 179.132 3.92349 179.335 3.78442C179.538 3.64535 179.784 3.58389 180.028 3.611C184.984 3.611 189.934 3.611 194.891 3.611C195.718 3.611 195.712 3.61101 195.777 4.44093C196.404 13.0059 197.033 21.5708 197.663 30.1357C197.883 33.1642 198.103 36.1963 198.323 39.2321C198.382 40.1002 198.366 40.1057 197.48 40.1111H191.594C190.805 40.1111 190.799 40.1112 190.74 39.3249C190.606 37.4357 190.475 35.5484 190.345 33.6629C190.286 32.8821 190.286 32.8766 189.502 32.8766C184.735 32.8766 179.963 32.8766 175.196 32.8766C174.955 32.8521 174.713 32.9157 174.515 33.056C174.316 33.1963 174.174 33.4039 174.115 33.641C173.315 35.6121 172.455 37.5613 171.639 39.5269C171.477 39.9091 171.293 40.1439 170.834 40.1384C168.672 40.1384 166.51 40.1384 164.316 40.1384C164.16 40.1112 164.006 40.071 163.856 40.0183ZM177.698 25.2162H189.713C189.372 20.5261 189.032 15.9343 188.686 11.2168H187.843C186.708 11.2168 185.567 11.2605 184.432 11.2168C184.177 11.1751 183.915 11.2323 183.7 11.3771C183.484 11.5219 183.331 11.7435 183.27 11.9976C181.589 16.0216 179.882 20.0293 178.179 24.0478C178.017 24.4136 177.866 24.8013 177.698 25.2162Z" fill="black"/>
<path d="M237.172 18.0855H251.511C251.311 19.2703 251.133 20.3677 250.97 21.4652C250.808 22.5627 250.565 23.7748 250.36 24.9324C250.235 25.6476 250.235 25.6531 249.506 25.6531H236.75C235.848 25.6531 235.848 25.653 235.67 26.5922L234.713 32.1068C234.713 32.2105 234.713 32.3143 234.68 32.5109H252.581L251.916 36.3765C251.732 37.4248 251.511 38.4677 251.376 39.5269C251.311 40.0074 251.089 40.1712 250.646 40.1221C250.516 40.1221 250.381 40.1221 250.246 40.1221H225.822C225.828 39.8663 225.847 39.6111 225.881 39.3577C227.323 31.0803 228.764 22.8066 230.205 14.5365C230.805 11.1513 231.394 7.76063 231.994 4.37543C232.124 3.62741 232.129 3.62195 232.902 3.62195H256.867C257.099 3.62195 257.332 3.65469 257.634 3.67653C257.348 5.31454 257.094 6.95254 256.791 8.51956C256.662 9.25666 256.516 9.98832 256.408 10.7309C256.359 11.0967 256.191 11.2441 255.835 11.2168C255.651 11.2168 255.462 11.2168 255.294 11.2168H239.21C238.383 11.2168 238.383 11.2168 238.237 12.0522C237.891 14.0178 237.545 15.9834 237.172 18.0855Z" fill="black"/>
<path d="M227.611 11.2222H217.753C217.537 12.4125 217.326 13.5591 217.126 14.7111C215.685 22.9485 214.243 31.1913 212.802 39.4395C212.732 39.849 212.651 40.1329 212.137 40.1275C209.938 40.1275 207.738 40.1275 205.538 40.1275C205.401 40.1112 205.265 40.0838 205.133 40.0456L210.175 11.2331H200.214C200.214 10.9328 200.214 10.7254 200.252 10.5234C200.62 8.42125 200.998 6.32458 201.333 4.22248C201.403 3.80206 201.566 3.59461 201.998 3.63829C202.133 3.63829 202.263 3.63829 202.398 3.63829H228.93C228.465 6.18811 228.054 8.6669 227.611 11.2222Z" fill="black"/>
<path d="M115.089 40.0729C115.165 39.527 115.23 39.0301 115.311 38.5441C116.781 30.1976 118.249 21.8511 119.716 13.5045C120.252 10.4579 120.793 7.41301 121.337 4.36997C121.467 3.63287 121.478 3.62741 122.175 3.62195H128.374C128.552 3.62195 128.736 3.62193 129.001 3.67653C128.828 4.70302 128.666 5.69127 128.493 6.67407C126.59 17.565 124.684 28.4577 122.775 39.3522C122.64 40.1111 122.64 40.1166 121.867 40.1166H115.921C115.64 40.1221 115.408 40.1221 115.089 40.0729Z" fill="black"/>
<path d="M270.676 8.45401C271.017 9.26209 271.336 10.0156 271.703 10.9001C271.103 10.9001 270.584 10.9001 270.082 10.9001C269.93 10.9001 269.747 10.6762 269.671 10.5124C269.477 10.1026 269.318 9.67697 269.195 9.24022C269.185 9.14587 269.154 9.055 269.105 8.97402C269.056 8.89304 268.99 8.82397 268.912 8.7718C268.833 8.71964 268.744 8.68563 268.651 8.67223C268.558 8.65882 268.464 8.66631 268.374 8.69422C267.904 8.75974 268.077 9.12557 268.066 9.38219C268.066 9.85175 268.066 10.3268 268.066 10.851H266.298V4.00956C267.504 4.00956 268.693 3.93312 269.865 4.00956C270.34 4.03224 270.786 4.24151 271.109 4.59255C271.432 4.94359 271.607 5.40854 271.595 5.88784C271.692 6.35958 271.657 6.84918 271.495 7.30223C271.333 7.75527 271.049 8.15397 270.676 8.45401ZM268.066 7.30196C268.714 7.30196 269.341 7.51491 269.736 6.90885C269.862 6.73299 269.926 6.51939 269.917 6.30247C269.908 6.08554 269.827 5.8779 269.687 5.71308C269.255 5.16708 268.666 5.3036 268.066 5.39642V7.30196Z" fill="black"/>
</g>
<defs>
<clipPath id="clip0">
<rect width="275" height="40" fill="white" transform="translate(0 0.706299)"/>
</clipPath>
</defs>
</svg>
