<svg width="230" height="85" viewBox="0 0 230 85" fill="none" xmlns="http://www.w3.org/2000/svg">
<g clip-path="url(#clip0)">
<path d="M221.68 84.86H4.99004C4.91004 84.57 4.64004 84.5901 4.43004 84.5201C2.93054 84.0617 1.65586 83.0606 0.855121 81.7124C0.0543854 80.3643 -0.214847 78.7661 0.100044 77.23C0.250044 76.43 0.400043 75.63 0.560043 74.83C1.73004 68.92 2.94004 63.01 4.06004 57.09C4.73201 53.303 6.31024 49.7348 8.66004 46.69C10.0143 44.9423 11.6142 43.3997 13.41 42.11C14.02 41.67 14.02 41.67 13.51 41.11L13.16 40.72C10.2381 37.3668 8.48354 33.1559 8.16004 28.72C7.95952 26.318 8.08059 23.9 8.52004 21.5301C9.37771 15.9387 12.1316 10.8122 16.32 7.01006C21.48 2.31006 27.72 0.319983 34.57 0.0599829C39.5425 -0.0633497 44.5093 0.474791 49.34 1.66008C51.0125 1.91423 52.5886 2.60399 53.91 3.66008C54.2 3.92008 54.43 3.76008 54.69 3.66008C60.6272 0.387151 67.5255 -0.695968 74.18 0.600022C79.4307 1.48071 84.1248 4.38982 87.25 8.7C87.83 9.49 88.3 10.35 88.82 11.19C89.0916 10.9539 89.3069 10.6601 89.4501 10.33C90.9997 7.76856 93.1478 5.62149 95.71 4.07304C98.2721 2.5246 101.172 1.62102 104.16 1.43999C107.69 1.15999 111.25 1.29002 114.79 1.35002C118.98 1.43002 121.85 3.90006 122.79 8.01006C123.13 9.45006 123.49 10.88 123.85 12.32C124.01 12.95 124.2 13.57 124.42 14.32C125.02 13.09 125.42 11.9501 126.07 10.9101C127.595 8.24887 129.76 6.01007 132.369 4.39665C134.978 2.78323 137.948 1.84616 141.01 1.67009C144.291 1.49008 147.579 1.49008 150.86 1.67009C152.628 1.75015 154.309 2.45948 155.6 3.67009C156.51 4.46009 156.14 4.43999 157.26 3.81999C159.697 2.39654 162.441 1.58344 165.26 1.45C171.26 1.28 177.17 0.929983 183.12 1.30998C187.665 1.5011 192.109 2.71457 196.12 4.86003C200.868 7.39717 204.417 11.712 205.99 16.86C207.766 23.502 207.248 30.5491 204.52 36.86C204.19 37.6 204.21 37.6301 205.01 37.6401H209.01C214.121 37.5894 219.054 39.5164 222.778 43.0181C226.501 46.5199 228.727 51.3253 228.99 56.43C228.99 56.67 228.86 56.9601 229.16 57.1301V57.83C228.81 58.34 228.99 58.93 228.93 59.49C228.63 62.28 228.38 65.07 228.12 67.87C227.78 71.64 227.47 75.42 227.12 79.19C226.979 80.4968 226.43 81.726 225.55 82.7027C224.67 83.6793 223.505 84.3537 222.22 84.6301C221.99 84.6701 221.79 84.58 221.68 84.86ZM51.6 45.68H27.18C23.6171 45.6688 20.1613 46.8983 17.4059 49.1573C14.6506 51.4163 12.7675 54.5639 12.08 58.06C11.89 59 11.91 59.06 12.9 59.06H79.9C84.1301 59.06 87.54 57.5201 89.9 53.8801C90.0076 53.6955 90.1679 53.5473 90.3604 53.4546C90.5529 53.362 90.7687 53.329 90.98 53.36C96.79 53.36 102.61 53.36 108.42 53.36C109.05 53.36 109.25 53.5801 109.42 54.1401C109.669 55.0078 110.092 55.816 110.663 56.5155C111.233 57.2151 111.94 57.7916 112.74 58.21C114.023 58.8471 115.449 59.1433 116.88 59.07H158.48C159.18 59.07 159.87 59.02 160.57 58.98C162.103 58.8711 163.555 58.2497 164.692 57.2159C165.829 56.182 166.586 54.7958 166.84 53.2801C167.14 51.5401 167.48 49.8 167.78 48.06C167.85 47.62 168 47.4001 168.49 47.4201C169.77 47.4201 171.05 47.4201 172.33 47.4201C172.499 47.3963 172.671 47.4378 172.81 47.5363C172.949 47.6348 173.046 47.7827 173.08 47.95C173.5 49.16 173.93 50.36 174.35 51.57C174.813 52.9828 175.561 54.2854 176.548 55.3968C177.536 56.5081 178.741 57.4045 180.09 58.0301C181.773 58.7592 183.598 59.101 185.43 59.0301H219.88C220.053 59.0201 220.227 59.0201 220.4 59.0301C220.85 59.0301 221.02 58.8301 221.05 58.4101C221.178 56.7859 220.974 55.1527 220.45 53.61C219.637 51.256 218.098 49.2204 216.055 47.7956C214.012 46.3708 211.57 45.6301 209.08 45.68C203.27 45.68 197.46 45.68 191.64 45.68C191.04 45.68 190.64 45.56 190.49 44.93C190.331 44.4952 190.143 44.0711 189.93 43.6601C189.55 42.8101 189.55 42.8001 190.29 42.2701C191.562 41.3474 192.726 40.2839 193.76 39.1C195.845 36.7228 197.386 33.9185 198.273 30.8836C199.161 27.8486 199.375 24.6563 198.9 21.5301C198.666 19.2726 197.823 17.1211 196.462 15.3052C195.1 13.4894 193.271 12.0773 191.17 11.22C187.792 9.78215 184.15 9.07014 180.48 9.13005C175.65 9.05005 170.83 9.19005 166.01 9.38005C163.715 9.48315 161.515 10.3257 159.738 11.7819C157.961 13.2381 156.702 15.2299 156.15 17.46C155.63 19.58 155.35 21.7401 154.97 23.8801C153.697 30.9001 152.467 37.9233 151.28 44.95C151.17 45.56 150.92 45.69 150.36 45.68C148.53 45.68 146.7 45.68 144.87 45.68C144.04 45.68 144.04 45.68 144.15 44.85C144.155 44.7668 144.155 44.6833 144.15 44.6C144.977 39.9334 145.803 35.2667 146.63 30.6L150.2 10.48C150.35 9.62003 150.34 9.61003 149.5 9.61003H142.26C139.753 9.63081 137.332 10.5264 135.415 12.1423C133.498 13.7581 132.205 15.9926 131.76 18.46C130.8 23.8533 129.847 29.2501 128.9 34.6501C128.28 38.1001 127.65 41.5501 127.06 45.0101C126.97 45.5401 126.76 45.6801 126.27 45.6601C125.691 45.6201 125.109 45.6201 124.53 45.6601C124.439 45.679 124.345 45.6779 124.255 45.6569C124.164 45.6359 124.079 45.5955 124.006 45.5384C123.933 45.4813 123.873 45.4089 123.83 45.3263C123.788 45.2437 123.764 45.1528 123.76 45.06C123.58 44.21 123.35 43.3701 123.14 42.5301L118.21 22.86C117.16 18.64 116.1 14.43 115.07 10.2C115.061 10.0677 115.024 9.93885 114.962 9.82182C114.899 9.7048 114.813 9.60227 114.708 9.52104C114.603 9.43982 114.482 9.38171 114.353 9.35051C114.224 9.31931 114.09 9.31572 113.96 9.34001C111.08 9.34001 108.2 9.34001 105.33 9.34001C104.104 9.33151 102.887 9.54846 101.74 9.98003C99.2848 10.9184 97.2361 12.6876 95.9501 14.98C93.6801 18.82 91.35 22.64 89.04 26.47C85.35 32.58 81.65 38.69 77.99 44.81C77.8735 45.0673 77.6802 45.2822 77.4368 45.4255C77.1933 45.5687 76.9116 45.6331 76.63 45.61C68.29 45.64 59.99 45.6501 51.6 45.6501V45.68ZM40.53 20.86C38.18 20.86 35.82 20.86 33.47 20.86C32.89 20.86 32.59 20.96 32.47 21.62C32.2 23.45 31.83 25.28 31.47 27.11C31.28 28.25 31.3 28.2601 32.47 28.2601H38.4C38.65 28.2601 38.95 28.16 39.11 28.44C39.1662 28.7404 39.1292 29.0507 39.0041 29.3295C38.879 29.6083 38.6717 29.8423 38.41 30C36.3454 30.5158 34.2144 30.7147 32.09 30.59C30.9904 30.5176 29.9447 30.0875 29.1124 29.3653C28.28 28.6431 27.7068 27.6684 27.48 26.59C27.3151 25.7328 27.2948 24.854 27.42 23.99C27.5657 22.427 28.226 20.9565 29.2974 19.8091C30.3687 18.6617 31.7906 17.9024 33.34 17.6501C35.2172 17.435 37.1129 17.435 38.99 17.6501C40.9292 17.7864 42.8591 18.0334 44.77 18.3901C45.27 18.4801 45.64 18.48 45.84 17.86C46.64 15.43 47.5 13.03 48.33 10.62C48.62 9.79004 48.6 9.80004 47.77 9.62004C45.1243 8.9366 42.4241 8.48492 39.7 8.27007C36.7211 7.93973 33.7101 8.0407 30.76 8.56999C26.4003 9.26789 22.4637 11.5835 19.7355 15.055C17.0072 18.5265 15.6877 22.8988 16.04 27.3C16.0223 29.316 16.5078 31.3046 17.4524 33.0856C18.3971 34.8667 19.7711 36.384 21.45 37.5C24.7834 39.6458 28.7689 40.5421 32.7 40.0301C36.8813 39.5067 40.9989 38.5618 44.99 37.21C45.1579 37.1724 45.3094 37.0824 45.4227 36.9529C45.536 36.8235 45.6051 36.6614 45.62 36.49C45.83 35.2 46.06 33.9201 46.29 32.6301C46.9567 29.0301 47.6 25.4333 48.22 21.84C48.39 20.91 48.38 20.9101 47.47 20.9001L40.53 20.86ZM49.21 26.56C49.21 27.12 49.21 27.6401 49.29 28.1601C49.4104 30.9744 50.501 33.6603 52.3766 35.762C54.2523 37.8637 56.7974 39.2515 59.58 39.69C62.2434 40.19 64.9766 40.19 67.64 39.69C70.084 39.2907 72.4234 38.4065 74.5203 37.0893C76.6173 35.772 78.4294 34.0484 79.85 32.0201C82.4407 28.3115 83.5338 23.7607 82.91 19.2801C82.27 13.7201 78.82 9.96002 73.38 8.60002C70.7575 7.9785 68.0363 7.89346 65.38 8.35002C62.2886 8.78346 59.3443 9.9454 56.79 11.74C54.4126 13.413 52.4795 15.641 51.1585 18.2306C49.8376 20.8203 49.1687 23.6932 49.21 26.6V26.56ZM180.83 78.56L183.09 79.1701C184.941 79.6819 186.873 79.8279 188.78 79.6C190.155 79.4713 191.446 78.8789 192.44 77.9201C192.944 77.4774 193.319 76.9061 193.525 76.2673C193.73 75.6284 193.758 74.9457 193.606 74.292C193.455 73.6384 193.128 73.0382 192.662 72.5553C192.196 72.0725 191.608 71.7249 190.96 71.55C190.38 71.36 189.79 71.22 189.2 71.07C188.92 70.99 188.63 70.94 188.35 70.85C188.07 70.76 187.83 70.68 187.86 70.34C187.89 70 188.14 69.91 188.41 69.87C189.077 69.7866 189.752 69.8136 190.41 69.95C191.26 70.14 192.11 70.34 192.94 70.58C193.4 70.72 193.62 70.5801 193.78 70.1501C194.067 69.2663 194.401 68.3983 194.78 67.55C195.03 66.99 194.78 66.84 194.33 66.75C193.42 66.59 192.51 66.38 191.59 66.25C189.808 65.9536 187.982 66.0664 186.25 66.58C185.472 66.7776 184.756 67.1693 184.17 67.7184C183.585 68.2675 183.148 68.9561 182.9 69.72C182.704 70.1459 182.603 70.6098 182.606 71.0788C182.608 71.5478 182.714 72.0104 182.915 72.434C183.117 72.8576 183.409 73.2318 183.771 73.5301C184.133 73.8283 184.556 74.0435 185.01 74.1601C185.689 74.4159 186.388 74.6165 187.1 74.7601C187.445 74.8166 187.781 74.9174 188.1 75.06C188.5 75.27 188.49 75.64 188.1 75.86C187.789 76.008 187.439 76.0535 187.1 75.99C185.946 75.8536 184.81 75.5955 183.71 75.22C182.27 74.76 182.62 74.75 182.01 75.95C181.68 76.8106 181.275 77.6404 180.8 78.43C180.4 77.26 180.16 76.16 179.89 75.07C179.23 72.42 178.56 69.7801 177.89 67.1301C177.75 66.5301 177.51 66.25 176.89 66.3C176.047 66.35 175.203 66.35 174.36 66.3C174.119 66.2727 173.876 66.323 173.665 66.4435C173.455 66.564 173.288 66.7484 173.19 66.97C170.9 70.81 168.57 74.62 166.27 78.45C166.1 78.73 165.82 78.99 165.89 79.45C167.08 79.45 168.27 79.45 169.46 79.45C169.744 79.5059 170.039 79.4526 170.286 79.3006C170.532 79.1486 170.712 78.9091 170.79 78.6301C170.98 78.0601 171.39 77.94 171.94 77.96C173.07 77.96 174.21 77.96 175.34 77.96C176 77.96 176.34 78.16 176.34 78.81C176.34 79.46 176.66 79.46 177.14 79.45C178.14 79.45 179.06 79.45 180.02 79.45C180.98 79.45 180.81 79.42 180.83 78.55V78.56ZM42.58 71.95H42.37C42.25 70.37 42.12 68.79 41.99 67.2C41.93 66.42 41.93 66.4201 41.12 66.4101H37.99C37.24 66.4101 37.21 66.41 37.3 67.18C37.74 71.1 38.21 75.01 38.65 78.93C38.65 79.4 38.93 79.49 39.34 79.49C40.41 79.49 41.49 79.49 42.56 79.49C42.7591 79.5122 42.9597 79.4658 43.1288 79.3586C43.2978 79.2513 43.4253 79.0895 43.49 78.9001C44.1034 77.6801 44.7334 76.4701 45.38 75.2701C45.6021 74.7455 45.9058 74.2594 46.28 73.83C46.56 75.61 46.84 77.19 47.07 78.83C47.14 79.32 47.31 79.5401 47.83 79.5201C48.83 79.5201 49.83 79.5201 50.83 79.5201C51.0699 79.5594 51.3159 79.5101 51.522 79.3813C51.7282 79.2524 51.8803 79.0529 51.95 78.82C53.44 75.58 54.95 72.36 56.48 69.12C56.9472 68.259 57.3387 67.3588 57.65 66.43C56.21 66.43 54.85 66.43 53.49 66.43C53.2902 66.4038 53.0876 66.4513 52.9201 66.5635C52.7526 66.6758 52.6318 66.8452 52.58 67.0401C52.04 68.3501 51.44 69.64 50.85 70.93C50.7246 71.3619 50.4905 71.7544 50.17 72.07C49.92 70.64 49.67 69.31 49.45 67.96C49.2 66.45 49.21 66.43 47.68 66.45C46.98 66.45 46.18 66.21 45.62 66.55C45.06 66.89 44.86 67.74 44.51 68.37C43.89 69.5 43.23 70.72 42.58 71.94V71.95ZM155.3 75.34C155.4 75.6248 155.4 75.9352 155.3 76.22C155.229 77.0591 155.112 77.8937 154.95 78.72C154.79 79.39 155.08 79.46 155.6 79.44C156.12 79.42 156.88 79.44 157.52 79.44C159.22 79.44 159.22 79.44 159.45 77.73C159.94 74.17 160.45 70.61 160.92 67.05C161 66.49 160.8 66.34 160.28 66.37C159.494 66.41 158.706 66.41 157.92 66.37C157.679 66.3495 157.436 66.3943 157.218 66.4999C157 66.6055 156.814 66.7679 156.68 66.97C155.23 68.82 153.75 70.65 152.28 72.48C152.15 72.65 152.07 72.9001 151.78 72.9001C151.59 72.6073 151.439 72.2913 151.33 71.96C150.61 70.29 149.88 68.61 149.18 66.96C149.131 66.7799 149.017 66.6243 148.86 66.5229C148.703 66.4214 148.515 66.3813 148.33 66.4101C147.574 66.4501 146.816 66.4501 146.06 66.4101C145.44 66.4101 145.15 66.55 145.06 67.22C144.65 69.35 144.16 71.47 143.69 73.6C143.32 75.29 142.92 76.99 142.56 78.68C142.39 79.47 142.41 79.49 143.17 79.49C144.17 79.49 145.09 79.49 146.04 79.49C146.145 79.5156 146.255 79.5172 146.361 79.4946C146.466 79.4719 146.566 79.4257 146.651 79.3594C146.737 79.2931 146.806 79.2083 146.855 79.1115C146.903 79.0146 146.929 78.9082 146.93 78.8C147.06 78.09 147.24 77.38 147.43 76.69C147.506 76.1643 147.676 75.6564 147.93 75.19C148.29 76.11 148.63 76.9301 148.93 77.7601C149.57 79.5001 149.57 79.48 151.39 79.5C151.633 79.5189 151.877 79.47 152.094 79.3588C152.311 79.2476 152.493 79.0785 152.62 78.87C153.28 77.87 153.99 77 154.69 76.07C154.84 75.77 154.99 75.47 155.3 75.33V75.34ZM117.8 74C118.01 74.29 118.12 74.42 118.21 74.56C119.16 76.02 120.12 77.47 121.06 78.94C121.152 79.1002 121.287 79.2318 121.449 79.3201C121.612 79.4084 121.795 79.4498 121.98 79.44C122.79 79.44 123.61 79.44 124.42 79.44C125.06 79.44 125.33 79.28 125.42 78.61C125.77 76.44 126.2 74.28 126.59 72.11C126.92 70.23 127.23 68.35 127.59 66.43C126.801 66.3278 126.004 66.3044 125.21 66.36C124.52 66.36 123.68 66.0701 123.21 66.5101C122.74 66.9501 122.9 67.7701 122.76 68.4201C122.54 69.4801 122.4 70.5601 122.09 71.6301C121.79 71.51 121.72 71.27 121.6 71.08C120.72 69.68 119.853 68.27 119 66.85C118.922 66.6827 118.792 66.5444 118.631 66.4546C118.469 66.3649 118.284 66.3283 118.1 66.35C117.23 66.35 116.35 66.35 115.48 66.35C114.61 66.35 114.58 66.35 114.48 67.2C114.27 68.4 114.07 69.6 113.85 70.8L112.47 78.5C112.31 79.4 112.33 79.4201 113.26 79.4201C114.19 79.4201 115.12 79.4201 116.04 79.4201C116.66 79.4201 116.9 79.26 116.99 78.6301C117.171 77.0691 117.441 75.5199 117.8 73.99V74ZM27.99 79.68C28.22 79.68 28.46 79.68 28.69 79.68C29.8417 79.666 30.9761 79.3982 32.0124 78.8956C33.0486 78.3929 33.9613 77.6678 34.6852 76.772C35.4091 75.8762 35.9264 74.8317 36.2004 73.7131C36.4743 72.5944 36.4981 71.4289 36.27 70.3C36.1193 69.434 35.7365 68.6252 35.1624 67.9595C34.5883 67.2939 33.8445 66.7964 33.01 66.5201C31.6967 66.0341 30.2754 65.9165 28.9 66.18C25.52 66.81 23.17 68.6101 22.24 72.0101C21.9659 72.857 21.8723 73.7519 21.9653 74.6373C22.0583 75.5226 22.3359 76.3786 22.78 77.1501C23.328 78.0138 24.1056 78.708 25.0258 79.1548C25.946 79.6017 26.9724 79.7834 27.99 79.68ZM212.99 79.68C214.088 79.7106 215.18 79.5074 216.194 79.0838C217.208 78.6602 218.12 78.026 218.869 77.2232C219.619 76.4204 220.19 75.4672 220.543 74.427C220.897 73.3869 221.025 72.2835 220.92 71.19C220.898 70.1076 220.531 69.0606 219.872 68.201C219.214 67.3414 218.299 66.714 217.26 66.4101C216.007 66.0257 214.681 65.9434 213.39 66.1701C211.704 66.3767 210.131 67.1281 208.911 68.3103C207.69 69.4926 206.89 71.041 206.63 72.72C206.295 74.2386 206.545 75.8277 207.33 77.1701C208.47 79.0901 210.33 79.71 212.92 79.68H212.99ZM98.82 79.4201C98.96 79.1101 98.82 78.9501 98.72 78.7701C98.32 77.8401 97.95 76.89 97.49 75.98C97.4116 75.874 97.3563 75.7527 97.3278 75.6239C97.2993 75.4952 97.2983 75.3618 97.3247 75.2326C97.3511 75.1034 97.4044 74.9812 97.4811 74.8739C97.5578 74.7667 97.6563 74.6768 97.77 74.61C98.4866 73.9855 99.0317 73.1883 99.3537 72.294C99.6757 71.3997 99.7639 70.438 99.61 69.5C99.42 67.81 98.19 66.71 96.23 66.37C93.83 65.96 91.4201 66.37 89.01 66.37C88.5201 66.37 88.58 66.76 88.52 67.05C88.23 68.67 87.95 70.3 87.66 71.93C87.25 74.18 86.85 76.44 86.43 78.69C86.34 79.18 86.43 79.46 87 79.44C88.1 79.44 89.2101 79.44 90.3101 79.44C90.7001 79.44 90.89 79.3101 90.94 78.9001C91 78.3301 91.1301 77.76 91.23 77.19C91.3 76.8 91.28 76.38 91.89 76.36C92.5 76.34 92.81 76.49 92.97 77.08C93.13 77.67 93.42 78.34 93.64 78.97C93.73 79.24 93.84 79.43 94.17 79.43L98.82 79.4201ZM106.82 75.58L106.76 75.37C106.98 75.15 107.19 74.91 107.41 74.69C108.99 73.11 110.58 71.54 112.15 69.95C112.47 69.62 112.86 69.35 112.91 68.82C112.96 68.29 113.08 67.56 113.2 66.93C113.27 66.54 113.2 66.35 112.75 66.35H102.38C101.98 66.35 101.8 66.48 101.74 66.87C101.65 67.56 101.53 68.25 101.41 68.93C101.18 70.2 101.18 70.2 102.5 70.2H105.88C105.791 70.4881 105.608 70.7381 105.36 70.9101C103.66 72.5801 101.95 74.2401 100.26 75.9101C99.9901 76.1701 99.66 76.3901 99.59 76.7901C99.4601 77.4801 99.36 78.16 99.24 78.85C99.17 79.25 99.32 79.43 99.75 79.43H110.55C110.89 79.43 111.11 79.33 111.17 78.98C111.32 77.98 111.48 77.03 111.65 76.06C111.71 75.71 111.57 75.58 111.23 75.58H106.73H106.82ZM67.42 79.4201C68.9 79.4201 70.42 79.4201 71.87 79.4201C72.46 79.4201 72.7 79.2101 72.77 78.6601C72.84 78.1101 73 77.29 73.1 76.6C73.2 75.91 73.22 75.7601 72.4 75.7601H67.99C67.35 75.7601 67.14 75.35 67.47 74.82C67.64 74.53 67.92 74.59 68.17 74.59C69.39 74.59 70.61 74.59 71.83 74.59C72.29 74.59 72.52 74.44 72.58 73.97C72.67 73.28 72.83 72.6001 72.95 71.9101C73.07 71.2201 73.07 71.12 72.3 71.11C71.14 71.11 69.98 71.11 68.82 71.11C68.21 71.11 67.99 70.7 68.29 70.22C68.46 69.94 68.75 70.0101 68.99 70.0101C70.48 70.0101 71.99 70.0101 73.44 70.0101C73.98 70.0101 74.31 69.9301 74.36 69.2901C74.41 68.6501 74.62 67.8 74.74 67.06C74.86 66.32 74.84 66.36 74.1 66.36H66.52C65.85 66.36 65.04 66.1 64.52 66.47C64 66.84 64.17 67.76 64.04 68.47C63.43 71.84 62.84 75.21 62.25 78.58C62.1 79.45 62.1 79.46 62.97 79.46L67.42 79.4201ZM132.1 79.4201C133.64 79.4201 135.18 79.4201 136.72 79.4201C137.17 79.4201 137.41 79.29 137.48 78.81C137.58 78.01 137.72 77.2101 137.87 76.4101C137.97 75.9101 137.87 75.7501 137.31 75.7601C135.8 75.7601 134.31 75.7601 132.78 75.7601C132.12 75.7601 131.93 75.41 132.25 74.84C132.41 74.53 132.68 74.59 132.93 74.59C134.15 74.59 135.37 74.59 136.59 74.59C137.07 74.59 137.34 74.49 137.39 73.95C137.44 73.41 137.61 72.5701 137.72 71.8901C137.83 71.2101 137.84 71.11 137.09 71.11H133.52C133.28 71.11 132.95 71.1701 132.97 70.7601C132.99 70.3501 132.97 70.0201 133.48 70.0101H133.99C135.39 70.0101 136.78 70.0101 138.17 70.0101C138.77 70.0101 138.99 69.8 139.06 69.24C139.14 68.52 139.29 67.81 139.42 67.1C139.55 66.39 139.56 66.35 138.84 66.35C135.84 66.35 132.84 66.35 129.78 66.35C129.26 66.35 129.08 66.5401 129 67.0401C128.77 68.5201 128.49 70.04 128.22 71.49C127.81 73.79 127.39 76.1001 126.98 78.4101C126.8 79.4101 126.82 79.4101 127.82 79.4101L132.1 79.4201ZM14.15 66.34C13.22 66.34 12.29 66.34 11.36 66.34C11.2693 66.3254 11.1765 66.3308 11.0882 66.3559C10.9998 66.3809 10.9179 66.425 10.8484 66.485C10.7788 66.5451 10.7233 66.6196 10.6855 66.7034C10.6478 66.7872 10.6289 66.8782 10.63 66.97C10.47 67.97 10.3 68.97 10.12 69.97C9.61004 72.88 9.12004 75.79 8.59004 78.7C8.46004 79.41 8.48004 79.42 9.20004 79.43C10.2 79.43 11.2 79.43 12.2 79.43C12.76 79.43 12.98 79.25 13.02 78.71C13.06 78.17 13.23 77.8 13.27 77.34C13.31 76.88 13.59 76.67 14.08 76.69C14.6595 76.7248 15.2406 76.7248 15.82 76.69C19.33 76.39 21.48 74.26 21.64 70.95C21.77 68.32 20.51 66.7901 17.92 66.3801C16.6706 66.2012 15.403 66.1877 14.15 66.34ZM75.15 70.11L75.4 70.19H77.99C78.8 70.19 78.81 70.1901 78.67 71.0301C78.21 73.5701 77.7534 76.1101 77.3 78.6501C77.17 79.3701 77.2 79.4001 77.91 79.4101H80.7001C81.8201 79.4101 81.62 79.5801 81.88 78.4101C81.88 78.3201 81.88 78.2301 81.88 78.1501C82.3 75.7501 82.73 73.36 83.13 70.95C83.23 70.35 83.48 70.13 84.13 70.18C84.91 70.24 85.7001 70.18 86.48 70.18C86.558 70.1947 86.6382 70.192 86.715 70.1722C86.7919 70.1523 86.8634 70.1158 86.9245 70.0652C86.9856 70.0146 87.0348 69.9512 87.0686 69.8794C87.1024 69.8077 87.1199 69.7294 87.12 69.6501C87.2801 68.7601 87.43 67.88 87.61 67C87.7 66.53 87.61 66.31 87.07 66.32H76.38C75.95 66.32 75.74 66.44 75.68 66.8801C75.53 67.97 75.34 69.02 75.16 70.11H75.15ZM207.35 66.35H202.35C200.25 66.35 198.16 66.35 196.07 66.35C195.56 66.35 195.34 66.5001 195.27 67.0101C195.16 67.8801 194.97 68.73 194.8 69.58C194.72 70 194.8 70.24 195.31 70.22C196.09 70.22 196.88 70.22 197.66 70.22C198.44 70.22 198.42 70.22 198.29 70.99C197.84 73.56 197.38 76.13 196.94 78.7C196.81 79.42 196.83 79.43 197.55 79.44C198.55 79.44 199.55 79.44 200.55 79.44C201.19 79.44 201.38 79.23 201.48 78.62C201.9 76.04 202.39 73.4801 202.82 70.9101C202.91 70.3801 203.1 70.16 203.66 70.19C204.5 70.19 205.34 70.19 206.19 70.19C206.53 70.19 206.72 70.08 206.77 69.72C206.99 68.65 207.15 67.56 207.36 66.35H207.35ZM58.35 79.4201C58.87 79.4201 59.35 79.4201 59.92 79.4201C60.0173 79.4444 60.1189 79.4461 60.2169 79.4253C60.315 79.4045 60.4071 79.3617 60.4861 79.3C60.5652 79.2383 60.6291 79.1595 60.6731 79.0694C60.7171 78.9793 60.74 78.8803 60.74 78.7801C61.4067 74.7801 62.1067 70.8167 62.84 66.8901C62.92 66.4501 62.77 66.33 62.36 66.34C61.72 66.34 61.08 66.34 60.44 66.34C59.8 66.34 58.98 66.06 58.51 66.49C58.04 66.92 58.19 67.68 58.07 68.3C57.44 71.77 56.85 75.3 56.2 78.72C56.09 79.31 56.26 79.4401 56.79 79.4101C57.32 79.3801 57.87 79.4201 58.39 79.4201H58.35ZM162.7 79.4201C163.25 79.4201 163.8 79.4201 164.35 79.4201C164.9 79.4201 165.01 79.2201 165.08 78.7801C165.747 74.8334 166.44 70.8933 167.16 66.96C167.25 66.49 167.16 66.33 166.66 66.34C165.66 66.34 164.57 66.34 163.52 66.34C162.95 66.34 162.71 66.49 162.62 67.08C162.33 68.97 161.96 70.85 161.62 72.74C161.28 74.63 160.91 76.74 160.53 78.81C160.44 79.29 160.53 79.45 161.03 79.43C161.53 79.41 162.19 79.4201 162.74 79.4201H162.7Z" fill="#300442"/>
<path d="M51.6 45.6499C59.94 45.6499 68.29 45.6499 76.6 45.6499C76.8815 45.673 77.1632 45.6086 77.4067 45.4653C77.6501 45.3221 77.8434 45.1071 77.96 44.8499C81.62 38.7299 85.32 32.6199 89.01 26.5099C91.32 22.6799 93.65 18.8599 95.92 15.0199C97.206 12.7275 99.2547 10.9583 101.71 10.0199C102.857 9.58835 104.074 9.3714 105.3 9.3799C108.17 9.3799 111.05 9.3799 113.93 9.3799C114.06 9.35561 114.194 9.3592 114.323 9.3904C114.452 9.4216 114.573 9.4797 114.678 9.56093C114.783 9.64216 114.869 9.74457 114.932 9.86159C114.994 9.97861 115.031 10.1076 115.04 10.2399C116.04 14.4699 117.13 18.6799 118.18 22.8999L123.07 42.5698C123.28 43.4098 123.51 44.2499 123.69 45.0999C123.694 45.1927 123.718 45.2835 123.76 45.3661C123.803 45.4487 123.863 45.521 123.936 45.5781C124.009 45.6352 124.094 45.6758 124.185 45.6968C124.275 45.7178 124.369 45.7188 124.46 45.6998C125.039 45.6598 125.621 45.6598 126.2 45.6998C126.69 45.6998 126.9 45.5798 126.99 45.0498C127.58 41.5898 128.21 38.1398 128.83 34.6898C129.777 29.2898 130.73 23.8932 131.69 18.4999C132.135 16.0325 133.428 13.798 135.345 12.1821C137.262 10.5663 139.683 9.6707 142.19 9.64992H149.43C150.27 9.64992 150.28 9.64991 150.13 10.5199L146.56 30.6399C145.733 35.3066 144.907 39.9732 144.08 44.6399C144.085 44.7232 144.085 44.8066 144.08 44.8899C143.97 45.7099 143.97 45.7099 144.8 45.7199C146.63 45.7199 148.46 45.7199 150.29 45.7199C150.85 45.7199 151.1 45.5999 151.21 44.9899C152.41 37.9632 153.64 30.9399 154.9 23.9199C155.28 21.7799 155.56 19.6199 156.08 17.4999C156.632 15.2698 157.891 13.2779 159.668 11.8217C161.445 10.3655 163.645 9.52304 165.94 9.41994C170.76 9.22994 175.58 9.08994 180.41 9.16994C184.08 9.11002 187.722 9.82204 191.1 11.2599C193.201 12.1172 195.03 13.5291 196.392 15.345C197.753 17.1608 198.596 19.3124 198.83 21.5698C199.305 24.6961 199.091 27.8885 198.203 30.9235C197.316 33.9584 195.775 36.7627 193.69 39.1399C192.656 40.3238 191.492 41.3871 190.22 42.3098C189.48 42.8398 189.48 42.8498 189.86 43.6998C190.073 44.1109 190.26 44.5351 190.42 44.9699C190.59 45.5999 190.97 45.7199 191.57 45.7199C197.39 45.7199 203.2 45.7199 209.01 45.7199C211.5 45.6699 213.942 46.4105 215.985 47.8353C218.028 49.2601 219.566 51.2959 220.38 53.6499C220.904 55.1926 221.108 56.8257 220.98 58.4498C220.98 58.8698 220.78 59.0998 220.33 59.0698C220.157 59.0598 219.983 59.0598 219.81 59.0698H185.35C183.518 59.1407 181.693 58.799 180.01 58.0698C178.661 57.4442 177.456 56.548 176.468 55.4367C175.481 54.3253 174.733 53.0227 174.27 51.6099C173.85 50.3999 173.42 49.1999 173 47.9899C172.966 47.8226 172.869 47.6747 172.73 47.5762C172.591 47.4777 172.419 47.4361 172.25 47.4599C170.97 47.4599 169.69 47.4599 168.41 47.4599C167.92 47.4599 167.77 47.6599 167.7 48.0999C167.4 49.8399 167.06 51.5798 166.76 53.3198C166.506 54.8356 165.749 56.2219 164.612 57.2558C163.475 58.2896 162.023 58.9109 160.49 59.0199C159.79 59.0199 159.1 59.1099 158.4 59.1099H116.8C115.369 59.1832 113.943 58.887 112.66 58.2499C111.86 57.8315 111.153 57.255 110.582 56.5554C110.012 55.8558 109.589 55.0476 109.34 54.1798C109.18 53.6198 108.98 53.3999 108.34 53.3999C102.53 53.3999 96.71 53.3999 90.9 53.3999C90.6886 53.3689 90.4728 53.4017 90.2803 53.4944C90.0878 53.5871 89.9275 53.7354 89.82 53.9199C87.51 57.5599 84.1 59.0999 79.82 59.0999H12.82C11.82 59.0999 11.82 59.0999 12 58.0999C12.6875 54.6038 14.5705 51.4562 17.3258 49.1972C20.0812 46.9381 23.537 45.7087 27.1 45.7199L51.6 45.6499ZM172.9 33.9799C173.57 33.9799 174.24 34.0299 174.9 33.9799C177.99 33.6699 180.31 32.2399 181.08 29.3599C181.91 26.2699 181.19 23.5999 177.29 23.1399C175.78 22.9599 174.29 23.1399 172.76 23.0199C172.17 23.0199 172.01 23.2499 171.94 23.7599C171.83 24.6499 171.66 25.5399 171.5 26.4199C171.09 28.6999 170.67 30.9799 170.26 33.2699C170.13 33.9599 170.18 34.0099 170.89 34.0199C171.6 34.0299 172.23 33.9799 172.9 33.9799ZM104.48 27.2899H104.3C101.98 31.5199 99.67 35.7498 97.3 40.0498H106.64C105.93 35.7298 105.21 31.5099 104.48 27.2899Z" fill="#F9007E"/>
<path d="M40.53 20.8599H47.53C48.44 20.8599 48.45 20.8599 48.28 21.7999C47.6134 25.3999 46.97 28.9966 46.35 32.5899C46.12 33.8799 45.89 35.1599 45.68 36.4499C45.6651 36.6212 45.5959 36.7835 45.4827 36.9129C45.3694 37.0424 45.2179 37.1324 45.05 37.17C41.0801 38.5036 36.9862 39.4348 32.83 39.9499C28.8989 40.462 24.9134 39.5658 21.58 37.42C19.9011 36.3039 18.5271 34.7866 17.5824 33.0056C16.6377 31.2245 16.1523 29.2359 16.17 27.2199C15.8177 22.8187 17.1372 18.4464 19.8654 14.9749C22.5937 11.5034 26.5302 9.18783 30.89 8.48993C33.8401 7.96063 36.8511 7.85954 39.83 8.18988C42.5541 8.40474 45.2543 8.85654 47.9 9.53998C48.73 9.75998 48.75 9.74998 48.46 10.54C47.63 12.95 46.77 15.35 45.97 17.78C45.77 18.4 45.4 18.3999 44.9 18.3099C42.989 17.9533 41.0592 17.7062 39.12 17.5699C37.2428 17.3548 35.3472 17.3548 33.47 17.5699C31.9206 17.8222 30.4987 18.5816 29.4273 19.7289C28.356 20.8763 27.6957 22.3469 27.55 23.91C27.4248 24.7739 27.445 25.6527 27.61 26.51C27.8368 27.5884 28.41 28.563 29.2424 29.2852C30.0747 30.0074 31.1204 30.4375 32.22 30.51C34.3444 30.6346 36.4754 30.4357 38.54 29.92C38.8017 29.7622 39.009 29.5282 39.1341 29.2495C39.2592 28.9707 39.2961 28.6603 39.24 28.3599C39.08 28.0799 38.78 28.1899 38.53 28.1799H32.58C31.37 28.1799 31.35 28.18 31.58 27.03C31.89 25.2 32.26 23.37 32.58 21.54C32.68 20.88 32.98 20.78 33.58 20.78C35.82 20.92 38.18 20.8599 40.53 20.8599Z" fill="#01B202"/>
<path d="M49.2101 26.5998C49.1716 23.6878 49.8458 20.8106 51.1739 18.2189C52.502 15.6271 54.4438 13.3993 56.8301 11.7298C59.3843 9.9352 62.3286 8.77326 65.4201 8.33982C68.0763 7.88326 70.7975 7.9683 73.4201 8.58982C78.8601 9.94982 82.3101 13.7099 82.9501 19.2699C83.5738 23.7505 82.4807 28.3013 79.89 32.0099C78.4694 34.0382 76.6573 35.7618 74.5603 37.0791C72.4634 38.3963 70.124 39.2805 67.6801 39.6798C65.0167 40.1798 62.2835 40.1798 59.6201 39.6798C56.8374 39.2414 54.2923 37.8536 52.4167 35.7519C50.541 33.6503 49.4504 30.9642 49.3301 28.1499C49.2601 27.6799 49.2401 27.1598 49.2101 26.5998ZM67.2101 17.5199C66.1671 17.5282 65.1402 17.778 64.2101 18.2499C60.6501 20.0299 59.6201 24.4899 60.4401 27.2499C60.6425 28.1218 61.1096 28.9098 61.7773 29.506C62.4451 30.1021 63.2808 30.4772 64.1701 30.5798C65.7908 30.851 67.454 30.4933 68.8201 29.5798C70.1329 28.6334 71.1351 27.3184 71.6995 25.8015C72.2638 24.2846 72.365 22.6342 71.9901 21.0598C71.7597 19.9818 71.1416 19.0259 70.2532 18.3734C69.3647 17.7209 68.2676 17.4171 67.1701 17.5199H67.2101Z" fill="#01B202"/>
<path d="M180.83 78.55C180.83 79.42 180.83 79.4201 179.98 79.4201C179.13 79.4201 178.06 79.4201 177.1 79.4201C176.62 79.4201 176.32 79.3201 176.3 78.7801C176.28 78.2401 175.94 77.9 175.3 77.93C174.17 77.98 173.03 77.93 171.9 77.93C171.35 77.93 170.9 78.03 170.75 78.6C170.672 78.8791 170.492 79.1185 170.246 79.2706C169.999 79.4226 169.704 79.476 169.42 79.4201C168.23 79.3501 167.04 79.4201 165.85 79.4201C165.78 78.9801 166.06 78.7201 166.23 78.4201C168.53 74.5901 170.86 70.78 173.15 66.94C173.248 66.7184 173.415 66.534 173.625 66.4135C173.836 66.293 174.079 66.2428 174.32 66.2701C175.162 66.3201 176.007 66.3201 176.85 66.2701C177.51 66.2701 177.75 66.5 177.85 67.1C178.48 69.75 179.15 72.3901 179.85 75.0401C180.12 76.1301 180.36 77.2301 180.76 78.4001C181.235 77.6105 181.64 76.7807 181.97 75.9201C182.58 74.7201 182.23 74.73 183.67 75.19C184.77 75.5655 185.906 75.8236 187.06 75.96C187.399 76.0235 187.749 75.978 188.06 75.83C188.46 75.61 188.47 75.2401 188.06 75.0301C187.741 74.8875 187.405 74.7866 187.06 74.73C186.348 74.5865 185.649 74.3858 184.97 74.1301C184.516 74.0134 184.093 73.7983 183.731 73.5C183.369 73.2018 183.077 72.8277 182.875 72.4041C182.674 71.9805 182.568 71.5178 182.566 71.0488C182.563 70.5798 182.663 70.1159 182.86 69.69C183.107 68.9261 183.544 68.2375 184.13 67.6884C184.716 67.1393 185.432 66.7475 186.21 66.55C187.942 66.0364 189.768 65.9236 191.55 66.22C192.47 66.35 193.38 66.56 194.29 66.72C194.78 66.81 194.99 66.9601 194.74 67.5201C194.361 68.3684 194.027 69.2362 193.74 70.12C193.58 70.59 193.36 70.69 192.9 70.55C192.07 70.31 191.22 70.1101 190.37 69.9201C189.712 69.7837 189.036 69.7566 188.37 69.84C188.1 69.84 187.85 69.99 187.82 70.31C187.79 70.63 188.07 70.74 188.31 70.82C188.55 70.9 188.88 70.9601 189.16 71.0401C189.75 71.1901 190.34 71.3301 190.92 71.5201C191.568 71.695 192.156 72.0424 192.622 72.5253C193.088 73.0082 193.414 73.6085 193.566 74.2621C193.718 74.9158 193.69 75.5984 193.485 76.2372C193.279 76.8761 192.904 77.4474 192.4 77.8901C191.406 78.8489 190.115 79.4412 188.74 79.57C186.833 79.7979 184.901 79.6519 183.05 79.1401L180.83 78.55ZM173.16 74.4101H174.99C175.2 74.4101 175.43 74.41 175.37 74.08C175.16 73.15 175.13 72.1701 174.81 71.1601C174.321 71.9134 173.87 72.691 173.46 73.49C173.274 73.7619 173.17 74.0811 173.16 74.4101Z" fill="#01B202"/>
<path d="M42.58 71.9399C43.23 70.7199 43.89 69.5 44.58 68.28C44.93 67.65 45.11 66.8099 45.69 66.4599C46.27 66.1099 47.05 66.36 47.75 66.36C49.28 66.36 49.27 66.36 49.52 67.87C49.74 69.22 49.99 70.55 50.24 71.98C50.5604 71.6643 50.7945 71.2718 50.92 70.8399C51.51 69.5499 52.11 68.2599 52.65 66.9499C52.7017 66.7551 52.8226 66.5857 52.9901 66.4735C53.1575 66.3612 53.3601 66.3138 53.56 66.3399C54.92 66.3399 56.28 66.3399 57.72 66.3399C57.4087 67.2688 57.0172 68.1689 56.55 69.03C55.05 72.27 53.55 75.49 52.02 78.73C51.9503 78.9628 51.7982 79.1623 51.592 79.2911C51.3859 79.4199 51.1399 79.4693 50.9 79.4299C49.9 79.4299 48.9 79.4299 47.9 79.4299C47.38 79.4299 47.21 79.23 47.14 78.74C46.91 77.14 46.63 75.56 46.35 73.74C45.9758 74.1694 45.672 74.6554 45.45 75.1799C44.7833 76.3799 44.1533 77.5899 43.56 78.8099C43.4953 78.9994 43.3678 79.1611 43.1987 79.2684C43.0296 79.3757 42.829 79.4221 42.63 79.4C41.56 79.4 40.48 79.4 39.41 79.4C39 79.4 38.77 79.3099 38.72 78.8399C38.28 74.9199 37.81 71.0099 37.37 67.0899C37.28 66.3399 37.31 66.3299 38.06 66.3199H41.2C42.01 66.3199 42.01 66.32 42.07 67.11C42.2 68.7 42.33 70.28 42.45 71.86L42.58 71.9399Z" fill="#01B202"/>
<path d="M155.3 75.33C154.98 75.47 154.84 75.7701 154.66 76.0101C153.96 76.9401 153.25 77.86 152.59 78.81C152.463 79.0184 152.281 79.1877 152.064 79.2989C151.847 79.4101 151.603 79.4589 151.36 79.44C149.54 79.44 149.54 79.44 148.9 77.7C148.6 76.87 148.26 76.0501 147.9 75.1301C147.646 75.5965 147.476 76.1044 147.4 76.6301C147.21 77.3201 147.03 78.0301 146.9 78.7401C146.899 78.8483 146.873 78.9547 146.825 79.0516C146.776 79.1484 146.707 79.2332 146.621 79.2995C146.536 79.3658 146.436 79.4119 146.331 79.4345C146.225 79.4571 146.115 79.4556 146.01 79.43C145.01 79.43 144.1 79.43 143.14 79.43C142.38 79.43 142.36 79.4301 142.53 78.6201C142.89 76.9301 143.29 75.2301 143.66 73.5401C144.13 71.4101 144.66 69.2901 145.03 67.1601C145.16 66.4901 145.45 66.3101 146.03 66.3501C146.786 66.39 147.544 66.39 148.3 66.3501C148.485 66.3213 148.673 66.3615 148.83 66.463C148.987 66.5644 149.101 66.72 149.15 66.9001C149.85 68.5801 150.58 70.2601 151.3 71.9001C151.409 72.2314 151.56 72.5473 151.75 72.84C152.04 72.84 152.12 72.5901 152.25 72.4201C153.72 70.5901 155.2 68.7601 156.65 66.9101C156.784 66.708 156.97 66.5456 157.188 66.44C157.406 66.3344 157.649 66.2895 157.89 66.31C158.676 66.35 159.464 66.35 160.25 66.31C160.77 66.31 160.97 66.4301 160.89 66.9901C160.38 70.5501 159.89 74.1101 159.42 77.6701C159.19 79.3801 159.19 79.3801 157.49 79.3801C156.85 79.3801 156.21 79.3801 155.57 79.3801C154.93 79.3801 154.76 79.3801 154.92 78.6601C155.082 77.8338 155.199 76.9992 155.27 76.1601C155.368 75.8937 155.379 75.6028 155.3 75.33Z" fill="#01B202"/>
<path d="M117.8 73.99C117.41 75.5246 117.11 77.0806 116.9 78.6501C116.81 79.2801 116.57 79.47 115.95 79.44C115.03 79.44 114.1 79.44 113.17 79.44C112.24 79.44 112.17 79.4401 112.38 78.5201L113.76 70.82C113.98 69.62 114.18 68.42 114.39 67.22C114.54 66.38 114.55 66.38 115.39 66.37C116.23 66.36 117.14 66.37 118.01 66.37C118.194 66.3483 118.379 66.3849 118.541 66.4746C118.702 66.5644 118.832 66.7027 118.91 66.87C119.763 68.29 120.63 69.7 121.51 71.1C121.63 71.29 121.7 71.5301 122 71.6501C122.31 70.5801 122.45 69.5 122.67 68.44C122.81 67.79 122.67 66.9401 123.12 66.5301C123.57 66.1201 124.45 66.39 125.12 66.38C125.914 66.3244 126.711 66.3478 127.5 66.45C127.17 68.37 126.86 70.25 126.5 72.13C126.11 74.3 125.68 76.46 125.33 78.63C125.23 79.3 124.96 79.49 124.33 79.46C123.52 79.46 122.7 79.46 121.89 79.46C121.706 79.4698 121.522 79.4283 121.359 79.34C121.197 79.2517 121.062 79.1202 120.97 78.96C120.03 77.49 119.07 76.04 118.12 74.58C118.12 74.41 117.99 74.28 117.8 73.99Z" fill="#01B202"/>
<path d="M27.99 79.6798C26.9713 79.7822 25.9443 79.5989 25.024 79.1503C24.1038 78.7016 23.3267 78.0055 22.78 77.1399C22.3358 76.3684 22.0583 75.5124 21.9653 74.6271C21.8723 73.7417 21.9659 72.8468 22.24 71.9999C23.17 68.5999 25.52 66.7999 28.9 66.1699C30.2754 65.9064 31.6966 66.0239 33.01 66.5099C33.8444 66.7862 34.5883 67.2837 35.1624 67.9493C35.7364 68.615 36.1192 69.4239 36.27 70.2899C36.4981 71.4188 36.4743 72.5842 36.2003 73.7029C35.9264 74.8216 35.409 75.866 34.6851 76.7618C33.9612 77.6576 33.0486 78.3827 32.0123 78.8854C30.9761 79.388 29.8417 79.6559 28.69 79.6699C28.42 79.6899 28.18 79.6798 27.99 79.6798ZM31.74 72.4199C31.7923 72.0325 31.736 71.6381 31.5773 71.2809C31.4186 70.9236 31.1638 70.6175 30.8413 70.3966C30.5187 70.1757 30.1412 70.0487 29.7508 70.0299C29.3603 70.011 28.9723 70.1011 28.63 70.2899C27.8909 70.6217 27.2962 71.2086 26.9546 71.9432C26.613 72.6778 26.5475 73.5109 26.77 74.2899C26.8861 74.6681 27.121 74.9987 27.4398 75.2329C27.7586 75.4671 28.1444 75.5922 28.54 75.5898C28.9619 75.6131 29.384 75.547 29.7786 75.3957C30.1732 75.2445 30.5314 75.0117 30.8297 74.7124C31.1281 74.4131 31.3598 74.0541 31.5098 73.659C31.6598 73.264 31.7246 72.8418 31.7 72.4199H31.74Z" fill="#01B202"/>
<path d="M212.92 79.6799C210.33 79.6799 208.47 79.09 207.26 77.17C206.475 75.8276 206.225 74.2385 206.56 72.7199C206.82 71.0409 207.62 69.4925 208.841 68.3103C210.061 67.128 211.634 66.3766 213.32 66.17C214.611 65.9433 215.937 66.0256 217.19 66.41C218.229 66.7139 219.144 67.3413 219.802 68.2009C220.461 69.0605 220.828 70.1075 220.85 71.1899C220.955 72.2834 220.827 73.3868 220.473 74.427C220.12 75.4671 219.549 76.4203 218.799 77.2231C218.05 78.0259 217.138 78.6601 216.124 79.0837C215.11 79.5073 214.018 79.7105 212.92 79.6799ZM213.19 75.6799C215.3 75.7799 216.45 73.6799 216.19 71.9499C216.173 71.6262 216.077 71.3116 215.911 71.0332C215.745 70.7547 215.514 70.5208 215.237 70.3515C214.961 70.1823 214.647 70.0828 214.324 70.0616C214 70.0404 213.676 70.0982 213.38 70.2299C212.619 70.4799 211.974 70.9956 211.563 71.6824C211.152 72.3693 211.001 73.1814 211.14 73.9699C211.196 74.4618 211.441 74.9126 211.824 75.2264C212.207 75.5402 212.697 75.6922 213.19 75.65V75.6799Z" fill="#01B202"/>
<path d="M98.75 79.42H94.1C93.77 79.42 93.66 79.2299 93.57 78.9599C93.35 78.3299 93.08 77.7099 92.9 77.0699C92.72 76.4299 92.4 76.3199 91.82 76.3499C91.24 76.3799 91.23 76.7899 91.16 77.1799C91.06 77.7499 90.93 78.3199 90.87 78.8899C90.87 79.2999 90.63 79.4299 90.24 79.4299C89.14 79.4299 88.03 79.4299 86.93 79.4299C86.32 79.4299 86.27 79.1699 86.36 78.6799C86.78 76.4299 87.18 74.17 87.59 71.92C87.88 70.29 88.16 68.66 88.45 67.04C88.51 66.75 88.45 66.3499 88.94 66.3599C91.35 66.3599 93.76 65.9599 96.16 66.3599C98.16 66.6999 99.35 67.7999 99.54 69.4899C99.6939 70.4279 99.6057 71.3896 99.2837 72.2839C98.9616 73.1781 98.4165 73.9754 97.7 74.5999C97.5863 74.6666 97.4878 74.7566 97.4111 74.8638C97.3343 74.9711 97.281 75.0932 97.2546 75.2225C97.2282 75.3517 97.2293 75.485 97.2578 75.6138C97.2863 75.7426 97.3415 75.8639 97.42 75.9699C97.88 76.8799 98.25 77.8299 98.65 78.7599C98.73 78.9499 98.89 79.11 98.75 79.42ZM92.75 72.8099C93.92 72.8099 94.65 72.37 94.88 71.53C94.9491 71.3674 94.9801 71.1913 94.9708 71.0149C94.9614 70.8386 94.912 70.6667 94.8261 70.5124C94.7403 70.3581 94.6203 70.2254 94.4755 70.1244C94.3306 70.0235 94.1645 69.9569 93.99 69.9299C92.86 69.6899 92.49 69.9299 92.3 70.8399C92.23 71.2399 92.15 71.64 92.09 72.04C91.99 72.8 91.99 72.7999 92.73 72.8599L92.75 72.8099Z" fill="#01B202"/>
<path d="M106.73 75.5801H111.23C111.57 75.5801 111.71 75.7101 111.65 76.0601C111.48 77.0601 111.32 78.0001 111.17 78.9801C111.11 79.3301 110.89 79.4301 110.55 79.4301H99.7501C99.3201 79.4301 99.1701 79.2501 99.2401 78.8501C99.3601 78.1601 99.4601 77.4802 99.5901 76.7902C99.6601 76.3902 99.9901 76.1702 100.26 75.9102C101.95 74.2402 103.66 72.5802 105.36 70.9102C105.608 70.7382 105.791 70.4882 105.88 70.2001H102.5C101.18 70.2001 101.18 70.2001 101.41 68.9301C101.53 68.2501 101.65 67.5601 101.74 66.8701C101.8 66.4801 101.98 66.3501 102.38 66.3501H112.66C113.13 66.3501 113.18 66.5401 113.11 66.9301C112.99 67.5601 112.89 68.1901 112.82 68.8201C112.75 69.4501 112.38 69.6201 112.06 69.9501C110.49 71.5401 108.9 73.1101 107.32 74.6901C107.1 74.9101 106.89 75.1501 106.67 75.3701L106.73 75.5801Z" fill="#01B202"/>
<path d="M67.3299 79.42H62.9899C62.1199 79.42 62.1199 79.42 62.2699 78.54C62.8599 75.17 63.4499 71.7999 64.0599 68.4299C64.1899 67.7599 64.0599 66.8799 64.5399 66.4299C65.0199 65.9799 65.8299 66.3199 66.5399 66.3199H74.1199C74.8599 66.3199 74.8699 66.32 74.7599 67.02C74.6499 67.72 74.4499 68.5 74.3799 69.25C74.3099 70 73.9999 69.9799 73.4599 69.9699C71.9799 69.9699 70.4599 69.9699 69.0099 69.9699C68.7699 69.9699 68.4799 69.8999 68.3099 70.1799C68.0099 70.6599 68.2299 71.0599 68.8399 71.0699C69.9999 71.0699 71.1599 71.0699 72.3199 71.0699C73.0899 71.0699 73.0999 71.07 72.9699 71.87C72.8399 72.67 72.6899 73.2399 72.5999 73.9299C72.5399 74.3999 72.3099 74.5599 71.8499 74.5499C70.6299 74.5499 69.4099 74.5499 68.1899 74.5499C67.9399 74.5499 67.6599 74.49 67.4899 74.78C67.1599 75.31 67.3699 75.7199 68.0099 75.7199H72.3699C73.1899 75.7199 73.1899 75.7199 73.0699 76.5599C72.9499 77.3999 72.8299 77.93 72.7399 78.62C72.6499 79.31 72.4299 79.39 71.8399 79.38C70.2999 79.39 68.8099 79.42 67.3299 79.42Z" fill="#01B202"/>
<path d="M131.99 79.4199H127.81C126.81 79.4199 126.81 79.4199 126.97 78.4199C127.38 76.1099 127.8 73.7999 128.21 71.4999C128.48 70.0099 128.76 68.4998 128.99 67.0498C129.07 66.5498 129.25 66.3599 129.77 66.3599C132.77 66.3599 135.77 66.3599 138.83 66.3599C139.55 66.3599 139.55 66.3599 139.41 67.1099C139.27 67.8599 139.13 68.5299 139.05 69.2499C138.98 69.8099 138.76 70.0399 138.16 70.0199C136.77 70.0199 135.38 70.0199 133.98 70.0199H133.37C132.86 70.0199 132.88 70.4199 132.86 70.7699C132.84 71.1199 133.17 71.1199 133.41 71.1199H136.99C137.74 71.1199 137.74 71.1199 137.62 71.8999C137.5 72.6799 137.35 73.2698 137.29 73.9598C137.23 74.6498 136.97 74.6099 136.49 74.5999C135.27 74.5999 134.05 74.5999 132.83 74.5999C132.58 74.5999 132.31 74.5399 132.15 74.8499C131.83 75.4199 132.02 75.7699 132.68 75.7699C134.19 75.7699 135.68 75.7699 137.21 75.7699C137.72 75.7699 137.87 75.9199 137.77 76.4199C137.62 77.2199 137.48 78.0198 137.38 78.8198C137.31 79.2998 137.07 79.4398 136.62 79.4298C135.09 79.4098 133.55 79.4199 131.99 79.4199Z" fill="#01B202"/>
<path d="M14.15 66.3399C15.4177 66.1699 16.7023 66.1699 17.97 66.3399C20.56 66.7499 21.82 68.28 21.69 70.91C21.53 74.22 19.38 76.35 15.87 76.65C15.2905 76.6848 14.7095 76.6848 14.13 76.65C13.64 76.65 13.37 76.7699 13.32 77.2999C13.27 77.8299 13.11 78.21 13.07 78.67C13.03 79.13 12.81 79.42 12.25 79.39C11.25 79.39 10.25 79.39 9.24999 79.39C8.52999 79.39 8.50999 79.39 8.63999 78.66C9.13999 75.75 9.63999 72.8399 10.17 69.9299C10.35 68.9299 10.52 67.9299 10.68 66.9299C10.6788 66.838 10.6978 66.747 10.7355 66.6633C10.7732 66.5795 10.8288 66.505 10.8983 66.445C10.9679 66.385 11.0497 66.3409 11.1381 66.3159C11.2265 66.2908 11.3193 66.2853 11.41 66.2999C12.29 66.3599 13.22 66.3399 14.15 66.3399ZM15.01 72.9999C16.31 72.9999 17.01 72.41 17.01 71.27C17.01 70.43 16.67 69.94 15.89 69.91C14.35 69.85 14.61 69.84 14.4 70.91C14.33 71.31 14.27 71.7099 14.21 72.1099C14.13 72.9999 14.13 72.9999 14.99 72.9999H15.01Z" fill="#01B202"/>
<path d="M75.1602 70.1101C75.3402 69.0201 75.5302 67.9702 75.6802 66.9102C75.7402 66.4702 75.9502 66.3501 76.3802 66.3501H87.1002C87.6402 66.3501 87.7302 66.5602 87.6402 67.0302C87.4602 67.9102 87.3102 68.7901 87.1502 69.6801C87.1501 69.7594 87.1325 69.8378 87.0987 69.9095C87.0649 69.9813 87.0157 70.0447 86.9546 70.0953C86.8935 70.1459 86.822 70.1824 86.7452 70.2023C86.6684 70.2221 86.5881 70.2248 86.5102 70.2101C85.7302 70.2101 84.9402 70.2101 84.1602 70.2101C83.5402 70.2101 83.2902 70.3801 83.1602 70.9801C82.7602 73.3901 82.3302 75.7801 81.9102 78.1801C81.9102 78.2601 81.9102 78.3501 81.9102 78.4401C81.6502 79.6101 81.8502 79.4401 80.7302 79.4401H77.9902C77.2802 79.4401 77.2502 79.4401 77.3802 78.6801C77.8335 76.1401 78.2902 73.6001 78.7502 71.0601C78.8902 70.2301 78.8802 70.2301 78.0702 70.2201H75.4602L75.1602 70.1101Z" fill="#01B202"/>
<path d="M207.36 66.3501C207.15 67.5601 206.96 68.6501 206.78 69.7301C206.73 70.0901 206.54 70.2101 206.2 70.2001C205.35 70.2001 204.51 70.2001 203.67 70.2001C203.11 70.2001 202.92 70.3902 202.83 70.9202C202.4 73.4902 201.91 76.0501 201.49 78.6301C201.39 79.2401 201.2 79.4801 200.56 79.4501C199.56 79.4501 198.56 79.4501 197.56 79.4501C196.84 79.4501 196.82 79.4501 196.95 78.7101C197.39 76.1401 197.85 73.5701 198.3 71.0001C198.43 70.2401 198.43 70.2401 197.67 70.2301C196.91 70.2201 196.1 70.2301 195.32 70.2301C194.8 70.2301 194.73 70.0101 194.81 69.5901C194.98 68.7401 195.17 67.8901 195.28 67.0201C195.35 66.5101 195.57 66.3601 196.08 66.3601C198.17 66.3601 200.26 66.3601 202.36 66.3601L207.36 66.3501Z" fill="#01B202"/>
<path d="M58.39 79.4202C57.87 79.4202 57.39 79.4202 56.83 79.4202C56.27 79.4202 56.13 79.3201 56.24 78.7301C56.89 75.2601 57.48 71.7301 58.11 68.3101C58.23 67.6901 58.11 66.8802 58.55 66.5002C58.99 66.1202 59.82 66.3801 60.48 66.3501C61.14 66.3201 61.76 66.3501 62.4 66.3501C62.81 66.3501 62.96 66.4602 62.88 66.9002C62.16 70.8602 61.46 74.8235 60.78 78.7902C60.7799 78.8905 60.757 78.9894 60.7131 79.0795C60.6691 79.1696 60.6051 79.2484 60.5261 79.3101C60.447 79.3718 60.355 79.4147 60.2569 79.4355C60.1588 79.4563 60.0573 79.4544 59.96 79.4301C59.44 79.4001 58.91 79.4202 58.39 79.4202Z" fill="#01B202"/>
<path d="M162.74 79.42C162.19 79.42 161.63 79.42 161.08 79.42C160.53 79.42 160.49 79.2799 160.58 78.7999C160.96 76.7999 161.31 74.7999 161.67 72.7299C162.03 70.6599 162.37 68.9599 162.67 67.0699C162.76 66.4799 163 66.3099 163.57 66.3299C164.62 66.3299 165.67 66.3299 166.71 66.3299C167.19 66.3299 167.3 66.4799 167.21 66.9499C166.51 70.8832 165.817 74.8233 165.13 78.77C165.06 79.21 164.89 79.44 164.4 79.41C163.91 79.38 163.29 79.42 162.74 79.42Z" fill="#01B202"/>
<path d="M172.9 33.9799C172.23 33.9799 171.57 33.9799 170.9 33.9799C170.23 33.9799 170.14 33.9199 170.27 33.2299C170.68 30.9399 171.1 28.6599 171.51 26.3799C171.67 25.4999 171.84 24.6099 171.95 23.7199C172.02 23.2099 172.18 22.9499 172.77 22.9799C174.28 23.0699 175.77 22.9199 177.3 23.0999C181.2 23.5599 181.92 26.2298 181.09 29.3198C180.32 32.1998 178 33.6298 174.91 33.9398C174.24 33.9998 173.57 33.9398 172.91 33.9398L172.9 33.9799Z" fill="#300442"/>
<path d="M104.48 27.29C105.21 31.51 105.93 35.73 106.66 40.01H97.3201C99.6701 35.71 101.98 31.48 104.32 27.25L104.48 27.29Z" fill="#300442"/>
<path d="M67.1701 17.5202C68.2553 17.429 69.3368 17.7345 70.2139 18.3799C71.091 19.0254 71.7044 19.967 71.9401 21.0302C72.315 22.6046 72.2139 24.2549 71.6495 25.7718C71.0852 27.2886 70.083 28.6036 68.7701 29.5501C67.4041 30.4636 65.7409 30.8213 64.1201 30.5501C63.2309 30.4475 62.3951 30.0724 61.7274 29.4763C61.0596 28.8801 60.5925 28.0921 60.3901 27.2201C59.5701 24.4401 60.6001 19.9801 64.1601 18.2201C65.0958 17.7572 66.1262 17.5176 67.1701 17.5202Z" fill="#300442"/>
<path d="M173.16 74.4102C173.182 74.0771 173.3 73.7576 173.5 73.4901C173.91 72.6911 174.361 71.9135 174.85 71.1602C175.17 72.1602 175.2 73.1601 175.41 74.0801C175.47 74.3601 175.24 74.4102 175.03 74.4102H173.16Z" fill="#300442"/>
<path d="M31.7 72.4199C31.7326 72.8494 31.6724 73.2808 31.5234 73.685C31.3744 74.0891 31.1401 74.4564 30.8365 74.7619C30.5329 75.0674 30.1671 75.304 29.7639 75.4555C29.3607 75.607 28.9296 75.6699 28.5 75.6399C28.1044 75.6423 27.7186 75.517 27.3998 75.2829C27.0809 75.0487 26.8461 74.718 26.73 74.3399C26.5074 73.5609 26.573 72.7279 26.9146 71.9933C27.2561 71.2587 27.8509 70.6717 28.59 70.3399C28.9284 70.1548 29.311 70.066 29.6963 70.0831C30.0816 70.1003 30.4548 70.2229 30.7754 70.4373C31.096 70.6517 31.3517 70.9498 31.5147 71.2993C31.6777 71.6489 31.7418 72.0365 31.7 72.4199Z" fill="#300442"/>
<path d="M213.19 75.65C212.692 75.6918 212.198 75.5358 211.814 75.2157C211.431 74.8956 211.188 74.4373 211.14 73.9399C211.002 73.1514 211.152 72.3393 211.563 71.6525C211.974 70.9656 212.62 70.4499 213.38 70.2C213.676 70.0682 214 70.0104 214.324 70.0316C214.647 70.0528 214.961 70.1523 215.237 70.3215C215.514 70.4908 215.745 70.7247 215.911 71.0032C216.077 71.2816 216.173 71.5963 216.19 71.92C216.45 73.61 215.3 75.75 213.19 75.65Z" fill="#300442"/>
<path d="M92.7301 72.86C91.9501 72.86 91.9501 72.8599 92.0701 72.0899C92.1301 71.6899 92.21 71.29 92.28 70.89C92.47 69.89 92.84 69.74 93.97 69.98C94.1446 70.007 94.3106 70.0735 94.4555 70.1744C94.6004 70.2753 94.7203 70.408 94.8062 70.5624C94.892 70.7167 94.9415 70.8886 94.9508 71.0649C94.9602 71.2413 94.9291 71.4174 94.86 71.5799C94.63 72.3699 93.9001 72.86 92.7301 72.86Z" fill="#300442"/>
<path d="M14.9901 73C14.1101 73 14.1101 73 14.2201 72.15C14.2801 71.75 14.3401 71.3499 14.4101 70.9499C14.6201 69.8399 14.4101 69.8499 15.9001 69.9499C16.6801 69.9499 17.0401 70.4699 17.0201 71.3099C16.9901 72.4099 16.3101 73 14.9901 73Z" fill="#300442"/>
</g>
<defs>
<clipPath id="clip0">
<rect width="229.18" height="84.83" fill="white"/>
</clipPath>
</defs>
</svg>
