<svg width="213" height="112" viewBox="0 0 213 112" fill="none" xmlns="http://www.w3.org/2000/svg">
<g clip-path="url(#clip0)">
<path d="M136.95 28.1499C137.02 27.8599 136.79 27.6899 136.68 27.4899C134.307 23.5519 132.616 19.2412 131.68 14.7399C130.875 11.4395 130.986 7.98217 132 4.73994C133.48 0.58994 137.23 -1.07009 141.32 0.579906C142.273 1.02394 143.122 1.66398 143.812 2.45832C144.501 3.25267 145.015 4.18346 145.32 5.18989C146.187 7.69873 146.833 10.2785 147.25 12.8999C147.47 13.9799 147.68 15.0699 147.9 16.1499C147.9 16.3099 147.9 16.5599 148.1 16.5899C148.3 16.6199 148.35 16.3399 148.41 16.1799C149.6 12.9978 151.907 10.3571 154.9 8.74995C156.297 7.94268 157.867 7.48127 159.479 7.40425C161.091 7.32723 162.698 7.63684 164.166 8.3072C165.634 8.97756 166.92 9.98926 167.918 11.2579C168.915 12.5265 169.595 14.0152 169.9 15.5999C170.24 17.0799 170.24 17.0699 171.4 16.0799C173.047 14.4544 175.021 13.1967 177.19 12.3898C178.151 12.0567 179.184 11.9865 180.182 12.1866C181.18 12.3867 182.106 12.8498 182.865 13.5279C183.623 14.206 184.187 15.0746 184.497 16.0437C184.808 17.0127 184.854 18.0472 184.63 19.0399C183.98 22.0942 182.558 24.931 180.5 27.2799C175.668 33.2444 169.189 37.6573 161.87 39.9699C161.67 40.0299 161.37 39.9698 161.32 40.2698C161.27 40.5698 161.48 40.5099 161.59 40.5999C165.25 43.4999 167.59 47.3698 169.49 51.5198C171.318 55.1689 172.192 59.2217 172.03 63.2999C171.95 64.9581 171.492 66.5761 170.69 68.0299C170.285 68.8383 169.696 69.5405 168.97 70.0798C168.244 70.6191 167.402 70.9806 166.511 71.1352C165.62 71.2898 164.705 71.2333 163.84 70.9702C162.975 70.707 162.184 70.2445 161.53 69.6199C159.557 67.7916 158.06 65.5087 157.17 62.9699C155.92 59.9699 154.88 56.8699 153.38 53.9699C153.09 53.4099 152.97 53.27 152.53 53.88C150.904 56.3342 148.722 58.3695 146.16 59.8199C145.147 60.4315 144.01 60.8107 142.832 60.93C141.655 61.0493 140.465 60.9058 139.35 60.5098C137.708 59.8647 136.374 58.6187 135.618 57.025C134.862 55.4312 134.741 53.6095 135.28 51.9299C135.638 50.6743 136.217 49.4925 136.99 48.4399C137.36 47.9499 137.2 47.8099 136.72 47.5999C131.344 45.2514 125.786 43.345 120.1 41.8999C114.686 40.5115 109.193 39.4562 103.65 38.7399C99.3799 38.1899 95.0799 37.8299 90.7699 37.6099C86.1032 37.3699 81.4632 37.3299 76.8499 37.4899C65.6875 37.7687 54.5944 39.3323 43.7899 42.1499C35.7899 44.2999 28.1299 47.1498 21.1399 51.6398C17.3432 53.9633 14.0075 56.9669 11.2999 60.5C6.29992 67.2599 5.58992 74.5799 8.56992 82.3399C9.32407 84.2265 10.2165 86.0548 11.2399 87.8099C11.3848 88.0828 11.585 88.3226 11.8278 88.5137C12.0706 88.7049 12.3506 88.8432 12.6499 88.9199C14.9557 89.5428 17.3438 89.8059 19.7299 89.6999H21.2499C20.9199 90.0699 20.6499 90.3499 20.4199 90.6999C20.1923 90.9531 20.019 91.2503 19.9107 91.5732C19.8025 91.8961 19.7617 92.2378 19.7907 92.5771C19.8198 92.9164 19.9181 93.2461 20.0797 93.5458C20.2412 93.8456 20.4625 94.109 20.7299 94.3199C21.3249 94.8815 21.9986 95.3531 22.7299 95.7199C22.9099 95.8099 23.1699 95.8198 23.2699 96.1398C22.2433 96.1275 21.2172 96.191 20.1999 96.3299C18.8684 96.5496 17.6199 97.1217 16.5842 97.9869C15.5485 98.8521 14.7632 99.9788 14.3099 101.25C14.0899 101.82 14.0099 101.9 13.5299 101.42C11.9496 99.7358 9.94332 98.5104 7.72351 97.8731C5.50371 97.2359 3.15292 97.2105 0.919922 97.7999C0.593095 97.8898 0.258092 97.9468 -0.0800781 97.9699C0.729922 97.2799 1.59992 96.6999 2.36992 95.9699C3.08882 95.3451 3.6944 94.6008 4.15992 93.7698C4.48511 93.2512 4.59797 92.6273 4.47506 92.0277C4.35215 91.428 4.00291 90.8987 3.49992 90.5499C3.38992 90.4599 3.21992 90.4199 3.20992 90.1199C4.17688 90.3294 5.17522 90.3497 6.14992 90.1799C6.61992 90.0699 7.08992 89.9799 7.53992 89.8399C8.34993 89.5799 8.34993 89.5299 7.87992 88.8399C6.03158 86.1842 4.44737 83.354 3.14992 80.3898C0.80396 75.1819 -0.0344496 69.4204 0.729923 63.7598C1.49629 58.9088 3.47014 54.3285 6.46992 50.4399C10.5783 45.144 15.6717 40.6923 21.4699 37.3299C28.8985 32.932 36.86 29.5042 45.1599 27.13C53.5472 24.6395 62.1368 22.8894 70.8299 21.8999C78.6263 20.9621 86.4793 20.5779 94.3299 20.75C102.58 20.9186 110.801 21.7714 118.91 23.2999C124.851 24.4075 130.691 26.003 136.37 28.0699C136.6 28.1299 136.73 28.3199 136.95 28.1499ZM141.95 39.5499C141.86 39.2399 142.06 39.1199 142.18 38.9799C143.006 38.0321 143.979 37.2219 145.06 36.5799C148 34.8799 151.72 34.8999 154.06 37.3199C154.173 37.4193 154.309 37.4887 154.456 37.5219C154.602 37.5551 154.755 37.5509 154.9 37.5098C158.006 37.2759 161.049 36.515 163.9 35.2598C169.846 32.7991 174.977 28.7088 178.7 23.4599C179.803 21.9841 180.549 20.2727 180.88 18.4599C181.17 16.4599 180.01 15.5499 178.12 16.1699C177.269 16.4725 176.475 16.9153 175.77 17.4799C173.778 19.0886 171.872 20.801 170.06 22.6099C169.882 22.7849 169.757 23.0069 169.7 23.25C169.248 24.8726 168.514 26.4026 167.53 27.7698C165.707 30.4892 162.906 32.4017 159.71 33.1099C155.71 33.9499 152.48 32.4999 149.81 29.5699C147.446 26.7889 145.78 23.4841 144.95 19.9299C143.95 16.2799 143.46 12.5199 142.56 8.84993C142.312 7.48972 141.784 6.19576 141.01 5.04988C140.71 4.62951 140.307 4.2937 139.839 4.0749C139.371 3.8561 138.855 3.76175 138.34 3.80098C137.825 3.8402 137.329 4.01166 136.9 4.29878C136.471 4.5859 136.123 4.97895 135.89 5.43989C135.355 6.49505 135.064 7.65715 135.04 8.83992C134.963 12.8899 135.808 16.9043 137.51 20.5799C139.079 24.222 141.094 27.6549 143.51 30.7999C143.81 31.1999 143.84 31.4499 143.45 31.7999C142.922 32.2643 142.418 32.7549 141.94 33.2698C140.128 34.9873 138.824 37.1704 138.17 39.5799C137.903 40.5559 137.929 41.5887 138.243 42.5504C138.558 43.512 139.148 44.3603 139.94 44.9899C140.078 45.1489 140.269 45.2512 140.478 45.2771C140.687 45.3029 140.898 45.2505 141.07 45.13C142.05 44.5682 143.086 44.109 144.16 43.7598C145.128 43.3799 146.134 43.1018 147.16 42.9299C147.016 43.1361 146.845 43.3213 146.65 43.4799C145.15 44.7299 143.65 45.9699 142.15 47.2399C140.395 48.7302 139.219 50.7904 138.83 53.0599C138.699 53.575 138.713 54.1162 138.869 54.6242C139.025 55.1322 139.318 55.5876 139.715 55.9405C140.112 56.2934 140.599 56.5304 141.122 56.6256C141.645 56.7207 142.184 56.6703 142.68 56.4799C143.631 56.1525 144.513 55.6506 145.28 55C147.525 53.095 149.364 50.7589 150.69 48.13C151.503 46.6284 151.99 44.9723 152.12 43.2698C152.28 40.7798 151.03 39.0399 148.82 38.7399C147.675 38.5926 146.514 38.6263 145.38 38.8399C144.25 39.0599 143.11 39.3199 141.97 39.5499H141.95ZM166.52 19.25C166.52 18.6399 166.52 18.1799 166.44 17.7399C165.62 11.6599 160.24 9.65994 155.81 12.7399C154.05 14.0245 152.7 15.7913 151.923 17.8267C151.145 19.8622 150.974 22.0793 151.43 24.2099C152.62 29.1299 157.43 31.0698 161.6 28.2698C163.096 27.2826 164.328 25.9448 165.189 24.3728C166.05 22.8007 166.514 21.0421 166.54 19.25H166.52ZM167.39 61.6899C167.39 61.4299 167.39 60.9799 167.31 60.5399C166.597 55.6565 164.687 51.0255 161.75 47.0599C160.516 45.2168 158.874 43.6837 156.95 42.5799C156.53 42.3499 156.28 42.2499 156.32 42.9299C156.427 44.8642 156.113 46.7986 155.4 48.5999C155.304 48.8115 155.27 49.0459 155.302 49.276C155.334 49.506 155.43 49.7223 155.58 49.8999C156.32 50.9672 156.989 52.0832 157.58 53.2399C159.08 56.0799 160.24 59.0699 161.58 61.9799C162.182 63.446 163.073 64.7757 164.2 65.8898C165.36 66.9498 166.2 66.7799 166.79 65.3399C167.261 64.1833 167.473 62.9373 167.41 61.6899H167.39Z" fill="#77C003"/>
<path d="M170.73 85.46C169.31 87.39 167.98 89.18 166.66 90.96C165.66 92.33 164.66 93.7 163.66 95.09C163.54 95.2764 163.371 95.4262 163.172 95.5232C162.973 95.6202 162.75 95.6605 162.53 95.6399C161.1 95.6399 159.67 95.6399 158.24 95.6399C157.998 95.6631 157.757 95.5978 157.56 95.4562C157.363 95.3145 157.224 95.1063 157.17 94.87C156.17 92.07 155.07 89.2899 154.02 86.5099C153.91 86.2299 153.79 85.96 153.69 85.7C153.37 85.7 153.41 85.92 153.37 86.07C152.66 88.99 151.93 91.9 151.24 94.83C151.1 95.42 150.88 95.6499 150.24 95.6399C147.5 95.5999 144.766 95.5999 142.04 95.6399C141.35 95.6399 141.16 95.4899 141.32 94.7899C142.6 89.0233 143.866 83.2533 145.12 77.48C145.93 73.81 146.74 70.14 147.51 66.48C147.63 65.93 147.86 65.81 148.36 65.82C150.72 65.82 153.08 65.82 155.44 65.82C155.646 65.7965 155.854 65.8483 156.024 65.966C156.195 66.0836 156.318 66.2591 156.37 66.46C158.31 71.08 160.256 75.6933 162.21 80.2999C162.54 81.0699 162.59 81.08 163.1 80.45C166.806 75.7833 170.513 71.1166 174.22 66.45C174.357 66.2459 174.546 66.0819 174.767 65.9748C174.989 65.8676 175.235 65.8211 175.48 65.84C177.86 65.84 180.24 65.84 182.62 65.84C183.15 65.84 183.32 65.9799 183.25 66.5199C182.57 71.5199 181.91 76.5199 181.25 81.5199C180.66 85.9899 180.05 90.46 179.48 94.93C179.41 95.49 179.26 95.7 178.67 95.7C175.88 95.7 173.1 95.7 170.32 95.7C169.58 95.7 169.51 95.44 169.6 94.82C170.01 91.82 170.39 88.91 170.78 85.95C170.774 85.7857 170.757 85.6221 170.73 85.46Z" fill="#7C1489"/>
<path d="M46.3098 77.6202C48.6098 77.6202 50.9198 77.6202 53.2298 77.6202C53.8098 77.6202 53.9598 77.7802 53.8498 78.3502C52.9898 83.1568 52.1432 87.9668 51.3098 92.7801C51.2985 92.9537 51.2309 93.1189 51.1172 93.2507C51.0035 93.3824 50.8499 93.4735 50.6798 93.5101C46.5398 94.7101 42.4198 96.0501 38.0798 96.2701C33.7398 96.4901 29.5798 95.5501 26.3198 92.3401C23.4798 89.5401 22.5998 86.0201 22.7998 82.1501C22.8955 79.0799 23.7658 76.0838 25.3298 73.4401C26.5813 71.4026 28.2524 69.655 30.2318 68.3135C32.2112 66.9721 34.4536 66.0675 36.8098 65.6601C40.8732 64.9715 45.0257 64.9987 49.0798 65.7402C50.5912 65.9741 52.0898 66.2844 53.5698 66.6701C54.0998 66.7901 54.2298 66.9602 54.0498 67.4702C53.1998 69.9002 52.3498 72.3401 51.5298 74.7801C51.3498 75.3201 51.0598 75.3002 50.6198 75.2202C47.6483 74.6882 44.6383 74.4006 41.6198 74.3602C40.3895 74.3196 39.1632 74.52 38.0098 74.9501C34.0098 76.5801 33.1598 81.0401 34.0098 83.6901C34.3374 84.7296 34.9994 85.6316 35.8929 86.2556C36.7864 86.8795 37.8612 87.1905 38.9498 87.1401C40.7566 87.1404 42.5577 86.9392 44.3198 86.5401C44.6026 86.4063 44.8307 86.1791 44.9655 85.8968C45.1003 85.6144 45.1336 85.2942 45.0598 84.9902C44.9098 84.7002 44.6198 84.8201 44.3898 84.8201C42.3298 84.8201 40.2698 84.8201 38.2198 84.8201C37.5598 84.8201 37.4698 84.6101 37.5798 84.0301C37.9398 82.1101 38.2732 80.1867 38.5798 78.2601C38.6598 77.7401 38.8898 77.5602 39.3698 77.6202H46.2998H46.3098Z" fill="#77C003"/>
<path d="M87.36 78.32C87.4034 82.6049 85.8891 86.7597 83.0987 90.0118C80.3083 93.2638 76.4318 95.3919 72.19 96C69.1781 96.6073 66.0629 96.463 63.12 95.58C60.7541 94.8825 58.6686 93.4564 57.1604 91.5047C55.6522 89.553 54.7982 87.1753 54.72 84.71C54.3163 80.0248 55.7777 75.3696 58.7867 71.7558C61.7957 68.142 66.1092 65.8615 70.79 65.41C73.5254 64.9971 76.3183 65.1918 78.97 65.98C84.23 67.71 87.25 71.98 87.36 77.72C87.37 77.87 87.36 78.07 87.36 78.32ZM76.84 79.6499C76.79 79.1499 76.78 78.65 76.69 78.16C76.5688 77.2842 76.1831 76.4665 75.5844 75.816C74.9857 75.1655 74.2027 74.7133 73.34 74.5199C71.9877 74.2485 70.5839 74.424 69.34 75.0199C67.8142 75.8325 66.6049 77.1331 65.9051 78.7138C65.2054 80.2945 65.0557 82.0642 65.48 83.74C65.6608 84.6326 66.1222 85.4439 66.7969 86.0556C67.4715 86.6673 68.3241 87.0472 69.23 87.1399C70.1813 87.2574 71.1469 87.1513 72.05 86.83C74.93 85.83 76.73 83.09 76.84 79.6V79.6499Z" fill="#77C003"/>
<path d="M119.64 65.8301C121.14 65.8301 122.64 65.8301 124.15 65.8301C124.65 65.8301 124.86 65.9001 124.76 66.5001C123.88 71.4301 123.04 76.37 122.19 81.3C122.053 82.0654 122.016 82.8453 122.08 83.6201C122.079 84.0438 122.165 84.463 122.334 84.8518C122.502 85.2406 122.749 85.5905 123.058 85.8796C123.368 86.1687 123.734 86.3907 124.134 86.5318C124.533 86.673 124.957 86.7303 125.38 86.7001C126.266 86.7126 127.137 86.4741 127.892 86.0122C128.648 85.5503 129.257 84.8839 129.65 84.0901C130.351 82.6453 130.791 81.088 130.95 79.4901C131.63 75.5701 132.29 71.6401 132.95 67.7201C133.06 67.1201 132.95 66.3101 133.38 65.9601C133.81 65.6101 134.64 65.8501 135.29 65.8401C137.85 65.8401 140.41 65.8401 142.96 65.8401C143.52 65.8401 143.65 66.02 143.55 66.54C142.62 71.77 141.77 77.0101 140.76 82.2201C140.083 86.6375 137.694 90.6107 134.11 93.28C131.937 94.8329 129.404 95.807 126.75 96.1101C123.733 96.6177 120.637 96.3528 117.75 95.3401C113.89 93.8901 111.98 90.9801 111.49 86.9901C111.303 84.1879 111.536 81.3735 112.18 78.64C112.88 74.64 113.6 70.5501 114.29 66.5001C114.37 65.9901 114.56 65.8301 115.06 65.8401C116.63 65.8501 118.13 65.8301 119.64 65.8301Z" fill="#7C1489"/>
<path d="M196.21 89.5198C195.56 89.5198 194.9 89.5198 194.21 89.5198C193.52 89.5198 193.42 89.6699 193.33 90.2399C193.1 91.8499 192.77 93.4498 192.53 95.0598C192.45 95.5498 192.24 95.6498 191.79 95.6498C188.79 95.6498 185.87 95.6498 182.91 95.6498C182.34 95.6498 182.24 95.4798 182.34 94.9498C183.246 89.8232 184.146 84.6932 185.04 79.5598C185.79 75.2698 186.56 70.9798 187.28 66.6798C187.39 66.0498 187.59 65.8198 188.28 65.7998C192.34 65.6598 196.4 65.5198 200.46 65.5298C202.242 65.5002 204.019 65.7396 205.73 66.2399C209.33 67.3299 211.65 69.6298 212.11 73.4198C212.7 78.2998 211.61 82.7098 207.67 86.0298C205.369 87.8568 202.593 88.9848 199.67 89.2798C198.523 89.4404 197.367 89.5206 196.21 89.5198ZM196.75 80.9899H197.5C200.44 80.9899 202.03 79.1499 201.71 76.2299C201.684 75.6203 201.427 75.0436 200.99 74.6178C200.553 74.192 199.97 73.9495 199.36 73.9398C198.54 73.8798 197.71 73.9398 196.88 73.9398C196.36 73.9398 196.21 74.1299 196.13 74.6199C195.84 76.4999 195.52 78.3799 195.13 80.2399C195 80.9099 195.18 81.1098 195.83 81.0298C196.14 80.9598 196.45 80.9899 196.73 80.9899H196.75Z" fill="#7C1489"/>
<path d="M94.4398 96.3201C91.1122 96.3043 87.8212 95.6244 84.7598 94.3201C84.3298 94.1301 84.2598 93.9601 84.4298 93.5401C85.4798 90.9901 86.4998 88.4402 87.5198 85.8802C87.6698 85.5002 87.8498 85.4301 88.2598 85.5501C90.1297 86.1211 92.053 86.4997 93.9998 86.6801C96.5598 86.8801 97.9398 85.9102 98.4498 83.3802C98.9998 80.6102 99.4498 77.8201 99.9598 75.0301C100.47 72.2401 100.96 69.2101 101.48 66.3001C101.482 66.2324 101.498 66.1659 101.528 66.105C101.558 66.0441 101.6 65.9901 101.652 65.9467C101.704 65.9033 101.764 65.8713 101.829 65.853C101.895 65.8346 101.963 65.8302 102.03 65.8401C105.17 65.8401 108.3 65.8401 111.43 65.8401C112.05 65.8401 111.89 66.2101 111.83 66.5501C111.27 69.7801 110.73 73.0102 110.14 76.2402C109.63 79.0402 109.29 81.8801 108.56 84.6501C107.878 87.6998 106.357 90.4985 104.17 92.7302C102.055 94.7252 99.3268 95.9448 96.4298 96.1901C95.6598 96.2601 94.8798 96.3201 94.4398 96.3201Z" fill="#7C1489"/>
<path d="M142.52 102.23C143.445 102.153 144.376 102.197 145.29 102.36C145.953 102.493 146.536 102.883 146.911 103.446C147.286 104.008 147.422 104.697 147.29 105.36C147.209 106.372 146.735 107.312 145.97 107.98C145.845 108.062 145.757 108.189 145.725 108.335C145.694 108.481 145.72 108.633 145.8 108.76C146.08 109.35 146.32 109.96 146.58 110.55C146.66 110.72 146.67 110.99 146.93 110.99C147.19 110.99 147.22 110.74 147.32 110.57C148.77 108.17 150.25 105.79 151.65 103.36C151.788 103.031 152.03 102.755 152.338 102.575C152.646 102.394 153.005 102.319 153.36 102.36C154.98 102.43 154.99 102.36 155.36 103.94C155.92 106.17 156.46 108.41 157.04 110.64C157.16 111.1 157.04 111.22 156.61 111.21C155.98 111.21 155.35 111.21 154.73 111.21C154.28 111.21 154.06 111.07 154.05 110.64C154.04 110.21 153.78 110.11 153.4 110.13C152.77 110.13 152.14 110.13 151.52 110.13C150.9 110.13 150.38 110.13 150.17 110.88C150.09 111.16 149.85 111.21 149.57 111.21C147.67 111.21 145.77 111.21 143.87 111.21C143.708 111.23 143.545 111.185 143.416 111.086C143.287 110.987 143.202 110.841 143.18 110.68C143.07 110.27 142.89 109.88 142.78 109.47C142.67 109.06 142.42 109.05 142.09 109.06C141.76 109.07 141.71 109.29 141.65 109.55C141.29 111.21 141.29 111.2 139.56 111.2C138.34 111.2 138.34 111.2 138.56 110.03C138.97 107.69 139.4 105.34 139.78 103.03C139.88 102.44 140.11 102.19 140.71 102.23C141.31 102.27 141.92 102.23 142.52 102.23ZM142.79 106.75C143.67 106.75 144.22 106.25 144.19 105.51C144.16 104.77 143.72 104.64 143.12 104.64C142.52 104.64 142.29 105.03 142.22 106.36C142.2 106.91 142.59 106.68 142.79 106.75ZM153.16 105.69C152.736 106.256 152.367 106.863 152.06 107.5C151.94 107.71 151.96 107.9 152.27 107.9H153.17C153.42 107.9 153.55 107.77 153.51 107.52C153.41 106.96 153.29 106.38 153.16 105.69Z" fill="#7C1489"/>
<path d="M165.89 108.59C165.38 109.28 164.89 109.96 164.37 110.65C164.115 110.91 163.796 111.098 163.444 111.195C163.093 111.292 162.722 111.293 162.37 111.2C162.14 111.1 162.14 110.89 162.07 110.71C161.78 109.99 161.51 109.27 161.16 108.38C160.862 108.964 160.676 109.598 160.61 110.25C160.51 111 160.19 111.35 159.4 111.25C158.78 111.16 157.93 111.52 157.6 111.11C157.27 110.7 157.71 109.94 157.83 109.34C158.28 107.23 158.75 105.13 159.19 103.03C159.29 102.58 159.46 102.41 159.93 102.41C161.82 102.41 161.82 102.41 162.56 104.11C162.85 104.8 163.15 105.49 163.45 106.18C163.75 106.87 163.78 106.93 164.27 106.32C165.12 105.24 166 104.17 166.82 103.07C166.969 102.843 167.177 102.661 167.422 102.545C167.668 102.428 167.94 102.382 168.21 102.41C169.92 102.41 169.92 102.41 169.69 104.13C169.4 106.29 169.11 108.45 168.84 110.61C168.84 111.07 168.62 111.28 168.14 111.25C167.564 111.215 166.986 111.215 166.41 111.25C165.85 111.25 165.8 111.07 165.88 110.59C166.057 109.935 166.061 109.246 165.89 108.59Z" fill="#7C1489"/>
<path d="M203.55 107.48C203.32 108.69 203.11 109.67 202.96 110.66C202.89 111.08 202.72 111.25 202.28 111.23C201.6 111.23 200.93 111.23 200.28 111.23C199.96 111.23 199.85 111.13 199.91 110.78C200.39 108.17 200.85 105.55 201.29 102.94C201.36 102.54 201.51 102.35 201.92 102.4H202C204.1 102.34 204.1 102.34 205.21 104.13C205.568 104.758 205.994 105.345 206.48 105.88C206.65 104.98 206.85 104.09 206.98 103.19C207.06 102.59 207.27 102.31 207.93 102.39C208.529 102.42 209.13 102.42 209.73 102.39C210.05 102.39 210.17 102.48 210.1 102.84C209.62 105.45 209.15 108.06 208.71 110.67C208.64 111.13 208.44 111.21 208.02 111.22C206.02 111.22 206.02 111.22 204.94 109.6L203.55 107.48Z" fill="#7C1489"/>
<path d="M182.73 111.44C179.99 111.44 178.41 109.49 178.83 106.77C178.947 106.025 179.217 105.313 179.623 104.677C180.029 104.042 180.562 103.497 181.188 103.077C181.814 102.658 182.521 102.372 183.263 102.238C184.005 102.104 184.766 102.125 185.5 102.3C186.315 102.433 187.057 102.85 187.594 103.478C188.13 104.106 188.426 104.904 188.43 105.73C188.476 106.491 188.361 107.254 188.091 107.967C187.821 108.68 187.403 109.328 186.865 109.868C186.326 110.407 185.679 110.826 184.966 111.098C184.253 111.369 183.491 111.485 182.73 111.44ZM185.33 106.44C185.349 106.239 185.327 106.037 185.264 105.845C185.201 105.654 185.1 105.477 184.965 105.327C184.831 105.177 184.667 105.056 184.483 104.972C184.3 104.888 184.101 104.843 183.9 104.84C183.34 104.9 182.823 105.169 182.452 105.594C182.081 106.018 181.884 106.567 181.9 107.13C181.875 107.33 181.892 107.533 181.949 107.726C182.007 107.919 182.104 108.098 182.235 108.252C182.366 108.405 182.527 108.53 182.709 108.617C182.891 108.705 183.088 108.753 183.29 108.76C183.857 108.707 184.383 108.437 184.757 108.007C185.131 107.577 185.325 107.02 185.3 106.45L185.33 106.44Z" fill="#7C1489"/>
<path d="M115.82 111.22C114.16 111.22 114.15 111.22 113.58 109.63C113.46 109.28 113.33 109.07 112.92 109.07C112.51 109.07 112.45 109.4 112.39 109.72C112.11 111.23 112.11 111.22 110.54 111.22C108.97 111.22 109.09 111.22 109.34 109.81C109.74 107.6 110.14 105.38 110.47 103.16C110.58 102.42 110.88 102.16 111.6 102.22C112.7 102.22 113.8 102.22 114.9 102.22C115.444 102.154 115.996 102.244 116.491 102.48C116.986 102.716 117.404 103.088 117.696 103.553C117.987 104.017 118.141 104.555 118.138 105.104C118.135 105.652 117.976 106.188 117.68 106.65C117.485 107.141 117.173 107.577 116.77 107.92C116.37 108.21 116.41 108.51 116.59 108.92C116.87 109.53 117.12 110.16 117.4 110.77C117.56 111.12 117.51 111.28 117.1 111.27C116.69 111.26 116.25 111.22 115.82 111.22ZM113.54 106.75C113.716 106.773 113.895 106.758 114.065 106.705C114.234 106.653 114.391 106.564 114.523 106.445C114.655 106.326 114.76 106.18 114.83 106.017C114.9 105.854 114.934 105.678 114.93 105.5C114.93 104.93 114.51 104.62 113.78 104.64C113.23 104.64 112.99 105.2 112.95 106.36C112.93 106.89 113.32 106.7 113.54 106.75Z" fill="#7C1489"/>
<path d="M122.28 105.38C123 104.53 123.74 103.68 124.44 102.81C124.54 102.668 124.676 102.554 124.834 102.48C124.992 102.407 125.166 102.375 125.34 102.39C126.28 102.39 127.22 102.39 128.34 102.39C127.23 103.68 126.26 104.84 125.23 105.95C125.047 106.096 124.929 106.307 124.901 106.539C124.873 106.771 124.937 107.005 125.08 107.19C125.73 108.32 126.27 109.5 126.88 110.66C127.08 111.04 127.12 111.24 126.57 111.22C125.72 111.22 124.87 111.22 124.01 111.22C123.862 111.237 123.712 111.2 123.589 111.115C123.466 111.031 123.377 110.904 123.34 110.76C123.11 110.18 122.8 109.63 122.58 109.04C122.43 108.68 122.19 108.65 121.86 108.64C121.53 108.63 121.45 108.92 121.41 109.19C121.41 109.27 121.41 109.34 121.36 109.41C121.01 111.22 121.01 111.22 119.16 111.21C118.04 111.21 118.03 111.21 118.16 110.13C118.57 107.76 119 105.39 119.39 103.02C119.47 102.52 119.68 102.35 120.18 102.38C120.779 102.415 121.38 102.415 121.98 102.38C122.44 102.38 122.54 102.55 122.45 102.97C122.3 103.75 122.18 104.53 122.04 105.32L122.28 105.38Z" fill="#7C1489"/>
<path d="M95.3399 102.26C96.1124 102.21 96.8873 102.21 97.6599 102.26C98.0454 102.283 98.4217 102.388 98.7635 102.568C99.1053 102.748 99.4049 102.998 99.6424 103.303C99.8799 103.608 100.05 103.959 100.141 104.335C100.232 104.71 100.242 105.101 100.17 105.48C99.9499 107.97 98.3599 109.38 95.5599 109.4C94.7299 109.4 94.4199 109.69 94.4199 110.4C94.4199 111.11 94.0799 111.24 93.4699 111.18C92.9204 111.145 92.3693 111.145 91.8199 111.18C91.4299 111.18 91.2699 111.1 91.3499 110.67C91.8299 108.003 92.2932 105.363 92.7399 102.75C92.7441 102.663 92.7669 102.578 92.8067 102.501C92.8465 102.424 92.9023 102.356 92.9705 102.302C93.0387 102.248 93.1177 102.209 93.2021 102.188C93.2865 102.167 93.3744 102.164 93.4599 102.18C94.0799 102.18 94.7099 102.18 95.3399 102.18V102.26ZM95.6799 106.91C95.8637 106.932 96.0502 106.912 96.2254 106.852C96.4007 106.793 96.5603 106.695 96.6927 106.565C96.8251 106.436 96.9267 106.278 96.9903 106.104C97.0538 105.93 97.0776 105.744 97.0599 105.56C97.0634 105.431 97.0393 105.303 96.9893 105.183C96.9393 105.064 96.8645 104.957 96.7699 104.869C96.6753 104.781 96.5631 104.714 96.4407 104.673C96.3182 104.632 96.1884 104.617 96.0599 104.63C95.4499 104.57 95.2699 104.86 95.2299 105.39C95.2217 105.687 95.1781 105.983 95.0999 106.27C94.9499 106.88 95.2499 106.97 95.7299 106.91H95.6799Z" fill="#7C1489"/>
<path d="M173.94 102.23C174.712 102.155 175.489 102.155 176.26 102.23C176.644 102.266 177.015 102.382 177.352 102.57C177.688 102.758 177.982 103.014 178.214 103.322C178.446 103.629 178.612 103.982 178.701 104.357C178.79 104.732 178.8 105.121 178.73 105.5C178.45 107.99 176.92 109.35 174.15 109.37C173.25 109.37 172.99 109.73 172.98 110.46C172.97 111.19 172.7 111.27 172.14 111.19C172.04 111.19 171.94 111.19 171.84 111.19C171.2 111.14 170.35 111.48 169.98 111.04C169.61 110.6 170.07 109.85 170.17 109.23C170.5 107.23 170.88 105.14 171.17 103.09C171.28 102.41 171.56 102.09 172.25 102.19C172.94 102.29 173.38 102.23 173.94 102.23ZM174.19 106.93C174.393 106.955 174.599 106.932 174.791 106.861C174.983 106.79 175.155 106.675 175.293 106.524C175.431 106.373 175.531 106.192 175.584 105.994C175.638 105.797 175.643 105.59 175.6 105.39C175.49 104.82 175.1 104.66 174.6 104.63C174.1 104.6 173.92 104.91 173.87 105.34C173.852 105.677 173.805 106.011 173.73 106.34C173.53 106.84 173.73 106.98 174.19 106.93Z" fill="#7C1489"/>
<path d="M103.63 110.16C103.28 110.16 102.93 110.16 102.58 110.16C102.482 110.136 102.38 110.132 102.281 110.148C102.182 110.164 102.086 110.2 102.001 110.253C101.915 110.306 101.841 110.375 101.782 110.457C101.724 110.539 101.682 110.632 101.66 110.73C101.53 111.16 101.22 111.26 100.79 111.24C100.14 111.24 99.4899 111.24 98.8399 111.24C98.4999 111.24 98.2699 111.24 98.5299 110.8C100.157 108.133 101.78 105.467 103.4 102.8C103.457 102.689 103.545 102.598 103.654 102.538C103.762 102.477 103.886 102.45 104.01 102.46H105.89C105.956 102.447 106.024 102.448 106.09 102.463C106.155 102.479 106.217 102.507 106.271 102.548C106.325 102.588 106.369 102.64 106.402 102.699C106.434 102.758 106.454 102.823 106.46 102.89C107.127 105.557 107.793 108.203 108.46 110.83C108.55 111.18 108.46 111.29 108.11 111.28H105.93C105.66 111.28 105.47 111.2 105.47 110.92C105.47 110.18 104.99 110.16 104.47 110.2C104.18 110.17 103.91 110.16 103.63 110.16ZM104.56 105.83L104.37 105.77C104.16 106.15 103.93 106.52 103.75 106.92C103.57 107.32 103.23 107.48 103.4 107.76C103.57 108.04 104.03 107.86 104.4 107.9C104.77 107.94 104.99 107.79 104.89 107.35C104.79 106.91 104.65 106.32 104.56 105.83Z" fill="#7C1489"/>
<path d="M135.53 102.4H138.99C139.39 102.4 139.59 102.45 139.46 102.94C139.28 103.59 139.46 104.44 139.01 104.86C138.56 105.28 137.77 104.98 137.12 104.99C136.72 104.99 136.57 105.15 136.5 105.55C136.23 107.23 135.91 108.9 135.64 110.55C135.56 111.04 135.38 111.26 134.87 111.2C134.537 111.179 134.203 111.179 133.87 111.2C132.44 111.2 132.45 111.2 132.72 109.76C132.99 108.32 133.2 107 133.47 105.63C133.56 105.13 133.47 104.97 132.91 104.96C132.35 104.95 131.56 105.25 131.21 104.8C130.86 104.35 131.38 103.72 131.4 103.14C131.42 102.56 131.67 102.34 132.28 102.37C133.38 102.44 134.45 102.4 135.53 102.4Z" fill="#7C1489"/>
<path d="M191.82 111.22C190.82 111.22 189.92 111.22 188.96 111.22C188.52 111.22 188.42 111.1 188.5 110.65C188.96 108.11 189.4 105.567 189.82 103.02C189.9 102.53 190.1 102.35 190.6 102.38C191.176 102.42 191.754 102.42 192.33 102.38C192.85 102.38 192.98 102.52 192.88 103.03C192.56 104.68 192.31 106.34 191.99 108.03C191.89 108.55 191.99 108.7 192.54 108.68C193.41 108.68 194.29 108.68 195.17 108.68C195.61 108.68 195.71 108.79 195.63 109.24C195.31 111.24 195.32 111.24 193.25 111.24L191.82 111.22Z" fill="#7C1489"/>
<path d="M197.4 111.22C195.94 111.22 195.91 111.22 196.15 109.77C196.51 107.55 196.92 105.33 197.28 103.11C197.37 102.56 197.58 102.34 198.16 102.39C198.74 102.44 199.41 102.39 200.04 102.39C200.36 102.39 200.45 102.48 200.39 102.84C199.92 105.42 199.46 108.01 199.03 110.61C198.94 111.12 198.71 111.27 198.23 111.22C197.953 111.205 197.676 111.205 197.4 111.22Z" fill="#7C1489"/>
</g>
<defs>
<clipPath id="clip0">
<rect width="212.29" height="111.44" fill="white"/>
</clipPath>
</defs>
</svg>
