<svg width="136" height="100" viewBox="0 0 136 100" fill="none" xmlns="http://www.w3.org/2000/svg">
<g clip-path="url(#clip0)">
<path d="M108.566 77.2207H27.8203V26.2655H108.566V77.2207Z" fill="white"/>
<path d="M105.086 71.6209H85.3591V31.9687H91.869V65.8988C91.869 67.7509 93.3742 69.256 95.2239 69.256C97.0772 69.256 98.5788 67.7509 98.5788 65.8988L98.5753 58.995H105.086V71.6209ZM80.6225 45.1861C80.6225 47.1593 78.8962 50.66 76.3339 50.66C78.8962 50.66 80.6225 52.8778 80.6225 54.557V66.442C80.6225 68.4635 78.9962 71.6209 74.1137 71.6209H61.0939V31.9687H74.1137C76.6279 31.9687 80.6225 34.0407 80.6225 38.4292V45.1861ZM56.162 64.7158C56.162 68.6646 53.5986 72.2111 46.2972 72.2111C38.9983 72.2111 36.4347 67.5757 36.4347 64.7158V58.995H42.9435L42.947 65.8988C42.947 67.7509 44.451 69.256 46.302 69.256C48.154 69.256 49.6533 67.7039 49.6533 65.8518L49.6522 31.9687H56.162V64.7158ZM39.6897 47.1393C41.7687 47.1393 43.455 48.8244 43.455 50.9081C43.455 52.9872 41.7687 54.6746 39.6897 54.6746C37.6083 54.6746 35.9232 52.9872 35.9232 50.9081C35.9232 48.8244 37.6083 47.1393 39.6897 47.1393ZM45.7069 31.9687L39.6897 45.6776L33.6725 31.9687H45.7069ZM10 99.2374H125.205V4.54964H10V99.2374ZM71.1551 35.7164H67.6038V49.0313L71.1551 49.0431C73.5222 49.0431 74.1137 48.6374 74.1137 42.425C74.1137 36.2114 73.5222 35.7164 71.1551 35.7164ZM71.549 52.3898H67.6038V68.3647L71.549 68.3741C74.1137 68.3741 74.1137 66.6373 74.1137 60.4261C74.1137 54.2101 74.1137 52.3898 71.549 52.3898Z" fill="#F26522"/>
<path d="M128.416 96.0458C128.416 97.8661 129.893 99.3396 131.709 99.3396C133.523 99.3396 135 97.8661 135 96.0458C135 94.2337 133.523 92.7521 131.709 92.7521C129.893 92.7521 128.416 94.2337 128.416 96.0458ZM129.038 96.0458C129.038 94.5724 130.23 93.3789 131.709 93.3789C133.188 93.3789 134.378 94.5724 134.378 96.0458C134.378 97.5275 133.188 98.7199 131.709 98.7199C130.23 98.7199 129.038 97.5275 129.038 96.0458ZM130.446 97.9062H131.068V96.3069H131.612L132.545 97.9062H133.256L132.233 96.2775C132.809 96.2152 133.23 95.9483 133.23 95.2745C133.23 94.4901 132.741 94.1808 131.825 94.1808H130.446V97.9062ZM131.068 95.7895V94.6935H131.825C132.188 94.6935 132.607 94.7758 132.607 95.2215C132.607 95.7248 132.253 95.7895 131.816 95.7895H131.068Z" fill="black"/>
</g>
<defs>
<clipPath id="clip0">
<rect width="136" height="99" fill="white" transform="translate(0 0.706299)"/>
</clipPath>
</defs>
</svg>
