<svg width="227" height="136" viewBox="0 0 227 136" fill="none" xmlns="http://www.w3.org/2000/svg">
<path d="M141.567 40.9332L141.395 24.6333C140.111 25.9151 136.728 26.6628 135.401 27.0259L85.2835 41.0186C89.4153 41.8732 91.0423 44.1377 91.1494 49.3502L91.5776 93.5929C91.5776 102.159 90.6142 106.154 87.3386 107.094C84.5984 107.885 82.7786 106.731 79.2248 103.612L53.3846 77.3358L82.2648 41.8732L50.4517 50.7602C55.5683 52.0206 57.1526 55.5455 53.4275 60.1599L34.2454 85.9664L34.1598 64.6248C34.2882 59.284 37.1356 55.7592 39.9616 53.6655L5.66504 63.2575C9.75407 64.0266 11.4667 66.3337 11.6379 71.6318L12.0234 115.939C12.0234 120.489 12.1518 125.808 6.13598 130.359L40.0685 120.895C35.2517 119.549 34.4381 116.238 34.3525 111.709L34.2882 92.5462L55.6112 116.558L71.3465 112.136L119.644 98.5706C115.063 96.4128 113.928 92.8239 114.014 87.2481L113.907 71.1405L124.911 68.0001C130.049 66.6115 132.297 67.1669 135.144 68.876L134.994 53.0033C133.667 54.2851 130.306 55.0756 129 55.4387L113.885 59.6899L113.735 44.5009L131.376 39.566C136.45 38.3056 138.848 38.9464 141.567 40.9332Z" fill="#DF0038"/>
<path d="M192.176 68.9186C178.175 72.828 167.557 65.116 164.538 54.285C161.155 42.3004 167.535 27.5386 183.741 22.9242C188.815 21.5783 194.574 20.7238 202.41 22.0056V8.50415C197.529 8.73914 191.363 9.67915 184.234 11.7299C151.8 20.8307 136.129 45.3981 141.374 64.0265C145.27 78.0192 160.47 88.9357 186.739 81.651C194.446 79.4292 201.939 76.887 207.955 73.8108V61.2066C203.33 64.2615 197.314 67.4659 192.176 68.9186Z" fill="#DF0038"/>
<path d="M14.5281 117.968L14.207 71.6745C14.2499 66.0346 13.2008 64.4752 11.2312 62.937C14.2499 62.8516 16.6262 64.4751 16.6262 71.0549L16.9473 117.519C16.9901 123.031 15.5344 125.36 11.6379 126.385C13.7146 124.441 14.6138 121.365 14.5281 117.968Z" fill="white"/>
<path d="M94.1465 95.9428L93.8469 49.6279C93.9111 44.1162 92.8192 42.5139 90.8496 40.8904C93.9111 40.8263 96.2447 42.5139 96.266 49.0511L96.5657 95.5369C96.5872 101.113 95.5596 103.292 91.7274 104.338C93.804 102.523 94.1037 100.215 94.1465 95.9428Z" fill="white"/>
<path d="M113.928 39.2029L130.134 34.7807C134.823 33.4135 139.105 33.3708 140.047 37.1093C137.841 36.0625 135.679 35.5925 130.199 37.2161L113.907 41.7451L113.928 39.2029Z" fill="white"/>
<path d="M113.971 68.2992L113.928 65.7997L123.648 63.1293C128.315 61.8048 132.532 61.8048 133.56 65.522C131.376 64.4752 129.15 63.9839 123.69 65.6074L113.971 68.2992Z" fill="white"/>
<path d="M144.242 63.1292C138.526 42.5139 158.415 24.7186 172.566 19.1428C160.92 25.9149 141.331 42.0439 146.94 62.3388C152.356 81.8645 174.899 81.6509 189.693 78.3824C173.893 84.1931 150.001 83.8727 144.242 63.1292Z" fill="white"/>
<path d="M62.9329 111.773C59.5718 112.521 56.4675 109.273 56.4675 109.273L56.6816 109.637L38.0562 88.7435L58.0732 62.1039C62.1622 56.934 62.419 50.6961 56.6173 50.3115C59.3576 52.8965 59.272 56.6991 55.7824 61.1853L34.9519 88.893L56.7886 113.503L59.5289 112.713L62.9329 111.773Z" fill="white"/>
<path d="M218.402 8.4615C219.622 9.67917 220.243 11.1746 220.243 12.9478C220.243 14.7208 219.622 16.2376 218.402 17.4766C217.16 18.6943 215.662 19.3353 213.949 19.3353C212.193 19.3353 210.673 18.6943 209.453 17.434C208.211 16.2376 207.591 14.7208 207.591 12.9478C207.591 11.1746 208.211 9.67917 209.453 8.4615C210.716 7.24375 212.193 6.66693 213.949 6.66693C215.662 6.66693 217.16 7.24375 218.402 8.4615ZM219.151 7.77785C217.695 6.32522 216.026 5.6416 213.949 5.6416C211.915 5.6416 210.202 6.32522 208.747 7.77785C207.312 9.18778 206.584 10.9182 206.584 12.9478C206.584 14.9772 207.291 16.7503 208.747 18.1602C210.138 19.5702 211.894 20.318 213.949 20.318C215.983 20.318 217.695 19.5702 219.151 18.1602C220.586 16.7503 221.335 14.9772 221.335 12.9478C221.335 10.9182 220.586 9.18778 219.151 7.77785ZM215.041 12.5418C214.762 12.7128 214.27 12.7981 213.671 12.7981H212.408V9.87143H213.628C214.399 9.87143 214.977 9.95689 215.341 10.1919C215.662 10.3628 215.854 10.7687 215.854 11.3027C215.854 11.9436 215.576 12.435 215.041 12.5418ZM210.995 17.0281H212.408V13.8022H213.499C214.27 13.8022 214.805 13.909 215.105 14.0799C215.619 14.3363 215.854 14.9772 215.854 15.9385V16.5153L215.897 16.7503C215.897 16.793 215.897 16.8998 215.897 16.9212C215.897 16.9212 215.897 16.9639 215.94 17.0281H217.289L217.225 16.8998C217.16 16.7503 217.16 16.6648 217.16 16.4298C217.139 16.2376 217.117 16.0667 217.117 15.8958V15.2122C217.117 14.849 216.989 14.4431 216.689 14.0373C216.39 13.5886 215.897 13.3109 215.319 13.2254C215.769 13.1186 216.197 13.0332 216.475 12.8622C216.989 12.435 217.225 11.9436 217.225 11.1746C217.225 10.2346 216.818 9.50827 216.026 9.18778C215.533 8.99553 214.805 8.91006 213.821 8.91006H210.995V17.0281Z" fill="#DF0038"/>
</svg>
