<svg width="142" height="66" viewBox="0 0 142 66" fill="none" xmlns="http://www.w3.org/2000/svg">
<g clip-path="url(#clip0)">
<path d="M23.054 25.974H26.3561C29.3225 25.974 29.2839 25.9739 28.4859 23.0091C28.1447 21.7258 26.8845 20.3374 27.7705 19.1703C28.4474 18.2742 29.9719 18.064 31.1276 17.5109C32.2833 16.9577 33.2684 16.4986 34.3526 16.0174C36.2788 15.16 36.4274 15.2706 36.3834 17.4721C36.3779 17.5642 36.3779 17.6566 36.3834 17.7487C36.5265 18.949 35.9486 19.4468 34.8039 19.3583C33.1529 19.2201 31.5569 19.8506 29.9168 19.9115C29.1133 19.9447 29.0418 20.4646 29.1959 21.0178C29.4896 22.4493 29.902 23.8537 30.4287 25.2161C31.034 26.5547 30.5277 27.2572 29.5481 27.9818C28.2273 28.9664 26.967 30.0285 25.6407 31.0076C25.1431 31.3319 24.7446 31.7883 24.4891 32.3262C24.2337 32.8642 24.1313 33.4626 24.1933 34.0554C24.3143 36.268 24.8812 38.4031 24.8482 40.6268C24.8482 41.7331 25.8773 42.347 26.6643 42.9223C28.6511 44.377 30.7204 45.7268 32.7566 47.1096C33.1364 47.3641 33.5326 47.5909 33.9289 47.8232C34.5232 48.1717 35.0571 48.6252 34.6498 49.3553C34.2426 50.0855 33.5491 49.8532 32.9603 49.5711C30.6543 48.4648 28.3263 47.4083 26.0809 46.2024C25.1049 45.6042 23.9788 45.2993 22.8358 45.3238C21.6928 45.3484 20.5807 45.7012 19.6309 46.3407C17.8423 47.447 15.9106 48.2822 14.0614 49.289C13.5305 49.6509 12.9033 49.8437 12.2618 49.8421C12.0325 49.8186 11.8147 49.7296 11.6342 49.5855C11.4538 49.4413 11.3182 49.2482 11.2436 49.029C10.9795 48.4427 11.4803 48.2712 11.8765 48.0444C14.4907 46.5343 16.9122 44.7256 19.3612 42.9721C20.0036 42.5399 20.5283 41.9533 20.8878 41.2655C21.2472 40.5777 21.43 39.8106 21.4195 39.0337C21.4053 37.4705 21.5622 35.9105 21.8873 34.3818C22.2395 33.021 21.6507 31.8926 20.5115 31.0629C19.1136 30.023 17.7872 28.889 16.3839 27.8657C15.9504 27.6046 15.6247 27.1956 15.4661 26.7134C15.3075 26.2311 15.3265 25.7076 15.5198 25.2383C15.795 24.3698 16.0371 23.4903 16.2683 22.6108C16.8186 20.5642 16.6095 20.2987 14.4577 19.9668C13.1974 19.7732 11.9426 19.4966 10.6768 19.4136C9.63662 19.3307 9.16884 18.9103 9.27891 17.8649C9.27891 17.6823 9.27891 17.4943 9.27891 17.3117C9.27891 15.254 9.39448 15.1544 11.2216 16.0284C13.0488 16.9024 14.942 17.9921 16.8737 18.7941C18.2055 19.3473 18.4311 20.2876 18.0404 21.4216C17.7734 22.4865 17.5622 23.5648 17.4075 24.652C17.0773 26.1012 17.1103 26.1067 18.6568 26.1067H23.0595L23.054 25.974Z" fill="#FC6E08"/>
<path d="M40.5935 30.4379C40.5935 35.5932 40.4009 40.7595 40.665 45.9259C40.8191 49.0124 38.8324 50.5502 37.1263 52.3921C36.7466 52.8014 36.2843 52.4751 36.2458 51.8833C36.2073 51.2914 36.2182 50.777 36.2182 50.2238C36.2182 41.6556 36.2182 33.0763 36.2182 24.5247C36.2182 23.3023 36.1412 22.1407 37.396 21.394C38.2821 20.8408 38.4637 20.0111 38.4031 19.0043C38.3151 17.627 38.4031 16.2386 38.3426 14.8613C38.2909 14.5383 38.3373 14.2072 38.4757 13.9112C38.6141 13.6151 38.8382 13.3679 39.1186 13.2019C39.4983 12.9751 39.8395 12.5436 40.3238 12.8423C40.654 13.047 40.6045 13.4729 40.6045 13.8435C40.6045 16.7863 40.6045 19.7345 40.6045 22.6938L40.5935 30.4379Z" fill="#0D0B0C"/>
<path d="M85.3419 20.9625C89.2274 20.7689 93.5971 24.2814 93.5366 29.4865C93.5109 30.5904 93.2684 31.6783 92.8231 32.6878C92.3777 33.6972 91.7383 34.6082 90.9415 35.3685C90.1447 36.1287 89.2062 36.7232 88.1801 37.1177C87.154 37.5122 86.0604 37.6991 84.9622 37.6674C80.3008 37.6066 76.9161 33.9005 76.8391 29.1103C76.762 24.3201 81.4014 20.531 85.3419 20.9625ZM80.2347 29.3371C80.2342 30.6338 80.7371 31.8796 81.6365 32.8093C82.5358 33.739 83.7606 34.2794 85.0502 34.3154C86.3841 34.3114 87.6637 33.7843 88.6166 32.8462C89.5695 31.9081 90.1204 30.6331 90.1519 29.2929C90.1102 27.9538 89.5425 26.6858 88.573 25.7663C87.6035 24.8468 86.3112 24.3506 84.9787 24.3864C83.698 24.4111 82.4796 24.9459 81.591 25.8732C80.7025 26.8005 80.2166 28.0444 80.2402 29.3316L80.2347 29.3371Z" fill="#0D0B0C"/>
<path d="M7.52876 17.2508C7.52876 17.9865 7.52876 18.7222 7.52876 19.4634C7.52876 20.2046 7.56179 20.7799 8.18918 21.1671C9.59256 22.03 9.56504 23.3796 9.55954 24.8012C9.55954 33.1758 9.55954 41.556 9.55954 49.9306C9.55954 50.3897 9.55954 50.8543 9.55954 51.3134C9.55954 51.7725 9.68061 52.3091 9.11376 52.4584C8.5469 52.6078 8.32126 52.1044 8.01307 51.7725C7.55581 51.1911 7.06518 50.637 6.54366 50.1131C5.55854 49.2391 5.32188 48.1716 5.32738 46.9049C5.3549 36.0411 5.32739 25.1829 5.35491 14.3191C5.35491 13.8102 5.09625 13.1631 5.68512 12.8367C6.11989 12.5934 7.48474 13.8047 7.60031 14.4962C7.60857 14.5863 7.60857 14.6771 7.60031 14.7672V17.2564L7.52876 17.2508Z" fill="#0D0B0C"/>
<path d="M121.973 21.0897C123.954 21.0897 123.987 21.0896 124.642 23.0146C126.122 27.3346 127.515 31.6769 129.045 35.9803C129.441 37.0866 129.045 37.2525 128.126 37.2138C126.216 37.1253 126.122 37.6951 125.462 35.3442C125.088 34.0277 124.361 33.5963 123.074 33.7788C122.621 33.8508 122.161 33.8508 121.709 33.7788C119.799 33.458 118.676 34.1273 118.264 36.1241C118.049 37.153 115.798 37.6895 115.099 36.9815C114.631 36.5113 114.934 35.925 115.099 35.4493C116.046 32.5895 117.031 29.7408 118.01 26.8977C118.456 25.5978 118.902 24.3034 119.37 23.0257C120.052 21.0841 120.058 21.0841 121.973 21.0897ZM121.753 30.5706C123.47 30.5982 123.673 30.3548 123.189 28.6954C122.963 27.9155 122.639 27.1576 122.358 26.3998C122.23 26.1609 122.077 25.9366 121.901 25.7305C121.802 25.9463 121.687 26.1565 121.604 26.3833C121.263 27.3181 120.889 28.2474 120.602 29.2043C120.256 30.3659 120.443 30.554 121.753 30.5706Z" fill="#0D0B0C"/>
<path d="M105.314 37.6563C103.497 37.712 101.712 37.1677 100.232 36.1068C98.752 35.0458 97.6586 33.5267 97.1193 31.7819C96.6132 30.1006 96.6384 28.3029 97.1913 26.6366C97.7443 24.9703 98.7978 23.5173 100.207 22.478C101.673 21.438 103.43 20.8917 105.224 20.9175C107.019 20.9433 108.759 21.54 110.196 22.6218C110.713 23.0201 111.692 23.4184 111.126 24.2813C110.626 24.9394 109.991 25.4825 109.265 25.8743C108.809 26.1564 108.456 25.6199 108.121 25.3212C104.912 22.7546 100.372 25.1829 100.157 28.9166C100.08 29.8423 100.271 30.7706 100.708 31.5893C101.144 32.408 101.808 33.082 102.617 33.5298C103.392 34.0347 104.3 34.2941 105.224 34.2743C106.147 34.2546 107.043 33.9567 107.796 33.4192C108.429 33.0154 108.847 32.2133 109.876 33.0431C111.692 34.5144 111.775 34.8961 109.827 36.1794C108.529 37.1645 106.94 37.6844 105.314 37.6563Z" fill="#0D0B0C"/>
<path d="M3.45067 27.3955C3.45067 32.1802 3.45067 36.9705 3.45067 41.7773C3.45067 42.3692 3.74235 43.2044 3.03791 43.4699C2.48756 43.6745 2.18486 42.9168 1.78861 42.5517C0.473289 41.3735 0.0220105 39.9409 0.0385208 38.1266C0.121073 29.2762 0.0715402 20.4259 0.0715402 11.6088C0.0715402 11.2437 0.0715402 10.8731 0.0715402 10.5025C0.154092 9.25238 0.52832 9.08648 1.59599 9.71153C2.99387 10.5247 3.53871 11.6254 3.49469 13.3125C3.36811 17.9976 3.45067 22.6993 3.45067 27.3955Z" fill="#0D0B0C"/>
<path d="M42.2941 27.3014C42.2941 22.5075 42.2941 17.7136 42.2941 12.9197C42.2941 11.9959 42.1675 11.0501 43.1527 10.4803C43.8406 10.0821 44.3854 9.04214 45.233 9.41274C46.0805 9.78335 45.6567 10.8786 45.6567 11.6253C45.6898 20.5568 45.6898 29.4864 45.6567 38.4141C45.6567 39.2273 45.8549 40.0736 45.31 40.8258C44.6111 41.7551 43.9286 43.3316 42.8775 43.1159C41.6557 42.8725 42.3271 41.2462 42.3271 40.2505C42.2556 35.9526 42.2941 31.627 42.2941 27.3014Z" fill="#0D0B0C"/>
<path d="M134.323 30.7365C134.323 29.7298 134.378 28.712 134.323 27.7053C134.268 26.6985 134.873 25.2604 133.992 24.5966C133.337 24.0988 132.077 24.3256 131.092 24.3809C130.107 24.4362 129.799 23.9439 129.942 23.0644C130.068 22.29 129.419 21.0786 131.043 21.0897C134.345 21.0897 137.647 21.1284 140.916 21.0897C142.281 21.0897 142.016 21.9692 142.016 22.7491C142.016 23.529 142.253 24.5192 140.916 24.3699C140.824 24.3615 140.732 24.3615 140.641 24.3699C137.641 24.5026 137.641 24.5026 137.641 27.4066C137.641 30.3106 137.581 33.104 137.641 35.9527C137.68 37.2028 137.036 37.2858 136.128 37.2194C135.22 37.153 134.229 37.5568 134.312 35.9859C134.378 34.2379 134.323 32.4845 134.323 30.7365Z" fill="#0D0B0C"/>
<path d="M54.6162 29.0438C54.6162 26.7428 54.6162 24.4361 54.6162 22.1351C54.6162 20.7246 55.6288 21.1505 56.3663 21.1007C57.1038 21.0509 57.8577 20.9237 57.8467 22.1019C57.8137 25.5093 57.8467 28.9222 57.8467 32.3295C57.8467 33.8784 57.6981 34.2213 59.6739 34.1493C61.0497 34.1051 62.4256 34.1162 63.8015 34.1493C64.3133 34.1493 65.0012 33.8507 65.3094 34.4315C65.6238 35.1939 65.6512 36.0454 65.3864 36.8266C65.2929 37.2581 64.8361 37.1972 64.4674 37.1972C61.6221 37.1972 58.7823 37.164 55.937 37.1972C54.7648 37.1972 54.6052 36.6441 54.6217 35.654C54.6437 33.469 54.6162 31.2564 54.6162 29.0438Z" fill="#0D0B0C"/>
<path d="M21.8266 56.6016C21.8266 59.2567 21.8266 61.9173 21.8266 64.5779C21.8266 65.0536 21.667 65.5736 21.2213 65.6842C21.0121 65.7451 20.6709 65.297 20.3627 65.0813C19.4241 64.4346 18.6837 63.5375 18.2248 62.4909C17.7659 61.4443 17.6067 60.2898 17.7651 59.1572C17.9826 56.6894 17.9826 54.2072 17.7651 51.7395C17.589 49.726 18.3705 48.7193 20.1371 48.061C21.6395 47.5079 21.7881 47.5079 21.8266 49.1673C21.8542 51.6454 21.8266 54.1457 21.8266 56.5961V56.6016Z" fill="#0D0B0C"/>
<path d="M11.7114 36.8045C11.7114 33.8544 11.7114 30.9043 11.7114 27.9541C11.7114 27.672 11.7114 27.401 11.9976 27.2572C12.2838 27.1134 12.5149 27.307 12.7131 27.484C13.3294 28.0371 13.8853 28.6622 14.5402 29.1434C14.9141 29.409 15.2124 29.7682 15.4055 30.1854C15.5986 30.6027 15.6797 31.0634 15.6409 31.5219C15.5969 35.3939 15.6409 39.2659 15.6409 43.1379C15.6409 44.4987 13.7147 46.5453 12.3774 46.6172C11.7169 46.656 11.772 46.0641 11.772 45.6382C11.772 42.6881 11.772 39.738 11.772 36.7878L11.7114 36.8045Z" fill="#0D0B0C"/>
<path d="M34.0885 36.9705C34.0885 39.9187 34.0885 42.8725 34.0885 45.8208C34.0885 46.822 33.7583 46.8828 33.0373 46.3739C32.7509 46.1458 32.4409 45.9493 32.1128 45.7876C30.4617 45.0575 30.0215 43.8295 30.1095 42.0428C30.2691 38.641 30.1425 35.2225 30.1645 31.8152C30.1645 31.1071 29.9444 30.3272 30.6158 29.7464C31.5899 28.9112 32.5255 28.0316 33.5216 27.224C33.7143 27.0636 34.039 27.2241 34.072 27.5781C34.105 27.9321 34.072 28.3138 34.072 28.6844V36.9815L34.0885 36.9705Z" fill="#0D0B0C"/>
<path d="M22.8228 15.3756C22.4596 15.3756 22.0908 15.3756 21.7221 15.3756C20.5719 15.2705 18.9098 15.9288 18.3705 15.0327C17.6 13.766 17.9467 11.9904 18.1834 10.4748C18.42 8.95915 19.5978 8.15157 21.2818 8.13497C22.2835 8.13497 23.2906 8.13497 24.2922 8.13497C25.1011 8.09202 25.8946 8.36797 26.5041 8.90412C27.1136 9.44028 27.4909 10.1943 27.5558 11.0058C28.1061 15.1654 27.908 15.3701 23.6428 15.3701L22.8228 15.3756Z" fill="#0D0B0C"/>
<path d="M24.0833 56.5794C24.0833 54.0958 24.0833 51.6011 24.0833 49.1286C24.0833 47.4691 24.1438 47.4414 25.7618 48.1937C26.1746 48.3873 26.5763 48.603 26.9891 48.7966C27.3259 48.9286 27.6089 49.1705 27.7925 49.4835C27.9761 49.7965 28.0498 50.1623 28.0017 50.5224C27.9412 53.9243 27.9247 57.3262 28.0017 60.728C28.0512 63.1231 26.3507 64.3068 24.8152 65.5459C24.2153 66.0216 24.1053 65.2472 24.0998 64.8544C24.0722 62.4649 24.0998 60.0697 24.0998 57.6636L24.0833 56.5794Z" fill="#0D0B0C"/>
<path d="M72.8051 29.3316C72.8051 31.5442 72.7556 33.7291 72.8051 35.9251C72.8492 37.142 72.1888 37.2305 71.2752 37.2194C70.3616 37.2084 69.7067 37.2194 69.7232 35.9582C69.7782 31.3782 69.7672 26.7982 69.7232 22.2181C69.7232 21.1119 70.2736 21.0289 71.1046 21.1119C71.9356 21.1948 72.8162 20.8353 72.7886 22.2181C72.7776 24.5635 72.8051 26.9475 72.8051 29.3316Z" fill="#0D0B0C"/>
<path d="M11.0125 10.0932C11.0125 9.18049 11.0125 8.26782 11.0125 7.35514C11.0125 6.77433 11.2602 6.49219 11.8215 6.69132C13.7147 7.37169 14.9144 8.94263 16.0316 10.4361C16.9122 11.6143 16.3233 13.2517 16.3729 14.6898C16.3793 14.7813 16.3655 14.8731 16.3323 14.9586C16.2992 15.044 16.2476 15.121 16.1812 15.184C16.1149 15.2469 16.0355 15.2944 15.9487 15.3227C15.8619 15.3511 15.7699 15.3597 15.6794 15.348C13.9899 15.2927 12.636 14.3303 11.2326 13.5559C10.9905 13.4231 11.018 12.7207 11.0015 12.2781C10.963 11.5535 11.0015 10.8234 11.0015 10.0656L11.0125 10.0932Z" fill="#0D0B0C"/>
<path d="M34.7102 10.0101C34.7267 10.2846 34.7267 10.5598 34.7102 10.8343C34.5946 11.8078 35.1945 13.0967 34.3965 13.7052C33.3509 14.5017 31.9695 14.8833 30.6927 15.3314C30.5448 15.401 30.3807 15.4288 30.2183 15.4116C30.0559 15.3944 29.9012 15.3331 29.7709 15.234C29.6406 15.135 29.5397 15.0021 29.4791 14.8496C29.4185 14.6972 29.4004 14.5309 29.4269 14.3689C29.5039 13.0248 28.8765 11.4926 29.7901 10.3808C30.8908 8.99237 31.9915 7.45463 33.7801 6.78533C34.2974 6.59172 34.6717 6.63598 34.6937 7.2721C34.7212 8.18478 34.6937 9.09747 34.6937 10.0378L34.7102 10.0101Z" fill="#0D0B0C"/>
<path d="M30.1643 54.8148C30.1643 54.0847 30.1203 53.349 30.1643 52.6022C30.2413 51.5402 29.8726 50.434 30.4175 49.4106C31.3019 49.8655 32.2093 50.2735 33.1362 50.6331C33.8571 50.8709 34.1488 51.1862 34.0938 51.9772C33.9947 52.9759 33.9947 53.9821 34.0938 54.9808C34.3965 57.4865 32.6684 58.7754 31.1274 60.1693C30.7201 60.5344 30.2083 60.3186 30.1918 59.7212C30.1423 58.0618 30.1918 56.4356 30.1918 54.7927L30.1643 54.8148Z" fill="#0D0B0C"/>
<path d="M15.5859 55.0638C15.5859 56.5296 15.5859 57.9954 15.5859 59.4613C15.5945 59.7297 15.4999 59.9912 15.3217 60.1915C14.997 60.4238 14.6448 60.2412 14.3642 59.9813C12.8672 58.5929 11.4473 57.2155 11.8381 54.8425C11.9225 53.9229 11.9317 52.9979 11.8656 52.0768C11.8213 51.818 11.8701 51.5518 12.0032 51.3258C12.1363 51.0998 12.345 50.9288 12.592 50.8433C15.6244 49.5102 15.6079 49.4715 15.6079 52.8457V55.0583L15.5859 55.0638Z" fill="#0D0B0C"/>
<path d="M40.533 7.13384C40.5143 7.88525 40.4537 8.63506 40.3514 9.37964C40.1973 10.237 37.1098 12.5381 36.6475 12.1454C35.8 11.4097 36.4219 10.2868 36.2788 9.34642C36.221 8.89099 36.221 8.43005 36.2788 7.97463C36.3614 7.1781 35.8881 6.17691 36.576 5.62376C37.4617 4.98603 38.4254 4.46546 39.4433 4.07493C39.9937 3.83155 40.3238 4.30724 40.3954 4.74975C40.4832 5.54143 40.5292 6.33727 40.533 7.13384Z" fill="#0D0B0C"/>
<path d="M9.39436 8.98132C9.40542 9.07133 9.40542 9.16235 9.39436 9.25236C9.15221 10.2093 10.0273 11.6143 8.84402 12.0789C7.95796 12.4274 5.39335 10.1651 5.2998 9.19152C5.17509 7.83092 5.13831 6.46362 5.18972 5.09824C5.22274 4.19108 5.79511 3.92558 6.64264 4.27406C6.8958 4.37916 7.13245 4.5285 7.38561 4.61147C8.99812 5.12036 9.72458 6.16583 9.41638 7.88611C9.37599 8.24975 9.36862 8.61633 9.39436 8.98132Z" fill="#0D0B0C"/>
<path d="M56.6251 40.5216C56.6581 40.4719 56.7571 40.0902 56.9223 40.0625C57.313 39.9851 57.4726 40.3115 57.6487 40.671C58.2541 41.816 58.3091 41.7773 58.9035 40.754C59.0851 40.4332 59.1567 40.0072 59.5914 40.0404C60.0262 40.0736 60.3509 40.4497 60.494 40.9254C60.6371 41.4011 60.3619 42.2032 61.1984 42.1092C61.7488 42.0538 61.5342 41.3624 61.6827 40.9642L61.7873 40.7097C61.9304 40.3557 62.1781 40.0625 62.5688 40.1234C62.6734 40.1234 62.811 40.6212 62.7614 40.8535C62.5083 42.1036 62.2111 43.3482 61.9084 44.5928C61.8887 44.7747 61.812 44.9456 61.6893 45.0808C61.5666 45.216 61.4044 45.3086 61.226 45.345C60.6756 45.4335 60.4225 45.0629 60.2739 44.5928C60.1913 44.3328 60.0978 44.0729 60.0262 43.8073C59.9547 43.5418 59.9271 43.2874 59.63 43.2984C59.5419 43.2984 59.4538 43.586 59.3713 43.7464C59.0741 44.3494 59.2337 45.4059 58.2211 45.3285C57.0709 45.2345 57.28 44.1503 57.1864 43.387C57.0764 42.4743 56.4765 41.6832 56.6251 40.5216Z" fill="#0D0B0C"/>
<path d="M3.58792 5.47514C3.55139 6.02768 3.55139 6.58204 3.58792 7.13458C3.7145 8.14683 3.31275 8.32934 2.56978 7.79279C1.70574 7.17326 0.368394 6.94094 0.170269 5.71849C-0.0746601 4.18689 -0.0746601 2.62582 0.170269 1.09422C0.225304 0.701484 0.616047 0.657232 1.02881 0.817644C3.15864 1.65289 3.5604 2.24476 3.5494 4.68965V5.47514H3.58792Z" fill="#0D0B0C"/>
<path d="M125.187 42.4688C125.468 41.8326 124.482 40.3502 125.869 40.129C126.816 39.9741 126.821 41.4786 127.322 42.1866C127.553 42.5075 127.526 43.1602 128.137 43.0772C128.539 43.0219 128.687 42.6237 128.808 42.2807C128.952 41.944 129.114 41.6153 129.293 41.2961C129.59 40.7429 129.766 39.8801 130.536 40.0737C131.307 40.2673 130.96 41.18 130.988 41.7331C131.037 42.7454 130.988 43.7576 130.988 44.7699C130.994 44.8364 130.988 44.9037 130.969 44.9678C130.949 45.0318 130.917 45.0913 130.875 45.1429C130.832 45.1944 130.78 45.2368 130.721 45.2677C130.662 45.2986 130.597 45.3175 130.531 45.323C130.465 45.3323 130.398 45.3278 130.334 45.31C130.27 45.2921 130.21 45.2612 130.159 45.2192C130.107 45.1771 130.065 45.1249 130.034 45.0657C130.003 45.0065 129.985 44.9415 129.98 44.8749C129.898 44.3218 130.052 43.7687 129.755 43.2598C129.469 43.7023 129.177 44.1448 128.891 44.5928C128.274 45.5498 127.994 45.583 127.399 44.6869C127.196 44.3882 127.135 43.9899 126.926 43.7023C126.73 43.5187 126.505 43.3692 126.26 43.2598C126.222 43.5198 126.178 43.7742 126.156 44.0341C126.163 44.3092 126.154 44.5844 126.128 44.8583C126.078 45.1183 125.952 45.4115 125.578 45.2345C125.429 45.1681 125.22 45.0188 125.214 44.8971C125.17 44.1946 125.187 43.4312 125.187 42.4688Z" fill="#0D0B0C"/>
<path d="M42.3049 5.25867C42.3049 4.79956 42.3049 4.33492 42.3049 3.87581C42.3463 3.16192 42.6292 2.48369 43.1066 1.95351C43.584 1.42333 44.2274 1.07303 44.9301 0.960728C45.0187 0.93896 45.1111 0.9384 45.2 0.95904C45.2888 0.979679 45.3716 1.02094 45.4417 1.07957C45.5118 1.1382 45.5673 1.21258 45.6036 1.29665C45.64 1.38072 45.6562 1.47219 45.651 1.5637C45.7632 2.93945 45.7485 4.32266 45.607 5.69568C45.3703 7.11173 43.8349 7.39382 42.8223 8.10184C42.5031 8.3231 42.3325 7.9912 42.327 7.74228C42.2939 6.91257 42.327 6.08286 42.327 5.25867H42.3049Z" fill="#0D0B0C"/>
<path d="M107.323 41.368C107.064 41.2591 106.786 41.2072 106.506 41.2158C106.226 41.2243 105.951 41.2932 105.699 41.4177C105.409 41.5684 105.181 41.8181 105.057 42.1222C104.933 42.4263 104.921 42.7648 105.022 43.0772C105.049 43.402 105.195 43.7053 105.432 43.9274C105.669 44.1495 105.981 44.2744 106.305 44.2775C106.663 44.3145 107.023 44.2245 107.323 44.023C107.653 43.7022 107.29 43.4423 107.031 43.1767C106.618 42.7453 106.734 42.2806 107.312 42.1921C107.89 42.1036 108.633 41.8436 108.842 42.8061C108.981 43.2963 108.931 43.821 108.702 44.2759C108.474 44.7309 108.084 45.083 107.609 45.2621C107.054 45.483 106.444 45.5216 105.865 45.3726C105.287 45.2235 104.77 44.8945 104.39 44.4324C104.018 43.9767 103.808 43.4094 103.793 42.8204C103.778 42.2313 103.959 41.6541 104.307 41.1799C104.648 40.6897 105.138 40.3238 105.704 40.1373C106.27 39.9508 106.88 39.9537 107.444 40.1455C107.824 40.2838 108.363 40.3889 108.352 41.0084C108.347 41.4288 108.347 41.4288 107.323 41.368Z" fill="#0D0B0C"/>
<path d="M85.3421 42.7286C85.322 42.5448 85.322 42.3593 85.3421 42.1755C85.5017 41.4453 84.8798 40.4607 85.8925 40.0182C86.9051 39.5757 88.7378 40.1952 89.3486 41.0803C89.9595 41.9653 90.3173 42.8061 89.7064 43.846C89.3215 44.4698 88.7473 44.9527 88.0685 45.2236C87.3898 45.4945 86.6423 45.539 85.9365 45.3505C85.8489 45.345 85.7633 45.3218 85.6848 45.2824C85.6063 45.243 85.5365 45.1881 85.4796 45.121C85.4226 45.0539 85.3796 44.9761 85.3531 44.892C85.3267 44.8079 85.3173 44.7193 85.3256 44.6315C85.3421 44.0064 85.3421 43.3703 85.3421 42.7286ZM86.4428 42.5018C86.4428 43.9842 86.5254 44.2055 87.1693 44.2387C87.5736 44.2584 87.9693 44.1174 88.2711 43.8462C88.5728 43.5751 88.7562 43.1955 88.7818 42.7895C88.7862 42.3434 88.6153 41.9136 88.3061 41.5935C87.9969 41.2734 87.5745 41.089 87.1308 41.0803C86.1566 41.1854 86.5364 41.9819 86.4428 42.5018Z" fill="#0D0B0C"/>
<path d="M119.309 44.9634C119.04 45.3174 118.671 45.5165 118.407 45.1847C117.383 43.8571 116.431 43.8239 115.435 45.1847C115.248 45.4391 114.956 45.3672 114.708 45.2566C114.461 45.1459 114.494 45.0132 114.571 44.803C115.121 43.3592 115.584 41.899 116.145 40.4719C116.404 39.8136 117.246 39.7528 117.444 40.2008C118.176 41.7441 118.71 43.3814 119.309 44.9634ZM117.262 42.4853L116.943 41.7275C116.798 42.0559 116.677 42.3942 116.58 42.7397C116.58 42.8227 116.811 43.0827 116.904 43.0661C116.97 43.0604 117.034 43.0393 117.09 43.0046C117.146 42.9698 117.194 42.9224 117.228 42.8659C117.263 42.8095 117.284 42.7457 117.29 42.6796C117.296 42.6136 117.286 42.547 117.262 42.4853Z" fill="#0D0B0C"/>
<path d="M136.964 42.535V42.2585C136.964 39.7693 137.014 39.7472 139.397 39.9629C139.749 39.9629 140.162 39.9629 140.217 40.4552C140.272 40.9475 139.81 40.9199 139.491 40.9752C139.314 40.9752 139.122 40.9752 138.94 40.9752C138.594 41.0139 138.192 40.9752 138.104 41.462C138.016 41.9487 138.445 42.0151 138.781 42.0151C139.265 42.0538 139.771 42.1036 139.705 42.7175C139.661 43.1435 139.193 43.1103 138.83 43.1324C138.467 43.1545 138.071 43.1324 138.071 43.6856C138.071 44.2387 138.533 44.1391 138.852 44.1834C139.171 44.2276 139.601 44.1834 139.953 44.2608C140.018 44.2807 140.078 44.3137 140.13 44.3579C140.181 44.402 140.223 44.4564 140.253 44.5176C140.283 44.5788 140.3 44.6455 140.304 44.7136C140.307 44.7818 140.296 44.8498 140.272 44.9136C140.206 45.073 140.085 45.2028 139.931 45.2786C139.751 45.325 139.565 45.3418 139.381 45.3284C136.975 45.5165 136.975 45.5165 136.959 43.066L136.964 42.535Z" fill="#0D0B0C"/>
<path d="M75.9202 42.7287C75.8982 42.4581 75.8982 42.1862 75.9202 41.9156C76.0083 41.3625 75.5955 40.4111 76.4376 40.3723C77.3786 40.3225 76.9218 41.2906 77.0319 41.8326C77.0606 42.0159 77.0606 42.2025 77.0319 42.3858C76.8943 43.6359 77.1035 44.543 78.6829 44.2996C78.7705 44.2784 78.8622 44.2811 78.9484 44.3074C79.0346 44.3337 79.1123 44.3826 79.1735 44.4491C79.2346 44.5157 79.2769 44.5973 79.2962 44.6858C79.3154 44.7743 79.3108 44.8663 79.2828 44.9524C79.2278 45.2732 78.9526 45.334 78.694 45.3562C78.3362 45.3894 77.973 45.3839 77.5933 45.3839C75.9422 45.3839 75.9422 45.3838 75.8872 43.835C75.9147 43.4589 75.9202 43.0883 75.9202 42.7287Z" fill="#0D0B0C"/>
<path d="M69.9324 42.8669C69.5967 43.5362 70.5433 45.0795 69.316 45.1459C68.4135 45.179 69.0684 43.6192 68.8703 42.8005C68.8479 42.7116 68.8479 42.6184 68.8703 42.5295C69.0574 41.7053 68.3915 40.2008 69.3711 40.1897C70.4718 40.1897 69.7123 41.65 69.9214 42.441C69.9383 42.5823 69.942 42.7249 69.9324 42.8669Z" fill="#0D0B0C"/>
</g>
<defs>
<clipPath id="clip0">
<rect width="142" height="65" fill="white" transform="translate(0 0.706299)"/>
</clipPath>
</defs>
</svg>
