<svg width="212" height="86" viewBox="0 0 212 86" fill="none" xmlns="http://www.w3.org/2000/svg">
<g clip-path="url(#clip0)">
<path d="M212 85.6806C210.409 85.6806 208.826 85.6806 207.235 85.6806C207.094 85.6905 206.952 85.6553 206.832 85.5799C206.712 85.5045 206.619 85.3931 206.567 85.2616C204.308 80.8755 202.036 76.4873 199.751 72.0968L199.49 71.6179C199.256 71.8041 199.363 72.0302 199.363 72.2165C199.363 76.5138 199.363 80.809 199.363 85.1019C199.363 85.541 199.256 85.6739 198.802 85.6673C197.359 85.634 195.915 85.6673 194.472 85.6673C194.098 85.6673 193.944 85.6008 193.944 85.1817C193.944 77.2877 193.944 69.3916 193.944 61.4932C193.944 61.1207 194.057 61.0009 194.432 61.0076C195.982 61.0076 197.532 61.0076 199.109 61.0076C199.283 60.9892 199.458 61.0288 199.607 61.1203C199.756 61.2118 199.87 61.3501 199.931 61.5132C202.03 65.5355 204.139 69.5578 206.26 73.5802C206.326 73.6933 206.407 73.7997 206.574 74.0459C206.574 73.7132 206.574 73.527 206.574 73.3806C206.574 69.4558 206.574 65.5377 206.574 61.6129C206.574 61.1805 206.687 61.0407 207.142 61.0407C208.765 61.0407 210.383 61.0407 212.006 61.0407L212 85.6806Z" fill="#F9BE34"/>
<path d="M89.3641 68.6243V73.4738C89.3641 77.3387 89.3641 81.2103 89.3641 85.0752C89.3641 85.5808 89.2171 85.6872 88.7359 85.6805C87.346 85.6472 85.956 85.6805 84.5661 85.6805C84.1919 85.6805 84.085 85.5807 84.085 85.2016C84.085 77.312 84.085 69.4181 84.085 61.5197C84.085 61.1139 84.2052 61.0142 84.5995 61.0208C86.9517 61.0208 89.3039 61.0208 91.6562 61.0208C92.0437 61.0208 92.1707 61.1539 92.2643 61.5131C93.5295 66.3914 94.8058 71.2697 96.0933 76.148C96.1467 76.3608 96.2202 76.5671 96.2871 76.8132C96.6011 76.7068 96.5744 76.4806 96.6212 76.3076C97.9131 71.4293 99.1939 66.5288 100.464 61.6061C100.571 61.1937 100.718 61.0275 101.172 61.0341C103.451 61.0341 105.736 61.0341 108.015 61.0341C108.496 61.0341 108.609 61.1738 108.609 61.6328C108.609 69.4735 108.609 77.3164 108.609 85.1616C108.609 85.5674 108.529 85.7138 108.088 85.7071C106.627 85.6805 105.164 85.6805 103.698 85.7071C103.27 85.7071 103.163 85.5874 103.17 85.1683C103.17 79.8465 103.17 74.5913 103.17 69.3095V68.6842C102.863 68.7308 102.883 68.9169 102.843 69.0566C101.446 74.3784 100.036 79.7002 98.6593 85.0219C98.519 85.5541 98.3386 85.7737 97.7438 85.7404C96.6947 85.6806 95.6456 85.7404 94.5897 85.7404C94.512 85.7546 94.4322 85.7525 94.3554 85.7343C94.2786 85.716 94.2064 85.682 94.1435 85.6344C94.0806 85.5868 94.0284 85.5268 93.9902 85.458C93.952 85.3892 93.9286 85.3132 93.9215 85.2349C92.5583 79.9131 91.175 74.6158 89.7717 69.3428C89.7116 69.07 89.765 68.7706 89.3641 68.6243Z" fill="#F9BE34"/>
<path d="M109.679 40.8315C110.632 38.9864 111.818 37.2697 113.207 35.7226C116.622 31.545 121.266 29.1435 126.071 27.0081C131.35 24.6532 136.983 23.4226 142.583 22.1321C150.408 20.3293 158.193 18.4135 165.925 16.2315C175.03 13.7805 182.952 8.16087 188.251 0.392547C188.327 0.272519 188.446 0.186633 188.585 0.153076C188.15 1.25069 187.723 2.35496 187.248 3.47919C185.504 7.69005 183.473 11.708 179.824 14.6749C176.805 16.9933 173.417 18.792 169.801 19.9967C161.361 23.09 152.647 25.2121 143.906 27.2344C136.228 29.0038 128.61 30.9396 121.46 34.3655C117.721 36.1565 114.087 38.1553 110.574 40.3525C110.293 40.5321 109.993 40.6918 109.699 40.8581L109.679 40.8315Z" fill="#F9BE34"/>
<path d="M102.415 40.9977C99.3478 39.0686 96.4008 37.3589 93.4004 35.7823C86.5309 32.1768 79.2136 29.8353 71.6825 28.0791C62.3271 25.9105 52.9717 23.7618 43.9104 20.6286C40.2941 19.4743 36.8455 17.8529 33.6528 15.8058C29.4429 12.9786 26.9704 8.86749 25.0726 4.33067C24.4848 2.97586 23.9718 1.59014 23.5356 0.179688C24.0636 0.84491 24.6048 1.5101 25.1194 2.22854C30.6324 9.64578 38.11 13.9963 46.9175 16.5109C55.7249 19.0254 64.5524 20.9545 73.3866 23.0833C80.1492 24.7131 86.7113 26.7952 92.6787 30.5072C96.5563 32.9953 99.7818 36.3682 102.088 40.3458C102.174 40.4855 102.275 40.6452 102.415 40.9977Z" fill="#F9BE34"/>
<path d="M152.647 85.6673H146.98C146.673 85.6673 146.693 85.388 146.626 85.2084C145.764 82.6406 144.902 80.073 144.06 77.4919C144.05 77.4195 144.026 77.3497 143.988 77.2869C143.951 77.2242 143.901 77.1697 143.841 77.1268C143.782 77.0839 143.714 77.0533 143.643 77.0371C143.571 77.021 143.497 77.0195 143.425 77.0328C142.556 77.0328 141.681 77.0328 140.805 77.0328C140.398 77.0328 140.304 77.1658 140.311 77.5517C140.311 80.0662 140.311 82.5875 140.311 85.1087C140.311 85.5277 140.231 85.6873 139.763 85.6807C138.246 85.6474 136.729 85.6807 135.219 85.6807C134.811 85.6807 134.711 85.5609 134.718 85.1684C134.718 77.2789 134.718 69.3872 134.718 61.4932C134.718 61.2338 134.684 61.0077 135.079 61.0143C138.694 61.0143 142.316 60.9344 145.931 61.1007C150.094 61.2936 151.451 62.6109 151.985 66.6887C152.292 68.874 152.165 71.0979 151.611 73.2344C151.482 73.7995 151.237 74.3321 150.892 74.799C150.547 75.2659 150.109 75.6572 149.606 75.9485C149.265 76.1414 149.239 76.3144 149.366 76.6604C150.401 79.4676 151.424 82.2881 152.446 85.102C152.533 85.2616 152.573 85.4012 152.647 85.6673ZM140.318 68.997C140.318 69.9882 140.318 70.9926 140.318 71.9705C140.318 72.2233 140.318 72.4228 140.672 72.4162C142.008 72.4162 143.271 72.4161 144.568 72.3562C144.797 72.3725 145.027 72.3422 145.244 72.2671C145.461 72.1919 145.66 72.0736 145.83 71.9192C145.999 71.7648 146.135 71.5776 146.23 71.3691C146.324 71.1606 146.375 70.9351 146.379 70.7065C146.482 69.578 146.482 68.4425 146.379 67.3139C146.373 67.1005 146.326 66.8901 146.238 66.6953C146.15 66.5006 146.024 66.3253 145.867 66.1797C145.71 66.0341 145.526 65.9211 145.324 65.8474C145.123 65.7737 144.909 65.7408 144.695 65.7506C143.358 65.6109 142.022 65.7041 140.685 65.6642C140.351 65.6642 140.311 65.8038 140.311 66.0766C140.324 67.0478 140.318 68.0258 140.318 68.997Z" fill="#F9BE34"/>
<path d="M16.1581 73.3541C16.1136 70.9437 16.223 68.5331 16.4855 66.1365C16.8397 63.2428 18.3232 61.6063 21.21 61.0941C24.0386 60.5884 26.935 60.5884 29.7635 61.0941C32.5234 61.5863 34.0002 62.9833 34.3677 65.7506C35.0136 70.7473 35.0249 75.8052 34.4011 80.8047C34.0336 83.7916 32.6303 85.1021 29.563 85.6475C26.8565 86.1365 24.0836 86.1365 21.3771 85.6475C18.0359 85.0422 16.6994 83.3392 16.3853 79.7936C16.2116 77.6515 16.1358 75.505 16.1581 73.3541ZM21.8382 73.3541C21.8382 75.3032 21.8382 77.2523 22.052 79.1948C22.199 80.605 22.7202 81.0973 24.1035 81.1904C24.8295 81.2625 25.5596 81.2848 26.2887 81.257C28.1263 81.1705 28.7277 80.7581 28.8614 79.2214C29.1955 75.3014 29.1955 71.3603 28.8614 67.4403C28.7344 65.9502 28.1464 65.4845 26.6361 65.4114C25.8565 65.3759 25.0747 65.3759 24.2906 65.4114C22.7403 65.4845 22.199 66.0167 22.0386 67.54C21.8448 69.4958 21.8582 71.4316 21.8382 73.3541Z" fill="#F9BE34"/>
<path d="M132.118 85.6673C130.287 85.6673 128.49 85.6673 126.692 85.6673C126.365 85.6673 126.385 85.4279 126.331 85.235C125.99 83.9045 125.663 82.5741 125.329 81.2436C125.235 80.8511 125.095 80.6981 124.661 80.7048C122.576 80.7048 120.491 80.7048 118.406 80.7048C118.038 80.7048 117.871 80.7979 117.791 81.177C117.504 82.5075 117.163 83.8379 116.856 85.1684C116.775 85.5076 116.648 85.6606 116.254 85.654C114.563 85.654 112.873 85.654 111.089 85.654C111.576 83.818 112.058 82.0352 112.539 80.2525C114.2 74.0437 115.862 67.835 117.524 61.6262C117.527 61.527 117.552 61.4297 117.598 61.3415C117.644 61.2533 117.709 61.1764 117.788 61.1164C117.867 61.0565 117.959 61.0151 118.057 60.9951C118.155 60.9751 118.256 60.9771 118.352 61.0009C120.598 61.0342 122.843 61.0009 125.088 61.0009C125.369 61.0009 125.569 61.0008 125.67 61.3734C127.79 69.356 129.92 77.3387 132.058 85.3214C132.085 85.4012 132.091 85.5143 132.118 85.6673ZM124.059 76.0882L121.607 66.0034C121.473 66.1099 121.433 66.1298 121.426 66.1564C120.651 69.3495 119.88 72.5469 119.114 75.7489C119.067 75.9418 119.114 76.0882 119.355 76.0882H124.059Z" fill="#F9BE34"/>
<path d="M103.023 46.2197C91.9235 39.9533 79.581 37.3722 67.3789 34.3787C60.5896 32.7089 53.7668 31.1656 46.9574 29.5823C44.5918 29.0302 42.674 27.7131 40.8497 26.2097C38.3634 24.0418 36.0281 21.7081 33.8599 19.2249C34.6417 19.5841 35.4302 19.93 36.2121 20.3025C44.7589 24.4069 53.8537 26.7751 63.0621 28.8373C71.1745 30.6533 79.267 32.5758 87.0253 35.6359C92.2041 37.6847 97.1291 40.1661 101.199 44.0643C101.903 44.6916 102.531 45.3994 103.07 46.173L103.023 46.2197Z" fill="#F9BE34"/>
<path d="M178.04 19.4178C174.879 22.684 171.899 26.1565 167.883 28.4715C165.811 29.6689 163.439 29.9615 161.167 30.507C150.996 32.9617 140.739 35.0771 130.655 37.8777C124.253 39.6539 117.905 41.6095 111.944 44.5897C110.915 45.1086 109.939 45.694 108.757 46.326C109.697 45.1033 110.771 43.9878 111.957 42.9999C115.967 39.5873 120.591 37.3255 125.449 35.4496C133.054 32.5093 140.979 30.6533 148.911 28.8373C156.356 27.1343 163.793 25.4047 170.87 22.4312C173.242 21.4333 175.594 20.369 177.953 19.3313L178.04 19.4178Z" fill="#F9BE34"/>
<path d="M175.2 73.3208C175.2 69.396 175.2 65.4777 175.2 61.5529C175.2 61.1471 175.287 61.0076 175.728 61.0076C180.343 61.0076 184.961 61.0076 189.58 61.0076C190.035 61.0076 190.155 61.1472 190.142 61.5862C190.142 62.7703 190.142 63.9611 190.142 65.1519C190.142 65.5843 190.008 65.6774 189.594 65.6774C186.847 65.6774 184.101 65.6774 181.354 65.6774C180.953 65.6774 180.8 65.7571 180.806 66.1962C180.842 67.602 180.842 69.0035 180.806 70.4004C180.806 70.8395 180.953 70.926 181.361 70.926C183.64 70.926 185.925 70.926 188.204 70.926C188.692 70.926 188.799 71.0656 188.785 71.518C188.785 72.6754 188.785 73.8264 188.785 74.9772C188.785 75.4495 188.698 75.6424 188.184 75.6092C185.919 75.6092 183.653 75.6092 181.388 75.6092C180.9 75.6092 180.8 75.7621 180.806 76.2145C180.806 77.6447 180.806 79.0882 180.806 80.5251C180.806 80.9641 180.92 81.0906 181.368 81.0906C184.101 81.0906 186.827 81.0906 189.554 81.0906C190.048 81.0906 190.148 81.2369 190.142 81.6959C190.108 82.8999 190.142 84.1041 190.142 85.3148C190.142 85.6541 190.048 85.7671 189.694 85.7671C185.016 85.7671 180.339 85.7671 175.661 85.7671C175.213 85.7671 175.187 85.5742 175.187 85.2216C175.207 81.197 175.2 77.259 175.2 73.3208Z" fill="#F9BE34"/>
<path d="M164.782 65.6642C161.782 65.6642 158.875 65.6642 155.968 65.6642C155.547 65.6642 155.38 65.5843 155.393 65.1187C155.427 63.9146 155.393 62.7039 155.393 61.4999C155.393 61.1473 155.467 61.001 155.861 61.001H171.05C171.424 61.001 171.545 61.1074 171.531 61.4866C171.531 62.6574 171.531 63.8282 171.531 64.999C171.498 65.3514 171.359 65.6855 171.13 65.9569L162.042 80.4985C161.962 80.6316 161.895 80.7713 161.768 80.9974H163.566C166.065 80.9974 168.558 80.9974 171.057 80.9974C171.464 80.9974 171.625 81.084 171.611 81.523C171.611 82.7271 171.611 83.9379 171.611 85.1419C171.611 85.5078 171.538 85.674 171.117 85.674C165.911 85.674 160.706 85.674 155.5 85.674C155.146 85.674 155.039 85.5743 155.046 85.2283C155.046 84.0176 155.046 82.8136 155.046 81.6096C155.052 81.3444 155.138 81.0872 155.293 80.8711L164.548 66.0566C164.622 65.9568 164.682 65.8505 164.782 65.6642Z" fill="#F9BE34"/>
<path d="M74.5492 61.0209L71.5688 67.8328C70.2323 70.8307 68.9114 73.833 67.6061 76.8398C67.4939 77.1003 67.437 77.3813 67.4391 77.6648C67.4391 80.166 67.4391 82.6671 67.4391 85.1684C67.4391 85.5609 67.3389 85.6806 66.9312 85.6806C65.3809 85.654 63.8217 85.654 62.2535 85.6806C61.8459 85.6806 61.7457 85.5542 61.7457 85.1684C61.7457 82.6671 61.7457 80.1594 61.7457 77.6582C61.746 77.305 61.6709 76.9557 61.5251 76.6337C59.3199 71.6578 57.1214 66.6775 54.9296 61.6928C54.8427 61.5065 54.7692 61.307 54.6489 61.0276H60.2421C60.5562 61.0276 60.5495 61.3401 60.6297 61.5397L64.3986 71.079C64.4587 71.232 64.452 71.4849 64.6726 71.4982C64.8931 71.5115 64.9198 71.232 64.9866 71.0723C66.2162 67.8793 67.4391 64.6841 68.6553 61.4865C68.697 61.3439 68.7854 61.2191 68.9065 61.1323C69.0276 61.0455 69.1744 61.0017 69.3235 61.0076C71.081 61.0342 72.7516 61.0209 74.5492 61.0209Z" fill="#F9BE34"/>
<path d="M46.6301 31.5183C50.2886 32.9667 54.05 34.143 57.8833 35.0374C66.5037 37.2326 75.2576 39.0287 83.7711 41.5299C89.1972 43.0999 94.5766 44.7895 99.5216 47.6034C101.328 48.5647 102.92 49.882 104.199 51.475C104.4 51.7344 104.567 52.0272 104.867 52.5128C103.525 51.6837 102.137 50.9285 100.711 50.2509C95.1847 47.7098 89.3108 46.3528 83.3902 45.1487C76.3268 43.7251 69.1766 42.7206 62.2269 40.7782C58.0036 39.6007 53.914 38.1173 50.3656 35.4564C48.9048 34.3644 47.6416 33.0327 46.6301 31.5183Z" fill="#F9BE34"/>
<path d="M107.28 52.2C108.402 50.2044 110.22 48.8738 112.138 47.7562C116.815 45.0022 121.921 43.3592 127.08 41.8225C135.419 39.3412 143.939 37.545 152.379 35.4296C156.643 34.3653 160.913 33.3209 164.982 31.6246C165.066 31.6111 165.152 31.6111 165.236 31.6246C163.67 33.903 161.569 35.7665 159.115 37.0529C154.718 39.5541 149.887 40.8512 144.995 41.9488C137.912 43.552 130.708 44.55 123.611 46.2064C117.925 47.5368 112.378 49.2464 107.34 52.3064L107.28 52.2Z" fill="#F9BE34"/>
<path d="M42.7207 75.729C42.7207 72.6224 42.7207 69.5158 42.7207 66.4159C42.7207 65.9768 42.6071 65.8439 42.1593 65.8505C40.5756 65.8505 38.9852 65.8505 37.4015 65.8505C37.0473 65.8505 36.9003 65.7839 36.907 65.3914C36.907 64.061 36.907 62.7638 36.907 61.4533C36.907 61.0542 37.054 60.9944 37.4015 60.9944C42.8409 60.9944 48.2782 60.9944 53.7133 60.9944C54.1409 60.9944 54.2545 61.134 54.2478 61.5464C54.2478 62.8236 54.2478 64.1009 54.2478 65.3781C54.2478 65.744 54.1543 65.8639 53.7734 65.8572C52.1897 65.8572 50.5992 65.8572 49.0155 65.8572C48.4408 65.8572 48.3473 66.0302 48.3473 66.5224C48.3473 72.6957 48.3473 78.8689 48.3473 85.0421C48.3473 85.5676 48.2003 85.7073 47.679 85.7073C46.1822 85.6741 44.6853 85.7073 43.1884 85.7073C42.7674 85.7073 42.6472 85.5942 42.6538 85.1685C42.7273 82.002 42.7207 78.8689 42.7207 75.729Z" fill="#F9BE34"/>
<path d="M0.0334473 73.3607C0.0334473 69.4358 0.0334473 65.5177 0.0334473 61.5929C0.0334473 61.1206 0.153732 61.0009 0.621502 61.0076C2.08718 61.0431 3.55063 61.0431 5.01186 61.0076C5.49299 61.0076 5.64 61.1206 5.63332 61.6195C5.63332 67.7928 5.63332 73.9728 5.63332 80.1461C5.63332 80.7248 5.80706 80.8445 6.35502 80.8113C8.65378 80.8113 10.9525 80.8113 13.2513 80.8113C13.7592 80.8113 13.9195 80.9576 13.8728 81.4765C13.8728 82.7338 13.8728 83.9977 13.8728 85.2549C13.8728 85.6008 13.7725 85.7072 13.425 85.7072C9.12155 85.7072 4.82475 85.7072 0.527948 85.7072C0.0601781 85.7072 0.0735427 85.481 0.0735427 85.155C0.046813 81.2125 0.0334473 77.281 0.0334473 73.3607Z" fill="#F9BE34"/>
<path d="M200.747 59.0785C201.181 57.3755 201.602 55.7857 201.997 54.1959C202.002 54.144 202.017 54.0937 202.042 54.0481C202.067 54.0025 202.102 53.9625 202.143 53.9307C202.184 53.8988 202.232 53.8758 202.283 53.8631C202.333 53.8503 202.386 53.8482 202.438 53.8566C203.901 53.8566 205.358 53.8566 206.821 53.8566C207.182 53.8566 207.276 53.9763 207.115 54.3022C206.354 55.8056 205.599 57.3091 204.85 58.8125C204.77 58.9655 204.696 59.0785 204.496 59.0785H200.747Z" fill="#F9BE34"/>
<path d="M177.946 19.3248L178.127 19.2649L178.04 19.418L177.946 19.3248Z" fill="#F9BE34"/>
<path d="M107.36 52.2731L107.233 52.353L107.273 52.1934L107.36 52.2731Z" fill="#F9BE34"/>
<path d="M103.07 46.1531L103.143 46.2197H103.023L103.07 46.1531Z" fill="#F9BE34"/>
<path d="M109.699 40.8648L109.645 40.9312V40.8981L109.705 40.8381L109.699 40.8648Z" fill="#F9BE34"/>
<path d="M165.236 31.5982V31.5449H165.196L165.236 31.5982Z" fill="#F9BE34"/>
</g>
<defs>
<clipPath id="clip0">
<rect width="212" height="86" fill="white"/>
</clipPath>
</defs>
</svg>
