<svg width="347" height="107" viewBox="0 0 347 107" fill="none" xmlns="http://www.w3.org/2000/svg">
<path d="M36.8124 0H47.3786V1.98842H45.3885C45.0405 1.98842 44.4336 2.38967 43.5591 3.18325C42.6845 3.97683 42.2472 4.601 42.2472 5.01117V35.3278C42.2472 35.7469 42.6845 36.3532 43.5591 37.1558C44.4336 37.9582 45.0405 38.3595 45.3885 38.3595H47.3786V40.339H31.788V38.3417H33.7781C34.1262 38.3417 34.7241 37.9404 35.563 37.1379C36.4018 36.3354 36.8213 35.7291 36.8213 35.31V5.95633L22.1677 41.0613L7.53203 5.35V35.3189C7.53203 35.738 7.95147 36.3443 8.78142 37.1468C9.61137 37.9493 10.2182 38.3506 10.5663 38.3506H12.5474V40.3301H0V38.3417H1.9901C2.40954 38.3417 3.03423 37.9404 3.87311 37.1379C4.71198 36.3354 5.1225 35.7291 5.1225 35.31V5.01117C5.1225 4.601 4.70306 3.98575 3.87311 3.18325C3.04315 2.38075 2.40954 1.98842 1.9901 1.98842H0V0H11.7086L23.8455 30.2008H24.1578L36.8124 0ZM61.9162 36.2552C63.6969 36.3612 65.4717 35.9658 67.0387 35.1138C68.3387 34.2244 69.4116 33.0424 70.1711 31.6631H71.8488C71.1032 34.2533 69.6764 36.5964 67.7169 38.4487C65.5674 40.2299 62.8208 41.1287 60.0332 40.9632C58.3756 41.0232 56.727 40.6948 55.2192 40.0043C53.7114 39.3137 52.3863 38.2802 51.3499 36.9863C49.1756 34.3023 48.0273 30.9332 48.1104 27.4812C48.0135 25.6337 48.2864 23.7854 48.9131 22.0446C49.5398 20.3038 50.5078 18.7054 51.7604 17.3429C52.8809 16.1389 54.2409 15.1823 55.7531 14.5343C57.2654 13.8863 58.8965 13.5613 60.5418 13.5801C62.331 13.5391 64.11 13.8606 65.7714 14.5253C67.2794 15.1673 68.6605 16.0732 69.8498 17.2003L66.0391 23.1833L64.4685 23.2814C64.825 21.5008 64.7175 19.6585 64.1561 17.9314C63.8227 17.1277 63.2291 16.4589 62.4703 16.0322C61.7115 15.6054 60.8313 15.4453 59.9707 15.5774C58.8488 15.5062 57.7278 15.7286 56.7183 16.2228C55.7088 16.7169 54.8458 17.4657 54.2146 18.3951C52.8675 20.6312 52.2124 23.2154 52.3316 25.8227C52.2561 28.5241 53.1665 31.1609 54.8928 33.2413C55.7605 34.2401 56.8429 35.0299 58.0591 35.5518C59.2753 36.0737 60.5938 36.3142 61.9162 36.2552ZM87.8499 40.3301H72.0541V38.3417H74.0709C74.4904 38.3417 75.1151 37.9404 75.9539 37.1379C76.7928 36.3354 77.2033 35.7291 77.2033 35.31V5.01117C77.2033 4.601 76.7928 3.98575 75.9539 3.18325C75.1151 2.38075 74.4636 1.98842 74.0709 1.98842H72.0541V0H87.8499V1.98842H85.8598C85.4404 1.98842 84.8157 2.38967 83.9768 3.18325C83.1379 3.97683 82.7274 4.601 82.7274 5.01117V21.5248L97.1579 5.43025C97.4345 5.0825 97.1579 4.42267 96.4261 3.45075C95.6943 2.47883 95.0964 1.98842 94.7483 1.98842H92.8118V0H107.447V1.98842H105.457C104.474 2.32612 103.572 2.86347 102.807 3.56667C101.406 4.64558 100.576 5.35 100.29 5.60858L90.4736 16.157L104.592 34.882C105.277 35.6797 106.066 36.3815 106.939 36.9685C107.64 37.6124 108.484 38.0801 109.402 38.3327H112.329C113.022 38.1892 113.649 37.8227 114.114 37.2895C114.881 36.5851 115.265 35.9966 115.265 35.5062V19.0192C115.265 18.6002 114.881 18.0384 114.114 17.3429C113.649 16.8097 113.022 16.4433 112.329 16.2997H110.749V14.3113H120.057V35.524C120.057 36.0144 120.459 36.6029 121.262 37.3073C121.724 37.8131 122.322 38.1752 122.985 38.3506H126.233C126.581 38.3506 127.125 38.0028 127.902 37.3073C128.678 36.6118 129.053 36.0144 129.053 35.524V19.0192C129.053 18.6002 128.669 18.0384 127.902 17.3429C127.134 16.6474 126.581 16.2997 126.233 16.2997H124.555V14.3113H132.819L133.863 19.6167C135.282 18.1196 136.803 16.7223 138.414 15.4347C140.051 14.2052 142.062 13.5755 144.108 13.6514C145.069 13.634 146.024 13.8106 146.915 14.1707C147.805 14.5308 148.614 15.0669 149.293 15.7468C150.007 16.4542 150.566 17.3023 150.935 18.2371C151.304 19.1719 151.474 20.1731 151.435 21.1771V35.524C151.435 36.0144 151.819 36.6029 152.586 37.3073C153.354 38.0118 153.907 38.3506 154.255 38.3506H155.933V40.3301H142.234V38.3417H143.68C144.372 38.1962 144.998 37.8301 145.465 37.2984C146.232 36.594 146.616 36.0055 146.616 35.5151V21.5248C146.667 20.3544 146.293 19.2049 145.563 18.2881C145.171 17.8538 144.685 17.5147 144.142 17.2968C143.599 17.0789 143.014 16.9879 142.43 17.0308C140.362 17.0938 138.366 17.8085 136.728 19.0728C134.818 20.4281 133.863 21.5605 133.863 22.47V35.524C133.863 36.0144 134.247 36.6029 135.014 37.3073C135.479 37.8406 136.106 38.207 136.799 38.3506H138.263V40.3301H100.844L86.8058 20.1695L82.7274 24.5565V35.3189C82.7274 35.738 83.1379 36.3443 83.9768 37.1468C84.8157 37.9493 85.4404 38.3506 85.8598 38.3506H87.8499V40.3301ZM101.861 85.8051L101.736 85.6803C103.066 86.7948 104.413 87.9094 105.77 89.024C107.126 90.1386 108.572 91.2175 110.107 92.2697H112.507V94.3562H108.117C106.329 94.3865 104.553 94.0685 102.887 93.4199C101.108 92.6242 99.4804 91.526 98.077 90.1743C96.4942 91.7669 94.5855 92.9988 92.4816 93.7855C90.0474 94.6314 87.4815 95.036 84.9049 94.9803C81.6299 94.9975 78.4596 93.8286 75.9807 91.6901C74.6979 90.6559 73.6713 89.3397 72.9809 87.8442C72.2906 86.3486 71.955 84.714 72.0005 83.0677C71.9741 80.6188 72.5894 78.2057 73.7854 76.0681C74.9456 74.0146 76.5717 72.2616 78.533 70.9499C77.5946 69.7595 76.8035 68.4601 76.177 67.0801C75.5591 65.6293 75.255 64.0644 75.2846 62.488C75.2099 61.2594 75.4044 60.0293 75.8545 58.8835C76.3046 57.7378 76.9994 56.7039 77.8905 55.854C79.8834 54.1959 82.4316 53.3546 85.0209 53.5C86.5127 53.4497 88.0018 53.661 89.4206 54.1242C90.3511 54.5065 91.3422 54.7209 92.3477 54.7573C92.7343 54.7668 93.1207 54.7309 93.4989 54.6503C93.8155 54.5464 94.0784 54.3222 94.2307 54.0261H96.0156V63.5313H94.2307C93.9536 61.5684 93.0082 59.7609 91.5535 58.4131C90.7426 57.4455 89.7257 56.6712 88.577 56.1467C87.4282 55.6221 86.1767 55.3607 84.9138 55.3814C83.0796 55.2807 81.2669 55.8162 79.7824 56.8973C79.1595 57.4055 78.6647 58.0526 78.3377 58.7867C78.0106 59.5207 77.8605 60.3212 77.8994 61.1238C77.889 62.6957 78.4467 64.2187 79.4701 65.4127C80.5963 66.7244 82.036 67.7304 83.6555 68.3373C86.2317 71.1312 89.019 73.934 92.0175 76.7458C95.016 79.5575 97.8748 82.1879 100.594 84.637C101.338 83.4449 101.886 82.1414 102.218 80.7761C102.545 79.3128 102.704 77.817 102.691 76.3178C102.727 75.5126 102.592 74.7091 102.293 73.9604C101.995 73.2117 101.54 72.535 100.96 71.9753C99.6816 70.8489 98.0118 70.2693 96.3101 70.3614V68.3373H110.66V70.2188H109.098C108.75 70.2188 108.063 70.8073 107.055 72.0021C106.303 72.7051 105.775 73.6138 105.538 74.6147V74.7217C105.469 76.7285 105.117 78.7156 104.494 80.6245C103.894 82.4733 103.005 84.2157 101.861 85.7873V85.8051ZM88.1623 91.8684C89.8125 91.8906 91.4553 91.6437 93.0259 91.1373C94.4192 90.6702 95.7384 90.0067 96.9437 89.1667L96.6313 88.9616C93.6566 86.3104 90.7295 83.5938 87.8499 80.8118C84.9704 78.0297 82.1801 75.1021 79.479 72.0288C78.4818 73.0728 77.6699 74.2789 77.0784 75.5955C76.4559 77.1902 76.1703 78.8964 76.2395 80.6067C76.2799 82.102 76.6418 83.5712 77.3009 84.9144C77.96 86.2575 78.9007 87.4432 80.0591 88.3909C82.2156 90.5394 85.1176 91.7752 88.1623 91.8417V91.8684ZM117.13 7.94475H117.023C116.146 7.95263 115.302 7.61272 114.676 6.99958C114.354 6.70994 114.099 6.35467 113.926 5.95779C113.754 5.56091 113.669 5.13167 113.677 4.69908V4.601C113.651 4.14252 113.728 3.6841 113.9 3.25861C114.073 2.83312 114.338 2.45112 114.676 2.14C115.366 1.5687 116.234 1.25607 117.13 1.25607C118.026 1.25607 118.894 1.5687 119.584 2.14C119.922 2.45112 120.187 2.83312 120.36 3.25861C120.533 3.6841 120.609 4.14252 120.584 4.601H120.477C120.548 4.601 120.584 4.601 120.584 4.69908C120.592 5.13167 120.507 5.56091 120.334 5.95779C120.162 6.35467 119.906 6.70994 119.584 6.99958C118.989 7.59948 118.181 7.93935 117.335 7.94475H117.13ZM143.68 91.6366C146.549 91.8019 149.399 91.0728 151.836 89.5501C153.947 87.9629 155.632 85.8803 156.745 83.4868H158.851C157.696 86.8809 155.544 89.8484 152.675 92.0022C149.725 94.1121 146.164 95.196 142.537 95.0873C139.895 95.182 137.266 94.6684 134.853 93.5861C132.441 92.5039 130.31 90.8819 128.625 88.8457C125.13 84.6807 123.272 79.3881 123.395 73.9548C123.254 68.668 124.954 63.4963 128.205 59.3226C129.783 57.3373 131.809 55.7537 134.117 54.7013C136.425 53.649 138.95 53.1579 141.484 53.2682C143.374 53.2251 145.255 53.5272 147.035 54.1598C148.533 54.7502 150.128 55.0527 151.738 55.0515C152.24 55.076 152.741 54.9845 153.202 54.784C153.59 54.5848 153.943 54.3227 154.246 54.0083H155.71V68.2303H153.925C153.623 65.3605 152.498 62.6389 150.685 60.3926C149.717 58.9022 148.381 57.6866 146.805 56.8634C145.229 56.0403 143.467 55.6373 141.69 55.6935C140.174 55.613 138.658 55.8454 137.236 56.3762C135.814 56.907 134.517 57.7248 133.426 58.7787C131.12 61.552 129.857 65.0438 129.856 68.6494V68.4443C129.785 69.2112 129.731 69.978 129.696 70.7448C129.696 71.5117 129.642 72.3053 129.642 73.1434C129.642 74.1153 129.642 75.114 129.749 76.1216C129.856 77.1292 129.892 78.0565 129.954 78.8947C130.233 82.2848 131.673 85.4752 134.033 87.9273C135.29 89.1877 136.799 90.1695 138.461 90.8086C140.123 91.4477 141.901 91.7298 143.68 91.6366ZM176.699 33.0184C176.761 34.1065 176.582 35.1949 176.175 36.206C175.768 37.217 175.142 38.1259 174.343 38.8678C172.676 40.3023 170.527 41.0513 168.328 40.9632C166.893 41.0065 165.465 40.7388 164.143 40.1785C163.1 39.6707 161.957 39.4026 160.796 39.3938C160.398 39.3552 159.997 39.4459 159.654 39.6524L158.815 40.3301H157.602V31.137H159.172C159.464 32.9287 160.324 34.5793 161.626 35.845C162.454 36.8135 163.492 37.5804 164.661 38.0873C165.83 38.5941 167.1 38.8275 168.373 38.7697C169.681 38.8377 170.983 38.5479 172.139 37.9315C172.584 37.6481 172.945 37.2502 173.184 36.7796C173.423 36.309 173.53 35.7829 173.496 35.2565C173.543 34.6291 173.418 34.0006 173.133 33.4393C172.848 32.8781 172.415 32.4056 171.88 32.0732C170.823 31.4235 169.723 30.8455 168.587 30.3434C167.606 29.9333 166.722 29.5498 165.91 29.2021C165.098 28.8543 164.179 28.4709 163.135 28.0518C161.657 27.3697 160.312 26.4308 159.163 25.2788C158.627 24.6963 158.212 24.0133 157.943 23.2694C157.673 22.5255 157.554 21.7355 157.593 20.9453C157.527 19.9543 157.681 18.9612 158.044 18.0365C158.406 17.1118 158.968 16.2783 159.69 15.5953C161.032 14.6448 162.588 14.0422 164.221 13.8414C165.853 13.6407 167.51 13.8481 169.042 14.445C169.938 14.8903 170.924 15.1251 171.925 15.1316C172.23 15.1415 172.534 15.0868 172.817 14.9711C173.076 14.8563 173.283 14.6498 173.397 14.3915H174.754V22.4165H173.183C172.929 20.8314 172.18 19.3675 171.041 18.2346C170.343 17.3806 169.455 16.7002 168.448 16.2469C167.442 15.7936 166.344 15.5797 165.241 15.622C164.031 15.5231 162.825 15.8582 161.841 16.5672C161.488 16.8577 161.205 17.2246 161.015 17.6401C160.825 18.0557 160.732 18.509 160.743 18.9658C160.711 19.4462 160.799 19.927 161 20.3646C161.201 20.8022 161.508 21.1826 161.894 21.4713C162.883 22.1577 163.931 22.7545 165.026 23.2547C166.008 23.6648 166.927 24.0483 167.802 24.396L170.675 25.5463C172.175 26.176 173.555 27.0598 174.754 28.1588C175.415 28.7728 175.936 29.5228 176.279 30.3571C176.623 31.1915 176.782 32.0903 176.744 32.9917L176.699 33.0184ZM183.544 71.262C184.874 72.5594 185.913 74.125 186.59 75.8548C187.267 77.5844 187.567 79.4385 187.471 81.2933C187.566 83.1559 187.265 85.0175 186.588 86.7556C185.911 88.4938 184.874 90.0691 183.544 91.378C181.142 93.7623 177.89 95.0964 174.504 95.0873C171.08 95.1125 167.787 93.7783 165.348 91.378C164.02 90.0683 162.984 88.4926 162.309 86.7545C161.633 85.0164 161.334 83.1552 161.43 81.2933C161.33 79.5223 161.594 77.7496 162.208 76.0851C162.821 74.4206 163.77 72.8996 164.996 71.6164C166.222 70.3333 167.698 69.3152 169.333 68.6254C170.969 67.9356 172.729 67.5887 174.504 67.6062C177.896 67.5817 181.161 68.8955 183.589 71.262H183.544ZM182.286 85.6V85.8051C182.357 85.0383 182.402 84.2714 182.438 83.5046C182.473 82.7377 182.491 81.9709 182.491 81.2041C182.491 80.4373 182.491 79.6972 182.438 78.966C182.384 78.2348 182.357 77.5482 182.286 76.9241C182.123 75.0165 181.332 73.2166 180.037 71.8059C179.299 71.135 178.431 70.622 177.487 70.2985C176.544 69.9749 175.543 69.8477 174.549 69.9245C173.575 69.8557 172.597 69.9871 171.676 70.3107C170.755 70.6343 169.91 71.1432 169.194 71.8059C167.913 73.1834 167.122 74.9449 166.945 76.8171V76.6833C166.806 77.4074 166.72 78.1404 166.686 78.8768C166.686 79.6437 166.633 80.4105 166.633 81.1684C166.633 81.9263 166.633 82.6842 166.686 83.4154C166.717 84.1019 166.804 84.7848 166.945 85.4573C167.152 87.3216 167.939 89.0741 169.194 90.4685C169.895 91.16 170.734 91.6948 171.657 92.0376C172.581 92.3804 173.566 92.5233 174.549 92.4569C175.557 92.5453 176.572 92.4185 177.528 92.0849C178.483 91.7513 179.357 91.2186 180.091 90.522C181.313 89.1468 182.08 87.4276 182.286 85.6ZM190.862 41.0167C189.212 41.048 187.577 40.7019 186.081 40.0049C184.585 39.3079 183.269 38.2785 182.232 36.9953C179.971 34.3259 178.762 30.9241 178.832 27.4277C178.724 23.8431 179.955 20.3467 182.286 17.6193C183.32 16.3577 184.633 15.352 186.12 14.6807C187.608 14.0094 189.231 13.6907 190.862 13.7495C192.128 13.679 193.395 13.8814 194.576 14.3429C195.757 14.8044 196.825 15.5144 197.707 16.4245C199.345 18.1754 200.296 20.4582 200.384 22.8534L200.491 24.7348L183.125 26.1258C183.16 28.6303 184.04 31.0496 185.624 32.9917C186.419 34.0591 187.463 34.9166 188.665 35.49C189.867 36.0633 191.191 36.3351 192.522 36.2819C194.319 36.3829 196.11 35.9881 197.698 35.1406C198.991 34.2981 200.053 33.1455 200.786 31.7879H202.356C201.692 34.3647 200.312 36.7014 198.376 38.5289C196.27 40.2602 193.585 41.13 190.862 40.9632V41.0167ZM190.755 15.729C189.614 15.6339 188.469 15.839 187.432 16.324C186.396 16.809 185.504 17.5569 184.847 18.4932C183.669 20.2082 182.998 22.2198 182.911 24.2979L195.985 23.1833C196.208 21.435 196.009 19.6585 195.404 18.0028C194.833 16.4572 193.283 15.6814 190.755 15.6755V15.729ZM222.338 92.4123C222.757 92.4123 223.328 92.0468 224.06 91.3156C224.792 90.5844 225.158 90.0138 225.158 89.5947V75.328C225.205 74.2147 224.854 73.121 224.167 72.2428C223.762 71.8139 223.265 71.4827 222.713 71.2741C222.161 71.0656 221.569 70.9852 220.981 71.0391C219.129 71.1005 217.348 71.7607 215.903 72.9205C214.196 74.1807 213.342 75.2269 213.342 76.0592V89.6393C213.342 90.0583 213.708 90.629 214.44 91.3602C215.172 92.0913 215.716 92.4569 216.064 92.4569H217.635V94.4453H204.248V92.4569H205.712C206.131 92.4569 206.703 92.0913 207.434 91.3602C208.166 90.629 208.532 90.0583 208.532 89.6393V75.3726C208.589 74.2164 208.218 73.0796 207.488 72.1804C207.086 71.7598 206.596 71.4335 206.053 71.2254C205.509 71.0172 204.927 70.9322 204.347 70.9767C202.446 71.0389 200.623 71.7395 199.171 72.9651C197.463 74.2848 196.609 75.3993 196.609 76.3088V89.6838C196.609 90.1029 196.975 90.6736 197.707 91.4048C198.439 92.1359 199.019 92.5015 199.438 92.5015H200.902V94.4899H187.515V92.5015H189.086C189.434 92.5015 189.979 92.1359 190.701 91.4048C191.424 90.6736 191.799 90.1029 191.799 89.6838V73.0364C191.799 72.6263 191.433 72.0645 190.701 71.369C189.97 70.6735 189.434 70.3258 189.086 70.3258H187.515V68.3373H195.547L196.591 73.3574C198.126 71.7524 199.521 70.409 200.777 69.3271C202.307 68.1583 204.21 67.5847 206.131 67.7132C207.775 67.6801 209.385 68.1739 210.727 69.122C211.395 69.6039 211.955 70.2202 212.37 70.9312C212.785 71.6423 213.046 72.4323 213.137 73.2504C214.734 71.7168 216.207 70.4238 217.528 69.3806C219.04 68.276 220.886 67.7222 222.757 67.8112C224.652 67.7648 226.49 68.459 227.88 69.7462C228.6 70.4603 229.159 71.3195 229.521 72.2666C229.883 73.2137 230.038 74.227 229.977 75.2388V89.5055C229.977 89.9246 230.343 90.4953 231.075 91.2264C231.806 91.9576 232.342 92.3232 232.69 92.3232H234.26V94.3116H220.874V92.3232L222.338 92.4123ZM204.873 19.2957C204.437 18.6134 203.888 18.0104 203.249 17.5123C202.356 16.7455 201.767 16.3621 201.464 16.3621H200.313V14.3113H214.431V16.2997H212.762C212.414 16.2997 211.959 16.6474 211.406 17.3429C210.938 17.8294 210.643 18.456 210.567 19.1263L216.814 31.9752L222.57 19.2243C222.573 18.874 222.505 18.5267 222.37 18.2033C222.235 17.88 222.036 17.5873 221.784 17.3429C221.189 16.6474 220.717 16.2997 220.365 16.2997H218.643V14.3113H229.209V16.2997H228.058C227.71 16.2997 227.166 16.6653 226.434 17.3964C225.86 17.918 225.382 18.5368 225.024 19.2243L216.1 38.1366L208.425 52.8758L206.149 51.7167L214.092 37.3965L204.873 19.2957ZM252.252 67.6775C253.71 67.62 255.16 67.9237 256.473 68.5615C257.785 69.1994 258.92 70.1516 259.775 71.3333C261.686 74.1627 262.626 77.5362 262.452 80.9455C262.592 84.5343 261.524 88.0664 259.418 90.9768C258.549 92.2181 257.39 93.2291 256.042 93.922C254.694 94.615 253.197 94.9691 251.681 94.9536C249.763 95.0504 247.858 94.5955 246.192 93.6428C244.718 92.6464 243.514 91.3018 242.685 89.7284V102.265C242.685 102.756 243.069 103.344 243.836 104.049C244.604 104.753 245.166 105.092 245.514 105.092H247.201V107H233.422V105.012H235.099C235.775 104.869 236.383 104.501 236.822 103.968C237.404 103.537 237.797 102.899 237.919 102.185V73.0364C237.919 72.6263 237.554 72.0645 236.822 71.369C236.383 70.836 235.775 70.4681 235.099 70.3258H233.422V68.2303H241.891L242.73 73.6695C243.682 71.8356 245.063 70.2575 246.754 69.0685C248.404 68.053 250.315 67.5445 252.252 67.6062V67.6775ZM257.481 85.2344V85.3325L257.687 83.246C257.758 82.5528 257.794 81.8564 257.794 81.1595C257.795 80.5486 257.759 79.9382 257.687 79.3316C257.615 78.7342 257.544 78.1635 257.481 77.6018C257.31 75.7728 256.578 74.0414 255.384 72.6441C254.812 72.0446 254.117 71.5751 253.347 71.2674C252.577 70.9597 251.75 70.821 250.922 70.8608C249.957 70.8201 248.994 70.9798 248.094 71.3297C247.194 71.6796 246.376 72.2122 245.692 72.8938C244.329 74.3266 243.326 76.0624 242.765 77.9584V84.7529C242.754 85.7275 242.944 86.694 243.321 87.5927C243.699 88.4914 244.257 89.3032 244.961 89.9781C245.655 90.6904 246.489 91.2525 247.41 91.6298C248.331 92.0071 249.32 92.1915 250.315 92.1716H250.422C251.35 92.2425 252.281 92.1055 253.149 91.7708C254.017 91.436 254.799 90.9119 255.438 90.2367C256.608 88.7856 257.319 87.0194 257.481 85.1631V85.2344ZM316.568 89.6214C316.568 90.0405 316.952 90.6112 317.72 91.3423C318.487 92.0735 319.04 92.4391 319.389 92.4391H320.959V94.4275H307.26V92.4391H308.778C309.135 92.4391 309.67 92.0735 310.455 91.3423C311.241 90.6112 311.607 90.0405 311.607 89.6214V75.4439C311.643 74.3018 311.294 73.1806 310.616 72.2607C310.244 71.8108 309.77 71.4569 309.232 71.2288C308.695 71.0007 308.11 70.905 307.528 70.9499C305.453 71.0177 303.454 71.749 301.826 73.0364C299.904 74.4393 298.946 75.5539 298.952 76.3802V89.5501C298.952 90.0405 299.336 90.629 300.103 91.3334C300.568 91.8666 301.195 92.2331 301.888 92.3767H303.423V94.3651H281.22L280.488 88.9348C279.388 90.3793 278.164 91.7249 276.829 92.9563C275.471 94.2317 273.668 94.9261 271.805 94.8912C270.926 94.8975 270.056 94.7243 269.247 94.3824C268.439 94.0404 267.708 93.5369 267.102 92.9027C266.437 92.2308 265.918 91.4299 265.576 90.5496C265.234 89.6693 265.076 88.7283 265.111 87.7846C265.012 86.6765 265.229 85.5628 265.737 84.5731C266.246 83.5834 267.025 82.7583 267.985 82.1938C269.734 81.1826 271.618 80.426 273.581 79.9468L280.381 78.5826L280.488 75.4528C280.566 73.8753 280.043 72.3268 279.024 71.1193C278.346 70.5148 277.548 70.0583 276.683 69.7789C275.818 69.4995 274.904 69.4033 274 69.4965C273.123 69.3912 272.233 69.5303 271.43 69.8985C270.627 70.2668 269.941 70.8497 269.449 71.583C269.057 72.4456 268.877 73.389 268.924 74.3349C268.97 75.2809 269.242 76.2021 269.716 77.0222H267.833L264.264 71.797C265.693 70.3921 267.397 69.296 269.268 68.5766C271.139 67.8571 273.139 67.5299 275.142 67.6151C277.703 67.5276 280.227 68.2415 282.362 69.657C283.313 70.3097 284.082 71.1948 284.594 72.228C285.106 73.2612 285.346 74.4082 285.289 75.5598V89.559C285.289 89.9781 285.673 90.5309 286.44 91.2264C287.208 91.9219 287.761 92.2786 288.109 92.2786H291.25C291.945 92.1345 292.573 91.7645 293.035 91.2264C293.803 90.5309 294.187 89.9781 294.187 89.559V73.0364C294.187 72.6263 293.803 72.0645 293.035 71.369C292.57 70.8358 291.944 70.4694 291.25 70.3258H289.68V68.2303H297.944L298.988 73.6695C300.386 72.1834 301.876 70.7867 303.45 69.4876C305.098 68.2402 307.132 67.6092 309.197 67.7043C310.156 67.6869 311.108 67.8627 311.998 68.2212C312.887 68.5797 313.695 69.1135 314.373 69.7908C315.09 70.4981 315.652 71.3472 316.023 72.2837C316.393 73.2203 316.564 74.2237 316.524 75.2299L316.568 89.6214ZM280.488 80.357L274.241 81.9263C272.899 82.1443 271.677 82.8259 270.787 83.8523C270.14 84.7888 269.809 85.907 269.841 87.0445V87.1426C269.833 87.6748 269.931 88.2034 270.129 88.6977C270.326 89.192 270.62 89.6423 270.993 90.0227C271.353 90.4097 271.792 90.7162 272.279 90.9221C272.767 91.128 273.292 91.2287 273.822 91.2175H273.973C275.374 91.1611 276.709 90.6079 277.739 89.6571C278.8 88.8088 279.706 87.783 280.417 86.6254L280.488 80.357ZM347 68.3373V70.3258H345.742C345.465 70.3258 344.956 70.6913 344.225 71.4225C343.67 71.9514 343.163 72.5272 342.707 73.1434L333.926 92.1627L326.082 106.795L323.886 105.645L331.731 91.3245L322.53 73.2504C322.091 72.5705 321.542 71.9679 320.906 71.4671C320.013 70.7003 319.46 70.3168 319.183 70.3168H317.925V68.3373H332.043V70.3258H330.472C330.124 70.3258 329.651 70.6735 329.062 71.369C328.572 71.8459 328.258 72.4744 328.17 73.1523L334.417 86.0102L340.2 73.1167C340.2 72.7812 340.131 72.4492 339.996 72.1421C339.86 71.835 339.662 71.5595 339.414 71.3333C338.825 70.6378 338.352 70.2901 338.004 70.2901H336.336V68.3373H347Z" fill="#051C2C"/>
</svg>
