<svg width="201" height="45" viewBox="0 0 201 45" fill="none" xmlns="http://www.w3.org/2000/svg">
<g clip-path="url(#clip0)">
<path d="M151.142 45C149.144 44.3211 148.339 42.979 148.481 40.8237C148.642 38.404 148.544 35.9645 148.512 33.5329C148.481 31.4013 149.627 30.3355 151.606 30.3158C157.494 30.2447 163.363 30.225 169.24 30.3158C171.246 30.3434 172.436 31.4763 172.405 33.6474C172.381 35.5382 172.405 37.429 172.405 39.4895H153.286V41.3408H172.346V45.0079L151.142 45ZM153.298 35.7197H167.486V34.0461H153.219C153.247 34.65 153.27 35.1434 153.298 35.7197Z" fill="#231F20"/>
<path d="M0 32.3685C0.687012 31.1843 1.57031 30.304 3.04248 30.3C9.95578 30.3 16.8652 30.3 23.8766 30.3V33.8527H5.17026C4.52643 34.4922 4.80516 35.0645 4.86404 35.8264C9.61816 35.8264 14.3723 35.8974 19.1225 35.7908C21.1874 35.7474 23.0993 36.1264 23.8687 38.0961C24.3584 39.3353 24.3986 40.7082 23.9823 41.9742C23.5659 43.2402 22.7197 44.3184 21.5918 45.0198H0V41.4671H19.1107V39.5171C14.333 39.5171 9.63387 39.4382 4.94256 39.5527C2.91686 39.6 1.29943 39.0592 0 37.5198V32.3685Z" fill="#231F20"/>
<path d="M115.025 45C115.025 41.1947 115.025 37.3934 114.966 33.5881C114.931 31.4328 116.105 30.3473 118.025 30.3276C125.527 30.2407 133.029 30.1934 140.527 30.3592C142.176 30.3986 143.754 31.3499 143.719 33.5881C143.664 37.3894 143.691 41.1947 143.683 45H138.972V34.0697H131.514V45H127.195V34.0618H119.736V45H115.025Z" fill="#231F20"/>
<path d="M31.4063 44.9999C29.3845 44.3447 28.5483 43.0262 28.6975 40.8355C28.8506 38.546 28.6975 36.2368 28.7289 33.9355C28.7289 31.3697 29.6829 30.3078 32.1915 30.292C38.9242 30.2447 45.6569 30.292 52.5192 30.292V33.9394H33.5498V41.3289H52.6055V45.0157L31.4063 44.9999Z" fill="#231F20"/>
<path d="M86.3671 45.0001C86.3396 40.9935 86.2847 36.9909 86.2925 32.9882C86.2925 31.1724 87.5684 30.3711 89.0877 30.3474C95.1609 30.2527 101.238 30.2646 107.311 30.3474C108.685 30.3474 109.989 31.0777 110.032 32.6448C110.149 36.7619 110.354 40.8909 109.922 45.008H105.603V34.0698H91.078V45.0001H86.3671Z" fill="#231F20"/>
<path d="M201 43.0264C199.284 45.229 196.85 44.7593 194.55 44.7672C190.895 44.7672 187.24 44.7672 183.518 44.7672C183.153 43.583 183.361 42.4659 183.377 41.2145H196.105V33.7145H183.416V30.1066C188.335 30.1066 193.266 30.0751 198.193 30.1303C199.43 30.1303 200.136 31.2435 201 31.9777V43.0264Z" fill="#231F20"/>
<path d="M60.0646 45.0001C58.2194 44.2896 57.3518 43.0935 57.5207 40.9659C57.6653 38.4761 57.6744 35.9803 57.5481 33.4896C57.4893 31.4093 58.612 30.3711 60.4611 30.3317C65.2701 30.2251 70.0832 30.2962 74.9865 30.2962V33.8962H62.3258V41.2975H75.0022V45.0001H60.0646Z" fill="#231F20"/>
<path d="M76.5527 45V30.3948H81.2637V45H76.5527Z" fill="#231F20"/>
<path d="M96.5744 0V10.4842H86.1907C85.7667 9.56447 86.0062 8.60921 86.0376 7.44473H93.4337V0H96.5744Z" fill="#FE060C"/>
<path d="M102.463 0C101.941 2.39211 102.373 4.79998 102.204 7.38156H109.329C109.722 8.49077 109.545 9.44211 109.474 10.4882H99.3223V0H102.463Z" fill="#FE060C"/>
<path d="M177.139 30.071H181.709V44.6763H177.139V30.071Z" fill="#231F20"/>
<path d="M96.4801 13.4131V23.621H93.4416V16.3973H86.2103C85.8177 15.3157 85.9669 14.4236 86.0533 13.4131H96.4801Z" fill="#FE060C"/>
<path d="M109.494 13.3894V16.2118H102.31V23.6249H99.334V13.3894H109.494Z" fill="#FE060C"/>
</g>
<defs>
<clipPath id="clip0">
<rect width="201" height="45" fill="white"/>
</clipPath>
</defs>
</svg>
