<svg width="166" height="83" viewBox="0 0 166 83" fill="none" xmlns="http://www.w3.org/2000/svg">
<path d="M153.277 77.761H151.869L150.31 72.8158L148.751 77.761H147.393L145.281 70.646H146.991L148.097 75.238L149.606 70.6964H151.064L152.523 75.3893L153.73 70.6964H155.289L153.277 77.761ZM138.794 72.6644L137.939 74.8847H139.649L138.794 72.6644ZM140.806 77.761L140.202 76.2472H137.436L136.833 77.761H135.123L138.191 70.646H139.498L142.566 77.761H140.806ZM131.201 72.8663L129.089 74.7333V76.2977H132.005V77.761H127.53V76.1463L126.926 76.6509V75.3389L127.53 74.8343V70.646H129.089V73.4718L131.201 71.6047V72.8663ZM121.696 72.0084C121.495 71.9075 121.194 71.857 120.942 71.857C120.64 71.857 120.389 71.9075 120.137 72.0084C119.886 72.1093 119.685 72.2607 119.484 72.4626C119.283 72.6644 119.132 72.9167 119.031 73.169C118.931 73.4718 118.88 73.7746 118.88 74.0773C118.88 74.4306 118.931 74.7333 119.031 74.9856C119.132 75.2884 119.283 75.4903 119.433 75.6921C119.635 75.894 119.836 76.0453 120.087 76.1463C120.339 76.2472 120.59 76.2977 120.892 76.2977C121.193 76.2977 121.495 76.2472 121.747 76.0958C121.998 75.9444 122.199 75.793 122.35 75.5407L123.658 76.4995C123.356 76.9032 122.954 77.2564 122.501 77.4583C122.048 77.6601 121.546 77.761 121.093 77.761C120.54 77.761 120.037 77.6601 119.584 77.5087C119.132 77.3573 118.729 77.105 118.377 76.7518C118.025 76.449 117.774 76.0453 117.573 75.5912C117.372 75.137 117.271 74.6324 117.271 74.0269C117.271 73.4718 117.372 72.9167 117.573 72.4626C117.774 72.0084 118.025 71.6047 118.377 71.302C118.729 70.9992 119.132 70.7469 119.584 70.545C120.037 70.3936 120.54 70.2927 121.093 70.2927C121.294 70.2927 121.495 70.2927 121.696 70.3432C121.898 70.3937 122.149 70.4441 122.35 70.545C122.551 70.646 122.752 70.7469 122.954 70.8478C123.155 70.9992 123.306 71.1506 123.456 71.3524L122.25 72.3617C122.099 72.2607 121.898 72.1093 121.696 72.0084ZM111.79 73.2195C111.689 72.9167 111.538 72.7149 111.337 72.513C111.136 72.3112 110.935 72.1598 110.633 72.0589C110.382 71.958 110.08 71.9075 109.728 71.9075C109.376 71.9075 109.074 71.958 108.823 72.0589C108.571 72.1598 108.32 72.3112 108.119 72.513C107.918 72.7149 107.767 72.9672 107.666 73.2195C107.566 73.5223 107.515 73.825 107.515 74.1278C107.515 74.481 107.566 74.7838 107.666 75.0361C107.767 75.3389 107.918 75.5407 108.119 75.7426C108.32 75.9444 108.521 76.0958 108.823 76.1967C109.074 76.2977 109.376 76.3481 109.728 76.3481C110.08 76.3481 110.382 76.2977 110.633 76.1967C110.885 76.0958 111.136 75.9444 111.337 75.7426C111.538 75.5407 111.689 75.2884 111.79 75.0361C111.89 74.7333 111.941 74.4306 111.941 74.1278C111.941 73.825 111.89 73.5223 111.79 73.2195ZM113.248 75.6921C113.047 76.1463 112.795 76.55 112.443 76.8527C112.091 77.1555 111.689 77.4078 111.237 77.6096C110.784 77.761 110.281 77.862 109.728 77.862C109.175 77.862 108.672 77.761 108.219 77.6096C107.767 77.4583 107.364 77.206 107.012 76.8527C106.66 76.55 106.409 76.1463 106.208 75.6921C106.007 75.238 105.906 74.7333 105.906 74.1278C105.906 73.5727 106.007 73.0176 106.208 72.5635C106.409 72.1093 106.66 71.7057 107.012 71.4029C107.364 71.1001 107.767 70.8478 108.219 70.646C108.672 70.4946 109.175 70.3937 109.728 70.3937C110.281 70.3937 110.784 70.4946 111.237 70.646C111.689 70.7973 112.091 71.0497 112.443 71.4029C112.795 71.7057 113.047 72.1093 113.248 72.5635C113.449 73.0176 113.55 73.5223 113.55 74.1278C113.55 74.6829 113.449 75.238 113.248 75.6921ZM100.475 72.2607C100.425 72.1598 100.324 72.0589 100.173 72.0084C100.073 71.958 99.9218 71.9075 99.7709 71.9075C99.62 71.9075 99.4692 71.857 99.3183 71.857H98.3126V73.4718H99.2177C99.3686 73.4718 99.5195 73.4718 99.6703 73.4718C99.8212 73.4718 99.9721 73.4213 100.073 73.3709C100.223 73.3204 100.324 73.2195 100.374 73.1186C100.475 73.0177 100.475 72.8663 100.525 72.6644C100.576 72.513 100.525 72.3617 100.475 72.2607ZM100.676 74.6829L102.486 77.7106H100.626L99.1674 74.8847H98.4131V77.7106H96.8542V70.5955H99.62C99.9721 70.5955 100.324 70.646 100.626 70.6964C100.928 70.7469 101.229 70.8983 101.481 71.0496C101.732 71.201 101.933 71.4533 102.084 71.7056C102.235 72.0084 102.285 72.3112 102.285 72.7653C102.285 73.27 102.134 73.6737 101.883 74.0269C101.531 74.3801 101.179 74.582 100.676 74.6829ZM90.9705 77.6601H89.5625L88.0036 72.7149L86.4446 77.6601H85.0869L82.9748 70.545H84.6846L85.7909 75.137L87.2995 70.5955H88.7579L90.2162 75.2884L91.4231 70.5955H92.9821L90.9705 77.6601ZM73.3195 77.6601H71.2577L68.1902 72.5635V77.6096H66.6313V70.4946H68.7433L71.7606 75.4398V70.4946H73.3195V77.6601ZM60.7476 73.169C60.647 72.8663 60.4961 72.6644 60.295 72.4626C60.0938 72.2607 59.8927 72.1093 59.591 72.0084C59.3395 71.9075 59.0378 71.857 58.6858 71.857C58.3338 71.857 58.032 71.9075 57.7806 72.0084C57.5292 72.1093 57.2777 72.2607 57.0766 72.4626C56.8754 72.6644 56.7246 72.9167 56.624 73.169C56.5234 73.4718 56.4731 73.7746 56.4731 74.0773C56.4731 74.4306 56.5234 74.7333 56.624 74.9856C56.7246 75.2884 56.8754 75.4903 57.0766 75.6921C57.2777 75.894 57.4789 76.0453 57.7806 76.1463C58.032 76.2472 58.3338 76.2977 58.6858 76.2977C59.0378 76.2977 59.3395 76.2472 59.591 76.1463C59.8424 76.0453 60.0938 75.894 60.295 75.6921C60.4961 75.4903 60.647 75.238 60.7476 74.9856C60.8482 74.6829 60.8984 74.3801 60.8984 74.0773C60.9487 73.7241 60.8482 73.4213 60.7476 73.169ZM62.2562 75.5912C62.0551 76.0453 61.8036 76.449 61.4516 76.7518C61.0996 77.0546 60.6973 77.3069 60.2447 77.5087C59.7921 77.6601 59.2892 77.761 58.7361 77.761C58.1829 77.761 57.68 77.6601 57.2274 77.5087C56.7748 77.3573 56.3725 77.105 56.0205 76.7518C55.6685 76.449 55.4171 76.0453 55.2159 75.5912C55.0148 75.137 54.9142 74.6324 54.9142 74.0269C54.9142 73.4718 55.0148 72.9167 55.2159 72.4626C55.4171 72.0084 55.6685 71.6047 56.0205 71.302C56.3725 70.9992 56.7748 70.7469 57.2274 70.545C57.68 70.3936 58.1829 70.2927 58.7361 70.2927C59.2892 70.2927 59.7921 70.3936 60.2447 70.545C60.6973 70.6964 61.0996 70.9487 61.4516 71.302C61.8036 71.6047 62.0551 72.0084 62.2562 72.4626C62.4574 72.9167 62.5579 73.4213 62.5579 74.0269C62.5579 74.6324 62.4574 75.137 62.2562 75.5912ZM50.8409 77.6096H49.282V70.4946H50.8409V77.6096ZM43.3983 73.0681C43.2474 72.8158 43.0966 72.614 42.8954 72.4121C42.6943 72.2607 42.3925 72.1093 42.1411 72.0589C41.8394 71.958 41.5376 71.9075 41.1856 71.9075H40.2805V76.1463H41.0851C41.4371 76.1463 41.7891 76.0958 42.0908 76.0453C42.3925 75.9949 42.6943 75.8435 42.8954 75.6921C43.1469 75.5407 43.2977 75.2884 43.4486 75.0361C43.5994 74.7333 43.6497 74.4306 43.6497 74.0269C43.5994 73.6232 43.5492 73.3204 43.3983 73.0681ZM44.9069 75.5912C44.7058 76.0453 44.4041 76.3986 44.052 76.7013C43.7 77.0041 43.2474 77.206 42.7948 77.3573C42.292 77.5087 41.7891 77.6096 41.2862 77.6096H38.7215V70.4946H41.0851C41.6382 70.4946 42.1914 70.545 42.6943 70.6964C43.1971 70.8478 43.6497 71.0496 44.052 71.302C44.4543 71.6047 44.7561 71.958 44.9572 72.4121C45.1584 72.8663 45.3092 73.4213 45.3092 74.0773C45.2589 74.6324 45.1081 75.137 44.9069 75.5912ZM31.1784 72.513L30.3235 74.7333H32.0333L31.1784 72.513ZM33.1899 77.5592L32.5864 76.0453H29.8206L29.2171 77.5592H27.5074L30.5749 70.4441H31.8824L34.9499 77.5592H33.1899ZM25.3953 71.857H23.3838V77.6096H21.8248V71.857H19.8133V70.4441H25.4456L25.3953 71.857ZM14.684 71.8066C14.4828 71.7056 14.2817 71.7056 14.0805 71.7056C13.9799 71.7056 13.8291 71.7057 13.7285 71.7561C13.6279 71.8066 13.4771 71.8066 13.3765 71.857C13.2759 71.9075 13.1753 72.0084 13.1251 72.0589C13.0748 72.1598 13.0245 72.2607 13.0245 72.4121C13.0245 72.614 13.1251 72.8158 13.2759 72.9167C13.4268 73.0177 13.6279 73.1186 13.8794 73.2195C14.1308 73.3204 14.3822 73.3709 14.684 73.4718C14.9857 73.5727 15.2371 73.6736 15.4886 73.825C15.74 73.9764 15.9412 74.1783 16.092 74.4306C16.2429 74.6829 16.3435 75.0361 16.3435 75.4398C16.3435 75.8435 16.2932 76.1967 16.1423 76.4995C15.9915 76.8023 15.7903 77.0546 15.5389 77.2564C15.2874 77.4583 14.9857 77.6097 14.684 77.7106C14.332 77.8115 13.9799 77.862 13.6279 77.862C13.1753 77.862 12.7228 77.8115 12.3707 77.6601C11.9684 77.5087 11.6164 77.3069 11.2644 76.9537L12.3707 75.7426C12.5216 75.9444 12.7227 76.1463 12.9742 76.2472C13.2256 76.3481 13.4771 76.3986 13.7285 76.449C13.8794 76.449 13.9799 76.449 14.1308 76.3986C14.2817 76.3481 14.3822 76.3481 14.4828 76.2472C14.5834 76.1967 14.684 76.0958 14.7343 75.9949C14.7845 75.894 14.8348 75.793 14.8348 75.6416C14.8348 75.4398 14.7343 75.238 14.5834 75.137C14.4325 75.0361 14.2314 74.8847 13.9799 74.8343C13.7285 74.7333 13.4771 74.6829 13.1753 74.582C12.8736 74.481 12.6222 74.3801 12.3707 74.2287C12.1193 74.0773 11.9181 73.8755 11.7673 73.6232C11.6164 73.3709 11.5158 73.0681 11.5158 72.6644C11.5158 72.2607 11.6164 71.958 11.7673 71.6552C11.9181 71.3524 12.1193 71.1506 12.3707 70.9487C12.6222 70.7469 12.9239 70.5955 13.2256 70.4946C13.5776 70.3937 13.8794 70.3432 14.2314 70.3432C14.6337 70.3432 15.036 70.3937 15.388 70.4946C15.74 70.5955 16.092 70.7973 16.3938 71.0496L15.3377 72.2103C15.036 72.0084 14.8851 71.9075 14.684 71.8066Z" fill="#84BD00"/>
<path d="M156.596 18.5192C120.037 28.6115 42.7446 36.0798 7.29176 23.2121C6.73859 23.0103 2.01154 26.8958 2.5647 27.7537C76.2363 48.5943 193.155 8.47737 156.596 18.5192ZM3.97276 33.1531C3.97276 33.1531 4.02305 34.5155 4.07334 34.566C4.27449 35.1211 5.28024 40.3186 27.2057 43.3968C50.4387 46.6263 117.523 42.1857 163.134 26.9463C164.24 26.5931 71.1572 49.8054 3.97276 33.1531ZM13.1251 47.3832C11.0131 46.6768 15.9413 42.6398 16.8967 42.5894C17.5002 42.5389 17.8522 42.9426 18.5562 43.1949C49.9358 53.8423 118.176 49.0989 158.557 37.9974C165.497 36.0798 164.693 36.534 158.759 38.4515C139.398 44.8601 63.6141 63.6823 13.1251 47.3832ZM58.1327 17.8632C57.127 18.2164 45.6613 15.6429 52.7016 10.6977C60.2448 5.39922 114.757 2.9266 122.602 9.28475C128.586 14.1795 114.706 16.5008 115.109 16.1475C90.518 12.5648 66.4805 14.8355 58.1327 17.8632Z" fill="#84BD00"/>
</svg>
