<svg width="168" height="57" viewBox="0 0 168 57" fill="none" xmlns="http://www.w3.org/2000/svg">
<g clip-path="url(#clip0)">
<path d="M25.0525 25.7604H14.7367V28.7063H25.0525V40.4973H8.842L2.94727 34.6025V3.65369H14.7367V13.9695H25.0525V25.7604Z" fill="white"/>
<path d="M69.2632 40.4973H33.8947L28 34.6025V13.9695H39.7895V28.7063H42.7368V13.9695H54.5263V28.7063H57.4737V13.9695H69.2632V40.4973Z" fill="white"/>
<path d="M83.9999 13.9695H72.2104V40.4958H83.9999V13.9695Z" fill="white"/>
<path d="M83.9999 3.65369H72.2104V11.0221H83.9999V3.65369Z" fill="white"/>
<path d="M109.052 25.7604H98.7367V28.7063H109.052V40.4973H92.842L86.9473 34.6025V3.65369H98.7367V13.9695H109.052V25.7604Z" fill="white"/>
<path d="M135.579 25.7604H123.789V28.7063H135.579V40.4973H117.895L112 34.6025V19.8657L117.895 13.9695H135.579V25.7604Z" fill="white"/>
<path d="M165.053 40.4973H153.263V25.7604H150.316V40.4973H138.526V3.65369H150.316V13.9695H159.158L165.053 19.8657V40.4973Z" fill="white"/>
<path d="M160.632 11.0221H153.263V0.706299H137.084L129.643 11.0221H116.421L112 15.4431V11.0221H101.684V0.706299H69.2632V11.0221H23.6526L16.2105 0.706299H0V36.0747L20.6316 56.7063H41.2632V50.8116L47.1579 56.7063H86.9474V50.8116L92.8421 56.7063H112V50.8116L117.895 56.7063H154.737L168 43.4431V18.3905L160.632 11.0221ZM25.0526 25.7589H14.7368V28.7063H25.0526V40.4958H8.8421L2.94737 34.601V3.65367H14.7368V13.9695H25.0526V25.7589ZM69.2632 40.4958H33.8947L28 34.601V13.9695H39.7895V28.7063H42.7368V13.9695H54.5263V28.7063H57.4737V13.9695H69.2632V40.4958ZM84 40.4958H72.2105V13.9695H84V40.4958ZM84 11.0221H72.2105V3.65367H84V11.0221ZM109.053 25.7589H98.7368V28.7063H109.053V40.4958H92.8421L86.9474 34.601V3.65367H98.7368V13.9695H109.053V25.7589ZM135.579 25.7589H123.789V28.7063H135.579V40.4958H117.895L112 34.601V19.8642L117.895 13.9695H135.579V25.7589ZM165.053 40.4958H153.263V25.7589H150.316V40.4958H138.526V3.65367H150.316V13.9695H159.158L165.053 19.8642V40.4958Z" fill="#9146FF"/>
</g>
<defs>
<clipPath id="clip0">
<rect width="168" height="56" fill="white" transform="translate(0 0.706299)"/>
</clipPath>
</defs>
</svg>
