<svg width="249" height="56" viewBox="0 0 249 56" fill="none" xmlns="http://www.w3.org/2000/svg">
<g clip-path="url(#clip0)">
<path fill-rule="evenodd" clip-rule="evenodd" d="M34.7 43.1199V15.6199C34.7 12.8099 37.08 10.0799 39.81 9.13989L65.95 0.139893V10.2899L44.97 17.4899V23.2499L63.97 16.7699V26.9199L44.97 33.4799V39.2399L65.97 31.9599C65.97 36.6399 63.88 43.2699 59.06 45.2799L28.53 55.7999C31.12 54.5699 34.72 50.3999 34.72 43.1199H34.7Z" fill="#F9B000"/>
<path fill-rule="evenodd" clip-rule="evenodd" d="M-0.0300293 33.04V0.0400391L10.12 3.56003V36.32C10.05 43.24 21.28 48.49 21.28 39.92L21.35 7.38004L26.46 9.18002C29.2 10.12 31.46 12.85 31.46 15.66V43.16C31.53 67.24 -0.0300293 52.48 -0.0300293 33.04Z" fill="#C10B25"/>
<path fill-rule="evenodd" clip-rule="evenodd" d="M90.8499 17.8C90.8577 18.3607 90.7698 18.9188 90.5899 19.45C90.424 19.9097 90.1575 20.3265 89.8099 20.67C89.469 21.0113 89.0554 21.2711 88.5999 21.43C88.0769 21.6182 87.5257 21.7163 86.9699 21.72C86.4524 21.7273 85.9378 21.6427 85.4499 21.47C85.0106 21.3198 84.6084 21.0777 84.2699 20.76C83.9322 20.4298 83.6755 20.0259 83.5199 19.58C83.3315 19.0541 83.24 18.4985 83.2499 17.94V11.66C83.2396 11.624 83.2396 11.5859 83.2499 11.55C83.279 11.5165 83.3172 11.4922 83.3599 11.48C83.4274 11.454 83.498 11.4372 83.5699 11.43H83.8999H84.2199C84.2888 11.4357 84.3564 11.4526 84.4199 11.48C84.4625 11.4922 84.5008 11.5165 84.5299 11.55C84.5402 11.5859 84.5402 11.624 84.5299 11.66V17.72C84.5232 18.133 84.5806 18.5445 84.6999 18.94C84.8032 19.265 84.9736 19.5648 85.1999 19.82C85.415 20.0527 85.6824 20.2309 85.9799 20.34C86.2997 20.4586 86.6389 20.5163 86.9799 20.51C87.3208 20.5147 87.6597 20.457 87.9799 20.34C88.2741 20.2348 88.5383 20.0598 88.7499 19.83C88.9676 19.5833 89.1312 19.2938 89.2299 18.98C89.348 18.5946 89.4054 18.1931 89.3999 17.79V11.61C89.3896 11.574 89.3896 11.5359 89.3999 11.5C89.429 11.4665 89.4672 11.4422 89.5099 11.43C89.5777 11.4052 89.6482 11.3884 89.7199 11.38H90.0499H90.3699L90.5699 11.43C90.6126 11.4422 90.6508 11.4665 90.6799 11.5C90.6902 11.5359 90.6902 11.574 90.6799 11.61V17.78L90.8499 17.8ZM99.4199 21.35C99.4313 21.3823 99.4313 21.4176 99.4199 21.45C99.3957 21.4864 99.3608 21.5144 99.3199 21.53H99.1199C99.0169 21.5417 98.9129 21.5417 98.8099 21.53C98.7035 21.5416 98.5963 21.5416 98.4899 21.53H98.2899C98.2491 21.5144 98.2141 21.4864 98.1899 21.45C98.1785 21.4176 98.1785 21.3823 98.1899 21.35V17.23C98.2 16.8942 98.1698 16.5585 98.0999 16.23C98.0411 16.0063 97.9465 15.7935 97.8199 15.6C97.7075 15.4233 97.5483 15.2814 97.3599 15.19C97.1563 15.0956 96.9343 15.0477 96.7099 15.05C96.3482 15.0499 95.9966 15.1695 95.7099 15.39C95.3359 15.68 94.9999 16.0159 94.7099 16.39V21.31C94.7213 21.3423 94.7213 21.3776 94.7099 21.41C94.6857 21.4464 94.6507 21.4744 94.6099 21.49H94.4099C94.3036 21.5016 94.1962 21.5016 94.0899 21.49C93.9869 21.5017 93.8829 21.5017 93.7799 21.49H93.5799C93.5363 21.4745 93.4981 21.4467 93.4699 21.41C93.4632 21.377 93.4632 21.343 93.4699 21.31V14.31C93.4643 14.2769 93.4643 14.2431 93.4699 14.21C93.4926 14.1761 93.5236 14.1486 93.5599 14.13C93.6207 14.1049 93.6846 14.0881 93.7499 14.08H94.3199C94.3823 14.0864 94.4431 14.1033 94.4999 14.13C94.5362 14.1486 94.5672 14.1761 94.5899 14.21C94.5999 14.2425 94.5999 14.2774 94.5899 14.31V15.24C94.9157 14.8343 95.3163 14.4948 95.7699 14.24C96.1344 14.0388 96.5436 13.9322 96.9599 13.93C97.3665 13.918 97.7703 14.0001 98.1399 14.17C98.4435 14.3149 98.7077 14.531 98.9099 14.8C99.1145 15.0815 99.2607 15.4011 99.3399 15.74C99.4256 16.1611 99.4659 16.5902 99.4599 17.02V21.32L99.4199 21.35ZM103.08 21.35C103.091 21.3823 103.091 21.4176 103.08 21.45C103.051 21.482 103.017 21.509 102.98 21.53H102.78C102.567 21.5566 102.352 21.5566 102.14 21.53H101.94C101.899 21.5144 101.864 21.4864 101.84 21.45C101.828 21.4176 101.828 21.3823 101.84 21.35V14.35C101.831 14.3172 101.831 14.2827 101.84 14.25C101.864 14.2135 101.899 14.1856 101.94 14.17C102.006 14.1624 102.073 14.1624 102.14 14.17H102.46H102.78C102.846 14.1624 102.913 14.1624 102.98 14.17C103.017 14.191 103.051 14.218 103.08 14.25C103.089 14.2827 103.089 14.3172 103.08 14.35V21.35ZM103.22 11.94C103.244 12.1608 103.184 12.3826 103.05 12.56C102.857 12.6677 102.64 12.7243 102.42 12.7243C102.199 12.7243 101.982 12.6677 101.79 12.56C101.657 12.3861 101.596 12.1676 101.62 11.95C101.607 11.8399 101.616 11.7283 101.647 11.6218C101.678 11.5153 101.73 11.416 101.8 11.33C101.981 11.1965 102.206 11.1358 102.43 11.16C102.649 11.1391 102.868 11.1957 103.05 11.32C103.118 11.405 103.168 11.5029 103.197 11.6077C103.226 11.7125 103.234 11.8221 103.22 11.93V11.94ZM115.29 14.3C115.293 14.3432 115.293 14.3867 115.29 14.43C115.275 14.4981 115.255 14.5649 115.23 14.63L113.16 21.31C113.149 21.3619 113.125 21.4101 113.09 21.45C113.055 21.4934 113.005 21.522 112.95 21.53C112.87 21.5612 112.786 21.5781 112.7 21.58H112.31C112.177 21.5913 112.043 21.5913 111.91 21.58H111.64C111.585 21.5648 111.536 21.5335 111.5 21.49C111.469 21.4513 111.445 21.4073 111.43 21.36L109.97 16.2V16.13V16.2L108.6 21.31C108.589 21.3619 108.565 21.4101 108.53 21.45C108.511 21.4726 108.489 21.4913 108.463 21.505C108.437 21.5188 108.409 21.5273 108.38 21.53C108.296 21.5591 108.209 21.5759 108.12 21.58H107.72C107.59 21.5916 107.46 21.5916 107.33 21.58C107.247 21.5879 107.163 21.5879 107.08 21.58C107.052 21.5753 107.025 21.5649 107.001 21.5494C106.977 21.534 106.956 21.5137 106.94 21.49C106.902 21.4545 106.874 21.4097 106.86 21.36L104.86 14.68C104.835 14.6149 104.815 14.5481 104.8 14.48C104.796 14.4368 104.796 14.3932 104.8 14.35C104.788 14.3108 104.788 14.2691 104.8 14.23C104.832 14.2 104.869 14.1762 104.91 14.16C104.973 14.147 105.037 14.147 105.1 14.16H105.76C105.826 14.1503 105.894 14.1503 105.96 14.16C106.002 14.1782 106.04 14.2055 106.07 14.24L106.12 14.36L107.82 20.17V20.24V20.17L109.37 14.36C109.363 14.3203 109.363 14.2796 109.37 14.24C109.398 14.2032 109.436 14.1755 109.48 14.16C109.543 14.1512 109.607 14.1512 109.67 14.16H110.29H110.49C110.53 14.1775 110.564 14.2051 110.59 14.24C110.597 14.2763 110.597 14.3137 110.59 14.35L112.27 20.17V20.24V20.17L113.97 14.32C113.963 14.2803 113.963 14.2396 113.97 14.2C113.998 14.1633 114.036 14.1355 114.08 14.12H114.28H114.97C115.029 14.1063 115.091 14.1063 115.15 14.12C115.19 14.1323 115.225 14.1568 115.25 14.19C115.263 14.2255 115.263 14.2644 115.25 14.3H115.29ZM122.73 17.52C122.742 17.5915 122.738 17.6649 122.718 17.7346C122.698 17.8044 122.663 17.8688 122.615 17.9234C122.567 17.9779 122.508 18.0211 122.441 18.05C122.375 18.0788 122.302 18.0924 122.23 18.09H117.61C117.606 18.4436 117.646 18.7964 117.73 19.14C117.797 19.4361 117.93 19.7131 118.12 19.95C118.31 20.1794 118.554 20.3581 118.83 20.47C119.172 20.5979 119.535 20.659 119.9 20.65C120.202 20.6541 120.504 20.6239 120.8 20.56C121.028 20.5182 121.252 20.458 121.47 20.38C121.66 20.32 121.82 20.25 121.94 20.2C122.028 20.1578 122.123 20.1307 122.22 20.12C122.252 20.1099 122.287 20.1099 122.32 20.12C122.335 20.1287 122.348 20.1402 122.358 20.154C122.368 20.1677 122.376 20.1833 122.38 20.2C122.39 20.2495 122.39 20.3004 122.38 20.35C122.386 20.4265 122.386 20.5034 122.38 20.58C122.385 20.6398 122.385 20.7001 122.38 20.76C122.385 20.8031 122.385 20.8468 122.38 20.89C122.39 20.926 122.39 20.964 122.38 21L122.31 21.09C122.233 21.1449 122.149 21.1887 122.06 21.22C121.882 21.3012 121.698 21.3681 121.51 21.42C121.29 21.48 121.03 21.53 120.74 21.58C120.429 21.6327 120.115 21.6595 119.8 21.66C119.282 21.6715 118.767 21.5868 118.28 21.41C117.866 21.2612 117.493 21.0181 117.19 20.7C116.877 20.3572 116.647 19.9464 116.52 19.5C116.355 18.9591 116.277 18.3953 116.29 17.83C116.283 17.2781 116.361 16.7285 116.52 16.2C116.665 15.7499 116.896 15.3322 117.2 14.97C117.495 14.6371 117.861 14.3741 118.27 14.2C118.71 14.0148 119.183 13.9229 119.66 13.93C120.144 13.9157 120.625 14.0079 121.07 14.2C121.456 14.3521 121.799 14.5958 122.07 14.91C122.325 15.2212 122.512 15.5822 122.62 15.97C122.739 16.3894 122.796 16.824 122.79 17.26V17.49L122.73 17.52ZM121.44 17.14C121.482 16.5735 121.323 16.0104 120.99 15.55C120.815 15.3514 120.597 15.1958 120.353 15.0952C120.108 14.9946 119.844 14.9518 119.58 14.97C119.29 14.9636 119.002 15.0252 118.74 15.15C118.507 15.2641 118.302 15.428 118.14 15.63C117.971 15.8338 117.842 16.068 117.76 16.32C117.674 16.5854 117.623 16.8612 117.61 17.14H121.44ZM128.82 14.77C128.825 14.8665 128.825 14.9634 128.82 15.06C128.832 15.1194 128.832 15.1806 128.82 15.24C128.818 15.26 128.811 15.2793 128.801 15.2965C128.79 15.3138 128.777 15.3286 128.76 15.34C128.746 15.347 128.731 15.3507 128.715 15.3507C128.699 15.3507 128.684 15.347 128.67 15.34C128.621 15.3536 128.569 15.3536 128.52 15.34L128.31 15.27L128.06 15.21C127.96 15.1996 127.86 15.1996 127.76 15.21C127.626 15.2102 127.493 15.2374 127.37 15.29C127.23 15.36 127.099 15.4474 126.98 15.55C126.819 15.6963 126.672 15.8569 126.54 16.03C126.4 16.23 126.23 16.47 126.05 16.76V21.39C126.057 21.4057 126.061 21.4227 126.061 21.44C126.061 21.4572 126.057 21.4743 126.05 21.49C126.026 21.5264 125.991 21.5544 125.95 21.57H125.76C125.654 21.5812 125.546 21.5812 125.44 21.57C125.334 21.5816 125.226 21.5816 125.12 21.57H124.92C124.879 21.5544 124.844 21.5264 124.82 21.49C124.808 21.4576 124.808 21.4223 124.82 21.39V14.39C124.814 14.3569 124.814 14.3231 124.82 14.29C124.844 14.2536 124.879 14.2256 124.92 14.21C124.977 14.1847 125.038 14.1679 125.1 14.16H125.67C125.732 14.1664 125.793 14.1833 125.85 14.21C125.888 14.2255 125.92 14.2538 125.94 14.29C125.95 14.3226 125.95 14.3574 125.94 14.39V15.39C126.099 15.1443 126.28 14.9134 126.48 14.7C126.624 14.5426 126.785 14.4017 126.96 14.28C127.097 14.1858 127.249 14.1148 127.41 14.07C127.557 14.0304 127.708 14.0102 127.86 14.01H128.09H128.36L128.61 14.08C128.668 14.0959 128.722 14.1231 128.77 14.16C128.77 14.16 128.83 14.21 128.83 14.24C128.836 14.2663 128.836 14.2936 128.83 14.32C128.837 14.3731 128.837 14.4269 128.83 14.48V14.77H128.82ZM134.43 19.43C134.44 19.7742 134.372 20.1162 134.23 20.43C134.101 20.71 133.905 20.9539 133.66 21.14C133.401 21.3412 133.106 21.4906 132.79 21.58C132.426 21.6835 132.049 21.7341 131.67 21.73C131.432 21.7311 131.194 21.7111 130.96 21.67C130.753 21.6353 130.549 21.5852 130.35 21.52C130.193 21.4685 130.04 21.4084 129.89 21.34L129.62 21.16C129.557 21.1038 129.512 21.031 129.49 20.95C129.477 20.8203 129.477 20.6897 129.49 20.56C129.484 20.4767 129.484 20.3932 129.49 20.31C129.482 20.2569 129.482 20.203 129.49 20.15C129.501 20.115 129.522 20.0839 129.55 20.06C129.583 20.051 129.617 20.051 129.65 20.06C129.744 20.0762 129.833 20.1138 129.91 20.17L130.32 20.4C130.507 20.4912 130.701 20.5681 130.9 20.63C131.15 20.7021 131.41 20.7358 131.67 20.73C131.869 20.7345 132.068 20.7109 132.26 20.66C132.427 20.6253 132.584 20.5535 132.72 20.45C132.849 20.3595 132.956 20.2395 133.03 20.1C133.101 19.9432 133.135 19.7721 133.13 19.6C133.137 19.4212 133.084 19.2452 132.98 19.1C132.868 18.9577 132.733 18.8359 132.58 18.74C132.4 18.6328 132.213 18.5392 132.02 18.46L131.37 18.21C131.15 18.12 130.94 18.02 130.73 17.91C130.522 17.7999 130.33 17.662 130.16 17.5C129.993 17.3318 129.858 17.1355 129.76 16.92C129.654 16.6633 129.603 16.3875 129.61 16.11C129.609 15.8385 129.663 15.5697 129.77 15.32C129.881 15.0683 130.045 14.8432 130.25 14.66C130.484 14.4563 130.756 14.3001 131.05 14.2C131.414 14.0768 131.796 14.0192 132.18 14.03C132.368 14.0272 132.555 14.0439 132.74 14.08C132.909 14.107 133.077 14.1472 133.24 14.2C133.375 14.24 133.506 14.2936 133.63 14.36C133.716 14.3996 133.797 14.45 133.87 14.51C133.914 14.5384 133.951 14.5759 133.98 14.62C133.989 14.6526 133.989 14.6873 133.98 14.72V14.87C133.986 14.9398 133.986 15.0101 133.98 15.08C133.985 15.1565 133.985 15.2334 133.98 15.31C133.987 15.3597 133.987 15.4102 133.98 15.46C133.98 15.51 133.98 15.54 133.91 15.55H133.83C133.753 15.5394 133.68 15.5083 133.62 15.46L133.28 15.28C133.118 15.2056 132.951 15.1421 132.78 15.09C132.568 15.0357 132.349 15.0088 132.13 15.01C131.934 15.0048 131.739 15.0284 131.55 15.08C131.399 15.1191 131.26 15.1908 131.14 15.29C131.036 15.3784 130.95 15.4873 130.89 15.61C130.838 15.7369 130.81 15.8727 130.81 16.01C130.806 16.196 130.862 16.3782 130.97 16.53C131.079 16.6749 131.214 16.7972 131.37 16.89C131.554 17.001 131.748 17.0948 131.95 17.17L132.6 17.43C132.82 17.52 133.04 17.62 133.25 17.73C133.459 17.8341 133.654 17.9652 133.83 18.12C133.996 18.2851 134.131 18.478 134.23 18.69C134.335 18.9362 134.386 19.2022 134.38 19.47L134.43 19.43ZM139.18 21.54L138.24 24.13C138.217 24.1778 138.183 24.2197 138.142 24.2526C138.1 24.2855 138.052 24.3086 138 24.32C137.812 24.377 137.616 24.4007 137.42 24.39C137.31 24.4012 137.2 24.4012 137.09 24.39C137.024 24.379 136.96 24.3588 136.9 24.33C136.863 24.2951 136.839 24.2496 136.83 24.2C136.814 24.1377 136.814 24.0723 136.83 24.01L137.83 21.56C137.775 21.5396 137.727 21.5051 137.69 21.46C137.65 21.4184 137.622 21.3664 137.61 21.31L135.1 14.59C135.066 14.507 135.046 14.4193 135.04 14.33C135.039 14.3022 135.044 14.2745 135.054 14.2487C135.064 14.2228 135.08 14.1994 135.1 14.18C135.159 14.1399 135.228 14.1158 135.3 14.11H135.68H136.05L136.26 14.16C136.304 14.1755 136.342 14.2032 136.37 14.24C136.397 14.2916 136.42 14.3451 136.44 14.4L138.44 20.05L140.37 14.38C140.382 14.3002 140.425 14.2285 140.49 14.18C140.548 14.1454 140.613 14.1248 140.68 14.12H141.07H141.43C141.501 14.1258 141.57 14.1499 141.63 14.19C141.653 14.2075 141.671 14.2303 141.683 14.2564C141.695 14.2825 141.701 14.3112 141.7 14.34C141.71 14.4196 141.71 14.5003 141.7 14.58L139.18 21.58V21.54ZM146.95 20.83C146.962 20.9496 146.962 21.0703 146.95 21.19C146.937 21.2622 146.902 21.3287 146.85 21.38C146.796 21.4291 146.736 21.4695 146.67 21.5L146.38 21.59L146.04 21.65H145.69C145.371 21.656 145.053 21.6087 144.75 21.51C144.504 21.417 144.285 21.2661 144.11 21.07C143.94 20.8509 143.817 20.5989 143.75 20.33C143.668 19.9828 143.631 19.6265 143.64 19.27V15.17H142.64C142.6 15.1689 142.562 15.1572 142.528 15.136C142.495 15.1149 142.468 15.0852 142.45 15.05C142.393 14.9211 142.369 14.7803 142.38 14.64C142.369 14.557 142.369 14.4729 142.38 14.39C142.372 14.3336 142.372 14.2763 142.38 14.22C142.395 14.1817 142.424 14.1499 142.46 14.13C142.496 14.1197 142.534 14.1197 142.57 14.13H143.57V12.46C143.559 12.4275 143.559 12.3925 143.57 12.36C143.598 12.3233 143.636 12.2955 143.68 12.28C143.743 12.2484 143.81 12.2281 143.88 12.22H144.51C144.579 12.2296 144.647 12.2498 144.71 12.28C144.751 12.2956 144.786 12.3236 144.81 12.36C144.82 12.3926 144.82 12.4274 144.81 12.46V14.13H146.6C146.64 14.1299 146.679 14.1412 146.712 14.1624C146.746 14.1837 146.773 14.214 146.79 14.25C146.803 14.3059 146.803 14.364 146.79 14.42C146.796 14.5032 146.796 14.5868 146.79 14.67C146.8 14.8103 146.776 14.9511 146.72 15.08C146.702 15.1152 146.675 15.1449 146.641 15.166C146.608 15.1872 146.569 15.1989 146.53 15.2H144.74V19.11C144.715 19.4896 144.791 19.8691 144.96 20.21C145.04 20.3356 145.154 20.4367 145.288 20.502C145.422 20.5673 145.571 20.5942 145.72 20.58C145.826 20.5958 145.934 20.5958 146.04 20.58L146.29 20.51L146.47 20.43H146.61C146.636 20.4208 146.664 20.4208 146.69 20.43C146.703 20.4372 146.714 20.4472 146.723 20.4593C146.731 20.4714 146.737 20.4853 146.74 20.5C146.74 20.5 146.74 20.59 146.74 20.65C146.747 20.7298 146.747 20.8101 146.74 20.89L146.95 20.83ZM154.47 17.52C154.482 17.5915 154.478 17.6649 154.458 17.7346C154.438 17.8044 154.403 17.8688 154.355 17.9234C154.307 17.9779 154.248 18.0211 154.181 18.05C154.115 18.0788 154.042 18.0924 153.97 18.09H149.35C149.346 18.4436 149.386 18.7964 149.47 19.14C149.537 19.4361 149.67 19.7131 149.86 19.95C150.05 20.1794 150.294 20.3581 150.57 20.47C150.912 20.5987 151.275 20.6598 151.64 20.65C151.939 20.6545 152.238 20.6243 152.53 20.56C152.761 20.5194 152.989 20.4592 153.21 20.38C153.4 20.32 153.56 20.25 153.68 20.2C153.768 20.1566 153.862 20.1295 153.96 20.12C153.993 20.111 154.027 20.111 154.06 20.12C154.075 20.1287 154.088 20.1402 154.098 20.154C154.108 20.1677 154.116 20.1833 154.12 20.2C154.13 20.2495 154.13 20.3004 154.12 20.35C154.126 20.4265 154.126 20.5034 154.12 20.58C154.125 20.6398 154.125 20.7001 154.12 20.76C154.125 20.8031 154.125 20.8468 154.12 20.89C154.126 20.9264 154.126 20.9635 154.12 21L154.05 21.09C153.973 21.1449 153.889 21.1887 153.8 21.22C153.622 21.3012 153.438 21.3681 153.25 21.42C153.03 21.48 152.77 21.53 152.48 21.58C152.169 21.6327 151.855 21.6595 151.54 21.66C151.022 21.6715 150.507 21.5868 150.02 21.41C149.605 21.259 149.229 21.0163 148.92 20.7C148.61 20.3562 148.384 19.9455 148.26 19.5C148.095 18.9591 148.017 18.3953 148.03 17.83C148.023 17.2781 148.101 16.7285 148.26 16.2C148.401 15.7481 148.632 15.3296 148.94 14.97C149.232 14.6383 149.594 14.3754 150 14.2C150.443 14.0157 150.92 13.9238 151.4 13.93C151.884 13.917 152.365 14.0091 152.81 14.2C153.196 14.3521 153.539 14.5958 153.81 14.91C154.061 15.2236 154.248 15.5838 154.36 15.97C154.474 16.3904 154.531 16.8243 154.53 17.26V17.49L154.47 17.52ZM153.18 17.14C153.222 16.5735 153.063 16.0104 152.73 15.55C152.555 15.3514 152.337 15.1958 152.093 15.0952C151.848 14.9946 151.584 14.9518 151.32 14.97C151.03 14.9636 150.742 15.0252 150.48 15.15C150.247 15.2641 150.042 15.428 149.88 15.63C149.711 15.8338 149.582 16.068 149.5 16.32C149.409 16.5842 149.358 16.8606 149.35 17.14H153.18ZM160.01 20.83C160.022 20.9496 160.022 21.0703 160.01 21.19C159.997 21.2599 159.966 21.3253 159.92 21.38C159.863 21.4289 159.799 21.4693 159.73 21.5L159.44 21.59L159.11 21.65H158.75C158.431 21.656 158.113 21.6087 157.81 21.51C157.564 21.417 157.345 21.2661 157.17 21.07C157 20.8509 156.877 20.5989 156.81 20.33C156.728 19.9828 156.691 19.6265 156.7 19.27V15.17H155.7C155.66 15.1689 155.622 15.1572 155.588 15.136C155.555 15.1149 155.528 15.0852 155.51 15.05C155.453 14.9211 155.429 14.7803 155.44 14.64C155.429 14.557 155.429 14.4729 155.44 14.39C155.432 14.3336 155.432 14.2763 155.44 14.22C155.455 14.1817 155.484 14.1499 155.52 14.13C155.559 14.1198 155.601 14.1198 155.64 14.13H156.64V12.46C156.634 12.4269 156.634 12.3931 156.64 12.36C156.668 12.3233 156.706 12.2955 156.75 12.28C156.813 12.2498 156.881 12.2296 156.95 12.22H157.58C157.649 12.2296 157.717 12.2498 157.78 12.28C157.821 12.2956 157.856 12.3236 157.88 12.36C157.89 12.3926 157.89 12.4274 157.88 12.46V14.13H159.67C159.71 14.1299 159.749 14.1412 159.782 14.1624C159.816 14.1837 159.843 14.214 159.86 14.25C159.889 14.303 159.909 14.3604 159.92 14.42C159.926 14.5032 159.926 14.5867 159.92 14.67C159.93 14.8103 159.906 14.9511 159.85 15.08C159.832 15.1152 159.805 15.1449 159.771 15.166C159.738 15.1872 159.699 15.1989 159.66 15.2H157.97V19.11C157.95 19.4893 158.026 19.8675 158.19 20.21C158.27 20.3356 158.384 20.4367 158.518 20.502C158.652 20.5673 158.801 20.5942 158.95 20.58C159.056 20.5971 159.164 20.5971 159.27 20.58L159.52 20.51L159.7 20.43H159.84C159.866 20.4208 159.894 20.4208 159.92 20.43C159.933 20.4372 159.944 20.4472 159.953 20.4593C159.961 20.4714 159.967 20.4853 159.97 20.5C159.97 20.5 159.97 20.59 159.97 20.65C159.976 20.7299 159.976 20.8101 159.97 20.89L160.01 20.83ZM171.12 20.99C171.126 21.0699 171.126 21.1501 171.12 21.23C171.111 21.2918 171.094 21.3522 171.07 21.41C171.047 21.4526 171.013 21.4874 170.97 21.51C170.934 21.5203 170.896 21.5203 170.86 21.51H165.97C165.846 21.5086 165.727 21.4664 165.63 21.39C165.573 21.3368 165.529 21.2714 165.501 21.1985C165.473 21.1257 165.463 21.0475 165.47 20.97V11.97C165.462 11.8908 165.472 11.8109 165.5 11.7364C165.528 11.6618 165.572 11.5946 165.63 11.54C165.727 11.4636 165.846 11.4214 165.97 11.42H170.77C170.809 11.4098 170.851 11.4098 170.89 11.42C170.924 11.4464 170.952 11.4807 170.97 11.52C170.994 11.5777 171.01 11.6382 171.02 11.7C171.031 11.7863 171.031 11.8737 171.02 11.96C171.031 12.0429 171.031 12.127 171.02 12.21C171.012 12.2689 170.995 12.3262 170.97 12.38C170.954 12.4208 170.926 12.4558 170.89 12.48C170.851 12.4901 170.809 12.4901 170.77 12.48H166.82V15.72H170.21C170.249 15.7098 170.291 15.7098 170.33 15.72C170.362 15.7487 170.389 15.7825 170.41 15.82C170.439 15.873 170.459 15.9304 170.47 15.99C170.475 16.0765 170.475 16.1634 170.47 16.25C170.476 16.3299 170.476 16.4101 170.47 16.49C170.459 16.5495 170.439 16.6069 170.41 16.66C170.392 16.6975 170.364 16.7289 170.328 16.7503C170.292 16.7716 170.251 16.782 170.21 16.78H166.82V20.39H170.82C170.856 20.3797 170.894 20.3797 170.93 20.39L171.03 20.49C171.054 20.5442 171.071 20.6014 171.08 20.66C171.086 20.7499 171.086 20.8401 171.08 20.93L171.12 20.99ZM178.93 21.34C178.94 21.3759 178.94 21.414 178.93 21.45C178.9 21.4845 178.862 21.5118 178.82 21.53C178.75 21.5384 178.68 21.5384 178.61 21.53C178.5 21.5416 178.39 21.5416 178.28 21.53H177.93H177.7C177.646 21.5115 177.595 21.4845 177.55 21.45C177.508 21.4147 177.471 21.3744 177.44 21.33L174.44 17.44V21.34C174.451 21.3723 174.451 21.4076 174.44 21.44C174.41 21.4745 174.372 21.5018 174.33 21.52C174.267 21.5287 174.203 21.5287 174.14 21.52C173.927 21.5466 173.712 21.5466 173.5 21.52H173.3C173.259 21.5044 173.224 21.4764 173.2 21.44C173.188 21.4076 173.188 21.3723 173.2 21.34V10.91C173.19 10.874 173.19 10.8359 173.2 10.8C173.227 10.7662 173.261 10.7389 173.3 10.72H173.5H173.82H174.14H174.33L174.44 10.8C174.45 10.8359 174.45 10.874 174.44 10.91V17.27L177.09 14.35C177.125 14.2964 177.169 14.2491 177.22 14.21C177.273 14.1754 177.33 14.1485 177.39 14.13L177.62 14.08H178.26H178.48C178.524 14.095 178.565 14.1188 178.6 14.15C178.612 14.1891 178.612 14.2308 178.6 14.27C178.597 14.333 178.58 14.3946 178.55 14.45C178.504 14.5309 178.447 14.6049 178.38 14.67L175.85 17.22L178.7 20.93C178.757 20.9985 178.807 21.0722 178.85 21.15C178.859 21.1996 178.859 21.2504 178.85 21.3L178.93 21.34ZM186.41 17.75C186.417 18.2847 186.343 18.8174 186.19 19.33C186.051 19.7886 185.819 20.2139 185.51 20.58C185.205 20.9335 184.821 21.2108 184.39 21.39C183.894 21.5996 183.359 21.7018 182.82 21.69C182.305 21.6985 181.793 21.6103 181.31 21.43C180.898 21.2703 180.531 21.0129 180.24 20.68C179.941 20.3315 179.723 19.9219 179.6 19.48C179.454 18.9629 179.383 18.4273 179.39 17.89C179.383 17.3552 179.457 16.8225 179.61 16.31C179.746 15.8519 179.974 15.4265 180.28 15.06C180.585 14.7065 180.969 14.4291 181.4 14.25C181.897 14.0441 182.432 13.9453 182.97 13.96C183.486 13.9454 183.999 14.0338 184.48 14.22C184.893 14.3771 185.261 14.6349 185.55 14.97C185.855 15.3118 186.077 15.7189 186.2 16.16C186.346 16.6771 186.417 17.2126 186.41 17.75ZM185.07 17.83C185.075 17.4575 185.042 17.0855 184.97 16.72C184.911 16.4036 184.793 16.1014 184.62 15.83C184.459 15.5708 184.231 15.36 183.96 15.22C183.644 15.0829 183.304 15.0122 182.96 15.0122C182.616 15.0122 182.275 15.0829 181.96 15.22C181.689 15.3538 181.455 15.5531 181.28 15.8C181.093 16.0661 180.958 16.3644 180.88 16.68C180.794 17.0437 180.75 17.4162 180.75 17.79C180.749 18.1561 180.786 18.5213 180.86 18.88C180.921 19.1924 181.04 19.4908 181.21 19.76C181.374 20.0142 181.601 20.2211 181.87 20.36C182.18 20.5148 182.523 20.5936 182.87 20.59C183.214 20.5997 183.556 20.5313 183.87 20.39C184.139 20.2566 184.372 20.0612 184.55 19.82C184.737 19.5554 184.87 19.2563 184.94 18.94C185.032 18.5738 185.075 18.1974 185.07 17.82V17.83ZM194.37 21.35C194.381 21.3823 194.381 21.4176 194.37 21.45C194.346 21.4864 194.311 21.5144 194.27 21.53H194.07C193.861 21.5566 193.649 21.5566 193.44 21.53H193.24C193.199 21.5144 193.164 21.4864 193.14 21.45C193.128 21.4176 193.128 21.3823 193.14 21.35V17.23C193.15 16.8942 193.12 16.5585 193.05 16.23C192.999 16.0053 192.907 15.7919 192.78 15.6C192.668 15.4233 192.508 15.2814 192.32 15.19C192.113 15.0948 191.888 15.0469 191.66 15.05C191.298 15.0492 190.946 15.1688 190.66 15.39C190.284 15.6773 189.947 16.0136 189.66 16.39V21.31C189.671 21.3423 189.671 21.3776 189.66 21.41C189.633 21.4443 189.599 21.4717 189.56 21.49H189.36C189.254 21.5016 189.146 21.5016 189.04 21.49C188.934 21.5012 188.826 21.5012 188.72 21.49H188.52C188.479 21.4744 188.444 21.4464 188.42 21.41C188.408 21.3776 188.408 21.3423 188.42 21.31V14.31C188.41 14.2774 188.41 14.2425 188.42 14.21C188.429 14.1911 188.441 14.1743 188.457 14.1606C188.472 14.1468 188.49 14.1364 188.51 14.13L188.69 14.08H189.27L189.45 14.13C189.486 14.1486 189.517 14.1761 189.54 14.21C189.546 14.2431 189.546 14.2769 189.54 14.31V15.24C189.872 14.8361 190.275 14.4971 190.73 14.24C191.091 14.0388 191.497 13.9321 191.91 13.93C192.317 13.9169 192.721 13.9991 193.09 14.17C193.395 14.3178 193.661 14.5332 193.87 14.8C194.075 15.0799 194.218 15.4003 194.29 15.74C194.384 16.1599 194.428 16.5896 194.42 17.02V21.32L194.37 21.35ZM203.26 17.75C203.264 18.2852 203.186 18.818 203.03 19.33C202.891 19.7886 202.659 20.2139 202.35 20.58C202.048 20.9366 201.663 21.2146 201.23 21.39C200.737 21.5985 200.205 21.7007 199.67 21.69C199.151 21.6995 198.636 21.6113 198.15 21.43C197.739 21.2675 197.373 21.0106 197.08 20.68C196.785 20.3289 196.567 19.9202 196.44 19.48C196.294 18.9629 196.223 18.4273 196.23 17.89C196.228 17.3556 196.302 16.8236 196.45 16.31C196.589 15.8514 196.821 15.426 197.13 15.06C197.432 14.7033 197.817 14.4254 198.25 14.25C198.744 14.044 199.275 13.9452 199.81 13.96C200.329 13.9457 200.845 14.034 201.33 14.22C201.741 14.3824 202.107 14.6394 202.4 14.97C202.697 15.3159 202.915 15.7218 203.04 16.16C203.19 16.6765 203.264 17.2121 203.26 17.75ZM201.91 17.83C201.913 17.4675 201.88 17.1057 201.81 16.75C201.747 16.435 201.628 16.1337 201.46 15.86C201.296 15.603 201.069 15.3928 200.8 15.25C200.487 15.1021 200.146 15.0269 199.8 15.03C199.456 15.0192 199.114 15.0877 198.8 15.23C198.529 15.3638 198.295 15.5631 198.12 15.81C197.933 16.0745 197.8 16.3737 197.73 16.69C197.639 17.0528 197.595 17.4259 197.6 17.8C197.596 18.1657 197.63 18.531 197.7 18.89C197.761 19.2024 197.88 19.5007 198.05 19.77C198.215 20.0268 198.446 20.2342 198.72 20.37C199.029 20.5274 199.373 20.6064 199.72 20.6C200.064 20.6097 200.406 20.5413 200.72 20.4C200.99 20.2693 201.224 20.0734 201.4 19.83C201.586 19.5639 201.722 19.2655 201.8 18.95C201.883 18.5825 201.923 18.2067 201.92 17.83H201.91ZM215.6 21.35C215.611 21.3823 215.611 21.4176 215.6 21.45C215.57 21.4845 215.532 21.5118 215.49 21.53C215.427 21.5387 215.363 21.5387 215.3 21.53C215.197 21.5413 215.093 21.5413 214.99 21.53C214.884 21.5416 214.776 21.5416 214.67 21.53H214.47C214.426 21.5145 214.388 21.4867 214.36 21.45C214.348 21.4176 214.348 21.3823 214.36 21.35V17.07C214.361 16.798 214.334 16.5266 214.28 16.26C214.24 16.0353 214.155 15.8211 214.03 15.63C213.926 15.4571 213.778 15.3154 213.6 15.22C213.404 15.1245 213.188 15.0766 212.97 15.08C212.644 15.0906 212.33 15.2103 212.08 15.42C211.71 15.715 211.375 16.0505 211.08 16.42V21.34C211.091 21.3723 211.091 21.4076 211.08 21.44C211.05 21.4745 211.012 21.5018 210.97 21.52H210.77C210.667 21.5313 210.563 21.5313 210.46 21.52C210.354 21.5312 210.246 21.5312 210.14 21.52H209.94C209.899 21.5044 209.864 21.4764 209.84 21.44C209.828 21.4076 209.828 21.3723 209.84 21.34V17.06C209.841 16.7879 209.814 16.5165 209.76 16.25C209.708 16.0274 209.62 15.8146 209.5 15.62C209.393 15.4494 209.245 15.3084 209.07 15.21C208.874 15.1145 208.658 15.0666 208.44 15.07C208.114 15.0806 207.8 15.2003 207.55 15.41C207.178 15.7027 206.843 16.0384 206.55 16.41V21.33C206.561 21.3623 206.561 21.3976 206.55 21.43C206.526 21.4664 206.491 21.4944 206.45 21.51H206.25C206.144 21.5216 206.036 21.5216 205.93 21.51C205.827 21.5217 205.723 21.5217 205.62 21.51C205.554 21.5197 205.486 21.5197 205.42 21.51C205.376 21.4945 205.338 21.4667 205.31 21.43C205.298 21.3976 205.298 21.3623 205.31 21.33V14.33C205.299 14.2975 205.299 14.2625 205.31 14.23C205.33 14.1938 205.362 14.1655 205.4 14.15L205.58 14.1H206.16C206.222 14.1064 206.283 14.1233 206.34 14.15C206.376 14.1685 206.407 14.1961 206.43 14.23C206.44 14.2626 206.44 14.2974 206.43 14.33V15.26C206.752 14.8626 207.142 14.5242 207.58 14.26C207.923 14.0595 208.313 13.9526 208.71 13.95C208.977 13.9455 209.243 13.9792 209.5 14.05C209.718 14.1113 209.924 14.2094 210.11 14.34C210.288 14.4548 210.441 14.6044 210.56 14.78C210.692 14.951 210.8 15.1394 210.88 15.34C211.087 15.1107 211.308 14.8937 211.54 14.69C211.73 14.5282 211.934 14.3843 212.15 14.26C212.33 14.1583 212.521 14.0777 212.72 14.02C212.903 13.9721 213.091 13.9486 213.28 13.95C213.674 13.9376 214.065 14.0198 214.42 14.19C214.711 14.341 214.964 14.5565 215.16 14.82C215.354 15.1051 215.493 15.4239 215.57 15.76C215.651 16.1311 215.692 16.51 215.69 16.89V21.34L215.6 21.35ZM219.24 21.35C219.251 21.3823 219.251 21.4176 219.24 21.45C219.216 21.4864 219.181 21.5144 219.14 21.53H218.94C218.834 21.5416 218.726 21.5416 218.62 21.53C218.517 21.5417 218.413 21.5417 218.31 21.53H218.11C218.066 21.5145 218.028 21.4867 218 21.45C217.988 21.4176 217.988 21.3823 218 21.35V14.35C217.99 14.3173 217.99 14.2826 218 14.25C218.028 14.2133 218.066 14.1855 218.11 14.17C218.176 14.1613 218.244 14.1613 218.31 14.17H218.62H218.94C219.006 14.1613 219.074 14.1613 219.14 14.17C219.181 14.1856 219.216 14.2135 219.24 14.25C219.249 14.2827 219.249 14.3172 219.24 14.35V21.35ZM219.39 11.94C219.403 12.0501 219.394 12.1619 219.363 12.2684C219.333 12.375 219.28 12.4742 219.21 12.56C219.029 12.6934 218.804 12.7541 218.58 12.73C218.358 12.7483 218.136 12.692 217.95 12.57C217.821 12.3942 217.764 12.1762 217.79 11.96C217.766 11.7393 217.827 11.5178 217.96 11.34C218.142 11.2074 218.366 11.1468 218.59 11.17C218.812 11.1517 219.034 11.208 219.22 11.33C219.353 11.5038 219.414 11.7223 219.39 11.94ZM226.67 20.27V20.49C226.67 20.56 226.67 20.61 226.67 20.66C226.659 20.7023 226.643 20.7427 226.62 20.78L226.5 20.93L226.17 21.17C226.003 21.2745 225.825 21.3615 225.64 21.43C225.433 21.5122 225.219 21.5726 225 21.61C224.767 21.6618 224.529 21.6886 224.29 21.69C223.828 21.6958 223.369 21.6109 222.94 21.44C222.552 21.2825 222.208 21.0317 221.94 20.71C221.666 20.359 221.462 19.9583 221.34 19.53C221.044 18.4136 221.061 17.2371 221.39 16.13C221.536 15.6811 221.77 15.2661 222.08 14.91C222.358 14.6033 222.699 14.361 223.08 14.2C223.496 14.0451 223.936 13.9672 224.38 13.97C224.598 13.973 224.816 13.9964 225.03 14.04C225.228 14.0754 225.422 14.129 225.61 14.2C225.775 14.2616 225.933 14.3421 226.08 14.44C226.191 14.506 226.295 14.583 226.39 14.67L226.52 14.81L226.58 14.95C226.586 15.0031 226.586 15.0568 226.58 15.11C226.586 15.1899 226.586 15.2701 226.58 15.35C226.592 15.4936 226.568 15.638 226.51 15.77C226.496 15.8043 226.473 15.834 226.443 15.8553C226.413 15.8766 226.377 15.8887 226.34 15.89C226.237 15.8813 226.141 15.835 226.07 15.76C225.946 15.6591 225.815 15.5656 225.68 15.48C225.505 15.3614 225.317 15.264 225.12 15.19C224.866 15.1023 224.599 15.0584 224.33 15.06C224.05 15.0468 223.771 15.1062 223.52 15.2323C223.27 15.3584 223.056 15.5471 222.9 15.78C222.532 16.4049 222.361 17.1264 222.41 17.85C222.405 18.2499 222.445 18.6491 222.53 19.04C222.607 19.3449 222.739 19.633 222.92 19.89C223.074 20.1118 223.284 20.2879 223.53 20.4C223.791 20.5153 224.074 20.5732 224.36 20.57C224.63 20.5735 224.898 20.526 225.15 20.43C225.353 20.3418 225.547 20.2347 225.73 20.11L226.14 19.81C226.211 19.7387 226.301 19.69 226.4 19.67C226.432 19.66 226.467 19.66 226.5 19.67C226.53 19.7004 226.55 19.7385 226.56 19.78C226.572 19.8427 226.572 19.9072 226.56 19.97C226.566 20.0599 226.566 20.1501 226.56 20.24L226.67 20.27ZM232.86 20.99C232.871 21.0763 232.871 21.1637 232.86 21.25C232.847 21.3078 232.831 21.3646 232.81 21.42C232.794 21.4637 232.762 21.4995 232.72 21.52H232.6H228.27C228.219 21.5235 228.169 21.5155 228.122 21.4964C228.075 21.4773 228.033 21.4478 228 21.41C227.918 21.3089 227.878 21.1797 227.89 21.05V20.78C227.884 20.7134 227.884 20.6465 227.89 20.58C227.886 20.5233 227.886 20.4666 227.89 20.41C227.912 20.3462 227.942 20.2857 227.98 20.23L228.11 20.01L231.22 15.19H228.22C228.178 15.1876 228.138 15.1744 228.103 15.1516C228.068 15.1288 228.039 15.0972 228.02 15.06C227.959 14.9285 227.932 14.7844 227.94 14.64C227.934 14.5568 227.934 14.4732 227.94 14.39C227.948 14.3311 227.965 14.2737 227.99 14.22C227.998 14.1996 228.01 14.1811 228.026 14.1656C228.041 14.1502 228.06 14.138 228.08 14.13C228.119 14.1183 228.161 14.1183 228.2 14.13H232.2H232.35C232.393 14.1472 232.43 14.1747 232.46 14.21C232.494 14.2517 232.521 14.299 232.54 14.35C232.546 14.4232 232.546 14.4968 232.54 14.57V14.82C232.545 14.8865 232.545 14.9534 232.54 15.02C232.529 15.0847 232.512 15.1483 232.49 15.21C232.466 15.2761 232.436 15.3397 232.4 15.4C232.4 15.47 232.32 15.54 232.27 15.63L229.18 20.44H232.48H232.6C232.634 20.4627 232.661 20.4937 232.68 20.53C232.709 20.583 232.729 20.6404 232.74 20.7C232.751 20.7829 232.751 20.867 232.74 20.95L232.86 20.99ZM240.75 21.35C240.761 21.3823 240.761 21.4176 240.75 21.45C240.726 21.4864 240.691 21.5144 240.65 21.53H240.45C240.347 21.5413 240.243 21.5413 240.14 21.53C240.034 21.5416 239.926 21.5416 239.82 21.53H239.62C239.579 21.5144 239.544 21.4864 239.52 21.45C239.508 21.4176 239.508 21.3823 239.52 21.35V17.23C239.527 16.8938 239.494 16.558 239.42 16.23C239.369 16.0053 239.277 15.7919 239.15 15.6C239.037 15.4233 238.878 15.2814 238.69 15.19C238.483 15.0948 238.258 15.0469 238.03 15.05C237.668 15.0492 237.316 15.1688 237.03 15.39C236.654 15.6773 236.317 16.0136 236.03 16.39V21.31C236.041 21.3423 236.041 21.3776 236.03 21.41C236.003 21.4443 235.969 21.4717 235.93 21.49H235.73C235.624 21.5016 235.516 21.5016 235.41 21.49C235.304 21.5012 235.196 21.5012 235.09 21.49H234.89C234.849 21.4744 234.814 21.4464 234.79 21.41C234.778 21.3776 234.778 21.3423 234.79 21.31V14.31C234.78 14.2774 234.78 14.2425 234.79 14.21C234.799 14.1911 234.811 14.1743 234.827 14.1606C234.842 14.1468 234.86 14.1364 234.88 14.13L235.06 14.08H235.64C235.702 14.0879 235.763 14.1047 235.82 14.13C235.856 14.1486 235.887 14.1761 235.91 14.21C235.915 14.2431 235.915 14.2769 235.91 14.31V15.24C236.242 14.8361 236.645 14.4971 237.1 14.24C237.461 14.0388 237.867 13.9321 238.28 13.93C238.687 13.9169 239.091 13.9991 239.46 14.17C239.765 14.3178 240.031 14.5332 240.24 14.8C240.445 15.0799 240.588 15.4003 240.66 15.74C240.754 16.1599 240.798 16.5896 240.79 17.02V21.32L240.75 21.35ZM246.01 21.54L245.07 24.13C245.047 24.1778 245.013 24.2197 244.972 24.2526C244.93 24.2855 244.882 24.3086 244.83 24.32C244.642 24.377 244.446 24.4007 244.25 24.39C244.14 24.4012 244.03 24.4012 243.92 24.39C243.854 24.379 243.79 24.3588 243.73 24.33C243.693 24.2951 243.669 24.2496 243.66 24.2C243.649 24.1371 243.649 24.0728 243.66 24.01L244.66 21.56C244.608 21.5389 244.563 21.5044 244.53 21.46C244.484 21.4213 244.452 21.3686 244.44 21.31L241.97 14.57C241.936 14.4871 241.916 14.3993 241.91 14.31C241.909 14.2822 241.914 14.2545 241.924 14.2286C241.934 14.2028 241.95 14.1794 241.97 14.16C242.029 14.1199 242.098 14.0958 242.17 14.09H242.55H242.92C242.992 14.0972 243.062 14.114 243.13 14.14C243.174 14.1555 243.212 14.1833 243.24 14.22C243.267 14.2716 243.29 14.3251 243.31 14.38L245.31 20.03L247.24 14.36C247.252 14.2802 247.295 14.2085 247.36 14.16C247.418 14.1254 247.483 14.1048 247.55 14.1H247.94H248.3C248.371 14.1058 248.44 14.1299 248.5 14.17C248.523 14.1876 248.541 14.2103 248.553 14.2365C248.565 14.2626 248.571 14.2912 248.57 14.32C248.581 14.3996 248.581 14.4804 248.57 14.56L246.04 21.56L246.01 21.54ZM91.5799 33.96C91.5799 33.96 91.5799 34.02 91.5799 34.07V34.22L89.9599 39.47C89.946 39.5096 89.9257 39.5468 89.8999 39.58C89.8672 39.609 89.8301 39.6326 89.7899 39.65C89.7235 39.6578 89.6563 39.6578 89.5899 39.65H88.9699H88.7599C88.7158 39.6412 88.6765 39.6162 88.6499 39.58C88.6217 39.5537 88.604 39.5182 88.5999 39.48L87.4299 35.48L86.3599 39.48C86.346 39.5196 86.3257 39.5568 86.2999 39.59C86.265 39.6211 86.2242 39.6449 86.1799 39.66C86.1101 39.667 86.0397 39.667 85.9699 39.66H85.3499H85.1599C85.1139 39.649 85.0721 39.6246 85.0399 39.59C85.0153 39.5613 84.9981 39.5269 84.9899 39.49L83.3699 34.24C83.3699 34.18 83.3699 34.13 83.3699 34.09C83.3658 34.0534 83.3658 34.0165 83.3699 33.98C83.3642 33.9502 83.3642 33.9197 83.3699 33.89C83.3995 33.8828 83.4303 33.8828 83.4599 33.89C83.5092 33.8785 83.5606 33.8785 83.6099 33.89H84.1299H84.2899L84.3699 33.95C84.3716 33.9833 84.3716 34.0166 84.3699 34.05L85.6999 38.61V38.67V38.61L86.9199 34.05C86.9143 34.0169 86.9143 33.9831 86.9199 33.95C86.9404 33.9228 86.9681 33.902 86.9999 33.89H87.1499H87.6399H87.7899C87.82 33.905 87.847 33.9253 87.8699 33.95C87.8753 33.9797 87.8753 34.0102 87.8699 34.04L89.1899 38.61L90.4999 34.05C90.4943 34.0169 90.4943 33.9831 90.4999 33.95L90.5899 33.89H90.7499H91.2399C91.2857 33.8772 91.3341 33.8772 91.3799 33.89C91.41 33.905 91.4371 33.9253 91.4599 33.95C91.4671 33.9762 91.4671 34.0038 91.4599 34.03L91.5799 33.96ZM97.4299 36.5C97.4357 36.562 97.428 36.6245 97.4073 36.6832C97.3865 36.7419 97.3533 36.7954 97.3099 36.84C97.2306 36.9041 97.1319 36.9393 97.0299 36.94H93.4099C93.4069 37.2192 93.4371 37.4978 93.4999 37.77C93.5516 38.0017 93.6579 38.2177 93.8099 38.4C93.957 38.5795 94.1458 38.7203 94.3599 38.81C94.632 38.9093 94.9203 38.9568 95.2099 38.95C95.4452 38.9542 95.6801 38.9307 95.9099 38.88C96.0893 38.8442 96.2663 38.7975 96.4399 38.74L96.8099 38.6C96.8752 38.5644 96.9463 38.5407 97.0199 38.53C97.0456 38.5199 97.0742 38.5199 97.0999 38.53C97.1118 38.5361 97.1224 38.5446 97.131 38.5549C97.1396 38.5652 97.146 38.5771 97.1499 38.59V38.71C97.1553 38.7698 97.1553 38.8301 97.1499 38.89C97.1556 38.9365 97.1556 38.9835 97.1499 39.03C97.1499 39.03 97.1499 39.1 97.1499 39.13C97.1513 39.16 97.1513 39.19 97.1499 39.22L97.0899 39.29C97.0281 39.3348 96.9609 39.3717 96.8899 39.4C96.7506 39.4608 96.6068 39.5109 96.4599 39.55C96.2591 39.6042 96.0554 39.6476 95.8499 39.68C95.6088 39.721 95.3645 39.7411 95.1199 39.74C94.7153 39.7453 94.3128 39.681 93.9299 39.55C93.5997 39.4299 93.3019 39.2348 93.0599 38.98C92.8189 38.7092 92.6413 38.3881 92.5399 38.04C92.4124 37.6153 92.3517 37.1733 92.3599 36.73C92.3517 36.2957 92.4159 35.8631 92.5499 35.45C92.6475 35.0804 92.8288 34.7382 93.0799 34.45C93.3062 34.1857 93.5901 33.977 93.9099 33.84C94.2523 33.7324 94.6121 33.6917 94.9699 33.72C95.3506 33.7103 95.729 33.7819 96.0799 33.93C96.3707 34.0547 96.6277 34.2466 96.8299 34.49C97.0295 34.7336 97.176 35.0164 97.2599 35.32C97.353 35.6451 97.4002 35.9817 97.3999 36.32V36.51L97.4299 36.5ZM96.4299 36.2C96.4687 35.7515 96.3444 35.3042 96.0799 34.94C95.9415 34.7852 95.7695 34.6642 95.5771 34.5862C95.3847 34.5082 95.177 34.4753 94.9699 34.49C94.7417 34.4817 94.5151 34.5298 94.3099 34.63C94.1263 34.7192 93.9656 34.8492 93.8399 35.01C93.7051 35.1683 93.6032 35.3519 93.5399 35.55C93.4718 35.7601 93.4347 35.9791 93.4299 36.2H96.4299ZM109.55 39.42C109.539 39.4719 109.515 39.5201 109.48 39.56C109.442 39.5945 109.398 39.6217 109.35 39.64H109.13H108.5H108.28C108.235 39.6217 108.194 39.5945 108.16 39.56C108.125 39.5201 108.101 39.4719 108.09 39.42L106.43 33.42L104.9 39.42C104.892 39.471 104.872 39.5192 104.84 39.56C104.806 39.5945 104.765 39.6217 104.72 39.64H104.51H103.85H103.63C103.581 39.6242 103.536 39.5967 103.5 39.56C103.469 39.5176 103.445 39.4703 103.43 39.42L101.33 32.08C101.33 31.99 101.33 31.92 101.33 31.86C101.33 31.8149 101.348 31.7718 101.38 31.74C101.435 31.7209 101.495 31.7209 101.55 31.74H101.87H102.17C102.226 31.732 102.284 31.732 102.34 31.74C102.355 31.7443 102.369 31.7519 102.381 31.7623C102.394 31.7726 102.403 31.7855 102.41 31.8C102.416 31.8364 102.416 31.8735 102.41 31.91L104.19 38.57L105.88 31.93C105.893 31.8886 105.91 31.8484 105.93 31.81C105.936 31.7773 105.95 31.7466 105.97 31.72C106.026 31.7125 106.083 31.7125 106.14 31.72H106.44H106.71C106.766 31.7125 106.823 31.7125 106.88 31.72C106.916 31.735 106.947 31.7591 106.97 31.79C106.973 31.8299 106.973 31.87 106.97 31.91L108.79 38.55L110.53 31.9C110.533 31.8633 110.533 31.8266 110.53 31.79C110.53 31.79 110.53 31.74 110.61 31.72C110.663 31.7124 110.717 31.7124 110.77 31.72H111.06H111.35C111.407 31.726 111.463 31.7467 111.51 31.78C111.52 31.7985 111.525 31.8191 111.525 31.84C111.525 31.8609 111.52 31.8814 111.51 31.9C111.517 31.9731 111.517 32.0468 111.51 32.12L109.4 39.45L109.55 39.42ZM115.88 34.33C115.886 34.4065 115.886 34.4834 115.88 34.56C115.887 34.6064 115.887 34.6536 115.88 34.7C115.872 34.7311 115.854 34.7589 115.83 34.78C115.819 34.7853 115.807 34.788 115.795 34.788C115.783 34.788 115.771 34.7853 115.76 34.78H115.64L115.48 34.73L115.28 34.68C115.2 34.669 115.12 34.669 115.04 34.68C114.937 34.6805 114.835 34.7008 114.74 34.74C114.625 34.791 114.52 34.8621 114.43 34.95C114.305 35.0617 114.191 35.1856 114.09 35.32C113.97 35.48 113.84 35.67 113.7 35.9V39.53C113.71 39.5557 113.71 39.5843 113.7 39.61C113.691 39.6248 113.68 39.6377 113.666 39.648C113.652 39.6583 113.637 39.6658 113.62 39.67C113.57 39.6797 113.519 39.6797 113.47 39.67H112.97H112.81C112.778 39.6585 112.75 39.6376 112.73 39.61C112.724 39.5836 112.724 39.5563 112.73 39.53V34C112.724 33.9736 112.724 33.9463 112.73 33.92C112.749 33.8953 112.773 33.8748 112.8 33.86H112.95H113.4H113.54L113.61 33.92C113.616 33.9463 113.616 33.9736 113.61 34V34.81C113.736 34.6172 113.88 34.4364 114.04 34.27C114.152 34.1484 114.276 34.0379 114.41 33.94C114.517 33.8654 114.635 33.808 114.76 33.77C114.879 33.7552 115 33.7552 115.12 33.77H115.3H115.51L115.71 33.82C115.77 33.82 115.81 33.82 115.83 33.89V33.94V34.01C115.83 34.01 115.83 34.08 115.83 34.14V34.36L115.88 34.33ZM121.97 36.72C121.974 37.1434 121.913 37.5649 121.79 37.97C121.682 38.3355 121.502 38.6756 121.26 38.97C121.018 39.2492 120.718 39.4712 120.38 39.62C119.989 39.7776 119.571 39.8558 119.15 39.85C118.743 39.859 118.339 39.7876 117.96 39.64C117.633 39.5197 117.344 39.3164 117.12 39.05C116.886 38.7813 116.715 38.4635 116.62 38.12C116.498 37.7114 116.441 37.2863 116.45 36.86C116.447 36.4407 116.505 36.0231 116.62 35.62C116.729 35.255 116.909 34.9151 117.15 34.62C117.395 34.347 117.695 34.1289 118.03 33.98C118.812 33.6999 119.668 33.6999 120.45 33.98C120.776 34.1002 121.066 34.3036 121.29 34.57C121.527 34.8417 121.701 35.1628 121.8 35.51C121.914 35.9031 121.972 36.3106 121.97 36.72ZM120.91 36.79C120.909 36.5048 120.883 36.2202 120.83 35.94C120.78 35.6917 120.685 35.4545 120.55 35.24C120.41 35.0149 120.209 34.8345 119.97 34.72C119.714 34.6 119.433 34.5417 119.15 34.55C118.884 34.5416 118.62 34.5965 118.38 34.71C118.165 34.8082 117.982 34.9639 117.85 35.16C117.699 35.3657 117.594 35.6008 117.54 35.85C117.47 36.1346 117.436 36.4269 117.44 36.72C117.435 37.0087 117.462 37.2971 117.52 37.58C117.568 37.826 117.663 38.0603 117.8 38.27C117.929 38.4687 118.104 38.6334 118.31 38.75C118.566 38.87 118.847 38.9282 119.13 38.92C119.422 38.9263 119.712 38.8574 119.97 38.72C120.185 38.6217 120.368 38.466 120.5 38.27C120.65 38.0642 120.756 37.8291 120.81 37.58C120.881 37.2956 120.915 37.0031 120.91 36.71V36.79ZM127.44 38.7C127.44 38.77 127.44 38.83 127.44 38.88C127.445 38.9231 127.445 38.9668 127.44 39.01C127.444 39.0399 127.444 39.0701 127.44 39.1C127.417 39.1479 127.383 39.1892 127.34 39.22C127.258 39.2902 127.172 39.3537 127.08 39.41C126.953 39.4943 126.815 39.5616 126.67 39.61C126.509 39.6764 126.341 39.7266 126.17 39.76C125.986 39.8002 125.798 39.8203 125.61 39.82C125.247 39.825 124.886 39.757 124.55 39.62C124.252 39.4928 123.988 39.2976 123.78 39.05C123.565 38.7733 123.405 38.4574 123.31 38.12C123.196 37.7066 123.142 37.2788 123.15 36.85C123.137 36.3753 123.204 35.9019 123.35 35.45C123.455 35.0812 123.639 34.7398 123.89 34.45C124.117 34.2058 124.398 34.0175 124.71 33.9C125.029 33.7795 125.368 33.7185 125.71 33.72C125.881 33.7218 126.052 33.7385 126.22 33.77C126.377 33.7967 126.532 33.8403 126.68 33.9C126.809 33.9478 126.933 34.0081 127.05 34.08C127.135 34.1284 127.212 34.189 127.28 34.26L127.39 34.38C127.392 34.4133 127.392 34.4467 127.39 34.48V34.61V34.8C127.397 34.9122 127.38 35.0247 127.34 35.13C127.34 35.2 127.26 35.23 127.2 35.23C127.119 35.2181 127.045 35.1793 126.99 35.12L126.69 34.9C126.548 34.8109 126.397 34.7371 126.24 34.68C126.042 34.6036 125.832 34.5663 125.62 34.57C125.401 34.5615 125.184 34.6083 124.988 34.7062C124.792 34.8041 124.624 34.9499 124.5 35.13C124.211 35.6224 124.075 36.1899 124.11 36.76C124.109 37.0727 124.142 37.3847 124.21 37.69C124.268 37.9299 124.369 38.1571 124.51 38.36C124.63 38.5351 124.796 38.6735 124.99 38.76C125.197 38.8552 125.422 38.903 125.65 38.9C125.86 38.9049 126.068 38.8639 126.26 38.78C126.422 38.7184 126.577 38.6378 126.72 38.54L127.05 38.3C127.103 38.2431 127.173 38.2046 127.25 38.19C127.261 38.1853 127.273 38.1829 127.285 38.1829C127.297 38.1829 127.309 38.1853 127.32 38.19C127.32 38.19 127.32 38.19 127.38 38.27C127.44 38.35 127.38 38.36 127.38 38.42C127.38 38.48 127.38 38.55 127.38 38.63L127.44 38.7ZM130.79 33.85C130.795 33.9132 130.795 33.9768 130.79 34.04C130.795 34.0865 130.795 34.1335 130.79 34.18L130.73 34.28C130.707 34.3108 130.676 34.335 130.64 34.35L129.94 34.79V39.55C129.95 39.5757 129.95 39.6043 129.94 39.63C129.924 39.6573 129.899 39.6784 129.87 39.69H129.71H129.21C129.16 39.6997 129.109 39.6997 129.06 39.69C129.043 39.6857 129.028 39.6783 129.014 39.668C129 39.6577 128.989 39.6448 128.98 39.63C128.97 39.6043 128.97 39.5757 128.98 39.55V35.42L128.31 35.84C128.25 35.84 128.19 35.84 128.16 35.84C128.109 35.7344 128.088 35.6167 128.1 35.5C128.094 35.4368 128.094 35.3732 128.1 35.31C128.09 35.2639 128.09 35.2161 128.1 35.17C128.11 35.1339 128.127 35.1 128.15 35.07C128.173 35.0391 128.204 35.015 128.24 35L128.94 34.56V31.37C128.93 31.3442 128.93 31.3157 128.94 31.29C128.947 31.2738 128.958 31.2598 128.972 31.2493C128.986 31.2387 129.002 31.2321 129.02 31.23C129.069 31.2203 129.12 31.2203 129.17 31.23H129.67H129.83C129.845 31.2343 129.859 31.2419 129.871 31.2523C129.884 31.2626 129.893 31.2755 129.9 31.29C129.91 31.3157 129.91 31.3442 129.9 31.37V33.92L130.57 33.5C130.579 33.4893 130.591 33.4808 130.604 33.475C130.617 33.4691 130.631 33.4661 130.645 33.4661C130.659 33.4661 130.673 33.4691 130.686 33.475C130.699 33.4808 130.711 33.4893 130.72 33.5C130.77 33.6095 130.79 33.7301 130.78 33.85H130.79ZM136.05 39.56C136.048 39.6018 136.03 39.6413 136 39.67C135.957 39.6957 135.909 39.7127 135.86 39.72H135.61H135.36C135.31 39.7127 135.263 39.6957 135.22 39.67C135.212 39.6526 135.209 39.6339 135.209 39.615C135.209 39.5961 135.212 39.5774 135.22 39.56V39C134.992 39.2511 134.717 39.455 134.41 39.6C134.117 39.742 133.796 39.8171 133.47 39.82C133.202 39.8238 132.935 39.7833 132.68 39.7C132.457 39.6391 132.251 39.526 132.08 39.37C131.912 39.2289 131.778 39.0509 131.69 38.85C131.595 38.622 131.547 38.377 131.55 38.13C131.542 37.848 131.607 37.5688 131.74 37.32C131.872 37.0864 132.061 36.8902 132.29 36.75C132.559 36.5899 132.853 36.475 133.16 36.41C133.541 36.3295 133.93 36.2925 134.32 36.3H134.97V35.87C134.972 35.6783 134.952 35.4869 134.91 35.3C134.867 35.1489 134.792 35.009 134.69 34.89C134.584 34.7762 134.449 34.6932 134.3 34.65C134.11 34.5854 133.91 34.5549 133.71 34.56C133.483 34.5569 133.258 34.5873 133.04 34.65C132.862 34.7037 132.688 34.7706 132.52 34.85L132.14 35.05C132.076 35.0987 132 35.1298 131.92 35.14H131.84C131.809 35.1205 131.785 35.0928 131.77 35.06C131.763 35.0203 131.763 34.9797 131.77 34.94C131.765 34.8834 131.765 34.8265 131.77 34.77C131.758 34.6904 131.758 34.6095 131.77 34.53C131.785 34.4644 131.82 34.4051 131.87 34.36C131.961 34.2887 132.058 34.2251 132.16 34.17C132.311 34.0901 132.468 34.0232 132.63 33.97C132.816 33.9057 133.006 33.8556 133.2 33.82C133.41 33.8051 133.62 33.8051 133.83 33.82C134.168 33.8112 134.505 33.855 134.83 33.95C135.087 34.0237 135.321 34.1613 135.51 34.35C135.685 34.5329 135.812 34.7562 135.88 35C135.965 35.2921 136.006 35.5956 136 35.9V39.63L136.05 39.56ZM135.05 37.03H134.19C133.948 37.0242 133.706 37.0477 133.47 37.1C133.286 37.1291 133.111 37.201 132.96 37.31C132.83 37.3884 132.726 37.5031 132.66 37.64C132.597 37.7779 132.566 37.9284 132.57 38.08C132.563 38.2075 132.584 38.3351 132.631 38.454C132.677 38.573 132.748 38.6807 132.84 38.77C133.051 38.9494 133.324 39.0391 133.6 39.02C133.861 39.0251 134.117 38.9557 134.34 38.82C134.608 38.652 134.847 38.4428 135.05 38.2V37.03ZM145.55 34.03C145.554 34.0665 145.554 34.1034 145.55 34.14C145.55 34.14 145.55 34.23 145.55 34.29L143.92 39.54C143.91 39.5813 143.889 39.6193 143.86 39.65C143.831 39.6834 143.793 39.7077 143.75 39.72C143.687 39.728 143.623 39.728 143.56 39.72H142.93H142.73C142.686 39.7112 142.647 39.6862 142.62 39.65C142.589 39.6247 142.567 39.5893 142.56 39.55L141.4 35.55L140.32 39.55C140.31 39.5913 140.289 39.6293 140.26 39.66C140.231 39.6934 140.193 39.7177 140.15 39.73C140.08 39.7362 140.01 39.7362 139.94 39.73H139.32H139.12C139.076 39.7212 139.037 39.6962 139.01 39.66C138.986 39.6294 138.965 39.5958 138.95 39.56L137.34 34.31C137.34 34.25 137.34 34.2 137.34 34.16C137.337 34.1234 137.337 34.0866 137.34 34.05C137.33 34.0208 137.33 33.9891 137.34 33.96C137.366 33.9532 137.394 33.9532 137.42 33.96C137.473 33.9476 137.527 33.9476 137.58 33.96H137.97H138.13C138.162 33.972 138.189 33.9928 138.21 34.02V34.12L139.54 38.68L140.76 34.12C140.758 34.0867 140.758 34.0533 140.76 34.02L140.85 33.96H141H141.49H141.64C141.67 33.975 141.697 33.9953 141.72 34.02C141.726 34.0497 141.726 34.0803 141.72 34.11L143.04 38.68V38.74V38.68L144.36 34.12C144.35 34.0873 144.35 34.0526 144.36 34.02C144.38 33.9928 144.408 33.972 144.44 33.96H144.6H145.1C145.146 33.9485 145.194 33.9485 145.24 33.96C145.267 33.9748 145.291 33.9952 145.31 34.02C145.31 34.02 145.31 34.02 145.31 34.1L145.55 34.03ZM147.83 39.57C147.836 39.5963 147.836 39.6236 147.83 39.65C147.81 39.6775 147.782 39.6984 147.75 39.71H147.59H147.09H146.94C146.923 39.7057 146.908 39.6983 146.894 39.688C146.88 39.6777 146.869 39.6648 146.86 39.65C146.85 39.6242 146.85 39.5957 146.86 39.57V34.04C146.851 34.0174 146.851 33.9925 146.86 33.97C146.86 33.97 146.86 33.92 146.94 33.9C146.99 33.8934 147.04 33.8934 147.09 33.9H147.34H147.59C147.643 33.8924 147.697 33.8924 147.75 33.9C147.778 33.9114 147.803 33.9306 147.82 33.9554C147.838 33.9802 147.848 34.0095 147.85 34.04V39.57H147.83ZM147.95 32.18C147.969 32.3553 147.918 32.531 147.81 32.67C147.663 32.7696 147.487 32.8155 147.31 32.8C147.136 32.8204 146.961 32.7739 146.82 32.67C146.768 32.6042 146.73 32.5288 146.708 32.4481C146.685 32.3674 146.679 32.283 146.69 32.2C146.667 32.1133 146.668 32.0221 146.692 31.9357C146.716 31.8493 146.762 31.7707 146.826 31.7079C146.89 31.645 146.969 31.6001 147.056 31.5776C147.142 31.5552 147.234 31.556 147.32 31.58C147.494 31.5574 147.67 31.6041 147.81 31.71C147.863 31.775 147.903 31.8501 147.928 31.9308C147.952 32.0115 147.959 32.0962 147.95 32.18ZM154.42 39.57C154.43 39.5957 154.43 39.6242 154.42 39.65C154.404 39.6773 154.379 39.6984 154.35 39.71H154.2H153.75H153.61C153.58 39.6984 153.556 39.6773 153.54 39.65C153.534 39.6236 153.534 39.5963 153.54 39.57V38.84C153.279 39.1484 152.964 39.406 152.61 39.6C152.324 39.7543 152.005 39.8367 151.68 39.84C151.36 39.847 151.042 39.7821 150.75 39.65C150.508 39.5375 150.298 39.3655 150.14 39.15C149.978 38.9322 149.863 38.6839 149.8 38.42C149.729 38.0915 149.695 37.756 149.7 37.42V34.07C149.694 34.0436 149.694 34.0163 149.7 33.99C149.725 33.9631 149.756 33.9425 149.79 33.93C149.843 33.9219 149.897 33.9219 149.95 33.93H150.44H150.59C150.622 33.942 150.649 33.9628 150.67 33.99C150.68 34.0157 150.68 34.0443 150.67 34.07V37.29C150.663 37.5518 150.686 37.8136 150.74 38.07C150.783 38.2465 150.854 38.4152 150.95 38.57C151.049 38.7022 151.175 38.8113 151.32 38.89C151.483 38.9647 151.661 39.0023 151.84 39C152.112 38.9921 152.375 38.8975 152.59 38.73C152.892 38.5015 153.164 38.2361 153.4 37.94V34.07C153.39 34.0443 153.39 34.0157 153.4 33.99C153.42 33.9628 153.448 33.942 153.48 33.93C153.533 33.9219 153.587 33.9219 153.64 33.93H154.13C154.18 33.9218 154.23 33.9218 154.28 33.93L154.37 33.99C154.38 34.0157 154.38 34.0443 154.37 34.07L154.42 39.57Z" fill="#1D1D1B"/>
</g>
<defs>
<clipPath id="clip0">
<rect width="248.58" height="55.8" fill="white"/>
</clipPath>
</defs>
</svg>
