<svg width="16" height="16" viewBox="0 0 16 16" fill="none" xmlns="http://www.w3.org/2000/svg">
<path d="M15.161 1.05858C15.1266 1.02964 15.085 1.01054 15.0406 1.00328C14.9962 0.996017 14.9507 1.00087 14.9088 1.01733L0.908796 6.51733C0.866852 6.53379 0.830136 6.56128 0.802532 6.59689C0.774927 6.6325 0.757461 6.67491 0.751979 6.71963C0.746498 6.76436 0.753205 6.80973 0.771392 6.85096C0.789579 6.89218 0.818569 6.92772 0.855296 6.95383L3.1158 8.56133L8.8333 5.91333L4.25005 9.36808V14.7501C4.24983 14.7968 4.2627 14.8426 4.28718 14.8823C4.31166 14.9221 4.34679 14.9542 4.38857 14.975C4.43036 14.9958 4.47714 15.0045 4.52362 15.0001C4.5701 14.9957 4.61441 14.9784 4.65155 14.9501L8.24655 12.2101L12.1053 14.9538C12.1475 14.984 12.1981 15.0002 12.25 15.0001C12.2814 15 12.3125 14.9942 12.3418 14.9828C12.3805 14.9675 12.4148 14.9427 12.4415 14.9108C12.4682 14.8788 12.4866 14.8407 12.4948 14.7998L15.2448 1.29983C15.2538 1.2558 15.2508 1.21016 15.236 1.1677C15.2213 1.12525 15.1954 1.08755 15.161 1.05858Z" fill="#1889E9"/>
</svg>
