<svg width="23" height="23" viewBox="0 0 23 23" fill="none" xmlns="http://www.w3.org/2000/svg">
<path d="M11.5 3.25055C14.1867 3.25055 14.5051 3.26097 15.566 3.30913C16.2041 3.31687 16.8362 3.43405 17.4347 3.65556C17.8686 3.82311 18.2627 4.07957 18.5915 4.40846C18.9204 4.73734 19.1769 5.13139 19.3444 5.56528C19.5659 6.1638 19.6831 6.79589 19.6909 7.43403C19.739 8.49491 19.7495 8.81331 19.7495 11.5C19.7495 14.1867 19.739 14.5051 19.6909 15.566C19.6831 16.2041 19.5659 16.8362 19.3444 17.4347C19.1769 17.8686 18.9204 18.2627 18.5915 18.5915C18.2627 18.9204 17.8686 19.1769 17.4347 19.3444C16.8362 19.5659 16.2041 19.6831 15.566 19.6909C14.5051 19.739 14.187 19.7495 11.5 19.7495C8.81295 19.7495 8.49491 19.739 7.43403 19.6909C6.79589 19.6831 6.1638 19.5659 5.56528 19.3444C5.13139 19.1769 4.73734 18.9204 4.40846 18.5915C4.07957 18.2627 3.82311 17.8686 3.65556 17.4347C3.43405 16.8362 3.31687 16.2041 3.30913 15.566C3.26097 14.5051 3.25055 14.1867 3.25055 11.5C3.25055 8.81331 3.26097 8.49491 3.30913 7.43403C3.31687 6.79589 3.43405 6.1638 3.65556 5.56528C3.82311 5.13139 4.07957 4.73734 4.40846 4.40846C4.73734 4.07957 5.13139 3.82311 5.56528 3.65556C6.1638 3.43405 6.79589 3.31687 7.43403 3.30913C8.49491 3.26097 8.81331 3.25055 11.5 3.25055ZM11.5 1.4375C8.76875 1.4375 8.42447 1.449 7.35137 1.49788C6.51623 1.5143 5.68993 1.67227 4.90762 1.96506C4.23938 2.22392 3.63255 2.61945 3.12597 3.12634C2.61939 3.63323 2.22423 4.2403 1.96578 4.9087C1.67299 5.69101 1.51502 6.51731 1.49859 7.35245C1.449 8.42447 1.4375 8.76875 1.4375 11.5C1.4375 14.2312 1.449 14.5755 1.49788 15.6486C1.5143 16.4838 1.67227 17.3101 1.96506 18.0924C2.22371 18.7607 2.61908 19.3677 3.12584 19.8745C3.63261 20.3813 4.23961 20.7766 4.90798 21.0353C5.69029 21.3281 6.51659 21.4861 7.35173 21.5025C8.42447 21.551 8.76875 21.5625 11.5 21.5625C14.2312 21.5625 14.5755 21.551 15.6486 21.5021C16.4838 21.4857 17.3101 21.3277 18.0924 21.0349C18.7607 20.7763 19.3677 20.3809 19.8745 19.8742C20.3813 19.3674 20.7766 18.7604 21.0353 18.092C21.3281 17.3097 21.4861 16.4834 21.5025 15.6483C21.551 14.5755 21.5625 14.2312 21.5625 11.5C21.5625 8.76875 21.551 8.42447 21.5021 7.35137C21.4857 6.51623 21.3277 5.68993 21.0349 4.90762C20.7761 4.23938 20.3805 3.63255 19.8737 3.12597C19.3668 2.61939 18.7597 2.22423 18.0913 1.96578C17.309 1.67299 16.4827 1.51502 15.6475 1.49859C14.5755 1.449 14.2312 1.4375 11.5 1.4375Z" fill="white"/>
<path d="M11.4999 6.33289C10.4779 6.33289 9.4789 6.63593 8.62918 7.2037C7.77945 7.77147 7.11717 8.57845 6.72609 9.52262C6.335 10.4668 6.23268 11.5057 6.43205 12.508C6.63142 13.5103 7.12354 14.431 7.84617 15.1537C8.5688 15.8763 9.48949 16.3684 10.4918 16.5678C11.4941 16.7672 12.5331 16.6648 13.4772 16.2737C14.4214 15.8827 15.2284 15.2204 15.7961 14.3707C16.3639 13.5209 16.667 12.5219 16.667 11.5C16.667 10.1296 16.1226 8.81531 15.1535 7.84629C14.1845 6.87727 12.8703 6.33289 11.4999 6.33289ZM11.4999 14.854C10.8365 14.854 10.188 14.6573 9.63645 14.2888C9.08488 13.9202 8.65498 13.3964 8.40112 12.7835C8.14726 12.1706 8.08084 11.4963 8.21026 10.8456C8.33968 10.195 8.65912 9.59738 9.12819 9.12831C9.59726 8.65924 10.1949 8.3398 10.8455 8.21038C11.4961 8.08096 12.1705 8.14738 12.7834 8.40124C13.3963 8.6551 13.9201 9.085 14.2886 9.63657C14.6572 10.1881 14.8539 10.8366 14.8539 11.5C14.854 11.9405 14.7672 12.3766 14.5987 12.7836C14.4302 13.1905 14.1831 13.5603 13.8716 13.8718C13.5602 14.1832 13.1904 14.4303 12.7835 14.5988C12.3765 14.7673 11.9403 14.8541 11.4999 14.854Z" fill="white"/>
<path d="M16.8713 7.33626C17.5382 7.33626 18.0788 6.79565 18.0788 6.12876C18.0788 5.46188 17.5382 4.92126 16.8713 4.92126C16.2044 4.92126 15.6638 5.46188 15.6638 6.12876C15.6638 6.79565 16.2044 7.33626 16.8713 7.33626Z" fill="white"/>
<path fill-rule="evenodd" clip-rule="evenodd" d="M7.35137 1.49788C8.42447 1.449 8.76875 1.4375 11.5 1.4375C14.2312 1.4375 14.5755 1.449 15.6475 1.49859C16.4827 1.51502 17.309 1.67299 18.0913 1.96578C18.7597 2.22423 19.3668 2.61939 19.8737 3.12597C20.3805 3.63255 20.7761 4.23938 21.0349 4.90762C21.3277 5.68993 21.4857 6.51623 21.5021 7.35137C21.551 8.42447 21.5625 8.76875 21.5625 11.5C21.5625 14.2312 21.551 14.5755 21.5025 15.6483C21.4861 16.4834 21.3281 17.3097 21.0353 18.092C20.7766 18.7604 20.3813 19.3674 19.8745 19.8742C19.3677 20.3809 18.7607 20.7763 18.0924 21.0349C17.3101 21.3277 16.4838 21.4857 15.6486 21.5021C14.5755 21.551 14.2312 21.5625 11.5 21.5625C8.76875 21.5625 8.42447 21.551 7.35173 21.5025C6.51659 21.4861 5.69029 21.3281 4.90798 21.0353C4.23961 20.7766 3.63261 20.3813 3.12584 19.8745C2.61908 19.3677 2.22371 18.7607 1.96506 18.0924C1.67227 17.3101 1.5143 16.4838 1.49788 15.6486C1.449 14.5755 1.4375 14.2312 1.4375 11.5C1.4375 8.76875 1.449 8.42447 1.49859 7.35245C1.51502 6.51731 1.67299 5.69101 1.96578 4.9087C2.22423 4.2403 2.61939 3.63323 3.12597 3.12634C3.63255 2.61945 4.23938 2.22392 4.90762 1.96506C5.68993 1.67227 6.51623 1.5143 7.35137 1.49788Z" fill="white"/>
<path d="M11.4999 6.33289C10.4779 6.33289 9.4789 6.63593 8.62918 7.2037C7.77945 7.77147 7.11717 8.57846 6.72609 9.52262C6.335 10.4668 6.23268 11.5057 6.43205 12.508C6.63142 13.5103 7.12354 14.431 7.84617 15.1537C8.5688 15.8763 9.48949 16.3684 10.4918 16.5678C11.4941 16.7672 12.5331 16.6648 13.4772 16.2738C14.4214 15.8827 15.2284 15.2204 15.7961 14.3707C16.3639 13.5209 16.667 12.5219 16.667 11.5C16.667 10.1296 16.1226 8.81531 15.1535 7.84629C14.1845 6.87727 12.8703 6.33289 11.4999 6.33289ZM11.4999 14.854C10.8365 14.854 10.188 14.6573 9.63645 14.2888C9.08488 13.9202 8.65498 13.3964 8.40112 12.7835C8.14726 12.1706 8.08084 11.4963 8.21026 10.8456C8.33968 10.195 8.65912 9.59738 9.12819 9.12831C9.59726 8.65924 10.1949 8.3398 10.8455 8.21038C11.4961 8.08096 12.1705 8.14738 12.7834 8.40124C13.3963 8.6551 13.9201 9.085 14.2886 9.63657C14.6572 10.1881 14.8539 10.8366 14.8539 11.5C14.854 11.9405 14.7672 12.3766 14.5987 12.7836C14.4302 13.1905 14.1831 13.5603 13.8716 13.8718C13.5602 14.1832 13.1904 14.4303 12.7835 14.5988C12.3765 14.7674 11.9403 14.8541 11.4999 14.854Z" fill="#1889E9"/>
<path d="M17.1885 6.86056C17.8553 6.86056 18.396 6.31994 18.396 5.65306C18.396 4.98617 17.8553 4.44556 17.1885 4.44556C16.5216 4.44556 15.981 4.98617 15.981 5.65306C15.981 6.31994 16.5216 6.86056 17.1885 6.86056Z" fill="#1889E9"/>
</svg>
