<svg width="24" height="24" viewBox="0 0 24 24" fill="none" xmlns="http://www.w3.org/2000/svg">
<path d="M12 3.39188C14.8035 3.39188 15.1357 3.40275 16.2428 3.453C16.9086 3.46109 17.5682 3.58336 18.1927 3.8145C18.6455 3.98934 19.0567 4.25694 19.3999 4.60013C19.7431 4.94332 20.0107 5.35449 20.1855 5.80725C20.4166 6.43179 20.5389 7.09136 20.547 7.75725C20.5972 8.86425 20.6081 9.1965 20.6081 12C20.6081 14.8035 20.5972 15.1357 20.547 16.2428C20.5389 16.9086 20.4166 17.5682 20.1855 18.1927C20.0107 18.6455 19.7431 19.0567 19.3999 19.3999C19.0567 19.7431 18.6455 20.0107 18.1927 20.1855C17.5682 20.4166 16.9086 20.5389 16.2428 20.547C15.1357 20.5972 14.8039 20.6081 12 20.6081C9.19613 20.6081 8.86425 20.5972 7.75725 20.547C7.09136 20.5389 6.43179 20.4166 5.80725 20.1855C5.35449 20.0107 4.94332 19.7431 4.60013 19.3999C4.25694 19.0567 3.98934 18.6455 3.8145 18.1927C3.58336 17.5682 3.46109 16.9086 3.453 16.2428C3.40275 15.1357 3.39188 14.8035 3.39188 12C3.39188 9.1965 3.40275 8.86425 3.453 7.75725C3.46109 7.09136 3.58336 6.43179 3.8145 5.80725C3.98934 5.35449 4.25694 4.94332 4.60013 4.60013C4.94332 4.25694 5.35449 3.98934 5.80725 3.8145C6.43179 3.58336 7.09136 3.46109 7.75725 3.453C8.86425 3.40275 9.1965 3.39188 12 3.39188ZM12 1.5C9.15 1.5 8.79075 1.512 7.671 1.563C6.79955 1.58014 5.93732 1.74498 5.121 2.0505C4.4237 2.32061 3.79048 2.73334 3.26188 3.26227C2.73328 3.79119 2.32094 4.42466 2.05125 5.12213C1.74573 5.93845 1.58089 6.80067 1.56375 7.67212C1.512 8.79075 1.5 9.15 1.5 12C1.5 14.85 1.512 15.2092 1.563 16.329C1.58014 17.2004 1.74498 18.0627 2.0505 18.879C2.3204 19.5764 2.73295 20.2098 3.26175 20.7386C3.79055 21.2674 4.42394 21.68 5.12137 21.9499C5.93769 22.2554 6.79992 22.4202 7.67138 22.4374C8.79075 22.488 9.15 22.5 12 22.5C14.85 22.5 15.2092 22.488 16.329 22.437C17.2004 22.4199 18.0627 22.255 18.879 21.9495C19.5764 21.6796 20.2098 21.267 20.7386 20.7382C21.2674 20.2094 21.68 19.5761 21.9499 18.8786C22.2554 18.0623 22.4202 17.2001 22.4374 16.3286C22.488 15.2092 22.5 14.85 22.5 12C22.5 9.15 22.488 8.79075 22.437 7.671C22.4199 6.79955 22.255 5.93732 21.9495 5.121C21.6794 4.4237 21.2667 3.79048 20.7377 3.26188C20.2088 2.73328 19.5753 2.32094 18.8779 2.05125C18.0616 1.74573 17.1993 1.58089 16.3279 1.56375C15.2093 1.512 14.85 1.5 12 1.5Z" fill="#1A2847"/>
<path d="M12 6.60815C10.9336 6.60815 9.8912 6.92437 9.00453 7.51683C8.11786 8.10928 7.42679 8.95136 7.0187 9.93657C6.61061 10.9218 6.50384 12.0059 6.71188 13.0518C6.91992 14.0977 7.43344 15.0584 8.18749 15.8124C8.94154 16.5665 9.90225 17.08 10.9482 17.2881C11.994 17.4961 13.0781 17.3893 14.0634 16.9812C15.0486 16.5731 15.8906 15.8821 16.4831 14.9954C17.0756 14.1087 17.3918 13.0663 17.3918 11.9999C17.3918 10.5699 16.8237 9.19851 15.8126 8.18736C14.8014 7.17621 13.43 6.60815 12 6.60815ZM12 15.4998C11.3078 15.4998 10.6312 15.2945 10.0556 14.9099C9.48005 14.5254 9.03146 13.9788 8.76657 13.3392C8.50167 12.6997 8.43236 11.996 8.5674 11.3171C8.70245 10.6382 9.03578 10.0146 9.52524 9.52512C10.0147 9.03565 10.6383 8.70232 11.3172 8.56728C11.9961 8.43223 12.6999 8.50154 13.3394 8.76644C13.9789 9.03134 14.5255 9.47993 14.9101 10.0555C15.2946 10.631 15.4999 11.3077 15.4999 11.9999C15.5 12.4595 15.4095 12.9147 15.2336 13.3393C15.0577 13.764 14.7999 14.1498 14.4749 14.4748C14.1499 14.7998 13.7641 15.0576 13.3394 15.2335C12.9148 15.4093 12.4597 15.4998 12 15.4998Z" fill="#1A2847"/>
<path d="M17.6047 7.65525C18.3006 7.65525 18.8647 7.09113 18.8647 6.39525C18.8647 5.69938 18.3006 5.13525 17.6047 5.13525C16.9088 5.13525 16.3447 5.69938 16.3447 6.39525C16.3447 7.09113 16.9088 7.65525 17.6047 7.65525Z" fill="#1A2847"/>
<path d="M7.671 1.563C8.79075 1.512 9.15 1.5 12 1.5C14.85 1.5 15.2092 1.512 16.3279 1.56375C17.1993 1.58089 18.0616 1.74573 18.8779 2.05125C19.5753 2.32094 20.2088 2.73328 20.7377 3.26188C21.2667 3.79048 21.6794 4.4237 21.9495 5.121C22.255 5.93732 22.4199 6.79955 22.437 7.671C22.488 8.79075 22.5 9.15 22.5 12C22.5 14.85 22.488 15.2092 22.4374 16.3286C22.4202 17.2001 22.2554 18.0623 21.9499 18.8786C21.68 19.5761 21.2674 20.2094 20.7386 20.7382C20.2098 21.267 19.5764 21.6796 18.879 21.9495C18.0627 22.255 17.2004 22.4199 16.329 22.437C15.2092 22.488 14.85 22.5 12 22.5C9.15 22.5 8.79075 22.488 7.67138 22.4374C6.79992 22.4202 5.93769 22.2554 5.12137 21.9499C4.42394 21.68 3.79055 21.2674 3.26175 20.7386C2.73295 20.2098 2.3204 19.5764 2.0505 18.879C1.74498 18.0627 1.58014 17.2004 1.563 16.329C1.512 15.2092 1.5 14.85 1.5 12C1.5 9.15 1.512 8.79075 1.56375 7.67212C1.58089 6.80067 1.74573 5.93844 2.05125 5.12213C2.32094 4.42466 2.73328 3.79119 3.26188 3.26227C3.79048 2.73334 4.4237 2.32061 5.121 2.0505C5.93732 1.74498 6.79955 1.58014 7.671 1.563Z" fill="#1A2847"/>
<path d="M19.1958 5.89867C19.1958 6.59455 18.6317 7.15867 17.9358 7.15867C17.2399 7.15867 16.6758 6.59455 16.6758 5.89867C16.6758 5.20279 17.2399 4.63867 17.9358 4.63867C18.6317 4.63867 19.1958 5.20279 19.1958 5.89867Z" fill="white"/>
<path fill-rule="evenodd" clip-rule="evenodd" d="M9.00453 7.51711C9.8912 6.92466 10.9336 6.60844 12 6.60844C13.43 6.60844 14.8014 7.1765 15.8126 8.18765C16.8237 9.1988 17.3918 10.5702 17.3918 12.0002C17.3918 13.0666 17.0756 14.109 16.4831 14.9957C15.8907 15.8824 15.0486 16.5734 14.0634 16.9815C13.0781 17.3896 11.994 17.4964 10.9482 17.2883C9.90225 17.0803 8.94154 16.5668 8.18749 15.8127C7.43344 15.0587 6.91992 14.098 6.71188 13.0521C6.50384 12.0062 6.61061 10.9221 7.0187 9.93686C7.42679 8.95164 8.11786 8.10957 9.00453 7.51711ZM10.0556 14.9102C10.6312 15.2948 11.3078 15.5001 12 15.5001C12.4597 15.5001 12.9148 15.4096 13.3394 15.2338C13.7641 15.0579 14.1499 14.8001 14.4749 14.4751C14.7999 14.1501 15.0577 13.7642 15.2336 13.3396C15.4095 12.9149 15.5 12.4598 15.4999 12.0002C15.4999 11.308 15.2946 10.6313 14.9101 10.0558C14.5255 9.48021 13.9789 9.03162 13.3394 8.76673C12.6999 8.50183 11.9961 8.43252 11.3172 8.56756C10.6383 8.70261 10.0147 9.03594 9.52524 9.5254C9.03578 10.0149 8.70245 10.6385 8.5674 11.3174C8.43236 11.9963 8.50167 12.7 8.76657 13.3395C9.03146 13.9791 9.48005 14.5257 10.0556 14.9102Z" fill="white"/>
</svg>
