<svg width="84" height="48" viewBox="0 0 84 48" fill="none" xmlns="http://www.w3.org/2000/svg">
<g clip-path="url(#clip0)">
<path d="M15.7803 40.7729C15.8023 40.6945 15.8062 40.6121 15.7917 40.532C15.7772 40.4519 15.7447 40.3762 15.6967 40.3106C15.6487 40.245 15.5865 40.1913 15.5147 40.1535C15.4429 40.1157 15.3635 40.0949 15.2825 40.0927L8.64171 40.1177C8.61255 40.1182 8.58368 40.1118 8.55748 40.0989C8.53128 40.086 8.50849 40.0671 8.49099 40.0437C8.47349 40.0202 8.46179 39.993 8.45684 39.9641C8.45188 39.9352 8.45381 39.9055 8.46249 39.8776L10.9764 31.4049L13.4157 23.4024C13.445 23.3242 13.4543 23.2399 13.4427 23.1571C13.4312 23.0743 13.3993 22.9958 13.3498 22.9286C13.3003 22.8615 13.2348 22.8079 13.1593 22.7727C13.0839 22.7375 13.0009 22.7219 12.9179 22.7272H6.08297C5.95346 22.7264 5.82708 22.7673 5.7223 22.8437C5.61752 22.9202 5.53982 23.0283 5.50054 23.1523L0.786308 38.047C0.134181 39.8976 -0.413416 42.0483 0.497571 44.0839C2.14531 47.8151 5.0326 47.9401 10.0356 47.9151C14.1176 47.8251 14.6602 44.6291 15.7803 40.7729Z" fill="white"/>
<path d="M45.4003 33.2003L50.8313 36.8715C50.934 36.9446 51.0603 36.9759 51.185 36.9592C51.3097 36.9425 51.4234 36.879 51.5034 36.7814C52.3447 35.7811 54.6296 33.0203 54.8686 32.7802C55.7945 33.9205 56.2525 37.6117 55.1175 39.2472C54.9719 39.4453 54.7832 39.6072 54.5658 39.7208C54.3483 39.8344 54.108 39.8965 53.863 39.9024L47.3118 40.2075C47.1402 40.2159 46.9751 40.2763 46.8383 40.3808C46.7014 40.4852 46.5993 40.6288 46.5452 40.7927L44.32 47.5548C44.3042 47.6005 44.2995 47.6494 44.3062 47.6973C44.3129 47.7452 44.3308 47.7909 44.3586 47.8305C44.3863 47.87 44.423 47.9024 44.4656 47.9249C44.5083 47.9475 44.5556 47.9595 44.6038 47.9599C51.6677 48.13 59.8616 48.6702 62.6493 40.9177C64.755 35.0609 62.4253 31.0697 60.23 26.4482C60.126 26.2299 60.0776 25.9891 60.0889 25.7473C60.1001 25.5056 60.1709 25.2704 60.2947 25.0628L62.3805 21.5617C62.4077 21.5153 62.4249 21.4638 62.4311 21.4103C62.4372 21.3569 62.4322 21.3027 62.4162 21.2514C62.4003 21.2 62.3738 21.1526 62.3385 21.1121C62.3032 21.0717 62.2598 21.0391 62.2112 21.0165L56.5063 18.3357C56.3542 18.2649 56.1824 18.2491 56.02 18.291C55.8576 18.333 55.7146 18.43 55.6153 18.5658C52.947 22.2919 46.5452 31.0697 45.3156 32.7652C45.2756 32.8359 45.2622 32.9187 45.2777 32.9985C45.2932 33.0784 45.3367 33.15 45.4003 33.2003Z" fill="white"/>
<path d="M65.9296 32.8194L71.3607 36.4905C71.4633 36.5636 71.5897 36.5949 71.7144 36.5782C71.839 36.5615 71.9528 36.498 72.0328 36.4005C72.8691 35.4001 75.154 32.6393 75.393 32.3992C76.3189 33.5396 76.7769 37.2307 75.6419 38.8663C75.4965 39.0646 75.3079 39.2267 75.0904 39.3403C74.8729 39.4539 74.6324 39.5159 74.3874 39.5215L67.8363 39.8265C67.6646 39.8349 67.4995 39.8953 67.3627 39.9998C67.2259 40.1042 67.1237 40.2478 67.0696 40.4117L64.8444 47.1738C64.8286 47.2196 64.8239 47.2684 64.8306 47.3163C64.8373 47.3642 64.8552 47.4099 64.883 47.4495C64.9107 47.4891 64.9474 47.5214 64.99 47.544C65.0327 47.5665 65.08 47.5785 65.1282 47.579C72.1921 47.749 80.386 48.2892 83.1737 40.5368C85.2794 34.6799 82.9497 30.6887 80.7543 26.0672C80.6534 25.8481 80.6065 25.6078 80.6178 25.3666C80.6291 25.1254 80.6981 24.8905 80.8191 24.6818L82.9049 21.1807C82.9322 21.1347 82.9497 21.0834 82.9562 21.0302C82.9627 20.977 82.9581 20.923 82.9426 20.8717C82.9272 20.8203 82.9012 20.7728 82.8664 20.7322C82.8316 20.6915 82.7888 20.6586 82.7406 20.6356L77.0308 17.9547C76.8786 17.8839 76.7068 17.8681 76.5444 17.9101C76.382 17.952 76.239 18.049 76.1397 18.1848C73.4714 21.9109 67.0696 30.6887 65.84 32.3842C65.8006 32.4555 65.7879 32.5386 65.8043 32.6185C65.8208 32.6984 65.8653 32.7697 65.9296 32.8194Z" fill="white"/>
<path d="M14.6502 17.9056C19.922 13.2292 13.4555 5.42676 8.03438 9.79813C2.46392 14.4096 9.67715 22.152 14.6502 17.9056Z" fill="white"/>
<path d="M27.5684 39.2822C31.3716 44.0487 28.2106 47.3248 40.0136 47.8399C40.1845 47.8505 40.354 47.8037 40.4955 47.7068C40.637 47.6099 40.7424 47.4685 40.7951 47.3048L42.8909 40.7527C42.9111 40.6809 42.915 40.6054 42.9024 40.5318C42.8898 40.4582 42.861 40.3884 42.818 40.3275C42.775 40.2666 42.7191 40.2161 42.6541 40.1798C42.5892 40.1434 42.517 40.1222 42.4429 40.1175L37.4947 40.0125C37.1761 40.0086 36.8655 39.9121 36.6005 39.7346C36.3354 39.557 36.1273 39.3061 36.0012 39.0122L34.5078 35.5111C34.7268 35.316 34.7866 35.296 35.0753 35.0759L44.8224 27.6836C45.0089 27.5408 45.1314 27.3295 45.1631 27.0961C45.1948 26.8626 45.1332 26.6261 44.9916 26.4382L41.3726 21.6117C41.2745 21.4812 41.1294 21.3944 40.9684 21.3701C40.8074 21.3458 40.6433 21.3859 40.5114 21.4817C38.8039 22.6971 33.328 26.6983 31.1177 28.4589C31.0779 27.4586 33.6317 19.8712 34.244 18.0206L39.685 0.190038C39.6919 0.165789 39.6931 0.140291 39.6886 0.11549C39.6841 0.0906898 39.674 0.0672373 39.6592 0.046957C39.6443 0.0266766 39.6249 0.0100926 39.6027 -0.0015201C39.5804 -0.0131328 39.5558 -0.0194492 39.5307 -0.0200195L32.5614 0.0349903C32.3961 0.0353375 32.2354 0.0889792 32.1027 0.188023C31.9701 0.287066 31.8726 0.426267 31.8246 0.58515C28.3699 12.0087 20.6837 34.5208 16.9601 47.2247C16.936 47.3015 16.9307 47.3831 16.9446 47.4624C16.9586 47.5417 16.9914 47.6164 17.0402 47.6803C17.0891 47.7441 17.1526 47.7952 17.2253 47.829C17.2981 47.8629 17.3778 47.8787 17.4579 47.875H24.1285C24.2862 47.8743 24.4401 47.8263 24.5705 47.7372C24.7009 47.6481 24.8018 47.5219 24.8603 47.3748C25.5622 45.5192 27.0357 40.8677 27.5684 39.2822Z" fill="white"/>
</g>
<defs>
<clipPath id="clip0">
<rect width="84" height="48" fill="white"/>
</clipPath>
</defs>
</svg>
