<svg width="23" height="23" viewBox="0 0 23 23" fill="none" xmlns="http://www.w3.org/2000/svg">
<path d="M20.3939 7.82155C20.3939 7.82155 20.2213 6.55584 19.6747 5.98053C18.9843 5.26138 18.1789 5.23261 17.8337 5.20385C15.216 5.03125 11.3613 5.03125 11.3613 5.03125C11.3613 5.03125 7.50671 5.03125 4.91778 5.20385C4.54382 5.23261 3.76714 5.26138 3.07676 5.98053C2.53021 6.52708 2.35761 7.82155 2.35761 7.82155C2.35761 7.82155 2.15625 9.31737 2.15625 10.8132V12.2227C2.15625 13.7186 2.32885 15.2144 2.32885 15.2144C2.32885 15.2144 2.50144 16.4801 3.04799 17.0554C3.73838 17.7746 4.65889 17.7746 5.09038 17.8321C6.55744 17.9759 11.3613 18.0047 11.3613 18.0047C11.3613 18.0047 15.216 18.0047 17.8049 17.8033C18.1789 17.7746 18.9556 17.7458 19.6459 17.0266C20.1925 16.4801 20.3651 15.1856 20.3651 15.1856C20.3651 15.1856 20.5664 13.6898 20.5664 12.194V10.7844C20.5664 9.31737 20.3939 7.82155 20.3939 7.82155ZM9.4628 13.8912V8.71329L14.4393 11.3022L9.4628 13.8912Z" fill="white"/>
</svg>
