<svg width="12" height="12" viewBox="0 0 12 12" fill="none" xmlns="http://www.w3.org/2000/svg">
<path d="M11.2 0H0.8C0.587827 0 0.384344 0.0842855 0.234315 0.234315C0.0842855 0.384344 0 0.587827 0 0.8V11.2C0 11.4122 0.0842855 11.6157 0.234315 11.7657C0.384344 11.9157 0.587827 12 0.8 12H11.2C11.4122 12 11.6157 11.9157 11.7657 11.7657C11.9157 11.6157 12 11.4122 12 11.2V0.8C12 0.587827 11.9157 0.384344 11.7657 0.234315C11.6157 0.0842855 11.4122 0 11.2 0ZM3.5548 10.2376H1.7496V4.5H3.5548V10.2376ZM2.652 3.7124C2.44447 3.71177 2.24178 3.64965 2.06953 3.53389C1.89728 3.41813 1.76319 3.25392 1.68421 3.06201C1.60523 2.87009 1.58489 2.65907 1.62577 2.4556C1.66664 2.25213 1.7669 2.06534 1.91387 1.91881C2.06084 1.77229 2.24794 1.6726 2.45153 1.63235C2.65512 1.59209 2.86608 1.61307 3.05775 1.69264C3.24943 1.7722 3.41323 1.90678 3.52846 2.07939C3.6437 2.25199 3.7052 2.45487 3.7052 2.6624C3.70525 2.80057 3.67802 2.9374 3.62508 3.06502C3.57213 3.19265 3.4945 3.30856 3.39665 3.40611C3.2988 3.50367 3.18265 3.58094 3.05486 3.6335C2.92708 3.68606 2.79017 3.71287 2.652 3.7124ZM10.2484 10.2376H8.48V7.4624C8.48 6.7876 8.48 5.9624 7.54 5.9624C6.6 5.9624 6.4868 6.6752 6.4868 7.4248V10.2752H4.72V4.5H6.3744V5.2876H6.412C6.58263 4.9926 6.83023 4.74953 7.12833 4.58438C7.42643 4.41923 7.76381 4.33822 8.1044 4.35C9.9096 4.35 10.248 5.55 10.248 7.0876L10.2484 10.2376Z" fill="#1889E9"/>
</svg>
