<svg width="19" height="14" viewBox="0 0 19 14" fill="none" xmlns="http://www.w3.org/2000/svg">
<path d="M18.3939 2.82155C18.3939 2.82155 18.2213 1.55584 17.6747 0.980526C16.9843 0.261378 16.1789 0.232612 15.8337 0.203846C13.216 0.0312501 9.36135 0.03125 9.36135 0.03125C9.36135 0.03125 5.50671 0.0312501 2.91778 0.203846C2.54382 0.232612 1.76714 0.261378 1.07676 0.980526C0.530207 1.52708 0.357612 2.82155 0.357612 2.82155C0.357612 2.82155 0.15625 4.31737 0.15625 5.8132V7.22273C0.15625 8.71856 0.328846 10.2144 0.328846 10.2144C0.328846 10.2144 0.501441 11.4801 1.04799 12.0554C1.73838 12.7746 2.65889 12.7746 3.09038 12.8321C4.55744 12.9759 9.36135 13.0047 9.36135 13.0047C9.36135 13.0047 13.216 13.0047 15.8049 12.8033C16.1789 12.7746 16.9556 12.7458 17.6459 12.0266C18.1925 11.4801 18.3651 10.1856 18.3651 10.1856C18.3651 10.1856 18.5664 8.6898 18.5664 7.19397V5.78444C18.5664 4.31737 18.3939 2.82155 18.3939 2.82155ZM7.4628 8.89116V3.71329L12.4393 6.30222L7.4628 8.89116Z" fill="white"/>
</svg>
