<svg width="14" height="10" viewBox="0 0 14 10" fill="none" xmlns="http://www.w3.org/2000/svg">
<path d="M13.187 2.44108C13.187 2.44108 13.067 1.56059 12.6868 1.16037C12.2065 0.660089 11.6462 0.640078 11.406 0.620067C9.58503 0.5 6.90355 0.5 6.90355 0.5C6.90355 0.5 4.22206 0.5 2.42106 0.620067C2.16092 0.640078 1.62062 0.660089 1.14035 1.16037C0.760144 1.54058 0.640078 2.44108 0.640078 2.44108C0.640078 2.44108 0.5 3.48165 0.5 4.52223V5.50277C0.5 6.54335 0.620067 7.58393 0.620067 7.58393C0.620067 7.58393 0.740133 8.46441 1.12034 8.86463C1.60061 9.36491 2.24096 9.36491 2.54113 9.40493C3.5617 9.50499 6.90355 9.525 6.90355 9.525C6.90355 9.525 9.58503 9.525 11.386 9.38492C11.6462 9.36491 12.1865 9.3449 12.6667 8.84462C13.047 8.46441 13.167 7.56391 13.167 7.56391C13.167 7.56391 13.3071 6.52334 13.3071 5.48276V4.50222C13.3071 3.48165 13.187 2.44108 13.187 2.44108ZM5.58282 6.66341V3.06142L9.04473 4.86242L5.58282 6.66341Z" fill="#1889E9"/>
</svg>
