<svg width="16" height="16" viewBox="0 0 16 16" fill="none" xmlns="http://www.w3.org/2000/svg">
<path d="M0.641239 8.2219C1.26008 8.08137 1.09982 7.03157 0.38187 7.20218C-0.250773 7.35307 -0.0510683 8.37871 0.641239 8.2219Z" fill="#1889E9"/>
<path d="M15.9781 7.9216C15.943 8.22288 15.9435 8.51331 15.8868 8.80917C15.6363 10.1055 14.8079 11.2194 13.9716 12.214C13.8015 12.4162 13.2838 12.9019 13.016 13C13.2473 12.3821 13.3972 11.7899 13.3252 11.0828C12.0431 11.7461 10.3927 12.1455 8.59147 12.1455C4.51257 12.1455 1.20488 10.0976 1.20488 7.57199C1.2055 7.32201 1.23967 7.07324 1.30646 6.83235C1.02588 6.59221 0.911978 6.26578 0.908033 5.87032C0.90646 5.52218 1.04315 5.18765 1.28807 4.94024C1.53299 4.69282 1.86611 4.55275 2.21425 4.55079C2.38924 4.5523 2.56221 4.5885 2.72312 4.6573C2.77243 4.67751 2.80004 4.68688 2.83604 4.70661C4.19008 3.66617 6.26504 3 8.59147 3C12.6699 3 15.9776 5.04783 15.9776 7.57298V7.92209L15.9781 7.9216Z" fill="#1889E9"/>
<path d="M6.07746 8.71507H6.01463H5.76838H5.29787L5.56301 7.82401L5.8348 6.93448H5.01433L4.51674 8.50126C4.44981 8.69052 4.39361 8.91047 4.4871 9.11815C4.6562 9.50025 4.95251 9.51304 5.46594 9.51049C5.72598 9.51049 5.83735 9.39846 5.90632 9.23733C5.91756 9.21073 5.92778 9.18618 5.93697 9.15703C5.98806 9.00971 6.02382 8.86034 6.07746 8.71149V8.71507Z" fill="white"/>
<path d="M9.11768 7.9882L9.74402 8.4102C9.75542 8.39813 9.766 8.38532 9.77569 8.37184L10.1195 7.96262C10.2304 8.09868 10.2758 8.58974 10.0725 8.68795L9.28423 8.7253L9.02368 9.51406C9.75781 9.52991 10.6263 9.60306 10.918 8.79486C11.1454 8.16518 10.8695 7.74625 10.6355 7.2424L10.9124 6.77539L10.2319 6.45671L9.51668 7.43422L9.44158 7.53653L9.39815 7.59535C9.35422 7.65418 9.31131 7.71556 9.26584 7.77694L9.24183 7.80865L9.18205 7.89305L9.1468 7.94165L9.12688 7.97132L9.12126 7.98103C9.12026 7.98319 9.11906 7.98524 9.11768 7.98717V7.9882Z" fill="white"/>
<path d="M5.94101 6.44599C6.48203 5.96772 5.8184 5.16975 5.26206 5.61681C5.21194 5.6534 5.17043 5.70055 5.14047 5.75493C4.80687 6.291 5.52618 6.81275 5.94101 6.44599Z" fill="white"/>
<path d="M11.2296 7.93398L11.856 8.35599C11.8672 8.3439 11.8776 8.33109 11.8871 8.31762L12.231 7.90841C12.3423 8.04447 12.3878 8.53553 12.1845 8.63374L11.3962 8.67108L11.1351 9.45984C11.8693 9.4757 12.7378 9.54885 13.03 8.74013C13.2573 8.11097 12.9814 7.69203 12.747 7.18819L13.0244 6.72117L12.3439 6.4025L11.6286 7.38001L11.5541 7.48231L11.5106 7.54114C11.4667 7.59996 11.4238 7.66134 11.3778 7.72273L11.3543 7.75444L11.2945 7.83884L11.2593 7.88743L11.2394 7.9171L11.2337 7.92682C11.2324 7.92875 11.2312 7.93081 11.2302 7.93296L11.2296 7.93398Z" fill="white"/>
<path d="M7.26675 8.63219C7.66371 9.12734 7.32193 9.46546 8.60321 9.50945L8.85865 8.71864L8.57 8.7125L8.17509 8.70483L7.97841 8.24446L8.00344 8.224C8.00906 8.2194 8.01928 8.21428 8.03665 8.20047L9.10949 7.38972L8.64561 6.77334L8.63029 6.78357L8.41367 6.94265L8.24253 7.06899L8.2083 7.09355L8.14393 7.13856C8.10613 7.16567 8.06781 7.19329 8.03103 7.22092L7.92885 7.29764C7.79807 7.39637 7.68925 7.48639 7.63203 7.52629C7.62794 7.42399 7.89002 6.64853 7.95286 6.45926L8.51789 4.6178H8.43258L8.11941 4.62036L7.72348 4.62343C7.62897 5.04952 6.98271 6.82858 6.79675 7.48179L6.16071 9.5161H6.96942C7.02715 9.38413 7.20698 8.81685 7.26778 8.6368L7.26675 8.63219Z" fill="white"/>
</svg>
