<svg width="36" height="39" viewBox="0 0 36 39" fill="none" xmlns="http://www.w3.org/2000/svg">
<path d="M0.998019 18.238C0.998019 18.238 -0.261228 16.4025 1.57536 15.1444C3.40972 13.8863 4.66786 15.7206 4.66786 15.7206L10.5091 24.2395C10.7105 23.9035 10.9307 23.572 11.1766 23.245L3.06932 11.4234C3.06932 11.4234 1.81119 9.58904 3.64667 8.3309C5.48103 7.07277 6.73916 8.90713 6.73916 8.90713L14.3647 20.0279C14.6484 19.7965 14.9387 19.564 15.238 19.336L6.39765 6.44203C6.39765 6.44203 5.13952 4.60767 6.97499 3.34953C8.80936 2.0914 10.0675 3.92576 10.0675 3.92576L18.9078 16.8175C19.2326 16.6183 19.5541 16.4459 19.8767 16.2635L11.6137 4.21388C11.6137 4.21388 10.3556 2.37951 12.19 1.12138C14.0243 -0.136755 15.2825 1.69761 15.2825 1.69761L24.0193 14.4391L25.3475 16.377C19.8433 20.1525 19.3194 27.2552 22.4642 31.8417C23.0927 32.7594 24.0104 32.1309 24.0104 32.1309C20.236 26.6256 21.3885 20.4395 26.8938 16.6651L25.2708 8.54226C25.2708 8.54226 24.6645 6.40199 26.8037 5.79461C28.944 5.18835 29.5513 7.32862 29.5513 7.32862L31.4257 12.8951C32.1688 15.1021 32.9598 17.3014 34.0065 19.3816C36.9622 25.2551 35.1968 32.5547 29.6236 36.3781C23.5443 40.5463 15.2335 38.9967 11.0642 32.9185L0.998019 18.238Z" fill="#FFDC5D"/>
</svg>
