<svg width="26" height="19" viewBox="0 0 26 19" fill="none" xmlns="http://www.w3.org/2000/svg">
<path d="M25.3741 3.88215C25.3741 3.88215 25.1339 2.12118 24.3735 1.32073C23.413 0.320177 22.2923 0.280155 21.8121 0.240133C18.1701 1.4313e-07 12.8071 0 12.8071 0C12.8071 0 7.44412 1.4313e-07 3.84213 0.240133C3.32184 0.280155 2.24124 0.320177 1.28071 1.32073C0.520288 2.08115 0.280155 3.88215 0.280155 3.88215C0.280155 3.88215 0 5.9633 0 8.04446V10.0055C0 12.0867 0.240133 14.1679 0.240133 14.1679C0.240133 14.1679 0.480266 15.9288 1.24069 16.7293C2.20122 17.7298 3.48193 17.7298 4.08226 17.8099C6.12339 18.01 12.8071 18.05 12.8071 18.05C12.8071 18.05 18.1701 18.05 21.7721 17.7698C22.2923 17.7298 23.3729 17.6898 24.3335 16.6892C25.0939 15.9288 25.334 14.1278 25.334 14.1278C25.334 14.1278 25.6142 12.0467 25.6142 9.96552V8.00443C25.6142 5.9633 25.3741 3.88215 25.3741 3.88215ZM10.1656 12.3268V5.12284L17.0895 8.72483L10.1656 12.3268Z" fill="#1889E9"/>
</svg>
