<svg width="22" height="23" viewBox="0 0 22 23" fill="none" xmlns="http://www.w3.org/2000/svg">
<path d="M0.799055 10.543C0.799055 10.543 0.0435072 9.44174 1.14546 8.68686C2.24608 7.93197 3.00096 9.03259 3.00096 9.03259L6.50571 14.1439C6.62652 13.9423 6.75868 13.7434 6.90618 13.5472L2.04184 6.45425C2.04184 6.45425 1.28696 5.35363 2.38824 4.59875C3.48886 3.84387 4.24374 4.94449 4.24374 4.94449L8.81908 11.6169C8.98928 11.4781 9.16348 11.3386 9.34303 11.2018L4.03884 3.46543C4.03884 3.46543 3.28395 2.36481 4.38524 1.60993C5.48586 0.855051 6.24074 1.95567 6.24074 1.95567L11.5449 9.69069C11.7398 9.57122 11.9327 9.46777 12.1263 9.3583L7.16849 2.12854C7.16849 2.12854 6.41361 1.02792 7.51422 0.273039C8.61484 -0.481842 9.36972 0.618775 9.36972 0.618775L14.6118 8.26369L15.4088 9.42638C12.1062 11.6917 11.7919 15.9533 13.6788 18.7052C14.0559 19.2559 14.6065 18.8787 14.6065 18.8787C12.3419 15.5756 13.0333 11.8639 16.3365 9.59925L15.3627 4.72557C15.3627 4.72557 14.999 3.4414 16.2825 3.07698C17.5666 2.71322 17.931 3.99738 17.931 3.99738L19.0557 7.33728C19.5015 8.66149 19.9761 9.98103 20.6042 11.2292C22.3776 14.7533 21.3183 19.133 17.9744 21.4271C14.3268 23.928 9.34036 22.9982 6.83877 19.3513L0.799055 10.543Z" fill="#FFDC5D"/>
</svg>
