<svg width="17" height="16" viewBox="0 0 17 16" fill="none" xmlns="http://www.w3.org/2000/svg">
<path d="M15.4333 0H1.56667C1.28377 0 1.01246 0.112381 0.81242 0.31242C0.612381 0.512458 0.5 0.783769 0.5 1.06667V14.9333C0.5 15.2162 0.612381 15.4875 0.81242 15.6876C1.01246 15.8876 1.28377 16 1.56667 16H15.4333C15.7162 16 15.9875 15.8876 16.1876 15.6876C16.3876 15.4875 16.5 15.2162 16.5 14.9333V1.06667C16.5 0.783769 16.3876 0.512458 16.1876 0.31242C15.9875 0.112381 15.7162 0 15.4333 0ZM5.23973 13.6501H2.8328V6H5.23973V13.6501ZM4.036 4.94987C3.75929 4.94902 3.48903 4.8662 3.25937 4.71185C3.0297 4.55751 2.85092 4.33856 2.74562 4.08267C2.64031 3.82678 2.61319 3.54543 2.66769 3.27413C2.72219 3.00284 2.85586 2.75379 3.05182 2.55842C3.24779 2.36305 3.49725 2.23014 3.76871 2.17646C4.04016 2.12279 4.32144 2.15076 4.57701 2.25685C4.83257 2.36294 5.05097 2.54238 5.20462 2.77251C5.35826 3.00265 5.44027 3.27316 5.44027 3.54987C5.44034 3.7341 5.40403 3.91653 5.33344 4.0867C5.26284 4.25686 5.15933 4.41141 5.02887 4.54149C4.8984 4.67156 4.74353 4.77459 4.57315 4.84467C4.40277 4.91475 4.22023 4.9505 4.036 4.94987ZM14.1645 13.6501H11.8067V9.94987C11.8067 9.05013 11.8067 7.94987 10.5533 7.94987C9.3 7.94987 9.14907 8.90027 9.14907 9.89974V13.7003H6.79333V6H8.9992V7.05013H9.04934C9.27684 6.6568 9.60697 6.33271 10.0044 6.11251C10.4019 5.89231 10.8518 5.78429 11.3059 5.8C13.7128 5.8 14.164 7.4 14.164 9.45014L14.1645 13.6501Z" fill="#1889E9"/>
</svg>
