<svg width="19" height="18" viewBox="0 0 19 18" fill="none" xmlns="http://www.w3.org/2000/svg">
<path d="M17.3 0H1.7C1.38174 0 1.07652 0.126428 0.851472 0.351472C0.626428 0.576516 0.5 0.88174 0.5 1.2V16.8C0.5 17.1183 0.626428 17.4235 0.851472 17.6485C1.07652 17.8736 1.38174 18 1.7 18H17.3C17.6183 18 17.9235 17.8736 18.1485 17.6485C18.3736 17.4235 18.5 17.1183 18.5 16.8V1.2C18.5 0.88174 18.3736 0.576516 18.1485 0.351472C17.9235 0.126428 17.6183 0 17.3 0ZM5.8322 15.3564H3.1244V6.75H5.8322V15.3564ZM4.478 5.5686C4.1667 5.56765 3.86266 5.47447 3.60429 5.30083C3.34591 5.1272 3.14479 4.88088 3.02632 4.59301C2.90784 4.30513 2.87734 3.9886 2.93865 3.6834C2.99996 3.3782 3.15035 3.09801 3.3708 2.87822C3.59126 2.65843 3.87191 2.5089 4.17729 2.44852C4.48268 2.38814 4.79912 2.41961 5.08663 2.53895C5.37414 2.6583 5.61984 2.86018 5.79269 3.11908C5.96555 3.37798 6.0578 3.6823 6.0578 3.9936C6.05788 4.20086 6.01704 4.40609 5.93761 4.59753C5.85819 4.78897 5.74175 4.96284 5.59497 5.10917C5.4482 5.2555 5.27397 5.37141 5.08229 5.45025C4.89062 5.52909 4.68526 5.56931 4.478 5.5686ZM15.8726 15.3564H13.22V11.1936C13.22 10.1814 13.22 8.9436 11.81 8.9436C10.4 8.9436 10.2302 10.0128 10.2302 11.1372V15.4128H7.58V6.75H10.0616V7.9314H10.118C10.3739 7.4889 10.7453 7.12429 11.1925 6.87657C11.6396 6.62885 12.1457 6.50732 12.6566 6.525C15.3644 6.525 15.872 8.325 15.872 10.6314L15.8726 15.3564Z" fill="white"/>
</svg>
