<svg width="20" height="14" viewBox="0 0 20 14" fill="none" xmlns="http://www.w3.org/2000/svg">
<path d="M18.8939 2.82155C18.8939 2.82155 18.7213 1.55584 18.1747 0.980526C17.4843 0.261378 16.6789 0.232612 16.3337 0.203846C13.716 0.0312501 9.86135 0.03125 9.86135 0.03125C9.86135 0.03125 6.00671 0.0312501 3.41778 0.203846C3.04382 0.232612 2.26714 0.261378 1.57676 0.980526C1.03021 1.52708 0.857612 2.82155 0.857612 2.82155C0.857612 2.82155 0.65625 4.31737 0.65625 5.8132V7.22273C0.65625 8.71856 0.828846 10.2144 0.828846 10.2144C0.828846 10.2144 1.00144 11.4801 1.54799 12.0554C2.23838 12.7746 3.15889 12.7746 3.59038 12.8321C5.05744 12.9759 9.86135 13.0047 9.86135 13.0047C9.86135 13.0047 13.716 13.0047 16.3049 12.8033C16.6789 12.7746 17.4556 12.7458 18.1459 12.0266C18.6925 11.4801 18.8651 10.1856 18.8651 10.1856C18.8651 10.1856 19.0664 8.6898 19.0664 7.19397V5.78444C19.0664 4.31737 18.8939 2.82155 18.8939 2.82155ZM7.9628 8.89116V3.71329L12.9393 6.30222L7.9628 8.89116Z" fill="white"/>
</svg>
