<svg width="18" height="13" viewBox="0 0 18 13" fill="none" xmlns="http://www.w3.org/2000/svg">
<path d="M17.7495 2.5881C17.7495 2.5881 17.5894 1.41412 17.0825 0.880488C16.4421 0.213452 15.6951 0.18677 15.3749 0.160089C12.9469 9.54203e-08 9.37156 0 9.37156 0C9.37156 0 5.79625 9.54203e-08 3.39492 0.160089C3.04806 0.18677 2.32766 0.213452 1.6873 0.880488C1.18035 1.38744 1.02027 2.5881 1.02027 2.5881C1.02027 2.5881 0.833496 3.97554 0.833496 5.36297V6.67036C0.833496 8.0578 0.993585 9.44523 0.993585 9.44523C0.993585 9.44523 1.15367 10.6192 1.66062 11.1528C2.30098 11.8199 3.15478 11.8199 3.555 11.8732C4.91576 12.0067 9.37156 12.0333 9.37156 12.0333C9.37156 12.0333 12.9469 12.0333 15.3482 11.8466C15.6951 11.8199 16.4155 11.7932 17.0558 11.1262C17.5628 10.6192 17.7229 9.41855 17.7229 9.41855C17.7229 9.41855 17.9096 8.03112 17.9096 6.64368V5.33629C17.9096 3.97554 17.7495 2.5881 17.7495 2.5881ZM7.61058 8.21789V3.41523L12.2265 5.81656L7.61058 8.21789Z" fill="#1889E9"/>
</svg>
